<svg xmlns="http://www.w3.org/2000/svg" width="64" height="64" viewBox="0 0 64 64">
  <defs>
    <radialGradient id="bg" cx="30%" cy="28%" r="75%">
      <stop offset="0%" stop-color="#fff8f2"/>
      <stop offset="65%" stop-color="#f6e6d8"/>
      <stop offset="100%" stop-color="#dcc7b5"/>
    </radialGradient>
    <radialGradient id="skin" cx="35%" cy="32%" r="75%">
      <stop offset="0%" stop-color="#ffe8cd"/>
      <stop offset="100%" stop-color="#e0ab82"/>
    </radialGradient>
    <linearGradient id="cap" x1="0" y1="0" x2="0" y2="1">
      <stop offset="0%" stop-color="#ffffff"/>
      <stop offset="100%" stop-color="#e3e3e3"/>
    </linearGradient>
    <linearGradient id="vest" x1="0" y1="0" x2="0" y2="1">
      <stop offset="0%" stop-color="#4c74ff"/>
      <stop offset="100%" stop-color="#2f45aa"/>
    </linearGradient>
  </defs>
  <circle cx="32" cy="32" r="30" fill="url(#bg)"/>
  <ellipse cx="32" cy="58" rx="13" ry="4" fill="#7c6a5b" opacity="0.24"/>
  <path d="M17 52c1-8 6-12 15-12s14 4 15 12" fill="url(#vest)"/>
  <ellipse cx="32" cy="14" rx="17" ry="10" fill="url(#cap)"/>
  <circle cx="20" cy="14" r="6.5" fill="#ff5b5b"/>
  <circle cx="44" cy="14" r="6.5" fill="#ff5b5b"/>
  <circle cx="32" cy="14" r="5.8" fill="#ff5b5b"/>
  <circle cx="32" cy="30" r="12.5" fill="url(#skin)"/>
  <ellipse cx="27" cy="30" rx="1.8" ry="2.8" fill="#1a2c54"/>
  <ellipse cx="37" cy="30" rx="1.8" ry="2.8" fill="#1a2c54"/>
  <ellipse cx="32" cy="33" rx="2" ry="1.5" fill="#d7966f"/>
  <path d="M26 36.5c1.5 1 3 1.5 6 1.5s4.5-.5 6-1.5" fill="none" stroke="#8a553d" stroke-width="1.4" stroke-linecap="round"/>
</svg>