<svg xmlns="http://www.w3.org/2000/svg" width="64" height="64" viewBox="0 0 64 64">
  <defs>
    <radialGradient id="bg" cx="30%" cy="28%" r="75%">
      <stop offset="0%" stop-color="#f6fbff"/>
      <stop offset="65%" stop-color="#d8e8ff"/>
      <stop offset="100%" stop-color="#b7cff5"/>
    </radialGradient>
    <linearGradient id="cap" x1="0" y1="0" x2="0" y2="1">
      <stop offset="0%" stop-color="#ff5a57"/>
      <stop offset="100%" stop-color="#be1f2f"/>
    </linearGradient>
    <radialGradient id="skin" cx="35%" cy="30%" r="70%">
      <stop offset="0%" stop-color="#ffe9cb"/>
      <stop offset="100%" stop-color="#e3a97d"/>
    </radialGradient>
    <linearGradient id="shirt" x1="0" y1="0" x2="0" y2="1">
      <stop offset="0%" stop-color="#e6453f"/>
      <stop offset="100%" stop-color="#a2262a"/>
    </linearGradient>
    <linearGradient id="overall" x1="0" y1="0" x2="0" y2="1">
      <stop offset="0%" stop-color="#5aa0ff"/>
      <stop offset="100%" stop-color="#2850a8"/>
    </linearGradient>
  </defs>
  <circle cx="32" cy="32" r="30" fill="url(#bg)"/>
  <ellipse cx="32" cy="58" rx="14" ry="4" fill="#5f6b87" opacity="0.28"/>
  <path d="M16 52c1-8 7-12 16-12s15 4 16 12" fill="url(#shirt)"/>
  <path d="M20 52v-7c0-4 5-7 12-7s12 3 12 7v7z" fill="url(#overall)"/>
  <circle cx="32" cy="29" r="13" fill="url(#skin)"/>
  <ellipse cx="32" cy="13" rx="14" ry="6" fill="url(#cap)"/>
  <path d="M18 13c1-5 7-9 14-9s13 4 14 9v6H18z" fill="url(#cap)"/>
  <circle cx="32" cy="13" r="4" fill="#fff"/>
  <text x="32" y="14.8" font-size="4.3" text-anchor="middle" font-family="Arial" fill="#bd202f" font-weight="700">M</text>
  <ellipse cx="27" cy="28" rx="2" ry="3" fill="#1a2c56"/>
  <ellipse cx="37" cy="28" rx="2" ry="3" fill="#1a2c56"/>
  <ellipse cx="32" cy="31" rx="2.4" ry="1.8" fill="#d78f66"/>
  <path d="M24 35c1-2 3-3 8-3s7 1 8 3c-2 2-4 3-8 3s-6-1-8-3z" fill="#5b3828"/>
  <path d="M25 40c2 2 4 3 7 3s5-1 7-3" fill="none" stroke="#824b35" stroke-width="1.7" stroke-linecap="round"/>
</svg>