<svg xmlns="http://www.w3.org/2000/svg" width="64" height="64" viewBox="0 0 64 64">
  <defs>
    <radialGradient id="bg" cx="30%" cy="28%" r="75%">
      <stop offset="0%" stop-color="#fff6fd"/>
      <stop offset="65%" stop-color="#f7dff0"/>
      <stop offset="100%" stop-color="#e6c5e0"/>
    </radialGradient>
    <radialGradient id="skin" cx="35%" cy="30%" r="70%">
      <stop offset="0%" stop-color="#ffe9d4"/>
      <stop offset="100%" stop-color="#e2ae8a"/>
    </radialGradient>
    <linearGradient id="hair" x1="0" y1="0" x2="0" y2="1">
      <stop offset="0%" stop-color="#f2c461"/>
      <stop offset="100%" stop-color="#cf8f33"/>
    </linearGradient>
    <linearGradient id="dress" x1="0" y1="0" x2="0" y2="1">
      <stop offset="0%" stop-color="#ff8ac2"/>
      <stop offset="100%" stop-color="#da4c8c"/>
    </linearGradient>
  </defs>
  <circle cx="32" cy="32" r="30" fill="url(#bg)"/>
  <ellipse cx="32" cy="58" rx="14" ry="4" fill="#7a5d7b" opacity="0.25"/>
  <path d="M17 52c1-8 6-12 15-12s14 4 15 12" fill="url(#dress)"/>
  <path d="M22 19c2-5 6-8 10-8s8 3 10 8c-2 5-4 7-10 7s-8-2-10-7z" fill="url(#hair)"/>
  <circle cx="32" cy="29" r="12.5" fill="url(#skin)"/>
  <ellipse cx="27" cy="28" rx="1.8" ry="2.6" fill="#223a6c"/>
  <ellipse cx="37" cy="28" rx="1.8" ry="2.6" fill="#223a6c"/>
  <ellipse cx="32" cy="31" rx="2.1" ry="1.6" fill="#d89b77"/>
  <path d="M27 35c1 1 2 1 5 1s4 0 5-1" fill="none" stroke="#c76e83" stroke-width="1.5" stroke-linecap="round"/>
  <circle cx="23" cy="22" r="2.4" fill="#f0c163"/>
  <circle cx="41" cy="22" r="2.4" fill="#f0c163"/>
  <path d="M26 13h12l-2.2 4h-7.6z" fill="#f0d96e"/>
  <circle cx="32" cy="12" r="1.4" fill="#8fc8ff"/>
</svg>