<svg xmlns="http://www.w3.org/2000/svg" width="64" height="64" viewBox="0 0 64 64">
  <defs>
    <radialGradient id="bg" cx="30%" cy="28%" r="75%">
      <stop offset="0%" stop-color="#fffce9"/>
      <stop offset="65%" stop-color="#f5e8b7"/>
      <stop offset="100%" stop-color="#dbc88f"/>
    </radialGradient>
    <linearGradient id="cap" x1="0" y1="0" x2="0" y2="1">
      <stop offset="0%" stop-color="#f7dc57"/>
      <stop offset="100%" stop-color="#d1b127"/>
    </linearGradient>
    <radialGradient id="skin" cx="35%" cy="30%" r="70%">
      <stop offset="0%" stop-color="#ffe4c7"/>
      <stop offset="100%" stop-color="#d8a277"/>
    </radialGradient>
    <linearGradient id="shirt" x1="0" y1="0" x2="0" y2="1">
      <stop offset="0%" stop-color="#9d62d6"/>
      <stop offset="100%" stop-color="#6a2f9f"/>
    </linearGradient>
  </defs>
  <circle cx="32" cy="32" r="30" fill="url(#bg)"/>
  <ellipse cx="32" cy="58" rx="14" ry="4" fill="#706344" opacity="0.24"/>
  <path d="M16 52c1-8 7-12 16-12s15 4 16 12" fill="url(#shirt)"/>
  <circle cx="32" cy="29" r="13" fill="url(#skin)"/>
  <ellipse cx="32" cy="13" rx="14" ry="6" fill="url(#cap)"/>
  <path d="M18 13c1-5 7-9 14-9s13 4 14 9v6H18z" fill="url(#cap)"/>
  <circle cx="32" cy="13" r="4" fill="#fff6c9"/>
  <text x="32" y="14.8" font-size="4.3" text-anchor="middle" font-family="Arial" fill="#8f7c18" font-weight="700">W</text>
  <ellipse cx="27" cy="28" rx="2" ry="3" fill="#1d2f54"/>
  <ellipse cx="37" cy="28" rx="2" ry="3" fill="#1d2f54"/>
  <ellipse cx="32" cy="31" rx="2.4" ry="1.8" fill="#ce8a61"/>
  <path d="M23 35c1-2 4-3 9-3s8 1 9 3c-2 2-5 3-9 3s-7-1-9-3z" fill="#643822"/>
  <path d="M26 40c2 2 4 2 6 2s4 0 6-2" fill="none" stroke="#7d452f" stroke-width="1.6" stroke-linecap="round"/>
</svg>