<svg xmlns="http://www.w3.org/2000/svg" width="64" height="64" viewBox="0 0 64 64">
  <defs>
    <radialGradient id="bg" cx="30%" cy="28%" r="75%">
      <stop offset="0%" stop-color="#f2fff5"/>
      <stop offset="65%" stop-color="#d6f3de"/>
      <stop offset="100%" stop-color="#b3dfc0"/>
    </radialGradient>
    <linearGradient id="skin" x1="0" y1="0" x2="0" y2="1">
      <stop offset="0%" stop-color="#f7ffef"/>
      <stop offset="100%" stop-color="#8ec89a"/>
    </linearGradient>
    <linearGradient id="hood" x1="0" y1="0" x2="0" y2="1">
      <stop offset="0%" stop-color="#72db74"/>
      <stop offset="100%" stop-color="#2e9a4c"/>
    </linearGradient>
  </defs>
  <circle cx="32" cy="32" r="30" fill="url(#bg)"/>
  <ellipse cx="32" cy="58" rx="13" ry="4" fill="#4d7559" opacity="0.24"/>
  <path d="M17 52c1-8 6-12 15-12s14 4 15 12" fill="#47b05f"/>
  <path d="M19 24c0-10 6-16 13-16s13 6 13 16c0 8-4 15-13 15s-13-7-13-15z" fill="url(#hood)"/>
  <ellipse cx="34" cy="27" rx="11" ry="10" fill="url(#skin)"/>
  <ellipse cx="31" cy="26" rx="1.7" ry="2.4" fill="#1a3b2c"/>
  <ellipse cx="38" cy="26" rx="1.7" ry="2.4" fill="#1a3b2c"/>
  <ellipse cx="41" cy="28" rx="3.5" ry="3" fill="#d6f7d0"/>
  <circle cx="42" cy="28" r="1.4" fill="#1a3b2c"/>
  <path d="M31 33c1 1 2 1 4 1s3 0 4-1" fill="none" stroke="#3a7a4e" stroke-width="1.4" stroke-linecap="round"/>
</svg>