<?xml version="1.0" encoding="UTF-8"?>
<svg xmlns="http://www.w3.org/2000/svg" xmlns:xlink="http://www.w3.org/1999/xlink" width="2836" height="2835" viewBox="0 0 2836 2835">
<path fill-rule="evenodd" fill="rgb(100%, 100%, 100%)" fill-opacity="1" d="M 1 0.351562 L 2835.640625 0.351562 L 2835.640625 2835 L 1 2835 L 1 0.351562 "/>
<path fill-rule="evenodd" fill="rgb(84.959412%, 12.988281%, 12.988281%)" fill-opacity="1" d="M 1385.890625 389.390625 C 1661.359375 355.378906 1929.921875 570.648438 1963.570312 874.460938 C 1997.570312 1181.328125 1748.03125 1437.328125 1479.769531 1457.28125 C 1161.03125 1480.988281 925.046875 1254.398438 896.507812 969.171875 C 880.390625 808.078125 950.417969 650.519531 1028.820312 568.179688 C 1133.621094 458.101562 1225.730469 409.171875 1385.890625 389.390625 Z M 409.710938 1658.261719 C 407.757812 1677.050781 422.519531 1701.710938 431.859375 1719.109375 C 437.617188 1729.828125 442.925781 1739.53125 447.230469 1746.550781 C 447.84375 1747.550781 449.558594 1750.421875 450.242188 1751.371094 C 456.484375 1760.03125 451.199219 1752.921875 455.816406 1757.941406 C 478.792969 1782.960938 522.613281 1840.476562 580.933594 1808.480469 C 588.570312 1804.289062 595.546875 1797.089844 603.023438 1790.910156 C 611.316406 1784.058594 620.398438 1779.03125 629.382812 1773.53125 C 776.832031 1683.308594 918.589844 1662.761719 1081.628906 1628.75 C 1269.269531 1589.601562 1520.160156 1583.550781 1712.648438 1605.371094 C 1847.328125 1620.640625 2168.5 1691.460938 2271.699219 1764.929688 C 2282.03125 1772.289062 2288.261719 1774.460938 2297.878906 1782.128906 C 2346.179688 1820.660156 2358.96875 1822.820312 2409.429688 1778.691406 C 2426.878906 1763.429688 2443.109375 1747.910156 2438.328125 1722.871094 C 2436.191406 1709.691406 2423.648438 1694.851562 2413.640625 1678.28125 C 2382.648438 1627 2361.988281 1592.671875 2338.789062 1531.769531 C 2261.300781 1328.371094 2235.558594 1108.710938 2258.128906 888.429688 C 2265.890625 812.671875 2287.78125 843.390625 2242.871094 777.679688 C 2158.449219 654.148438 2070.261719 570.070312 1934.230469 493.089844 C 1802.480469 418.53125 1616.609375 379.019531 1459.960938 374.988281 C 1122.640625 366.289062 800.492188 582.140625 653.996094 750.738281 C 557.710938 861.550781 591.148438 811.210938 601.261719 963.398438 C 623.269531 1294.671875 413.863281 1639.199219 409.710938 1658.261719 "/>
<path fill-rule="evenodd" fill="rgb(100%, 100%, 100%)" fill-opacity="1" d="M 1380.210938 427.820312 C 1123.519531 451.839844 905.191406 683.269531 935.21875 975.289062 C 961.5625 1231.53125 1190.019531 1447.308594 1479.648438 1418.800781 C 1737.039062 1393.46875 1953.171875 1163.679688 1925.109375 873.878906 C 1899.980469 614.421875 1670.71875 400.640625 1380.210938 427.820312 "/>
<path fill-rule="evenodd" fill="rgb(96.09375%, 92.96875%, 83.984375%)" fill-opacity="1" d="M 1207.011719 1804.730469 C 1266.339844 1783.140625 1266.78125 1920.539062 1266.769531 1967.761719 C 1266.761719 2021.503906 1264.449219 2138.773438 1221.121094 2153.015625 C 1144.050781 2178.347656 1156.609375 1930.046875 1163.46875 1876.96875 C 1170.039062 1826.058594 1176.21875 1815.929688 1207.011719 1804.730469 Z M 1660.039062 1791.601562 C 1738.148438 1781.699219 1723.671875 2148.335938 1661.089844 2153.886719 C 1607.101562 2158.675781 1607.550781 2020.59375 1607.511719 1971.839844 C 1607.449219 1914.65625 1598.980469 1799.339844 1660.039062 1791.601562 Z M 833.015625 2145.046875 C 834.527344 2181.175781 908.800781 2268.246094 925.335938 2284.84375 C 959.753906 2319.386719 1003.679688 2350.789062 1062.851562 2376.648438 C 1240.429688 2454.257812 1782.910156 2468.160156 1928.910156 2322.222656 C 1974.648438 2276.488281 2048.351562 2145.132812 2046.988281 2097.34375 C 2044.960938 2081.074219 2049.808594 2056.089844 2049.050781 2034.902344 C 2048.238281 2012.308594 2048.289062 1999.5625 2041.398438 1979.171875 C 2032.390625 1952.492188 2003.839844 1916.175781 1990.269531 1903.71875 C 1731.71875 1666.390625 1292.109375 1736.429688 989.40625 1841.351562 C 884.414062 1877.742188 805.128906 1915.144531 811.855469 2043.019531 C 813.632812 2076.824219 821.878906 2118.871094 833.015625 2145.046875 "/>
<path fill-rule="evenodd" fill="rgb(1.000977%, 1.000977%, 1.000977%)" fill-opacity="1" d="M 2046.988281 2097.34375 C 2048.351562 2145.132812 1974.648438 2276.488281 1928.910156 2322.222656 C 1782.910156 2468.160156 1240.429688 2454.257812 1062.851562 2376.648438 C 1003.679688 2350.789062 959.753906 2319.386719 925.335938 2284.84375 C 908.800781 2268.246094 834.527344 2181.175781 833.015625 2145.046875 C 825.101562 2138.339844 824.933594 2137.558594 820.28125 2124.703125 C 816.742188 2114.921875 814.90625 2107.375 811.792969 2097.804688 C 806.023438 2080.0625 801.566406 2063.496094 796.539062 2045.761719 C 786.839844 2011.535156 771.195312 1962.902344 788.921875 1929.40625 C 819.496094 1871.628906 877.527344 1841.800781 945.988281 1813.519531 C 1065.691406 1764.058594 1248.96875 1723.128906 1392.75 1715.738281 C 1569.621094 1706.640625 1715.75 1720.820312 1865.75 1783.140625 C 1941.050781 1814.429688 1982.769531 1849.023438 2031.039062 1890.648438 C 2065.25 1920.152344 2076.511719 1943.734375 2072.5 1983.328125 C 2070.300781 2005.078125 2062.921875 2080.265625 2046.988281 2097.34375 Z M 2471.941406 1695.261719 C 2448.671875 1672.941406 2398.589844 1572.039062 2381.371094 1532.441406 C 2292.820312 1328.878906 2280.78125 1089.769531 2295.230469 868.261719 C 2312.519531 879.328125 2373.070312 1010.03125 2385.429688 1038.171875 C 2410.75 1095.769531 2435.199219 1163 2453.269531 1227.199219 C 2474.71875 1303.421875 2485.511719 1371.230469 2488.871094 1453.789062 C 2490.878906 1503 2490.730469 1659.289062 2471.941406 1695.261719 Z M 344.179688 1418.21875 C 344.066406 1303.75 377.140625 1198.789062 419.726562 1109.488281 C 439.648438 1067.710938 536.011719 891.398438 562.027344 872.25 C 576.6875 1096.96875 537.058594 1270.898438 455.371094 1469.359375 C 437.253906 1513.378906 402.644531 1590.441406 378.777344 1626.019531 C 357.257812 1583.101562 344.230469 1472.449219 344.179688 1418.21875 Z M 2438.328125 1722.871094 C 2464.859375 1740.78125 2457.410156 1756.941406 2446.050781 1783.660156 C 2436.648438 1805.761719 2426.871094 1825.128906 2415.578125 1844.175781 C 2356.199219 1944.304688 2227.398438 2071.054688 2100.480469 2069.449219 C 2097.089844 2038.054688 2115.070312 1990.714844 2112.210938 1947.878906 C 2107.011719 1869.894531 1965.628906 1785.640625 1900.179688 1753 C 1644.609375 1625.550781 1250.078125 1662.851562 982.28125 1755.089844 C 897.214844 1784.378906 773.75 1836.914062 750.179688 1926.023438 C 742.214844 1956.140625 757.105469 2019.308594 760.351562 2050.980469 C 674.78125 2029.589844 577.476562 1951.367188 535.523438 1903.699219 C 493.996094 1856.519531 399.617188 1730.808594 395.210938 1666.351562 C 402.5625 1661.238281 401.503906 1662.269531 409.710938 1658.261719 C 413.863281 1639.199219 623.269531 1294.671875 601.261719 963.398438 C 591.148438 811.210938 557.710938 861.550781 653.996094 750.738281 C 800.492188 582.140625 1122.640625 366.289062 1459.960938 374.988281 C 1616.609375 379.019531 1802.480469 418.53125 1934.230469 493.089844 C 2070.261719 570.070312 2158.449219 654.148438 2242.871094 777.679688 C 2287.78125 843.390625 2265.890625 812.671875 2258.128906 888.429688 C 2235.558594 1108.710938 2261.300781 1328.371094 2338.789062 1531.769531 C 2361.988281 1592.671875 2382.648438 1627 2413.640625 1678.28125 C 2423.648438 1694.851562 2436.191406 1709.691406 2438.328125 1722.871094 Z M 305.398438 1366.25 L 305.398438 1466.339844 C 312.589844 1484.148438 315.785156 1578.308594 357.445312 1682.488281 C 424.792969 1850.898438 571.96875 2047.996094 770.902344 2087.753906 C 792.015625 2156.476562 811.460938 2198.65625 847.179688 2248.253906 C 945.8125 2385.207031 1070.179688 2433.535156 1232.308594 2456.109375 C 1265.699219 2460.761719 1315.019531 2457.894531 1342.648438 2469.859375 L 1537.480469 2469.859375 C 1554.488281 2462.808594 1702.828125 2450.042969 1738.929688 2444.542969 C 1933.648438 2414.867188 2025.171875 2307.304688 2088.050781 2106.738281 C 2190.25 2127.089844 2336.398438 2018.980469 2399.140625 1938.402344 C 2550.460938 1744.050781 2507.210938 1639.441406 2531.25 1583.589844 L 2531.25 1419.410156 C 2521.898438 1397.789062 2519.691406 1332.089844 2513.78125 1301.269531 C 2506.839844 1265.039062 2497.558594 1227.980469 2486.730469 1193.949219 C 2465.019531 1125.679688 2441.03125 1059.75 2413.128906 998.621094 C 2355.78125 873.011719 2283.519531 758.71875 2210.890625 667.089844 C 2200.738281 654.28125 2189.328125 642.289062 2179.539062 631.21875 C 2112.589844 555.511719 1997.28125 480.921875 1908.628906 435.679688 C 1820.070312 390.5 1695.839844 359.941406 1593.449219 348.128906 C 1564.511719 344.789062 1497.371094 344.28125 1475.878906 334.949219 L 1427.46875 334.949219 C 1418.070312 338.5 1324.761719 343.660156 1301.640625 347.289062 C 1263.988281 353.199219 1228.191406 361.558594 1192.171875 371.53125 C 864.441406 462.210938 613.289062 680.550781 448.34375 972.078125 C 284.367188 1261.878906 331.492188 1301.988281 305.398438 1366.25 "/>
<path fill-rule="evenodd" fill="rgb(73.046875%, 10.009766%, 12.010193%)" fill-opacity="1" d="M 409.710938 1658.261719 C 401.503906 1662.269531 402.5625 1661.238281 395.210938 1666.351562 C 399.617188 1730.808594 493.996094 1856.519531 535.523438 1903.699219 C 577.476562 1951.367188 674.78125 2029.589844 760.351562 2050.980469 C 757.105469 2019.308594 742.214844 1956.140625 750.179688 1926.023438 C 773.75 1836.914062 897.214844 1784.378906 982.28125 1755.089844 C 1250.078125 1662.851562 1644.609375 1625.550781 1900.179688 1753 C 1965.628906 1785.640625 2107.011719 1869.894531 2112.210938 1947.878906 C 2115.070312 1990.714844 2097.089844 2038.054688 2100.480469 2069.449219 C 2227.398438 2071.054688 2356.199219 1944.304688 2415.578125 1844.175781 C 2426.871094 1825.128906 2436.648438 1805.761719 2446.050781 1783.660156 C 2457.410156 1756.941406 2464.859375 1740.78125 2438.328125 1722.871094 C 2443.109375 1747.910156 2426.878906 1763.429688 2409.429688 1778.691406 C 2358.96875 1822.820312 2346.179688 1820.660156 2297.878906 1782.128906 C 2288.261719 1774.460938 2282.03125 1772.289062 2271.699219 1764.929688 C 2168.5 1691.460938 1847.328125 1620.640625 1712.648438 1605.371094 C 1520.160156 1583.550781 1269.269531 1589.601562 1081.628906 1628.75 C 918.589844 1662.761719 776.832031 1683.308594 629.382812 1773.53125 C 620.398438 1779.03125 611.316406 1784.058594 603.023438 1790.910156 C 595.546875 1797.089844 588.570312 1804.289062 580.933594 1808.480469 C 522.613281 1840.476562 478.792969 1782.960938 455.816406 1757.941406 C 451.199219 1752.921875 456.484375 1760.03125 450.242188 1751.371094 C 449.558594 1750.421875 447.84375 1747.550781 447.230469 1746.550781 C 442.925781 1739.53125 437.617188 1729.828125 431.859375 1719.109375 C 422.519531 1701.710938 407.757812 1677.050781 409.710938 1658.261719 "/>
<path fill-rule="evenodd" fill="rgb(1.000977%, 1.000977%, 1.000977%)" fill-opacity="1" d="M 1380.210938 427.820312 C 1670.71875 400.640625 1899.980469 614.421875 1925.109375 873.878906 C 1953.171875 1163.679688 1737.039062 1393.46875 1479.648438 1418.800781 C 1190.019531 1447.308594 961.5625 1231.53125 935.21875 975.289062 C 905.191406 683.269531 1123.519531 451.839844 1380.210938 427.820312 Z M 1385.890625 389.390625 C 1225.730469 409.171875 1133.621094 458.101562 1028.820312 568.179688 C 950.417969 650.519531 880.390625 808.078125 896.507812 969.171875 C 925.046875 1254.398438 1161.03125 1480.988281 1479.769531 1457.28125 C 1748.03125 1437.328125 1997.570312 1181.328125 1963.570312 874.460938 C 1929.921875 570.648438 1661.359375 355.378906 1385.890625 389.390625 "/>
<path fill-rule="evenodd" fill="rgb(100%, 100%, 100%)" fill-opacity="1" d="M 2471.941406 1695.261719 C 2490.730469 1659.289062 2490.878906 1503 2488.871094 1453.789062 C 2485.511719 1371.230469 2474.71875 1303.421875 2453.269531 1227.199219 C 2435.199219 1163 2410.75 1095.769531 2385.429688 1038.171875 C 2373.070312 1010.03125 2312.519531 879.328125 2295.230469 868.261719 C 2280.78125 1089.769531 2292.820312 1328.878906 2381.371094 1532.441406 C 2398.589844 1572.039062 2448.671875 1672.941406 2471.941406 1695.261719 "/>
<path fill-rule="evenodd" fill="rgb(100%, 100%, 100%)" fill-opacity="1" d="M 344.179688 1418.21875 C 344.230469 1472.449219 357.257812 1583.101562 378.777344 1626.019531 C 402.644531 1590.441406 437.253906 1513.378906 455.371094 1469.359375 C 537.058594 1270.898438 576.6875 1096.96875 562.027344 872.25 C 536.011719 891.398438 439.648438 1067.710938 419.726562 1109.488281 C 377.140625 1198.789062 344.066406 1303.75 344.179688 1418.21875 "/>
<path fill-rule="evenodd" fill="rgb(84.959412%, 76.951599%, 66.014099%)" fill-opacity="1" d="M 833.015625 2145.046875 C 821.878906 2118.871094 813.632812 2076.824219 811.855469 2043.019531 C 805.128906 1915.144531 884.414062 1877.742188 989.40625 1841.351562 C 1292.109375 1736.429688 1731.71875 1666.390625 1990.269531 1903.71875 C 2003.839844 1916.175781 2032.390625 1952.492188 2041.398438 1979.171875 C 2048.289062 1999.5625 2048.238281 2012.308594 2049.050781 2034.902344 C 2049.808594 2056.089844 2044.960938 2081.074219 2046.988281 2097.34375 C 2062.921875 2080.265625 2070.300781 2005.078125 2072.5 1983.328125 C 2076.511719 1943.734375 2065.25 1920.152344 2031.039062 1890.648438 C 1982.769531 1849.023438 1941.050781 1814.429688 1865.75 1783.140625 C 1715.75 1720.820312 1569.621094 1706.640625 1392.75 1715.738281 C 1248.96875 1723.128906 1065.691406 1764.058594 945.988281 1813.519531 C 877.527344 1841.800781 819.496094 1871.628906 788.921875 1929.40625 C 771.195312 1962.902344 786.839844 2011.535156 796.539062 2045.761719 C 801.566406 2063.496094 806.023438 2080.0625 811.792969 2097.804688 C 814.90625 2107.375 816.742188 2114.921875 820.28125 2124.703125 C 824.933594 2137.558594 825.101562 2138.339844 833.015625 2145.046875 "/>
<path fill-rule="evenodd" fill="rgb(0%, 0%, 0%)" fill-opacity="1" d="M 1660.859375 1824.480469 C 1703.941406 1797.519531 1706.730469 1909.707031 1684.53125 1924.03125 C 1639.851562 1952.851562 1635.128906 1840.589844 1660.859375 1824.480469 Z M 1660.039062 1791.601562 C 1598.980469 1799.339844 1607.449219 1914.65625 1607.511719 1971.839844 C 1607.550781 2020.59375 1607.101562 2158.675781 1661.089844 2153.886719 C 1723.671875 2148.335938 1738.148438 1781.699219 1660.039062 1791.601562 "/>
<path fill-rule="evenodd" fill="rgb(0%, 0%, 0%)" fill-opacity="1" d="M 1235.628906 1936.601562 C 1207.808594 1940.953125 1195.421875 1928.34375 1192.410156 1899.710938 C 1190.449219 1881.042969 1193.898438 1837.308594 1204.53125 1826.941406 C 1248.160156 1784.390625 1258.890625 1901.003906 1235.628906 1936.601562 Z M 1207.011719 1804.730469 C 1176.21875 1815.929688 1170.039062 1826.058594 1163.46875 1876.96875 C 1156.609375 1930.046875 1144.050781 2178.347656 1221.121094 2153.015625 C 1264.449219 2138.773438 1266.761719 2021.503906 1266.769531 1967.761719 C 1266.78125 1920.539062 1266.339844 1783.140625 1207.011719 1804.730469 "/>
<path fill-rule="evenodd" fill="rgb(98.046875%, 98.046875%, 98.046875%)" fill-opacity="1" d="M 1235.628906 1936.601562 C 1258.890625 1901.003906 1248.160156 1784.390625 1204.53125 1826.941406 C 1193.898438 1837.308594 1190.449219 1881.042969 1192.410156 1899.710938 C 1195.421875 1928.34375 1207.808594 1940.953125 1235.628906 1936.601562 "/>
<path fill-rule="evenodd" fill="rgb(98.046875%, 98.046875%, 98.046875%)" fill-opacity="1" d="M 1660.859375 1824.480469 C 1635.128906 1840.589844 1639.851562 1952.851562 1684.53125 1924.03125 C 1706.730469 1909.707031 1703.941406 1797.519531 1660.859375 1824.480469 "/>
</svg>
