<?xml version="1.0" encoding="UTF-8"?>
<svg xmlns="http://www.w3.org/2000/svg" xmlns:xlink="http://www.w3.org/1999/xlink" width="2836" height="2835" viewBox="0 0 2836 2835">

<path fill-rule="evenodd" fill="rgb(56.054688%, 36.009216%, 19.993591%)" fill-opacity="1" d="M 918.953125 1434.898438 C 916.636719 1429.789062 917.617188 1427.96875 918.390625 1417.449219 C 912.226562 1373.039062 957.132812 1196.699219 997.691406 1311.96875 C 1005.699219 1334.71875 1016.679688 1356.140625 1023.398438 1375.449219 C 1045.800781 1369.730469 1067.011719 1360.410156 1092.011719 1354.550781 C 1261.609375 1314.75 1469.390625 1333.410156 1623.050781 1401.039062 L 1631.699219 1363.03125 C 1626.050781 1350.640625 1658.730469 1195.589844 1716.230469 1282.320312 C 1740.921875 1319.539062 1763.398438 1394.371094 1779.378906 1441.789062 C 1785.21875 1443.910156 1787.570312 1441.199219 1793.648438 1443.941406 C 1748.160156 1460.28125 1728.140625 1453.851562 1681.441406 1439.441406 C 1570.75 1405.28125 1490.058594 1368.441406 1363.578125 1358.808594 C 1219.621094 1347.828125 1088.851562 1353.148438 960.414062 1416.441406 C 953.28125 1419.96875 946.933594 1423.871094 939.472656 1428.359375 C 916.480469 1442.160156 922.84375 1437.25 918.953125 1434.898438 Z M 1532.441406 886.261719 C 1581.128906 895.808594 1611.539062 915.109375 1635.230469 957.769531 C 1646.019531 977.210938 1652.261719 1000.949219 1654.03125 1026.449219 C 1654.871094 1038.679688 1654.460938 1094.609375 1642.910156 1105.328125 C 1640.960938 1108.03125 1643.191406 1099.859375 1638.328125 1113.890625 C 1637.25 1117.011719 1636.730469 1121.449219 1636.21875 1125.121094 C 1636.441406 1143.148438 1613.710938 1177.851562 1603.820312 1192.171875 C 1555.660156 1261.988281 1468.769531 1290.199219 1397.550781 1237.261719 C 1363.960938 1212.300781 1337.109375 1156.039062 1338 1092.179688 C 1338.828125 1032.378906 1363.878906 975.070312 1392.488281 944.070312 C 1357.171875 956.46875 1354.769531 952.789062 1341.96875 969.121094 C 1338.511719 973.53125 1332.679688 980.101562 1329.230469 983.089844 C 1321 990.238281 1304.960938 996.511719 1289.28125 994.210938 C 1271.339844 991.570312 1268.398438 980.640625 1259.738281 969.351562 C 1255.648438 1040.039062 1202.96875 1181.710938 1159.140625 1236.578125 C 1102.710938 1307.238281 1009.328125 1302.179688 1082.121094 1078.988281 C 1120.140625 962.398438 1169.539062 933.691406 1173.378906 925.148438 C 1173.550781 916.519531 1148.160156 866.5 1140.289062 860.710938 C 1120.25 879.378906 1073.398438 985.988281 1055.980469 1020.039062 C 1026.761719 1077.179688 996.453125 1126 965.460938 1177.089844 C 915.214844 1259.929688 814.53125 1393.058594 825.980469 1524.171875 C 829.164062 1526.800781 827.972656 1525.46875 830.980469 1529.121094 C 857.847656 1561.660156 851.832031 1567.089844 905.15625 1601.441406 C 1021.191406 1676.210938 1173.558594 1650.570312 1301.148438 1626.199219 C 1575.488281 1573.769531 1743.371094 1625.128906 1884.878906 1595.671875 C 1969.191406 1578.128906 2022.960938 1521.339844 2031.25 1429.019531 C 2042.851562 1299.910156 1943.25 1205.328125 1894 1098.660156 C 1850.300781 1003.980469 1809.929688 824.371094 1751.359375 769.429688 C 1669.269531 773.441406 1626.648438 804.199219 1574.511719 843.769531 C 1565.328125 850.730469 1536.238281 877.738281 1532.441406 886.261719 "/>
<path fill-rule="evenodd" fill="rgb(98.046875%, 98.046875%, 31.005859%)" fill-opacity="1" d="M 1172.851562 777.359375 C 1187.179688 766.289062 1196.078125 754.378906 1211.691406 740.441406 C 1322.140625 641.71875 1530.828125 611.46875 1660.828125 663.871094 C 1690.648438 675.890625 1682.25 668.960938 1711.578125 658.800781 C 1839.371094 614.570312 1946.828125 703.671875 1970.71875 808.75 C 1937.371094 797.398438 1874.191406 743.21875 1785.140625 738.769531 C 1790.800781 746.628906 1794.558594 751.988281 1800.378906 756.941406 C 1888.328125 831.851562 1989.449219 1070.699219 2057.03125 1165.238281 C 2088.441406 1209.171875 2123.851562 1251.941406 2151.128906 1300.71875 C 2218.28125 1420.828125 2225.121094 1563.890625 2123.25 1640.019531 C 2020.960938 1716.46875 1906.851562 1725.679688 1758.910156 1734.921875 C 1759.25 1747.351562 1776.640625 1792.261719 1781.058594 1810.890625 C 1789.238281 1845.34375 1787.289062 1865.519531 1791.269531 1899.0625 C 1890.898438 1909.972656 1949.910156 1951.730469 1989.601562 2008.015625 C 2039.839844 2079.257812 2033.949219 2182.839844 1962.519531 2221.730469 C 1902.890625 2254.191406 1761.398438 2247.730469 1690.570312 2235.578125 C 1606.710938 2221.1875 1513.101562 2192.6875 1501.308594 2116.90625 C 1500.691406 2117.429688 1499.898438 2118.15625 1499.511719 2118.535156 L 1482.199219 2138.125 C 1475.828125 2143.914062 1467.578125 2149.226562 1458.5 2153.214844 C 1442.71875 2160.136719 1417.488281 2164.476562 1398.390625 2167.757812 C 1290.351562 2186.335938 1081.449219 2212.382812 992.234375 2167.429688 C 917.828125 2129.933594 922.300781 2024.25 978.863281 1965.789062 C 1035.699219 1907.050781 1105.988281 1880.890625 1193.980469 1876.21875 C 1199.601562 1807.46875 1219.050781 1777.429688 1234.679688 1720.851562 C 1176.160156 1716.210938 1129.488281 1728.949219 1031.910156 1716.160156 C 831.09375 1689.839844 751.648438 1558.800781 837.960938 1353.691406 C 879.148438 1255.800781 942.101562 1176.710938 991.972656 1090.230469 C 1035.53125 1014.699219 1059.878906 954.628906 1098.519531 883.671875 L 1136.550781 820.421875 C 1103.699219 780.710938 1072.800781 823.96875 1053.578125 853.640625 C 1050.011719 859.148438 1039.109375 879.191406 1034.101562 882.359375 C 1031.308594 831.988281 1044.039062 764.5 1072.921875 735.78125 C 1141.660156 667.441406 1168.859375 781.289062 1171.441406 775.421875 C 1171.640625 774.960938 1172.328125 776.75 1172.851562 777.359375 Z M 1184.78125 686.628906 C 1157.429688 668.308594 1160.808594 656.808594 1104.261719 656.808594 C 1065.929688 656.808594 1029.128906 692.039062 1010.050781 723.621094 C 984.730469 765.53125 948.390625 918.789062 1005.859375 934.128906 C 993.796875 985.898438 886.714844 1146.378906 854.726562 1200.480469 C 841.441406 1222.949219 827.929688 1242.148438 815.96875 1266.089844 C 803.78125 1290.46875 792.203125 1311.511719 782.199219 1336.699219 C 764.1875 1382.070312 743.445312 1443.828125 743.445312 1506.679688 C 743.445312 1659.058594 861.769531 1742.039062 991.679688 1768.371094 C 1040.589844 1778.28125 1094.121094 1781.019531 1151.96875 1781.019531 C 1150.679688 1796.550781 1143.429688 1804.769531 1143.03125 1822.769531 C 1090.878906 1827.109375 1005 1861.898438 966.390625 1896.617188 C 909.804688 1947.484375 877.632812 1996.019531 877.632812 2079.222656 C 877.632812 2189.636719 985.367188 2249.195312 1092.339844 2249.195312 C 1254.539062 2249.195312 1330.238281 2243.03125 1482.980469 2207.445312 C 1496.910156 2216.773438 1507.558594 2230.816406 1539 2249.824219 C 1590.109375 2280.699219 1715 2302.871094 1781.171875 2302.871094 C 1887.460938 2302.871094 2007.871094 2305.402344 2060.53125 2200.527344 C 2122.058594 2077.988281 2047.96875 1947.039062 1936.109375 1882.535156 C 1918.21875 1872.21875 1871.378906 1851.65625 1846.769531 1849.605469 C 1846.769531 1835.066406 1839.390625 1799.441406 1834.851562 1789.960938 C 1912.878906 1789.960938 2054.03125 1752.25 2120.578125 1711.890625 C 2206.660156 1659.699219 2258.289062 1595.890625 2258.289062 1470.890625 C 2258.289062 1298.5 2150.871094 1211.53125 2077.328125 1088.25 L 1957.109375 868.53125 C 1981.238281 868.53125 1996.738281 869.46875 2014.570312 851.441406 C 2069.988281 795.378906 1948.621094 588.21875 1790.121094 588.21875 C 1753 588.21875 1723.46875 591.878906 1689.921875 604.601562 C 1675.828125 609.949219 1678.851562 608.71875 1664.539062 603.621094 C 1565.828125 568.441406 1406.480469 577.539062 1312.96875 615.019531 C 1247.289062 641.351562 1237.070312 651.609375 1184.78125 686.628906 "/>
<path fill-rule="evenodd" fill="rgb(0%, 0%, 0%)" fill-opacity="1" d="M 1929.679688 1979.125 C 1947.109375 1984.914062 1977.890625 2025.234375 1988.378906 2050.949219 C 2000.191406 2079.90625 2008.089844 2126.855469 1990.96875 2156.074219 C 1959.058594 2260.253906 1683.441406 2223.492188 1598.050781 2187.890625 C 1547.058594 2166.625 1509.878906 2124.53125 1520.21875 2064.832031 C 1522.25 2053.089844 1519.929688 2058.808594 1527.789062 2052.46875 L 1636.089844 1975.835938 C 1698.730469 1935.417969 1743.660156 1911.460938 1820.699219 1925.964844 C 1859.628906 1933.296875 1913.660156 1955.140625 1929.679688 1979.125 Z M 1187.210938 1900.289062 L 1194.960938 1899.070312 C 1219.320312 1960.15625 1247.589844 1984.984375 1306.179688 2017.394531 C 1387.289062 2062.265625 1443.328125 2049.59375 1489.289062 2061.328125 C 1491.050781 2084.652344 1479.921875 2109.441406 1467.960938 2120.867188 C 1430.199219 2156.945312 1169.378906 2171.113281 1113.191406 2169.203125 C 1082.421875 2168.160156 1039.78125 2164.371094 1011.328125 2151.394531 C 997.652344 2145.15625 993.894531 2143.203125 987.964844 2134.597656 C 943.144531 2118.070312 931.230469 1978.1875 1086.171875 1920.925781 C 1111.738281 1911.480469 1157.410156 1898.835938 1187.210938 1900.289062 Z M 1234.929688 1791.71875 L 1260.109375 1719.058594 C 1378.359375 1701.421875 1588.011719 1733.871094 1732.28125 1734.738281 C 1747.609375 1763.960938 1773.570312 1858.882812 1766.378906 1897.316406 C 1747.289062 1902.84375 1731.5 1903.273438 1711.03125 1910.726562 C 1680.628906 1921.785156 1649.808594 1940.066406 1623.5 1957.316406 C 1610.390625 1965.910156 1595.378906 1978.441406 1581.390625 1983.867188 C 1578.539062 1990.324219 1543.550781 2013.886719 1534.351562 2020.226562 C 1506.050781 2039.738281 1508.570312 2038.683594 1465.628906 2036 C 1380.789062 2030.710938 1282.53125 1999.453125 1232.539062 1927.078125 C 1210.109375 1894.605469 1214.730469 1828.328125 1234.929688 1791.71875 Z M 1222.488281 1064.941406 C 1193.238281 1030.550781 1145.199219 1104.011719 1144.328125 1157.800781 C 1143.800781 1190.828125 1153.960938 1191.980469 1167.429688 1199.53125 C 1164.121094 1205.449219 1139.671875 1230.75 1132.78125 1236.921875 C 1063.308594 1299.261719 1057.25 1202.359375 1072.808594 1138.238281 C 1085.460938 1086.148438 1143.109375 975.71875 1175.351562 958.519531 C 1183.261719 946.421875 1192.03125 943.808594 1205.898438 935.050781 C 1213.199219 938.570312 1228.910156 947.839844 1232.960938 954.558594 C 1246.269531 976.628906 1236.359375 1054.320312 1228.398438 1080.441406 Z M 825.980469 1524.171875 C 814.53125 1393.058594 915.214844 1259.929688 965.460938 1177.089844 C 996.453125 1126 1026.761719 1077.179688 1055.980469 1020.039062 C 1073.398438 985.988281 1120.25 879.378906 1140.289062 860.710938 L 1148.988281 846.691406 C 1150.738281 848.410156 1150.941406 848.230469 1153.480469 851.949219 C 1153.851562 852.511719 1154.328125 853.269531 1154.691406 853.859375 L 1169.5 883.859375 C 1175.800781 895.140625 1186.148438 907 1190 915.898438 L 1173.378906 925.148438 C 1169.539062 933.691406 1120.140625 962.398438 1082.121094 1078.988281 C 1009.328125 1302.179688 1102.710938 1307.238281 1159.140625 1236.578125 C 1202.96875 1181.710938 1255.648438 1040.039062 1259.738281 969.351562 C 1268.398438 980.640625 1271.339844 991.570312 1289.28125 994.210938 C 1304.960938 996.511719 1321 990.238281 1329.230469 983.089844 C 1332.679688 980.101562 1338.511719 973.53125 1341.96875 969.121094 C 1354.769531 952.789062 1357.171875 956.46875 1392.488281 944.070312 C 1363.878906 975.070312 1338.828125 1032.378906 1338 1092.179688 C 1337.109375 1156.039062 1363.960938 1212.300781 1397.550781 1237.261719 C 1468.769531 1290.199219 1555.660156 1261.988281 1603.820312 1192.171875 C 1613.710938 1177.851562 1636.441406 1143.148438 1636.21875 1125.121094 L 1627.308594 1145.148438 C 1626.648438 1106.289062 1624.390625 1108.058594 1614.570312 1077.519531 C 1601.820312 1066.851562 1592.089844 1044.851562 1562.570312 1055.429688 C 1546.070312 1061.351562 1533.558594 1082.539062 1528.25 1101.589844 C 1521.941406 1124.210938 1523.289062 1150.628906 1531.460938 1171.929688 C 1542.308594 1200.199219 1551.601562 1197.25 1571.148438 1211.460938 C 1543.289062 1234.558594 1491.5 1251.140625 1447.429688 1240.949219 C 1404.789062 1231.078125 1375.710938 1203.488281 1360.269531 1170.21875 C 1314.910156 1072.539062 1388.890625 958.671875 1422.589844 946.839844 C 1425.558594 942.890625 1423.730469 945 1427.398438 941.441406 C 1428.050781 940.820312 1430.070312 939.039062 1430.761719 938.460938 C 1513.339844 870.449219 1667.160156 922.519531 1642.910156 1105.328125 C 1654.460938 1094.609375 1654.871094 1038.679688 1654.03125 1026.449219 C 1652.261719 1000.949219 1646.019531 977.210938 1635.230469 957.769531 C 1611.539062 915.109375 1581.128906 895.808594 1532.441406 886.261719 L 1492.648438 887.398438 L 1501.710938 878.191406 C 1502.011719 877.921875 1508.25 873.199219 1508.488281 873.019531 C 1547.53125 843.480469 1568.351562 813.929688 1607.78125 787.570312 C 1640.988281 765.371094 1678.769531 750.230469 1720.21875 742.390625 C 1757.878906 735.25 1756.78125 746.449219 1786.800781 776.46875 C 1791.378906 781.050781 1796.230469 784.449219 1800.75 789.261719 C 1844.078125 835.28125 1905.46875 939.101562 1933.710938 996.359375 C 1956.320312 1042.179688 1983.609375 1091.058594 2009.058594 1132.730469 C 2061.449219 1218.5 2142.289062 1302.121094 2166.128906 1393.140625 C 2180.949219 1449.761719 2184.199219 1520.269531 2156.511719 1568.800781 C 2111.660156 1647.398438 1993.390625 1690.230469 1871.609375 1704.78125 C 1656.640625 1730.46875 1484.199219 1679.859375 1271.210938 1694.988281 C 1148.058594 1703.738281 931.054688 1716.898438 853.648438 1602.179688 C 839.285156 1580.890625 828.429688 1555.539062 825.980469 1524.171875 Z M 1262.308594 933.351562 C 1206.601562 913.160156 1179.359375 816.398438 1182.691406 804.109375 C 1185.441406 793.960938 1224.398438 758.960938 1236.148438 749.910156 C 1302.730469 698.601562 1376.800781 671.03125 1467.011719 664.039062 C 1509.089844 660.769531 1624.429688 663.148438 1651.988281 686.628906 C 1639.488281 697.898438 1624.699219 705.71875 1613.128906 715.421875 L 1578.039062 745.871094 C 1526.699219 789.699219 1506.78125 832.199219 1442.441406 878.738281 C 1427.410156 889.621094 1381.699219 920.078125 1359.128906 923.910156 C 1359.75 913.558594 1361.21875 911.921875 1357.628906 903.871094 C 1348.238281 927 1330.28125 958.660156 1313.199219 967.25 C 1272.570312 987.679688 1274.429688 942.511719 1275.148438 911.488281 Z M 1172.851562 777.359375 C 1172.328125 776.75 1171.640625 774.960938 1171.441406 775.421875 C 1168.859375 781.289062 1141.660156 667.441406 1072.921875 735.78125 C 1044.039062 764.5 1031.308594 831.988281 1034.101562 882.359375 C 1039.109375 879.191406 1050.011719 859.148438 1053.578125 853.640625 C 1072.800781 823.96875 1103.699219 780.710938 1136.550781 820.421875 L 1098.519531 883.671875 C 1059.878906 954.628906 1035.53125 1014.699219 991.972656 1090.230469 C 942.101562 1176.710938 879.148438 1255.800781 837.960938 1353.691406 C 751.648438 1558.800781 831.09375 1689.839844 1031.910156 1716.160156 C 1129.488281 1728.949219 1176.160156 1716.210938 1234.679688 1720.851562 C 1219.050781 1777.429688 1199.601562 1807.46875 1193.980469 1876.21875 C 1105.988281 1880.890625 1035.699219 1907.050781 978.863281 1965.789062 C 922.300781 2024.25 917.828125 2129.933594 992.234375 2167.429688 C 1081.449219 2212.382812 1290.351562 2186.335938 1398.390625 2167.757812 C 1417.488281 2164.476562 1442.71875 2160.136719 1458.5 2153.214844 C 1467.578125 2149.226562 1475.828125 2143.914062 1482.199219 2138.125 L 1499.511719 2118.535156 C 1499.898438 2118.15625 1500.691406 2117.429688 1501.308594 2116.90625 C 1513.101562 2192.6875 1606.710938 2221.1875 1690.570312 2235.578125 C 1761.398438 2247.730469 1902.890625 2254.191406 1962.519531 2221.730469 C 2033.949219 2182.839844 2039.839844 2079.257812 1989.601562 2008.015625 C 1949.910156 1951.730469 1890.898438 1909.972656 1791.269531 1899.0625 C 1787.289062 1865.519531 1789.238281 1845.34375 1781.058594 1810.890625 C 1776.640625 1792.261719 1759.25 1747.351562 1758.910156 1734.921875 C 1906.851562 1725.679688 2020.960938 1716.46875 2123.25 1640.019531 C 2225.121094 1563.890625 2218.28125 1420.828125 2151.128906 1300.71875 C 2123.851562 1251.941406 2088.441406 1209.171875 2057.03125 1165.238281 C 1989.449219 1070.699219 1888.328125 831.851562 1800.378906 756.941406 C 1794.558594 751.988281 1790.800781 746.628906 1785.140625 738.769531 C 1874.191406 743.21875 1937.371094 797.398438 1970.71875 808.75 C 1946.828125 703.671875 1839.371094 614.570312 1711.578125 658.800781 C 1682.25 668.960938 1690.648438 675.890625 1660.828125 663.871094 C 1530.828125 611.46875 1322.140625 641.71875 1211.691406 740.441406 C 1196.078125 754.378906 1187.179688 766.289062 1172.851562 777.359375 "/>
<path fill-rule="evenodd" fill="rgb(40.989685%, 25%, 12.988281%)" fill-opacity="1" d="M 1532.441406 886.261719 C 1536.238281 877.738281 1565.328125 850.730469 1574.511719 843.769531 C 1626.648438 804.199219 1669.269531 773.441406 1751.359375 769.429688 C 1809.929688 824.371094 1850.300781 1003.980469 1894 1098.660156 C 1943.25 1205.328125 2042.851562 1299.910156 2031.25 1429.019531 C 2022.960938 1521.339844 1969.191406 1578.128906 1884.878906 1595.671875 C 1743.371094 1625.128906 1575.488281 1573.769531 1301.148438 1626.199219 C 1173.558594 1650.570312 1021.191406 1676.210938 905.15625 1601.441406 C 851.832031 1567.089844 857.847656 1561.660156 830.980469 1529.121094 C 827.972656 1525.46875 829.164062 1526.800781 825.980469 1524.171875 C 828.429688 1555.539062 839.285156 1580.890625 853.648438 1602.179688 C 931.054688 1716.898438 1148.058594 1703.738281 1271.210938 1694.988281 C 1484.199219 1679.859375 1656.640625 1730.46875 1871.609375 1704.78125 C 1993.390625 1690.230469 2111.660156 1647.398438 2156.511719 1568.800781 C 2184.199219 1520.269531 2180.949219 1449.761719 2166.128906 1393.140625 C 2142.289062 1302.121094 2061.449219 1218.5 2009.058594 1132.730469 C 1983.609375 1091.058594 1956.320312 1042.179688 1933.710938 996.359375 C 1905.46875 939.101562 1844.078125 835.28125 1800.75 789.261719 C 1796.230469 784.449219 1791.378906 781.050781 1786.800781 776.46875 C 1756.78125 746.449219 1757.878906 735.25 1720.21875 742.390625 C 1678.769531 750.230469 1640.988281 765.371094 1607.78125 787.570312 C 1568.351562 813.929688 1547.53125 843.480469 1508.488281 873.019531 C 1508.25 873.199219 1502.011719 877.921875 1501.710938 878.191406 L 1492.648438 887.398438 L 1532.441406 886.261719 "/>
<path fill-rule="evenodd" fill="rgb(56.054688%, 36.009216%, 19.993591%)" fill-opacity="1" d="M 1262.308594 933.351562 L 1275.148438 911.488281 C 1274.429688 942.511719 1272.570312 987.679688 1313.199219 967.25 C 1330.28125 958.660156 1348.238281 927 1357.628906 903.871094 C 1361.21875 911.921875 1359.75 913.558594 1359.128906 923.910156 C 1381.699219 920.078125 1427.410156 889.621094 1442.441406 878.738281 C 1506.78125 832.199219 1526.699219 789.699219 1578.039062 745.871094 L 1613.128906 715.421875 C 1624.699219 705.71875 1639.488281 697.898438 1651.988281 686.628906 C 1624.429688 663.148438 1509.089844 660.769531 1467.011719 664.039062 C 1376.800781 671.03125 1302.730469 698.601562 1236.148438 749.910156 C 1224.398438 758.960938 1185.441406 793.960938 1182.691406 804.109375 C 1179.359375 816.398438 1206.601562 913.160156 1262.308594 933.351562 "/>
<path fill-rule="evenodd" fill="rgb(81.054688%, 66.992188%, 56.054688%)" fill-opacity="1" d="M 1581.390625 1983.867188 C 1599.851562 1962.28125 1642.199219 1919.773438 1619.019531 1874.691406 C 1599.140625 1836.011719 1549.800781 1840.976562 1500.871094 1838.496094 C 1408.78125 1833.828125 1310.941406 1826.851562 1234.929688 1791.71875 C 1214.730469 1828.328125 1210.109375 1894.605469 1232.539062 1927.078125 C 1282.53125 1999.453125 1380.789062 2030.710938 1465.628906 2036 C 1508.570312 2038.683594 1506.050781 2039.738281 1534.351562 2020.226562 C 1543.550781 2013.886719 1578.539062 1990.324219 1581.390625 1983.867188 "/>
<path fill-rule="evenodd" fill="rgb(66.992188%, 53.90625%, 44.993591%)" fill-opacity="1" d="M 1234.929688 1791.71875 C 1310.941406 1826.851562 1408.78125 1833.828125 1500.871094 1838.496094 C 1549.800781 1840.976562 1599.140625 1836.011719 1619.019531 1874.691406 C 1642.199219 1919.773438 1599.851562 1962.28125 1581.390625 1983.867188 C 1595.378906 1978.441406 1610.390625 1965.910156 1623.5 1957.316406 C 1649.808594 1940.066406 1680.628906 1921.785156 1711.03125 1910.726562 C 1731.5 1903.273438 1747.289062 1902.84375 1766.378906 1897.316406 C 1773.570312 1858.882812 1747.609375 1763.960938 1732.28125 1734.738281 C 1588.011719 1733.871094 1378.359375 1701.421875 1260.109375 1719.058594 L 1234.929688 1791.71875 "/>
<path fill-rule="evenodd" fill="rgb(17.993164%, 12.010193%, 5.999756%)" fill-opacity="1" d="M 1990.96875 2156.074219 C 1960.039062 2166.730469 1946.800781 2175.550781 1909.328125 2179.980469 C 1877.839844 2183.699219 1845.269531 2180.898438 1815.230469 2173.613281 C 1680.960938 2141.054688 1611.328125 2039.9375 1754.410156 1983.824219 C 1809.988281 1962.015625 1870.96875 1959.675781 1929.679688 1979.125 C 1913.660156 1955.140625 1859.628906 1933.296875 1820.699219 1925.964844 C 1743.660156 1911.460938 1698.730469 1935.417969 1636.089844 1975.835938 L 1527.789062 2052.46875 C 1519.929688 2058.808594 1522.25 2053.089844 1520.21875 2064.832031 C 1509.878906 2124.53125 1547.058594 2166.625 1598.050781 2187.890625 C 1683.441406 2223.492188 1959.058594 2260.253906 1990.96875 2156.074219 "/>
<path fill-rule="evenodd" fill="rgb(100%, 100%, 100%)" fill-opacity="1" d="M 1422.589844 946.839844 C 1388.890625 958.671875 1314.910156 1072.539062 1360.269531 1170.21875 C 1375.710938 1203.488281 1404.789062 1231.078125 1447.429688 1240.949219 C 1491.5 1251.140625 1543.289062 1234.558594 1571.148438 1211.460938 C 1551.601562 1197.25 1542.308594 1200.199219 1531.460938 1171.929688 C 1523.289062 1150.628906 1521.941406 1124.210938 1528.25 1101.589844 C 1533.558594 1082.539062 1546.070312 1061.351562 1562.570312 1055.429688 C 1592.089844 1044.851562 1601.820312 1066.851562 1614.570312 1077.519531 C 1625.480469 1067.699219 1605.898438 1022.269531 1600.289062 1010.648438 C 1589.550781 988.429688 1575.929688 972.941406 1560.671875 960.808594 C 1514.019531 923.699219 1479.960938 933.730469 1422.589844 946.839844 "/>
<path fill-rule="evenodd" fill="rgb(29.00238%, 22.996521%, 14.988708%)" fill-opacity="1" d="M 1990.96875 2156.074219 C 2008.089844 2126.855469 2000.191406 2079.90625 1988.378906 2050.949219 C 1977.890625 2025.234375 1947.109375 1984.914062 1929.679688 1979.125 C 1870.96875 1959.675781 1809.988281 1962.015625 1754.410156 1983.824219 C 1611.328125 2039.9375 1680.960938 2141.054688 1815.230469 2173.613281 C 1845.269531 2180.898438 1877.839844 2183.699219 1909.328125 2179.980469 C 1946.800781 2175.550781 1960.039062 2166.730469 1990.96875 2156.074219 "/>
<path fill-rule="evenodd" fill="rgb(29.00238%, 22.996521%, 14.988708%)" fill-opacity="1" d="M 987.964844 2134.597656 C 1053.949219 2152.023438 1092.609375 2153.234375 1162.820312 2144.027344 C 1204.808594 2138.519531 1293.660156 2125.8125 1297.671875 2087.683594 C 1302.410156 2042.570312 1228.511719 2019.199219 1192.148438 2003.222656 C 1150.929688 1985.105469 1131.910156 1955.730469 1166.921875 1921.167969 C 1168.289062 1919.808594 1171.730469 1916.503906 1172.980469 1915.363281 C 1187.589844 1902.007812 1196.488281 1905.507812 1187.210938 1900.289062 C 1157.410156 1898.835938 1111.738281 1911.480469 1086.171875 1920.925781 C 931.230469 1978.1875 943.144531 2118.070312 987.964844 2134.597656 "/>
<path fill-rule="evenodd" fill="rgb(17.993164%, 12.010193%, 5.999756%)" fill-opacity="1" d="M 987.964844 2134.597656 C 993.894531 2143.203125 997.652344 2145.15625 1011.328125 2151.394531 C 1039.78125 2164.371094 1082.421875 2168.160156 1113.191406 2169.203125 C 1169.378906 2171.113281 1430.199219 2156.945312 1467.960938 2120.867188 C 1479.921875 2109.441406 1491.050781 2084.652344 1489.289062 2061.328125 C 1443.328125 2049.59375 1387.289062 2062.265625 1306.179688 2017.394531 C 1247.589844 1984.984375 1219.320312 1960.15625 1194.960938 1899.070312 L 1187.210938 1900.289062 C 1196.488281 1905.507812 1187.589844 1902.007812 1172.980469 1915.363281 C 1171.730469 1916.503906 1168.289062 1919.808594 1166.921875 1921.167969 C 1131.910156 1955.730469 1150.929688 1985.105469 1192.148438 2003.222656 C 1228.511719 2019.199219 1302.410156 2042.570312 1297.671875 2087.683594 C 1293.660156 2125.8125 1204.808594 2138.519531 1162.820312 2144.027344 C 1092.609375 2153.234375 1053.949219 2152.023438 987.964844 2134.597656 "/>
<path fill-rule="evenodd" fill="rgb(100%, 100%, 100%)" fill-opacity="1" d="M 1175.351562 958.519531 C 1143.109375 975.71875 1085.460938 1086.148438 1072.808594 1138.238281 C 1057.25 1202.359375 1063.308594 1299.261719 1132.78125 1236.921875 C 1139.671875 1230.75 1164.121094 1205.449219 1167.429688 1199.53125 C 1153.960938 1191.980469 1143.800781 1190.828125 1144.328125 1157.800781 C 1145.199219 1104.011719 1193.238281 1030.550781 1222.488281 1064.941406 C 1233.109375 1047.941406 1231.089844 1008.351562 1226.558594 987.648438 C 1220.46875 959.800781 1205.011719 950.269531 1175.351562 958.519531 "/>
<path fill-rule="evenodd" fill="rgb(0%, 0%, 0%)" fill-opacity="1" d="M 1631.699219 1363.03125 C 1636.621094 1341.929688 1668.589844 1231.320312 1692.988281 1274.808594 C 1711.238281 1283.878906 1724.46875 1331.53125 1731.980469 1356.140625 C 1738.859375 1378.640625 1755.140625 1427.5 1756.871094 1449.078125 C 1740.449219 1447.5 1720.269531 1442.910156 1708.738281 1435.261719 L 1623.050781 1401.039062 C 1469.390625 1333.410156 1261.609375 1314.75 1092.011719 1354.550781 C 1067.011719 1360.410156 1045.800781 1369.730469 1023.398438 1375.449219 C 1016.679688 1356.140625 1005.699219 1334.71875 997.691406 1311.96875 C 957.132812 1196.699219 912.226562 1373.039062 918.390625 1417.449219 C 924.246094 1383.441406 941.742188 1296.921875 969.4375 1288.121094 C 979.140625 1298 998.707031 1367.320312 1002.691406 1384.859375 L 972.792969 1400.191406 C 964.714844 1407.378906 928.992188 1429.171875 918.953125 1434.898438 C 922.84375 1437.25 916.480469 1442.160156 939.472656 1428.359375 C 946.933594 1423.871094 953.28125 1419.96875 960.414062 1416.441406 C 1088.851562 1353.148438 1219.621094 1347.828125 1363.578125 1358.808594 C 1490.058594 1368.441406 1570.75 1405.28125 1681.441406 1439.441406 C 1728.140625 1453.851562 1748.160156 1460.28125 1793.648438 1443.941406 C 1787.570312 1441.199219 1785.21875 1443.910156 1779.378906 1441.789062 C 1763.398438 1394.371094 1740.921875 1319.539062 1716.230469 1282.320312 C 1658.730469 1195.589844 1626.050781 1350.640625 1631.699219 1363.03125 "/>
<path fill-rule="evenodd" fill="rgb(100%, 100%, 100%)" fill-opacity="1" d="M 1631.699219 1363.03125 L 1623.050781 1401.039062 L 1708.738281 1435.261719 C 1718.140625 1430.191406 1713.488281 1417.480469 1712.121094 1393.238281 C 1711.328125 1379.210938 1710.699219 1365.621094 1709.148438 1351.621094 C 1706.171875 1324.980469 1702.429688 1298.808594 1692.988281 1274.808594 C 1668.589844 1231.320312 1636.621094 1341.929688 1631.699219 1363.03125 "/>
<path fill-rule="evenodd" fill="rgb(68.943787%, 68.943787%, 68.943787%)" fill-opacity="1" d="M 1422.589844 946.839844 C 1479.960938 933.730469 1514.019531 923.699219 1560.671875 960.808594 C 1575.929688 972.941406 1589.550781 988.429688 1600.289062 1010.648438 C 1605.898438 1022.269531 1625.480469 1067.699219 1614.570312 1077.519531 C 1624.390625 1108.058594 1626.648438 1106.289062 1627.308594 1145.148438 L 1636.21875 1125.121094 C 1636.730469 1121.449219 1637.25 1117.011719 1638.328125 1113.890625 C 1643.191406 1099.859375 1640.960938 1108.03125 1642.910156 1105.328125 C 1667.160156 922.519531 1513.339844 870.449219 1430.761719 938.460938 C 1430.070312 939.039062 1428.050781 940.820312 1427.398438 941.441406 C 1423.730469 945 1425.558594 942.890625 1422.589844 946.839844 "/>
<path fill-rule="evenodd" fill="rgb(99.021912%, 99.021912%, 99.021912%)" fill-opacity="1" d="M 918.390625 1417.449219 C 917.617188 1427.96875 916.636719 1429.789062 918.953125 1434.898438 C 928.992188 1429.171875 964.714844 1407.378906 972.792969 1400.191406 C 968.574219 1366.660156 974.75 1315.679688 969.4375 1288.121094 C 941.742188 1296.921875 924.246094 1383.441406 918.390625 1417.449219 "/>
<path fill-rule="evenodd" fill="rgb(68.943787%, 68.943787%, 68.943787%)" fill-opacity="1" d="M 1708.738281 1435.261719 C 1720.269531 1442.910156 1740.449219 1447.5 1756.871094 1449.078125 C 1755.140625 1427.5 1738.859375 1378.640625 1731.980469 1356.140625 C 1724.46875 1331.53125 1711.238281 1283.878906 1692.988281 1274.808594 C 1702.429688 1298.808594 1706.171875 1324.980469 1709.148438 1351.621094 C 1710.699219 1365.621094 1711.328125 1379.210938 1712.121094 1393.238281 C 1713.488281 1417.480469 1718.140625 1430.191406 1708.738281 1435.261719 "/>
<path fill-rule="evenodd" fill="rgb(68.943787%, 68.943787%, 68.943787%)" fill-opacity="1" d="M 1175.351562 958.519531 C 1205.011719 950.269531 1220.46875 959.800781 1226.558594 987.648438 C 1231.089844 1008.351562 1233.109375 1047.941406 1222.488281 1064.941406 L 1228.398438 1080.441406 C 1236.359375 1054.320312 1246.269531 976.628906 1232.960938 954.558594 C 1228.910156 947.839844 1213.199219 938.570312 1205.898438 935.050781 C 1192.03125 943.808594 1183.261719 946.421875 1175.351562 958.519531 "/>
<path fill-rule="evenodd" fill="rgb(68.943787%, 68.943787%, 68.943787%)" fill-opacity="1" d="M 972.792969 1400.191406 L 1002.691406 1384.859375 C 998.707031 1367.320312 979.140625 1298 969.4375 1288.121094 C 974.75 1315.679688 968.574219 1366.660156 972.792969 1400.191406 "/>
<path fill-rule="evenodd" fill="rgb(40.989685%, 25%, 12.988281%)" fill-opacity="1" d="M 1140.289062 860.710938 C 1148.160156 866.5 1173.550781 916.519531 1173.378906 925.148438 L 1190 915.898438 C 1186.148438 907 1175.800781 895.140625 1169.5 883.859375 L 1154.691406 853.859375 C 1154.328125 853.269531 1153.851562 852.511719 1153.480469 851.949219 C 1150.941406 848.230469 1150.738281 848.410156 1148.988281 846.691406 L 1140.289062 860.710938 "/>
</svg>
