<?xml version="1.0" encoding="UTF-8"?>
<svg xmlns="http://www.w3.org/2000/svg" xmlns:xlink="http://www.w3.org/1999/xlink" width="2836" height="2835" viewBox="0 0 2836 2835">
<path fill-rule="evenodd" fill="rgb(100%, 100%, 100%)" fill-opacity="1" d="M 1 0.351562 L 2835.640625 0.351562 L 2835.640625 2835 L 1 2835 L 1 0.351562 "/>
<path fill-rule="evenodd" fill="rgb(93.943787%, 82.03125%, 22.996521%)" fill-opacity="1" d="M 2060.089844 1189.601562 C 2034.660156 1184.808594 2012.480469 1169.039062 2001.558594 1155.429688 C 1951.230469 1092.710938 2011.25 1065.441406 2053.011719 1119.039062 C 2059.128906 1126.898438 2075.128906 1154.890625 2076.230469 1163.648438 C 2079.351562 1188.398438 2079.269531 1169.320312 2073.289062 1177.230469 C 2057.691406 1154.71875 2043.039062 1118.261719 2009.5 1119.46875 C 2007.980469 1163.550781 2046.878906 1160.511719 2060.089844 1189.601562 Z M 1433.261719 1002.46875 C 1381.699219 1052.070312 1409.230469 1161.28125 1410.511719 1199.71875 C 1356.921875 1231.519531 1332.75 1259.070312 1316.398438 1331.421875 C 1250.890625 1621.28125 1540.589844 1733.78125 1553.011719 1746.359375 C 1543.199219 1783.019531 1520.738281 1819.800781 1516.980469 1833.230469 C 1543.480469 1849.726562 1578.320312 1871.316406 1617.28125 1877.023438 C 1637.570312 1852.53125 1681.25 1798.128906 1692.539062 1760.679688 C 1741.859375 1757.25 1786.910156 1750.71875 1829.578125 1731.480469 C 1892.359375 1703.179688 1887.871094 1690.160156 1920.679688 1657.71875 C 1911.03125 1626.609375 1828.570312 1571.148438 1802.710938 1563.730469 C 1788.96875 1580.390625 1785.160156 1587.960938 1768.890625 1603.128906 C 1759.089844 1612.269531 1745.28125 1623.269531 1731.5 1623.660156 L 1725.941406 1622.660156 C 1725.441406 1613.78125 1747.621094 1587.421875 1755.578125 1574.761719 C 1808.460938 1490.660156 1787.210938 1389.140625 1789.539062 1375.320312 C 1812.148438 1376.871094 1819.890625 1418.839844 1823.210938 1442.980469 C 1828.53125 1481.78125 1822.570312 1501.558594 1815.949219 1536.578125 C 1853.980469 1547.410156 1899.621094 1588.410156 1922.851562 1611.128906 C 1983.128906 1670.121094 1966.851562 1679.191406 1994.980469 1715.601562 C 2033.988281 1711.371094 2083.390625 1669.910156 2108.199219 1644.671875 C 2139.078125 1613.261719 2162.210938 1577.050781 2177.96875 1533.519531 C 2240.359375 1361.210938 2198.738281 1111.601562 2014.46875 1014.230469 C 1973.609375 992.640625 1919.160156 980.601562 1864.488281 986.621094 C 1838.300781 989.511719 1815.128906 996.351562 1793.621094 1005.769531 C 1770.238281 1016.011719 1754.089844 1031.710938 1736.578125 1038.761719 C 1737.539062 1109.871094 1734.199219 1119.210938 1718.191406 1182.46875 C 1733.800781 1189.46875 1752.980469 1204 1758.460938 1223.078125 C 1721.460938 1215.488281 1692.730469 1199.78125 1650.820312 1193.390625 C 1610.949219 1187.320312 1553.109375 1198.640625 1529.589844 1193.460938 C 1532.339844 1180.898438 1542.671875 1179.640625 1552.078125 1169.558594 C 1541.058594 1157.898438 1527.128906 1146.089844 1516.429688 1135.351562 C 1460.089844 1078.808594 1463.300781 1059.609375 1437.808594 1009.929688 L 1433.261719 1002.46875 "/>
<path fill-rule="evenodd" fill="rgb(90.039062%, 90.039062%, 90.039062%)" fill-opacity="1" d="M 1421.648438 955.660156 C 1417.839844 890.230469 1407.75 842.691406 1444.960938 792.941406 C 1474.050781 754.050781 1530.75 744.050781 1584.699219 769.058594 C 1697.109375 821.160156 1714.128906 966.039062 1731.089844 1001.839844 C 1784.660156 978.328125 1820.691406 941.160156 1919.621094 946.238281 C 1991.921875 949.960938 2050.460938 979.398438 2094.011719 1013.929688 C 2272.558594 1155.519531 2305.160156 1521.089844 2099.238281 1696.011719 C 2084.039062 1708.921875 2086.390625 1751.121094 2077.640625 1795.449219 C 2071.148438 1828.351562 2062.058594 1858.621094 2050.859375 1888.808594 C 2028.109375 1950.140625 1998.398438 2001.40625 1966.738281 2046.101562 C 1710.398438 2408.007812 1137.789062 2398.449219 899.304688 2012.554688 C 874.367188 1972.210938 835.675781 1994.800781 790.765625 1940.226562 C 763.09375 1906.601562 764.636719 1889.824219 779.257812 1847.132812 C 709.703125 1841.90625 636.496094 1780.121094 634.101562 1719.960938 C 632.445312 1678.308594 653.273438 1669.03125 660.484375 1659.589844 C 607.011719 1631.238281 537.148438 1531.398438 552.046875 1460.511719 C 558.804688 1428.351562 574.878906 1421.160156 598.664062 1406.621094 C 444.171875 1193.441406 552.945312 1072.769531 624.5 1103.589844 C 687.613281 1130.769531 815.5 1324.921875 884.195312 1344.710938 C 905.390625 1281.738281 1004.550781 1185.898438 1058.5 1145.429688 C 1075.089844 1132.988281 1071.011719 1135.761719 1074.570312 1112.851562 C 1079.820312 1079.050781 1096.199219 1037.570312 1118.148438 1016.609375 C 1180.601562 956.96875 1218.328125 1045.011719 1225.910156 1053.398438 C 1269.171875 1046.03125 1288.511719 1030.421875 1372.128906 1020.988281 C 1391.160156 991.371094 1392.699219 971.429688 1421.648438 955.660156 Z M 1435.410156 696.058594 C 1414.070312 736.621094 1369.679688 717.710938 1347.011719 852.109375 C 1339.589844 896.058594 1359.46875 943.738281 1305.359375 956.679688 C 1285.839844 961.339844 1269.699219 967.230469 1252.320312 969.21875 C 1219.070312 923.929688 1154.128906 907.101562 1095.960938 941.808594 C 1067.519531 958.78125 1049.820312 981.640625 1032.230469 1009.390625 C 997.039062 1064.949219 1022.089844 1084.78125 991.703125 1104.960938 C 934.398438 1143.03125 894.5 1204.738281 877.136719 1213.429688 L 865.851562 1234.550781 C 838.414062 1226.109375 840.894531 1213.179688 821.824219 1192.539062 C 815.230469 1185.410156 809.664062 1181.960938 800.753906 1172.410156 C 771.476562 1141.058594 705.203125 1047.890625 652.679688 1034.371094 C 632.542969 1029.191406 607.742188 1020.210938 586.539062 1023.71875 C 533.300781 1032.550781 507.398438 1049.308594 483.402344 1080.890625 C 473.585938 1107.148438 459.933594 1117.988281 454.164062 1154.070312 C 441.324219 1234.339844 451.1875 1291.351562 485.28125 1360.570312 C 499.957031 1390.359375 504.535156 1390.460938 495.316406 1407.128906 C 486.542969 1423 487.550781 1427.601562 478.15625 1437.050781 C 477.578125 1465.988281 470.230469 1480.351562 477.1875 1514.78125 C 487.980469 1568.191406 524.796875 1648.359375 563.222656 1673.820312 C 563.839844 1704.921875 551.933594 1706.070312 562.195312 1746.53125 C 576.523438 1803.011719 589.621094 1820.078125 627.035156 1854.882812 C 631.65625 1859.183594 632.640625 1860.863281 636.511719 1864.347656 L 657.9375 1880.523438 C 669.042969 1889.410156 670.660156 1889.242188 683.632812 1896.0625 C 698.515625 1903.890625 695.808594 1900.691406 699.808594 1918.542969 C 714.453125 1983.894531 745.191406 2009.890625 802.960938 2040.769531 C 850.769531 2066.324219 833.90625 2045.035156 849.785156 2073.929688 C 868.964844 2108.828125 931.097656 2172 957.183594 2195.855469 L 1042.550781 2264.871094 C 1069.300781 2285.40625 1120.851562 2303.628906 1137.808594 2322.585938 C 1252.109375 2358.253906 1261.730469 2375.375 1401.859375 2385.355469 C 1504.398438 2392.65625 1594.578125 2377.1875 1685.308594 2345.101562 C 1795.140625 2306.257812 1860.058594 2262.238281 1940.230469 2189.203125 C 1961.230469 2170.074219 2026.710938 2095.980469 2037.550781 2079.46875 C 2042.121094 2072.519531 2047.589844 2060.078125 2052.179688 2052.683594 C 2084.589844 2000.4375 2078.890625 2011.90625 2109.429688 1947.652344 C 2144.808594 1873.222656 2145.191406 1817.121094 2160.808594 1750.398438 C 2165.941406 1728.46875 2195.519531 1717.128906 2216.660156 1681.601562 C 2233.988281 1652.46875 2227.441406 1677.761719 2264.199219 1604.738281 C 2345.011719 1444.21875 2326.601562 1228.589844 2243.230469 1070.820312 L 2238.671875 1066.25 C 2212.109375 1039.21875 2220.460938 1039.269531 2206.539062 1021.691406 C 2165.710938 970.160156 2145.070312 961.589844 2099 926.25 C 2066.988281 901.699219 1991.039062 877.96875 1952.828125 872.820312 C 1925.789062 869.171875 1907.320312 868.941406 1881.738281 871 C 1852.53125 873.359375 1836.339844 879.589844 1810.269531 882.570312 L 1776.308594 895.210938 C 1734.039062 789.019531 1704.121094 759.929688 1628.441406 703.148438 C 1613.589844 700.898438 1600.238281 691.339844 1583.730469 687.429688 C 1569.28125 684.011719 1549.460938 681.710938 1534.320312 680.738281 C 1493.71875 678.148438 1465.519531 692.570312 1435.410156 696.058594 "/>
<path fill-rule="evenodd" fill="rgb(5.999756%, 2.999878%, 2.999878%)" fill-opacity="1" d="M 1275.558594 2251.53125 C 1273.308594 2223.597656 1291.460938 2137.679688 1297.898438 2105.050781 C 1305.921875 2064.453125 1337.230469 2047.933594 1356.738281 1993.960938 C 1408.089844 1996.976562 1420.359375 2049.574219 1428.621094 2101.945312 C 1437.160156 2156.070312 1440.339844 2220.171875 1439.070312 2275.882812 C 1400.03125 2276.617188 1306.160156 2266.445312 1275.558594 2251.53125 Z M 1243.589844 2241.039062 C 1231.910156 2239.460938 1176.800781 2218.988281 1165.230469 2206.289062 C 1177.429688 2194.726562 1202.238281 2179.75 1215.769531 2169.667969 C 1234.828125 2155.460938 1254.21875 2135.253906 1263.238281 2130.539062 Z M 1495.609375 1808.828125 C 1470.898438 1795.671875 1482.46875 1789.578125 1469.890625 1790.421875 C 1446.28125 1859.460938 1642.449219 1941.335938 1686.398438 1897.15625 C 1673.328125 1887.113281 1666.820312 1891.441406 1653.339844 1885.847656 C 1656.738281 1878.257812 1662.289062 1872.589844 1668.171875 1864.605469 C 1671.089844 1860.636719 1671.890625 1858.167969 1675.851562 1853.5 C 1676.609375 1852.605469 1678.980469 1850.003906 1679.839844 1849.1875 C 1680.578125 1848.492188 1681.570312 1847.75 1682.28125 1847.136719 L 1687.738281 1843.199219 C 1700.921875 1863.433594 1716.808594 1873.164062 1727.289062 1897.28125 C 1739.578125 1925.550781 1730.339844 1955.257812 1712.308594 1972.640625 C 1671.898438 2011.59375 1624.859375 2006.410156 1564.78125 2016.910156 C 1578.230469 2036.410156 1618.511719 2038.671875 1640.148438 2039.972656 C 1637.78125 2094.667969 1624.570312 2158.988281 1607.070312 2206.746094 C 1602.550781 2219.070312 1598.230469 2230.074219 1593.269531 2241.835938 C 1584.5 2262.597656 1587 2260.613281 1563.609375 2264.992188 C 1532.730469 2270.773438 1502.71875 2275.554688 1470.800781 2275.183594 L 1471.289062 2249.949219 C 1500.558594 2250.960938 1542.140625 2262.105469 1565.339844 2243.992188 C 1564.511719 2243.539062 1563.148438 2242.160156 1562.691406 2242.996094 L 1517.371094 2238.511719 C 1501.550781 2236.445312 1485.328125 2231.945312 1470.019531 2230.023438 L 1460.070312 2103.679688 C 1494.371094 2112.050781 1559.238281 2141.1875 1596.578125 2119.582031 C 1592.359375 2116.949219 1600.449219 2119.640625 1588.269531 2115.851562 L 1558.960938 2110.765625 C 1544.519531 2108.445312 1533.03125 2105.851562 1518.808594 2101.804688 C 1413 2071.703125 1469.28125 2063.796875 1428.078125 2003.988281 C 1423.378906 1997.179688 1411.441406 1983.382812 1405.101562 1978.117188 C 1401.519531 1975.144531 1397.300781 1972.535156 1390.949219 1969.710938 L 1374.601562 1962.664062 C 1373.96875 1962.359375 1372.75 1961.789062 1371.890625 1961.246094 C 1376.808594 1946.066406 1383.929688 1921.046875 1391.789062 1908.535156 C 1409.5 1926.484375 1428.261719 1946.542969 1461.230469 1952.152344 C 1453.871094 1928.363281 1429.109375 1913.90625 1402.671875 1870.765625 C 1417.839844 1824.230469 1458.339844 1763.871094 1489.808594 1745.710938 L 1516.101562 1760.148438 Z M 1626.75 2247.476562 C 1663.210938 2140.78125 1663.210938 2161.828125 1672.539062 2037.886719 C 1720.929688 2025.570312 1761.429688 1995.621094 1769.398438 1942.316406 C 1773.96875 1911.6875 1762.738281 1883.980469 1749.039062 1864.214844 C 1732.71875 1840.695312 1715.578125 1832.421875 1701.128906 1814.21875 L 1713.980469 1789.800781 C 1837.480469 1778.851562 1886.421875 1770.5 1942.199219 1686.5 C 1951.269531 1693.851562 1955.699219 1705.800781 1960.421875 1716.839844 C 1965.878906 1729.628906 1970.03125 1740.171875 1976.160156 1749.261719 C 2011.320312 1754.609375 2023.820312 1736.921875 2051.238281 1730.761719 C 2038.648438 1912.8125 1924.789062 2078.152344 1787.289062 2171.9375 C 1755.660156 2193.511719 1671.308594 2240.675781 1626.75 2247.476562 Z M 1127.890625 2186.832031 C 1103.648438 2175.574219 1042.078125 2128.839844 1030.710938 2112.191406 C 1115.53125 2072.519531 1187.160156 2002.949219 1235.960938 1922.226562 C 1264.710938 1874.660156 1273 1834.550781 1295.738281 1782.21875 C 1306.191406 1758.160156 1316.371094 1737.53125 1329.589844 1718.078125 C 1344.980469 1695.441406 1358.851562 1683.988281 1375.078125 1663.058594 C 1385.789062 1668.820312 1406.699219 1687.679688 1416.199219 1695.570312 C 1429.738281 1706.820312 1446.359375 1716.300781 1456.871094 1727.511719 C 1451.71875 1736.949219 1454.710938 1732.699219 1446.480469 1740.820312 C 1431.050781 1756.078125 1426.449219 1760.128906 1412.320312 1781.988281 C 1350.921875 1876.976562 1363.578125 1946.324219 1286.96875 2048.640625 C 1252.03125 2095.3125 1181.421875 2161.765625 1127.890625 2186.832031 Z M 1236.71875 1663.578125 C 1252.351562 1649.121094 1250.058594 1628.671875 1259.300781 1598.589844 C 1300.058594 1602.808594 1336.539062 1608.578125 1354.789062 1637.03125 L 1303.550781 1699.710938 C 1302.988281 1700.359375 1302.140625 1701.300781 1301.628906 1701.890625 L 1297.539062 1706.289062 C 1278.679688 1696.710938 1259.148438 1684.308594 1245.121094 1693.578125 C 1255.960938 1705.871094 1271.941406 1711.878906 1287.269531 1717.910156 C 1285.808594 1734.839844 1231.421875 1866.382812 1218.460938 1889.558594 C 1196.101562 1929.554688 1136.839844 2004.699219 1105.269531 2020.0625 C 1085.878906 2005.070312 1087.769531 1978.410156 1067.578125 1972.195312 C 1060.460938 1993.835938 1080.378906 2016.363281 1085.941406 2036.644531 C 1071.730469 2048.496094 1022.890625 2082.246094 1003.488281 2086.328125 C 989.964844 2073.515625 941.96875 2021.140625 938.707031 2002.714844 C 958.355469 1992.910156 1030.398438 2003.75 1119.03125 1922.214844 C 1173.179688 1872.402344 1185.289062 1814.199219 1179.140625 1719.96875 C 1179.929688 1719.289062 1181.148438 1717.25 1181.570312 1718 C 1181.570312 1718 1187.898438 1712.019531 1201.789062 1707.058594 C 1214.941406 1702.359375 1220.46875 1703.941406 1227.210938 1693.578125 L 1217.769531 1690.359375 C 1216.730469 1690.210938 1215.578125 1689.96875 1214.410156 1689.890625 C 1208.929688 1689.46875 1206.371094 1690.050781 1201.078125 1691.109375 C 1192.410156 1692.851562 1182.078125 1697.109375 1176.898438 1699.761719 C 1172.398438 1693.648438 1144.769531 1621.628906 1143.671875 1614.410156 C 1164.75 1601.488281 1211.53125 1597.738281 1240.871094 1596.738281 C 1242.421875 1620.128906 1232.929688 1635.371094 1236.71875 1663.578125 Z M 1090.800781 1532.269531 C 1073.808594 1526.929688 1060.308594 1504.46875 1047.320312 1491.488281 C 1011.800781 1455.96875 939.386719 1398.578125 909.742188 1369.359375 C 927.195312 1315.808594 1032.78125 1202.269531 1071.441406 1180.449219 C 1073.601562 1204.28125 1076.71875 1226.140625 1082.320312 1248.789062 C 1088.101562 1272.109375 1098.339844 1292.800781 1102.898438 1312.808594 C 1076.550781 1324.988281 1072.441406 1324.699219 1060.988281 1351.589844 C 1038.789062 1403.761719 1057.191406 1462.808594 1089.191406 1506.390625 C 1100.988281 1522.460938 1100.359375 1517.890625 1090.800781 1532.269531 Z M 856.117188 1825.351562 C 793.574219 1820.121094 768.039062 1827.238281 722.074219 1790.179688 C 707.261719 1778.238281 692.394531 1764.808594 681.867188 1743.78125 C 663.636719 1707.359375 675.945312 1703.730469 691.839844 1680.828125 C 719.984375 1681.800781 733.109375 1693.460938 752.089844 1682.269531 C 736.707031 1655.390625 683.734375 1657.390625 631.050781 1583.421875 C 602.902344 1543.890625 565.3125 1464.351562 622.722656 1433.109375 C 643.675781 1441.230469 658.675781 1463.570312 689.820312 1459.960938 C 680.863281 1434.859375 606.421875 1398.851562 573.03125 1279.210938 C 563.515625 1245.109375 552.023438 1186.558594 577.230469 1158.101562 C 610.699219 1120.300781 658.445312 1176.828125 671.980469 1191.960938 C 710.804688 1235.378906 719.484375 1248.460938 760.726562 1287.929688 C 825.753906 1350.171875 910.261719 1413.230469 982.851562 1476.679688 C 994.417969 1486.789062 1007.640625 1502 1018.398438 1512.78125 C 1053.320312 1547.738281 1096.71875 1590.648438 1118.011719 1639.371094 C 1166.460938 1750.28125 1152.011719 1892.140625 1029.601562 1946.003906 C 955.703125 1978.519531 851.230469 1978.679688 810.53125 1909.082031 C 804.886719 1899.429688 789.40625 1861.972656 806.273438 1851.335938 C 827.269531 1838.097656 848.964844 1855.589844 856.117188 1825.351562 Z M 1312.671875 1576.628906 C 1214.820312 1561.5 1215.539062 1559.769531 1125.761719 1586.398438 L 1109.929688 1561.800781 C 1121.710938 1536.308594 1122.679688 1543.148438 1145.359375 1527.699219 C 1117.609375 1500.449219 1102.140625 1495.648438 1090.179688 1445.308594 C 1081.300781 1407.949219 1079.410156 1347.480469 1120.351562 1343.46875 C 1134.878906 1355.75 1142.398438 1376.941406 1163.730469 1375.328125 C 1162.050781 1362.378906 1147.890625 1344.089844 1141.550781 1328.980469 C 1117.289062 1271.160156 1099.230469 1203.730469 1105.269531 1139.410156 C 1111.179688 1076.578125 1156.371094 987.058594 1194.480469 1076.46875 C 1202.289062 1094.78125 1209.160156 1111.539062 1216.511719 1129.839844 C 1231.058594 1166.089844 1245.820312 1197.070312 1264.308594 1229.128906 C 1305.53125 1300.601562 1293.269531 1250.941406 1276.019531 1332.449219 C 1253.910156 1436.890625 1276.578125 1494.210938 1312.671875 1576.628906 Z M 1433.261719 1002.46875 L 1437.808594 1009.929688 C 1463.300781 1059.609375 1460.089844 1078.808594 1516.429688 1135.351562 C 1527.128906 1146.089844 1541.058594 1157.898438 1552.078125 1169.558594 C 1542.671875 1179.640625 1532.339844 1180.898438 1529.589844 1193.460938 C 1553.109375 1198.640625 1610.949219 1187.320312 1650.820312 1193.390625 C 1692.730469 1199.78125 1721.460938 1215.488281 1758.460938 1223.078125 C 1752.980469 1204 1733.800781 1189.46875 1718.191406 1182.46875 C 1734.199219 1119.210938 1737.539062 1109.871094 1736.578125 1038.761719 C 1754.089844 1031.710938 1770.238281 1016.011719 1793.621094 1005.769531 C 1815.128906 996.351562 1838.300781 989.511719 1864.488281 986.621094 C 1919.160156 980.601562 1973.609375 992.640625 2014.46875 1014.230469 C 2198.738281 1111.601562 2240.359375 1361.210938 2177.96875 1533.519531 C 2162.210938 1577.050781 2139.078125 1613.261719 2108.199219 1644.671875 C 2083.390625 1669.910156 2033.988281 1711.371094 1994.980469 1715.601562 C 1966.851562 1679.191406 1983.128906 1670.121094 1922.851562 1611.128906 C 1899.621094 1588.410156 1853.980469 1547.410156 1815.949219 1536.578125 C 1822.570312 1501.558594 1828.53125 1481.78125 1823.210938 1442.980469 C 1819.890625 1418.839844 1812.148438 1376.871094 1789.539062 1375.320312 C 1787.210938 1389.140625 1808.460938 1490.660156 1755.578125 1574.761719 C 1747.621094 1587.421875 1725.441406 1613.78125 1725.941406 1622.660156 L 1731.5 1623.660156 C 1745.28125 1623.269531 1759.089844 1612.269531 1768.890625 1603.128906 C 1785.160156 1587.960938 1788.96875 1580.390625 1802.710938 1563.730469 C 1828.570312 1571.148438 1911.03125 1626.609375 1920.679688 1657.71875 C 1887.871094 1690.160156 1892.359375 1703.179688 1829.578125 1731.480469 C 1786.910156 1750.71875 1741.859375 1757.25 1692.539062 1760.679688 C 1681.25 1798.128906 1637.570312 1852.53125 1617.28125 1877.023438 C 1578.320312 1871.316406 1543.480469 1849.726562 1516.980469 1833.230469 C 1520.738281 1819.800781 1543.199219 1783.019531 1553.011719 1746.359375 C 1540.589844 1733.78125 1250.890625 1621.28125 1316.398438 1331.421875 C 1332.75 1259.070312 1356.921875 1231.519531 1410.511719 1199.71875 C 1409.230469 1161.28125 1381.699219 1052.070312 1433.261719 1002.46875 Z M 1238.589844 1090.390625 C 1253.488281 1075.601562 1336.828125 1059.621094 1364.171875 1058.269531 C 1368.28125 1109.261719 1366.578125 1130.628906 1376.601562 1180.871094 C 1338.429688 1215.769531 1356.671875 1189.539062 1312.621094 1242.371094 C 1303.640625 1235.328125 1294.46875 1217.769531 1289.121094 1208.078125 C 1266.789062 1167.691406 1253.308594 1134.21875 1238.589844 1090.390625 Z M 1689.621094 1165.628906 C 1663.71875 1162.339844 1649.480469 1156.039062 1617.960938 1157.820312 C 1575.828125 1160.210938 1583.398438 1160.761719 1559.339844 1137.769531 C 1533.609375 1113.199219 1511.980469 1089.171875 1491.921875 1050.839844 C 1461.480469 992.648438 1424.429688 858.160156 1481.878906 807.378906 C 1516.71875 776.578125 1574.101562 798.019531 1599.039062 819.109375 C 1680.160156 887.738281 1740.191406 1088.78125 1689.621094 1165.628906 Z M 1421.648438 955.660156 C 1392.699219 971.429688 1391.160156 991.371094 1372.128906 1020.988281 C 1288.511719 1030.421875 1269.171875 1046.03125 1225.910156 1053.398438 C 1218.328125 1045.011719 1180.601562 956.96875 1118.148438 1016.609375 C 1096.199219 1037.570312 1079.820312 1079.050781 1074.570312 1112.851562 C 1071.011719 1135.761719 1075.089844 1132.988281 1058.5 1145.429688 C 1004.550781 1185.898438 905.390625 1281.738281 884.195312 1344.710938 C 815.5 1324.921875 687.613281 1130.769531 624.5 1103.589844 C 552.945312 1072.769531 444.171875 1193.441406 598.664062 1406.621094 C 574.878906 1421.160156 558.804688 1428.351562 552.046875 1460.511719 C 537.148438 1531.398438 607.011719 1631.238281 660.484375 1659.589844 C 653.273438 1669.03125 632.445312 1678.308594 634.101562 1719.960938 C 636.496094 1780.121094 709.703125 1841.90625 779.257812 1847.132812 C 764.636719 1889.824219 763.09375 1906.601562 790.765625 1940.226562 C 835.675781 1994.800781 874.367188 1972.210938 899.304688 2012.554688 C 1137.789062 2398.449219 1710.398438 2408.007812 1966.738281 2046.101562 C 1998.398438 2001.40625 2028.109375 1950.140625 2050.859375 1888.808594 C 2062.058594 1858.621094 2071.148438 1828.351562 2077.640625 1795.449219 C 2086.390625 1751.121094 2084.039062 1708.921875 2099.238281 1696.011719 C 2305.160156 1521.089844 2272.558594 1155.519531 2094.011719 1013.929688 C 2050.460938 979.398438 1991.921875 949.960938 1919.621094 946.238281 C 1820.691406 941.160156 1784.660156 978.328125 1731.089844 1001.839844 C 1714.128906 966.039062 1697.109375 821.160156 1584.699219 769.058594 C 1530.75 744.050781 1474.050781 754.050781 1444.960938 792.941406 C 1407.75 842.691406 1417.839844 890.230469 1421.648438 955.660156 "/>
<path fill-rule="evenodd" fill="rgb(100%, 100%, 100%)" fill-opacity="1" d="M 1001.300781 1838.125 C 1005.019531 1809.140625 1017.121094 1806.488281 1017.058594 1768.980469 L 1017.058594 1765.210938 C 1016.878906 1649.738281 921.355469 1613.710938 915.476562 1564.800781 C 968.222656 1563.199219 1032.488281 1632.980469 1053.941406 1677.351562 C 1082.429688 1736.289062 1082.699219 1840.289062 1001.300781 1838.125 Z M 671.980469 1191.960938 C 658.445312 1176.828125 610.699219 1120.300781 577.230469 1158.101562 C 552.023438 1186.558594 563.515625 1245.109375 573.03125 1279.210938 C 606.421875 1398.851562 680.863281 1434.859375 689.820312 1459.960938 C 658.675781 1463.570312 643.675781 1441.230469 622.722656 1433.109375 C 565.3125 1464.351562 602.902344 1543.890625 631.050781 1583.421875 C 683.734375 1657.390625 736.707031 1655.390625 752.089844 1682.269531 C 733.109375 1693.460938 719.984375 1681.800781 691.839844 1680.828125 C 675.945312 1703.730469 663.636719 1707.359375 681.867188 1743.78125 C 692.394531 1764.808594 707.261719 1778.238281 722.074219 1790.179688 C 768.039062 1827.238281 793.574219 1820.121094 856.117188 1825.351562 C 848.964844 1855.589844 827.269531 1838.097656 806.273438 1851.335938 C 789.40625 1861.972656 804.886719 1899.429688 810.53125 1909.082031 C 851.230469 1978.679688 955.703125 1978.519531 1029.601562 1946.003906 C 1152.011719 1892.140625 1166.460938 1750.28125 1118.011719 1639.371094 C 1096.71875 1590.648438 1053.320312 1547.738281 1018.398438 1512.78125 C 1007.640625 1502 994.417969 1486.789062 982.851562 1476.679688 C 910.261719 1413.230469 825.753906 1350.171875 760.726562 1287.929688 C 719.484375 1248.460938 710.804688 1235.378906 671.980469 1191.960938 "/>
<path fill-rule="evenodd" fill="rgb(100%, 100%, 100%)" fill-opacity="1" d="M 1626.75 2247.476562 C 1671.308594 2240.675781 1755.660156 2193.511719 1787.289062 2171.9375 C 1924.789062 2078.152344 2038.648438 1912.8125 2051.238281 1730.761719 C 2023.820312 1736.921875 2011.320312 1754.609375 1976.160156 1749.261719 C 1970.03125 1740.171875 1965.878906 1729.628906 1960.421875 1716.839844 C 1955.699219 1705.800781 1951.269531 1693.851562 1942.199219 1686.5 C 1886.421875 1770.5 1837.480469 1778.851562 1713.980469 1789.800781 L 1701.128906 1814.21875 C 1715.578125 1832.421875 1732.71875 1840.695312 1749.039062 1864.214844 C 1762.738281 1883.980469 1773.96875 1911.6875 1769.398438 1942.316406 C 1761.429688 1995.621094 1720.929688 2025.570312 1672.539062 2037.886719 C 1663.210938 2161.828125 1663.210938 2140.78125 1626.75 2247.476562 "/>
<path fill-rule="evenodd" fill="rgb(94.921875%, 86.914062%, 66.992188%)" fill-opacity="1" d="M 1516.101562 1760.148438 L 1489.808594 1745.710938 C 1458.339844 1763.871094 1417.839844 1824.230469 1402.671875 1870.765625 C 1429.109375 1913.90625 1453.871094 1928.363281 1461.230469 1952.152344 C 1428.261719 1946.542969 1409.5 1926.484375 1391.789062 1908.535156 C 1383.929688 1921.046875 1376.808594 1946.066406 1371.890625 1961.246094 C 1372.75 1961.789062 1373.96875 1962.359375 1374.601562 1962.664062 L 1390.949219 1969.710938 C 1397.300781 1972.535156 1401.519531 1975.144531 1405.101562 1978.117188 C 1411.441406 1983.382812 1423.378906 1997.179688 1428.078125 2003.988281 C 1469.28125 2063.796875 1413 2071.703125 1518.808594 2101.804688 C 1533.03125 2105.851562 1544.519531 2108.445312 1558.960938 2110.765625 L 1588.269531 2115.851562 C 1600.449219 2119.640625 1592.359375 2116.949219 1596.578125 2119.582031 C 1559.238281 2141.1875 1494.371094 2112.050781 1460.070312 2103.679688 L 1470.019531 2230.023438 C 1485.328125 2231.945312 1501.550781 2236.445312 1517.371094 2238.511719 L 1562.691406 2242.996094 C 1563.148438 2242.160156 1564.511719 2243.539062 1565.339844 2243.992188 C 1542.140625 2262.105469 1500.558594 2250.960938 1471.289062 2249.949219 L 1470.800781 2275.183594 C 1502.71875 2275.554688 1532.730469 2270.773438 1563.609375 2264.992188 C 1587 2260.613281 1584.5 2262.597656 1593.269531 2241.835938 C 1598.230469 2230.074219 1602.550781 2219.070312 1607.070312 2206.746094 C 1624.570312 2158.988281 1637.78125 2094.667969 1640.148438 2039.972656 C 1618.511719 2038.671875 1578.230469 2036.410156 1564.78125 2016.910156 C 1624.859375 2006.410156 1671.898438 2011.59375 1712.308594 1972.640625 C 1730.339844 1955.257812 1739.578125 1925.550781 1727.289062 1897.28125 C 1716.808594 1873.164062 1700.921875 1863.433594 1687.738281 1843.199219 L 1682.28125 1847.136719 C 1681.570312 1847.75 1680.578125 1848.492188 1679.839844 1849.1875 C 1678.980469 1850.003906 1676.609375 1852.605469 1675.851562 1853.5 C 1671.890625 1858.167969 1671.089844 1860.636719 1668.171875 1864.605469 C 1662.289062 1872.589844 1656.738281 1878.257812 1653.339844 1885.847656 C 1666.820312 1891.441406 1673.328125 1887.113281 1686.398438 1897.15625 C 1642.449219 1941.335938 1446.28125 1859.460938 1469.890625 1790.421875 C 1482.46875 1789.578125 1470.898438 1795.671875 1495.609375 1808.828125 L 1516.101562 1760.148438 "/>
<path fill-rule="evenodd" fill="rgb(100%, 100%, 100%)" fill-opacity="1" d="M 1312.671875 1576.628906 C 1276.578125 1494.210938 1253.910156 1436.890625 1276.019531 1332.449219 C 1293.269531 1250.941406 1305.53125 1300.601562 1264.308594 1229.128906 C 1245.820312 1197.070312 1231.058594 1166.089844 1216.511719 1129.839844 C 1209.160156 1111.539062 1202.289062 1094.78125 1194.480469 1076.46875 C 1156.371094 987.058594 1111.179688 1076.578125 1105.269531 1139.410156 C 1099.230469 1203.730469 1117.289062 1271.160156 1141.550781 1328.980469 C 1147.890625 1344.089844 1162.050781 1362.378906 1163.730469 1375.328125 C 1142.398438 1376.941406 1134.878906 1355.75 1120.351562 1343.46875 C 1079.410156 1347.480469 1081.300781 1407.949219 1090.179688 1445.308594 C 1102.140625 1495.648438 1117.609375 1500.449219 1145.359375 1527.699219 C 1122.679688 1543.148438 1121.710938 1536.308594 1109.929688 1561.800781 L 1125.761719 1586.398438 C 1215.539062 1559.769531 1214.820312 1561.5 1312.671875 1576.628906 "/>
<path fill-rule="evenodd" fill="rgb(99.021912%, 99.021912%, 99.021912%)" fill-opacity="1" d="M 1127.890625 2186.832031 C 1181.421875 2161.765625 1252.03125 2095.3125 1286.96875 2048.640625 C 1363.578125 1946.324219 1350.921875 1876.976562 1412.320312 1781.988281 C 1426.449219 1760.128906 1431.050781 1756.078125 1446.480469 1740.820312 C 1454.710938 1732.699219 1451.71875 1736.949219 1456.871094 1727.511719 C 1446.359375 1716.300781 1429.738281 1706.820312 1416.199219 1695.570312 C 1406.699219 1687.679688 1385.789062 1668.820312 1375.078125 1663.058594 C 1358.851562 1683.988281 1344.980469 1695.441406 1329.589844 1718.078125 C 1316.371094 1737.53125 1306.191406 1758.160156 1295.738281 1782.21875 C 1273 1834.550781 1264.710938 1874.660156 1235.960938 1922.226562 C 1187.160156 2002.949219 1115.53125 2072.519531 1030.710938 2112.191406 C 1042.078125 2128.839844 1103.648438 2175.574219 1127.890625 2186.832031 "/>
<path fill-rule="evenodd" fill="rgb(99.021912%, 99.021912%, 99.021912%)" fill-opacity="1" d="M 1532.171875 1033.839844 C 1528.191406 992.691406 1558.710938 975.429688 1586.160156 1001.421875 C 1602.421875 1016.820312 1619.011719 1049.269531 1622.28125 1079.011719 C 1632.421875 1171.140625 1539.828125 1113.089844 1532.171875 1033.839844 Z M 1689.621094 1165.628906 C 1740.191406 1088.78125 1680.160156 887.738281 1599.039062 819.109375 C 1574.101562 798.019531 1516.71875 776.578125 1481.878906 807.378906 C 1424.429688 858.160156 1461.480469 992.648438 1491.921875 1050.839844 C 1511.980469 1089.171875 1533.609375 1113.199219 1559.339844 1137.769531 C 1583.398438 1160.761719 1575.828125 1160.210938 1617.960938 1157.820312 C 1649.480469 1156.039062 1663.71875 1162.339844 1689.621094 1165.628906 "/>
<path fill-rule="evenodd" fill="rgb(75%, 5.999756%, 11.009216%)" fill-opacity="1" d="M 1236.71875 1663.578125 C 1232.929688 1635.371094 1242.421875 1620.128906 1240.871094 1596.738281 C 1211.53125 1597.738281 1164.75 1601.488281 1143.671875 1614.410156 C 1144.769531 1621.628906 1172.398438 1693.648438 1176.898438 1699.761719 C 1182.078125 1697.109375 1192.410156 1692.851562 1201.078125 1691.109375 C 1206.371094 1690.050781 1208.929688 1689.46875 1214.410156 1689.890625 C 1215.578125 1689.96875 1216.730469 1690.210938 1217.769531 1690.359375 L 1227.210938 1693.578125 C 1220.46875 1703.941406 1214.941406 1702.359375 1201.789062 1707.058594 C 1187.898438 1712.019531 1181.570312 1718 1181.570312 1718 C 1181.148438 1717.25 1179.929688 1719.289062 1179.140625 1719.96875 C 1185.289062 1814.199219 1173.179688 1872.402344 1119.03125 1922.214844 C 1030.398438 2003.75 958.355469 1992.910156 938.707031 2002.714844 C 941.96875 2021.140625 989.964844 2073.515625 1003.488281 2086.328125 C 1022.890625 2082.246094 1071.730469 2048.496094 1085.941406 2036.644531 C 1080.378906 2016.363281 1060.460938 1993.835938 1067.578125 1972.195312 C 1087.769531 1978.410156 1085.878906 2005.070312 1105.269531 2020.0625 C 1136.839844 2004.699219 1196.101562 1929.554688 1218.460938 1889.558594 C 1231.421875 1866.382812 1285.808594 1734.839844 1287.269531 1717.910156 C 1271.941406 1711.878906 1255.960938 1705.871094 1245.121094 1693.578125 C 1259.148438 1684.308594 1278.679688 1696.710938 1297.539062 1706.289062 L 1301.628906 1701.890625 C 1302.140625 1701.300781 1302.988281 1700.359375 1303.550781 1699.710938 L 1354.789062 1637.03125 C 1336.539062 1608.578125 1300.058594 1602.808594 1259.300781 1598.589844 C 1250.058594 1628.671875 1252.351562 1649.121094 1236.71875 1663.578125 "/>
<path fill-rule="evenodd" fill="rgb(93.943787%, 82.03125%, 22.996521%)" fill-opacity="1" d="M 1275.558594 2251.53125 C 1306.160156 2266.445312 1400.03125 2276.617188 1439.070312 2275.882812 C 1440.339844 2220.171875 1437.160156 2156.070312 1428.621094 2101.945312 C 1420.359375 2049.574219 1408.089844 1996.976562 1356.738281 1993.960938 C 1337.230469 2047.933594 1305.921875 2064.453125 1297.898438 2105.050781 C 1291.460938 2137.679688 1273.308594 2223.597656 1275.558594 2251.53125 "/>
<path fill-rule="evenodd" fill="rgb(99.021912%, 99.021912%, 99.021912%)" fill-opacity="1" d="M 1090.800781 1532.269531 C 1100.359375 1517.890625 1100.988281 1522.460938 1089.191406 1506.390625 C 1057.191406 1462.808594 1038.789062 1403.761719 1060.988281 1351.589844 C 1072.441406 1324.699219 1076.550781 1324.988281 1102.898438 1312.808594 C 1098.339844 1292.800781 1088.101562 1272.109375 1082.320312 1248.789062 C 1076.71875 1226.140625 1073.601562 1204.28125 1071.441406 1180.449219 C 1032.78125 1202.269531 927.195312 1315.808594 909.742188 1369.359375 C 939.386719 1398.578125 1011.800781 1455.96875 1047.320312 1491.488281 C 1060.308594 1504.46875 1073.808594 1526.929688 1090.800781 1532.269531 "/>
<path fill-rule="evenodd" fill="rgb(99.021912%, 99.021912%, 99.021912%)" fill-opacity="1" d="M 1238.589844 1090.390625 C 1253.308594 1134.21875 1266.789062 1167.691406 1289.121094 1208.078125 C 1294.46875 1217.769531 1303.640625 1235.328125 1312.621094 1242.371094 C 1356.671875 1189.539062 1338.429688 1215.769531 1376.601562 1180.871094 C 1366.578125 1130.628906 1368.28125 1109.261719 1364.171875 1058.269531 C 1336.828125 1059.621094 1253.488281 1075.601562 1238.589844 1090.390625 "/>
<path fill-rule="evenodd" fill="rgb(73.046875%, 81.054688%, 91.992188%)" fill-opacity="1" d="M 1017.058594 1765.210938 L 1017.058594 1768.980469 C 1017.121094 1806.488281 1005.019531 1809.140625 1001.300781 1838.125 C 1082.699219 1840.289062 1082.429688 1736.289062 1053.941406 1677.351562 C 1032.488281 1632.980469 968.222656 1563.199219 915.476562 1564.800781 C 921.355469 1613.710938 1016.878906 1649.738281 1017.058594 1765.210938 "/>
<path fill-rule="evenodd" fill="rgb(66.992188%, 66.992188%, 66.992188%)" fill-opacity="1" d="M 483.402344 1080.890625 C 507.398438 1049.308594 533.300781 1032.550781 586.539062 1023.71875 C 607.742188 1020.210938 632.542969 1029.191406 652.679688 1034.371094 C 705.203125 1047.890625 771.476562 1141.058594 800.753906 1172.410156 C 809.664062 1181.960938 815.230469 1185.410156 821.824219 1192.539062 C 840.894531 1213.179688 838.414062 1226.109375 865.851562 1234.550781 L 877.136719 1213.429688 C 886.476562 1203.140625 878.496094 1213.171875 882.882812 1201.140625 C 873.335938 1205.191406 877.703125 1205.621094 869.550781 1206.769531 C 869.269531 1206.808594 868.269531 1206.800781 868.015625 1206.808594 C 855.074219 1207.378906 862.210938 1206.101562 861.355469 1205.640625 C 855.355469 1202.460938 851.777344 1194.589844 848.511719 1189.519531 L 801.8125 1133.691406 C 778.734375 1112.960938 758.808594 1084.699219 734.914062 1064.921875 C 715.1875 1048.578125 693.984375 1021.609375 647.859375 1013.78125 C 609.921875 1007.339844 559.835938 1010.941406 527.878906 1033.648438 L 482.3125 1069.828125 C 476.035156 1079.710938 476.261719 1076.421875 471.363281 1087.179688 C 473.628906 1085.761719 479.523438 1082.898438 483.402344 1080.890625 "/>
<path fill-rule="evenodd" fill="rgb(4.998779%, 2.999878%, 2.999878%)" fill-opacity="1" d="M 1581.550781 1049.898438 C 1580.238281 1050.558594 1586.078125 1056.339844 1569.949219 1052.410156 C 1560.808594 1050.191406 1554.5 1036.78125 1556.628906 1026.421875 C 1561.390625 1003.328125 1594.230469 1022.398438 1581.550781 1049.898438 Z M 1532.171875 1033.839844 C 1539.828125 1113.089844 1632.421875 1171.140625 1622.28125 1079.011719 C 1619.011719 1049.269531 1602.421875 1016.820312 1586.160156 1001.421875 C 1558.710938 975.429688 1528.191406 992.691406 1532.171875 1033.839844 "/>
<path fill-rule="evenodd" fill="rgb(94.921875%, 88.084412%, 68.943787%)" fill-opacity="1" d="M 1263.238281 2130.539062 C 1254.21875 2135.253906 1234.828125 2155.460938 1215.769531 2169.667969 C 1202.238281 2179.75 1177.429688 2194.726562 1165.230469 2206.289062 C 1176.800781 2218.988281 1231.910156 2239.460938 1243.589844 2241.039062 L 1263.238281 2130.539062 "/>
<path fill-rule="evenodd" fill="rgb(4.998779%, 2.999878%, 3.999329%)" fill-opacity="1" d="M 2060.089844 1189.601562 C 2046.878906 1160.511719 2007.980469 1163.550781 2009.5 1119.46875 C 2043.039062 1118.261719 2057.691406 1154.71875 2073.289062 1177.230469 C 2079.269531 1169.320312 2079.351562 1188.398438 2076.230469 1163.648438 C 2075.128906 1154.890625 2059.128906 1126.898438 2053.011719 1119.039062 C 2011.25 1065.441406 1951.230469 1092.710938 2001.558594 1155.429688 C 2012.480469 1169.039062 2034.660156 1184.808594 2060.089844 1189.601562 "/>
<path fill-rule="evenodd" fill="rgb(98.046875%, 98.046875%, 98.046875%)" fill-opacity="1" d="M 1581.550781 1049.898438 C 1594.230469 1022.398438 1561.390625 1003.328125 1556.628906 1026.421875 C 1554.5 1036.78125 1560.808594 1050.191406 1569.949219 1052.410156 C 1586.078125 1056.339844 1580.238281 1050.558594 1581.550781 1049.898438 "/>
</svg>
