<?xml version="1.0" encoding="UTF-8"?>
<svg xmlns="http://www.w3.org/2000/svg" xmlns:xlink="http://www.w3.org/1999/xlink" width="2836" height="2835" viewBox="0 0 2836 2835">
<path fill-rule="evenodd" fill="rgb(100%, 100%, 100%)" fill-opacity="1" d="M 1 0.351562 L 2835.640625 0.351562 L 2835.640625 2835 L 1 2835 L 1 0.351562 "/>
<path fill-rule="evenodd" fill="rgb(96.09375%, 90.039062%, 37.988281%)" fill-opacity="1" d="M 814.40625 995.691406 L 804.464844 995.328125 L 804.898438 1004.371094 C 805.824219 1055.640625 858.472656 1124.121094 908.664062 1143.398438 C 939.550781 1155.269531 948.414062 1148.539062 978.269531 1148.988281 C 962.847656 1167.648438 955.328125 1153.21875 946.101562 1187.238281 C 914.019531 1305.449219 1034.46875 1371.921875 1018.53125 1474.570312 C 1008.96875 1536.140625 954.804688 1531.308594 930.242188 1535.589844 C 928.980469 1583.710938 958.316406 1611.050781 998.171875 1620.511719 C 993.414062 1645.089844 978.003906 1665.679688 972.4375 1699.480469 C 957.199219 1792.039062 1009.828125 1898.882812 1065.761719 1909.882812 C 1076.691406 1889.332031 1076.238281 1878.328125 1091.441406 1858.605469 C 1105.289062 1840.621094 1153.980469 1794.578125 1178.121094 1783.320312 C 1207.839844 1769.46875 1218.761719 1776.328125 1246.300781 1782.441406 C 1254.828125 1775.078125 1258.210938 1771.429688 1262.441406 1761.339844 C 1247.25 1735.199219 1214.71875 1696.378906 1208.5 1683.519531 C 1217.871094 1668.75 1237.621094 1653.878906 1262.898438 1650.75 C 1293.890625 1646.910156 1309.289062 1659.398438 1327.230469 1670.890625 C 1337.308594 1667.429688 1339.238281 1664.398438 1350.371094 1659.929688 C 1360.449219 1655.890625 1369.78125 1655.949219 1379.449219 1652.390625 C 1376.921875 1642.789062 1382.199219 1649.589844 1372.421875 1644.449219 C 1371.429688 1643.921875 1363.078125 1641.601562 1360.691406 1640.851562 C 1325.25 1629.730469 1310.421875 1615.929688 1289.878906 1608.578125 C 1267.960938 1619.808594 1255.191406 1632.210938 1221.300781 1631.160156 C 1192.050781 1630.261719 1170.890625 1617.171875 1155.761719 1602.851562 C 1094.171875 1544.5 1145.578125 1472.578125 1145.53125 1468.738281 C 1135.230469 1441.441406 1120.308594 1422.460938 1110.5 1389.910156 C 1090.839844 1324.660156 1085.589844 1165.890625 1047.078125 1116.179688 L 1011 1125.410156 C 1013.058594 1117.738281 1046.839844 1095.261719 1064.410156 1078.289062 C 1087.929688 1055.578125 1141.699219 983.621094 1148.160156 956.480469 C 1152.328125 938.949219 1120.859375 893.578125 1134.820312 873.46875 C 1163.5 941.039062 1221.261719 1004.480469 1285.609375 1037.21875 C 1319.160156 1054.289062 1326.539062 1044.078125 1359.679688 1028.191406 C 1425.238281 996.78125 1497.828125 949.320312 1554.96875 905.828125 C 1572.21875 892.691406 1597.859375 868.421875 1613.601562 860.019531 C 1616.890625 855.691406 1614.398438 858.050781 1618.789062 854.308594 C 1622.851562 850.851562 1614.53125 855.800781 1623.640625 852.039062 C 1622.511719 866.058594 1622.738281 858.339844 1619.078125 861.550781 C 1608.75 906.21875 1578.109375 884.039062 1603.691406 943.21875 C 1616.800781 973.53125 1631.75 999.359375 1648.960938 1022.53125 C 1679.441406 1063.558594 1716.660156 1099.25 1761.519531 1124.730469 C 1770.339844 1129.738281 1774.5 1131.679688 1780.050781 1139.640625 L 1745.960938 1132.449219 C 1737.640625 1135.308594 1742.890625 1133.128906 1738.171875 1136.28125 C 1737.671875 1136.609375 1736.789062 1138.800781 1736.429688 1138.199219 C 1736.070312 1137.609375 1735.480469 1139.648438 1734.988281 1140.371094 C 1734.941406 1215.011719 1706.921875 1308.808594 1662.710938 1368.488281 C 1649.371094 1386.488281 1622.328125 1411.019531 1614.890625 1427.03125 L 1657.511719 1424.71875 L 1635.808594 1529.558594 C 1720.761719 1455.449219 1776.320312 1373.910156 1811.058594 1261.601562 C 1817.101562 1242.070312 1836.628906 1145.011719 1839.378906 1140.78125 L 1841.460938 1206.761719 C 1874.78125 1208.949219 1889.738281 1215.820312 1898.480469 1243.148438 C 1917.589844 1302.96875 1884.230469 1368.410156 1837.738281 1409.539062 C 1829.449219 1416.878906 1816.800781 1423.03125 1810.628906 1431.390625 C 1824.640625 1449.851562 1848.421875 1464.25 1849.410156 1509.519531 C 1850.230469 1546.761719 1831.871094 1574.988281 1811.300781 1591.730469 C 1755.378906 1637.25 1676.910156 1608.550781 1654.699219 1552.179688 C 1637.289062 1557.761719 1622.390625 1573.75 1602.679688 1580.800781 C 1595.71875 1586.660156 1611.160156 1582.210938 1594.730469 1586.058594 C 1587.199219 1576.019531 1593.410156 1579.628906 1595.070312 1577.070312 L 1602.210938 1550.121094 L 1579.441406 1564.371094 L 1576.769531 1646.621094 C 1628.558594 1649.941406 1609.71875 1649 1647.839844 1663.820312 C 1668.71875 1647.871094 1692.410156 1621.300781 1703.511719 1618.148438 C 1697.289062 1670.941406 1600.230469 1734.851562 1555.320312 1762.140625 C 1491.679688 1800.808594 1427.589844 1825.648438 1358.269531 1857.582031 C 1285.160156 1891.253906 1229.390625 1928.898438 1189.550781 1981.625 C 1168.179688 2009.910156 1153.300781 2040.058594 1132.761719 2071.144531 C 1110.039062 2105.519531 1090.550781 2121.777344 1033.640625 2121.113281 C 1032.789062 2198.246094 1076.449219 2220.757812 1145.980469 2232.378906 C 1136.28125 2261.480469 1117.398438 2270.191406 1117.429688 2315.410156 C 1117.460938 2351.296875 1136.039062 2379.203125 1156.03125 2389.78125 C 1161.648438 2382.726562 1163.28125 2373.199219 1167.589844 2364.378906 C 1172.148438 2355.03125 1177.730469 2349.042969 1180.789062 2340.890625 C 1183.800781 2325.5625 1186.160156 2320.242188 1202.71875 2321.160156 C 1208.898438 2328.851562 1211.558594 2337.410156 1205.089844 2348.8125 C 1200.101562 2357.609375 1205.390625 2351.71875 1197.128906 2355.855469 C 1182.878906 2400.007812 1188.628906 2453.601562 1204.800781 2493.890625 C 1217.179688 2524.746094 1250.859375 2566.535156 1285.429688 2572.730469 C 1318.011719 2415.113281 1405.460938 2411.671875 1459.648438 2313.960938 C 1466.359375 2301.867188 1471.691406 2281.890625 1482.929688 2274.9375 C 1493.851562 2338.746094 1439.101562 2395.0625 1426.820312 2418.050781 C 1455.910156 2417.074219 1485.53125 2403.085938 1504.929688 2390.5625 C 1516.261719 2383.25 1526.539062 2376.203125 1535.621094 2368.203125 C 1547.03125 2358.160156 1553.308594 2349.941406 1563.800781 2342.4375 C 1565.511719 2344.308594 1565.671875 2343.90625 1568.050781 2348.375 C 1576.710938 2364.59375 1580.410156 2403.476562 1582.511719 2421.539062 C 1644.601562 2408.25 1726.578125 2353.050781 1761.351562 2320.023438 C 1802.140625 2281.285156 1846.390625 2211 1858.519531 2133.539062 C 1887.921875 2138.1875 1911.648438 2160.898438 1934.210938 2170.078125 C 1943.429688 2158.519531 1950.671875 2138.144531 1952.949219 2119.304688 C 1942.261719 2107.242188 1926.589844 2101.816406 1925.300781 2079.535156 C 1929.828125 2079.867188 2051.148438 2125.679688 2076.679688 2057.046875 C 2052.710938 2029.515625 1942.179688 2029.804688 2016.53125 1815.898438 C 2058.25 1695.871094 2069.289062 1656.550781 2064.859375 1533.949219 C 2064.128906 1513.949219 2065.308594 1519.609375 2066.140625 1516.519531 C 2066.328125 1515.789062 2066.871094 1514.730469 2067.050781 1514.160156 C 2067.230469 1513.601562 2067.621094 1512.589844 2068.058594 1511.890625 C 2086.910156 1531.570312 2089.730469 1592.371094 2091.738281 1626 C 2116.011719 1623.199219 2151.019531 1563.640625 2152.199219 1524.769531 C 2141.019531 1518.410156 2125.671875 1515.160156 2115.429688 1508.511719 C 2033.578125 1455.25 2068.828125 1299.050781 2039.53125 1217.570312 C 2039.191406 1216.628906 2038.101562 1213.929688 2037.691406 1213.039062 C 2034.53125 1206.21875 2036.511719 1210.011719 2033.820312 1206.25 C 2004.929688 1208.148438 1966.660156 1214.328125 1944.679688 1198.261719 C 1973.898438 1188.851562 1998.179688 1187.46875 2027.320312 1175.851562 C 2055.660156 1164.539062 2075.921875 1151.460938 2095.171875 1134.828125 C 2127.289062 1107.070312 2166.648438 1052.550781 2160.101562 984.128906 C 2138.621094 991.789062 2127.109375 998.96875 2099.261719 999.550781 C 2074.53125 1000.070312 2048.238281 993.898438 2036.828125 980.039062 C 2050.039062 957.210938 2083.738281 927.558594 2086.179688 871.570312 C 1968.558594 874.03125 1937.03125 881.339844 1874.800781 806.011719 C 1832.53125 754.839844 1789.320312 705.921875 1721.878906 672.53125 C 1621.179688 622.679688 1478.511719 628.449219 1384.941406 698.449219 C 1340.050781 732.039062 1339.660156 738.378906 1309.660156 763.988281 C 1309.28125 748 1319.949219 738.628906 1323.578125 724.980469 C 1287.550781 703.75 1275.789062 684.738281 1211.898438 665.800781 C 1163.25 651.378906 1111.828125 655.328125 1069.308594 675.441406 C 982.273438 716.578125 963.734375 802.078125 967.03125 919.078125 C 961.070312 914.339844 959.152344 908.429688 953.699219 902.101562 C 902.152344 904.148438 896.839844 903.761719 848.3125 895.789062 C 858.074219 932.671875 874.480469 949.519531 894.605469 973.640625 C 903.0625 983.78125 898.609375 975.101562 902.0625 986.890625 C 860.550781 997.941406 859.609375 995.558594 814.40625 995.691406 "/>
<path fill-rule="evenodd" fill="rgb(10.009766%, 9.008789%, 7.006836%)" fill-opacity="1" d="M 1120.238281 2027.621094 C 1115.519531 2035.484375 1115.800781 2036.714844 1109.339844 2042.90625 C 1086.550781 2040.9375 1075.878906 2026.542969 1074.839844 2004.03125 C 1094.839844 2017.25 1097.671875 2022.628906 1127.640625 2011.503906 C 1126.140625 2017.835938 1123.109375 2022.832031 1120.238281 2027.621094 Z M 1155.769531 1834.988281 C 1221.730469 1817.140625 1167.820312 1972.53125 1113.199219 1989.445312 C 1055.859375 2007.203125 1082.910156 1854.703125 1155.769531 1834.988281 Z M 1235.039062 1886.882812 C 1230.820312 1894.015625 1209.058594 1910.316406 1202.019531 1914.039062 C 1206.980469 1890.394531 1214.21875 1876.816406 1210.550781 1849.117188 C 1206.710938 1820.179688 1198.53125 1819.300781 1177.699219 1808.03125 C 1189.128906 1797.019531 1241.75 1778.21875 1242.890625 1835.945312 C 1243.171875 1850.015625 1241.550781 1875.902344 1235.039062 1886.882812 Z M 1271.230469 1861.820312 C 1271.050781 1847.265625 1265.320312 1816.980469 1270.210938 1807.410156 C 1285.761719 1777.011719 1310.28125 1784.96875 1353.25 1785.601562 C 1351.191406 1790.75 1326.578125 1831.71875 1322.921875 1834.851562 C 1319.140625 1838.09375 1276.800781 1860.179688 1271.230469 1861.820312 Z M 1377.03125 1811.5 C 1389.101562 1786.941406 1420.421875 1759.660156 1445.109375 1745.578125 C 1478.800781 1726.351562 1507.839844 1720.441406 1553.371094 1725.71875 C 1551.28125 1732.339844 1549.128906 1732.320312 1535.929688 1739.699219 C 1500.539062 1759.5 1407.660156 1804.851562 1377.03125 1811.5 Z M 1433.078125 1714.96875 C 1428.808594 1721.320312 1414.050781 1728.460938 1407.828125 1732.941406 C 1367.429688 1762.019531 1404.390625 1761.070312 1292.53125 1758.320312 C 1277.03125 1732.910156 1246.03125 1698.148438 1246.519531 1683.519531 C 1289.429688 1661.078125 1308.070312 1694.480469 1327.230469 1708.550781 C 1344.078125 1699.589844 1349.449219 1681.898438 1380.148438 1680.03125 C 1399.289062 1678.871094 1428.75 1686.75 1434.621094 1704.96875 C 1450.179688 1702.238281 1444.648438 1697.019531 1458.429688 1686.921875 C 1480.039062 1671.089844 1515.710938 1668.921875 1538.03125 1691.441406 C 1454.078125 1702.101562 1510.480469 1689.449219 1433.078125 1714.96875 Z M 1558.058594 1692.859375 C 1569.109375 1669.238281 1603.859375 1669.898438 1622.878906 1680.378906 C 1619.191406 1687.808594 1601.46875 1701 1594.398438 1702.320312 C 1584.449219 1704.179688 1565.019531 1697.578125 1558.058594 1692.859375 Z M 1417.160156 1652.390625 C 1421.980469 1643.289062 1423.300781 1645.589844 1435.109375 1641.941406 C 1442.019531 1639.808594 1446.019531 1638.449219 1453.339844 1635.308594 C 1488.460938 1620.21875 1540.46875 1587.308594 1551.21875 1583.890625 L 1547.839844 1661.660156 C 1532.558594 1658.800781 1512.480469 1641.820312 1473.078125 1652.179688 C 1459.480469 1655.761719 1428.269531 1682.421875 1417.160156 1652.390625 Z M 1266.921875 1593.25 C 1235.371094 1632.128906 1116.25 1596.011719 1158.730469 1492.890625 C 1168.128906 1496.179688 1168.699219 1497.941406 1174.910156 1505.949219 C 1214.320312 1556.769531 1255.980469 1580.859375 1266.921875 1593.25 Z M 1753.859375 1443.839844 C 1769.109375 1429.21875 1824.148438 1461.898438 1822.160156 1515.289062 C 1818.878906 1603.578125 1701.328125 1605.449219 1679.988281 1544.519531 C 1675.148438 1530.710938 1679.191406 1528.429688 1687.378906 1520.761719 C 1724.921875 1485.578125 1742.441406 1454.789062 1753.859375 1443.839844 Z M 1837.75 1231.628906 C 1869.839844 1231.128906 1876.5 1245.480469 1877.390625 1275.71875 C 1879.75 1356.019531 1799.378906 1416.308594 1775.628906 1415.121094 L 1823.710938 1305.261719 C 1831.769531 1295.570312 1846.269531 1293.101562 1853.578125 1281 L 1827.679688 1286.351562 Z M 1444.070312 1270.371094 C 1438.691406 1205.148438 1479.570312 1138.828125 1531.011719 1127.648438 C 1620.371094 1108.230469 1628.539062 1184.328125 1619.648438 1255.871094 C 1621.988281 1265.589844 1618.109375 1259.050781 1623.101562 1264.121094 C 1634.25 1222.308594 1651.570312 1258.011719 1670.28125 1218.621094 C 1655.179688 1223.910156 1653.398438 1226.179688 1634.300781 1226.738281 L 1637.238281 1199.421875 C 1661.269531 1184.371094 1678.109375 1186.539062 1684.828125 1151.390625 C 1673.75 1160.210938 1660.941406 1175.878906 1636.738281 1171.191406 L 1633.210938 1154.359375 C 1641.371094 1143.878906 1647.839844 1144.21875 1656.359375 1128.558594 C 1662.851562 1116.628906 1663.960938 1102.078125 1663.640625 1086.050781 C 1682.261719 1094.558594 1690.171875 1107.898438 1711.640625 1115.710938 C 1714.230469 1186.320312 1694.300781 1266.730469 1665.078125 1318.03125 C 1639.789062 1362.410156 1615.78125 1386.191406 1581.070312 1420.609375 C 1570.238281 1431.339844 1557.828125 1435.480469 1550.628906 1450.800781 L 1622.109375 1454.5 C 1623.429688 1471.679688 1617.828125 1503.269531 1605.679688 1513.710938 C 1576.578125 1538.710938 1497.460938 1586.738281 1461.390625 1602.910156 C 1409.609375 1626.128906 1394.96875 1628.441406 1341.53125 1603.859375 C 1304.609375 1586.878906 1274.871094 1568.28125 1247.140625 1545.71875 C 1120.78125 1442.941406 1132.089844 1353.761719 1106.769531 1218.691406 C 1096.339844 1163.058594 1077.859375 1126.609375 1072.488281 1101.441406 C 1081.699219 1090.21875 1091.890625 1085.078125 1101.660156 1075.109375 C 1134.628906 1041.441406 1143.269531 1020.28125 1168.480469 983.949219 C 1180.390625 992.429688 1194.398438 1012.070312 1208.421875 1024.140625 C 1225.488281 1038.839844 1235.960938 1045.609375 1255.878906 1057.480469 C 1311.5 1090.640625 1312.359375 1085.871094 1370.25 1060.359375 C 1462.769531 1019.589844 1562.160156 936.859375 1567.75 934.78125 C 1582.558594 1002.628906 1628.699219 1043.960938 1660.101562 1082.761719 C 1655.96875 1103.75 1641.96875 1121.78125 1622.941406 1128.039062 C 1610.949219 1119.589844 1611.488281 1112.890625 1594.789062 1104.640625 C 1583.269531 1098.949219 1569.179688 1096.140625 1554.441406 1096.160156 C 1501.671875 1096.199219 1461.128906 1138.730469 1445.019531 1184.839844 C 1439.679688 1200.121094 1422.550781 1263.289062 1444.070312 1270.371094 Z M 1197.128906 2355.855469 L 1202.621094 2326.847656 C 1190.261719 2330.769531 1190.941406 2335.09375 1180.789062 2340.890625 C 1177.730469 2349.042969 1172.148438 2355.03125 1167.589844 2364.378906 C 1163.28125 2373.199219 1161.648438 2382.726562 1156.03125 2389.78125 C 1136.039062 2379.203125 1117.460938 2351.296875 1117.429688 2315.410156 C 1117.398438 2270.191406 1136.28125 2261.480469 1145.980469 2232.378906 C 1076.449219 2220.757812 1032.789062 2198.246094 1033.640625 2121.113281 C 1090.550781 2121.777344 1110.039062 2105.519531 1132.761719 2071.144531 C 1153.300781 2040.058594 1168.179688 2009.910156 1189.550781 1981.625 C 1229.390625 1928.898438 1285.160156 1891.253906 1358.269531 1857.582031 C 1427.589844 1825.648438 1491.679688 1800.808594 1555.320312 1762.140625 C 1600.230469 1734.851562 1697.289062 1670.941406 1703.511719 1618.148438 C 1692.410156 1621.300781 1668.71875 1647.871094 1647.839844 1663.820312 C 1609.71875 1649 1628.558594 1649.941406 1576.769531 1646.621094 L 1579.441406 1564.371094 L 1602.210938 1550.121094 L 1595.070312 1577.070312 C 1597.648438 1582.75 1590.621094 1582.078125 1602.679688 1580.800781 C 1622.390625 1573.75 1637.289062 1557.761719 1654.699219 1552.179688 C 1676.910156 1608.550781 1755.378906 1637.25 1811.300781 1591.730469 C 1831.871094 1574.988281 1850.230469 1546.761719 1849.410156 1509.519531 C 1848.421875 1464.25 1824.640625 1449.851562 1810.628906 1431.390625 C 1816.800781 1423.03125 1829.449219 1416.878906 1837.738281 1409.539062 C 1884.230469 1368.410156 1917.589844 1302.96875 1898.480469 1243.148438 C 1889.738281 1215.820312 1874.78125 1208.949219 1841.460938 1206.761719 L 1839.378906 1140.78125 C 1836.628906 1145.011719 1817.101562 1242.070312 1811.058594 1261.601562 C 1776.320312 1373.910156 1720.761719 1455.449219 1635.808594 1529.558594 L 1657.511719 1424.71875 L 1614.890625 1427.03125 C 1622.328125 1411.019531 1649.371094 1386.488281 1662.710938 1368.488281 C 1706.921875 1308.808594 1734.941406 1215.011719 1734.988281 1140.371094 L 1735.828125 1130 C 1753.28125 1127.371094 1741.738281 1129.738281 1745.960938 1132.449219 L 1780.050781 1139.640625 C 1774.5 1131.679688 1770.339844 1129.738281 1761.519531 1124.730469 C 1716.660156 1099.25 1679.441406 1063.558594 1648.960938 1022.53125 C 1631.75 999.359375 1616.800781 973.53125 1603.691406 943.21875 C 1578.109375 884.039062 1608.75 906.21875 1619.078125 861.550781 C 1616.890625 857.21875 1622.378906 856.148438 1613.601562 860.019531 C 1597.859375 868.421875 1572.21875 892.691406 1554.96875 905.828125 C 1497.828125 949.320312 1425.238281 996.78125 1359.679688 1028.191406 C 1326.539062 1044.078125 1319.160156 1054.289062 1285.609375 1037.21875 C 1221.261719 1004.480469 1163.5 941.039062 1134.820312 873.46875 C 1120.859375 893.578125 1152.328125 938.949219 1148.160156 956.480469 C 1141.699219 983.621094 1087.929688 1055.578125 1064.410156 1078.289062 C 1046.839844 1095.261719 1013.058594 1117.738281 1011 1125.410156 L 1047.078125 1116.179688 C 1085.589844 1165.890625 1090.839844 1324.660156 1110.5 1389.910156 C 1120.308594 1422.460938 1135.230469 1441.441406 1145.53125 1468.738281 C 1145.578125 1472.578125 1094.171875 1544.5 1155.761719 1602.851562 C 1170.890625 1617.171875 1192.050781 1630.261719 1221.300781 1631.160156 C 1255.191406 1632.210938 1267.960938 1619.808594 1289.878906 1608.578125 C 1310.421875 1615.929688 1325.25 1629.730469 1360.691406 1640.851562 C 1363.078125 1641.601562 1371.429688 1643.921875 1372.421875 1644.449219 C 1382.199219 1649.589844 1376.921875 1642.789062 1379.449219 1652.390625 C 1369.78125 1655.949219 1360.449219 1655.890625 1350.371094 1659.929688 C 1339.238281 1664.398438 1337.308594 1667.429688 1327.230469 1670.890625 C 1309.289062 1659.398438 1293.890625 1646.910156 1262.898438 1650.75 C 1237.621094 1653.878906 1217.871094 1668.75 1208.5 1683.519531 C 1214.71875 1696.378906 1247.25 1735.199219 1262.441406 1761.339844 C 1258.210938 1771.429688 1254.828125 1775.078125 1246.300781 1782.441406 C 1218.761719 1776.328125 1207.839844 1769.46875 1178.121094 1783.320312 C 1153.980469 1794.578125 1105.289062 1840.621094 1091.441406 1858.605469 C 1076.238281 1878.328125 1076.691406 1889.332031 1065.761719 1909.882812 C 1009.828125 1898.882812 957.199219 1792.039062 972.4375 1699.480469 C 978.003906 1665.679688 993.414062 1645.089844 998.171875 1620.511719 C 958.316406 1611.050781 928.980469 1583.710938 930.242188 1535.589844 C 954.804688 1531.308594 1008.96875 1536.140625 1018.53125 1474.570312 C 1034.46875 1371.921875 914.019531 1305.449219 946.101562 1187.238281 C 955.328125 1153.21875 962.847656 1167.648438 978.269531 1148.988281 C 948.414062 1148.539062 939.550781 1155.269531 908.664062 1143.398438 C 858.472656 1124.121094 805.824219 1055.640625 804.898438 1004.371094 C 799.253906 997.378906 801.566406 1003.941406 800.6875 991.898438 C 812.277344 992.070312 805.738281 989.808594 814.40625 995.691406 C 859.609375 995.558594 860.550781 997.941406 902.0625 986.890625 C 898.609375 975.101562 903.0625 983.78125 894.605469 973.640625 C 874.480469 949.519531 858.074219 932.671875 848.3125 895.789062 C 896.839844 903.761719 902.152344 904.148438 953.699219 902.101562 C 959.152344 908.429688 961.070312 914.339844 967.03125 919.078125 C 963.734375 802.078125 982.273438 716.578125 1069.308594 675.441406 C 1111.828125 655.328125 1163.25 651.378906 1211.898438 665.800781 C 1275.789062 684.738281 1287.550781 703.75 1323.578125 724.980469 C 1319.949219 738.628906 1309.28125 748 1309.660156 763.988281 C 1339.660156 738.378906 1340.050781 732.039062 1384.941406 698.449219 C 1478.511719 628.449219 1621.179688 622.679688 1721.878906 672.53125 C 1789.320312 705.921875 1832.53125 754.839844 1874.800781 806.011719 C 1937.03125 881.339844 1968.558594 874.03125 2086.179688 871.570312 C 2083.738281 927.558594 2050.039062 957.210938 2036.828125 980.039062 C 2048.238281 993.898438 2074.53125 1000.070312 2099.261719 999.550781 C 2127.109375 998.96875 2138.621094 991.789062 2160.101562 984.128906 C 2166.648438 1052.550781 2127.289062 1107.070312 2095.171875 1134.828125 C 2075.921875 1151.460938 2055.660156 1164.539062 2027.320312 1175.851562 C 1998.179688 1187.46875 1973.898438 1188.851562 1944.679688 1198.261719 C 1966.660156 1214.328125 2004.929688 1208.148438 2033.820312 1206.25 C 2036.511719 1210.011719 2034.53125 1206.21875 2037.691406 1213.039062 C 2038.101562 1213.929688 2039.191406 1216.628906 2039.53125 1217.570312 C 2068.828125 1299.050781 2033.578125 1455.25 2115.429688 1508.511719 C 2125.671875 1515.160156 2141.019531 1518.410156 2152.199219 1524.769531 C 2151.019531 1563.640625 2116.011719 1623.199219 2091.738281 1626 C 2089.730469 1592.371094 2086.910156 1531.570312 2068.058594 1511.890625 C 2067.621094 1512.589844 2067.230469 1513.601562 2067.050781 1514.160156 C 2066.871094 1514.730469 2066.328125 1515.789062 2066.140625 1516.519531 C 2065.308594 1519.609375 2064.128906 1513.949219 2064.859375 1533.949219 C 2069.289062 1656.550781 2058.25 1695.871094 2016.53125 1815.898438 C 1942.179688 2029.804688 2052.710938 2029.515625 2076.679688 2057.046875 C 2051.148438 2125.679688 1929.828125 2079.867188 1925.300781 2079.535156 C 1926.589844 2101.816406 1942.261719 2107.242188 1952.949219 2119.304688 C 1950.671875 2138.144531 1943.429688 2158.519531 1934.210938 2170.078125 C 1911.648438 2160.898438 1887.921875 2138.1875 1858.519531 2133.539062 C 1846.390625 2211 1802.140625 2281.285156 1761.351562 2320.023438 C 1726.578125 2353.050781 1644.601562 2408.25 1582.511719 2421.539062 C 1580.410156 2403.476562 1576.710938 2364.59375 1568.050781 2348.375 C 1565.671875 2343.90625 1565.511719 2344.308594 1563.800781 2342.4375 C 1553.308594 2349.941406 1547.03125 2358.160156 1535.621094 2368.203125 C 1526.539062 2376.203125 1516.261719 2383.25 1504.929688 2390.5625 C 1485.53125 2403.085938 1455.910156 2417.074219 1426.820312 2418.050781 C 1439.101562 2395.0625 1493.851562 2338.746094 1482.929688 2274.9375 C 1471.691406 2281.890625 1466.359375 2301.867188 1459.648438 2313.960938 C 1405.460938 2411.671875 1318.011719 2415.113281 1285.429688 2572.730469 C 1250.859375 2566.535156 1217.179688 2524.746094 1204.800781 2493.890625 C 1188.628906 2453.601562 1182.878906 2400.007812 1197.128906 2355.855469 Z M 1171.171875 614.601562 C 1173.5 589.03125 1167.960938 574.730469 1187.160156 563.390625 C 1193.871094 572.691406 1195.351562 593.789062 1196.558594 607.101562 C 1197.871094 609.289062 1199.199219 610.109375 1200.519531 615.699219 C 1201.96875 621.859375 1200.800781 620.191406 1200.359375 626.480469 C 1188.769531 625.949219 1172.828125 626.75 1171.171875 614.601562 Z M 1673.839844 614.808594 C 1670.710938 532.988281 1737.808594 540.03125 1719.410156 630.289062 Z M 1289.878906 593.410156 C 1298.390625 607.980469 1298.828125 635.761719 1310.320312 654.441406 C 1329.058594 684.890625 1343.71875 680.929688 1351.148438 692.761719 L 1342.789062 700.96875 C 1327.261719 696.179688 1301.230469 659.921875 1231.140625 634.628906 L 1226.328125 596.359375 Z M 1357.429688 502.269531 C 1399.910156 487.308594 1428.28125 533.378906 1431.25 572.140625 C 1434.851562 619.160156 1418.988281 644.890625 1380.609375 666.449219 C 1316.988281 702.179688 1268.898438 533.460938 1357.429688 502.269531 Z M 1454.851562 590.230469 L 1595.238281 593.390625 C 1613.140625 595.851562 1603.589844 591.691406 1608.390625 600.289062 C 1607.621094 600.648438 1606.550781 600.929688 1605.941406 601.058594 C 1591.820312 604.171875 1557.011719 600.269531 1519.710938 605.878906 C 1495.050781 609.589844 1462.421875 623.511719 1446.519531 624.710938 Z M 1695.769531 525.609375 C 1702.289062 530.488281 1698.289062 519.449219 1701.75 531.808594 C 1697.449219 535.601562 1707.019531 535.410156 1691.800781 536.148438 C 1664.488281 539.761719 1656.449219 576.730469 1655.578125 609.640625 L 1633.050781 606.519531 C 1623.449219 564.941406 1663.148438 496.730469 1695.769531 525.609375 Z M 1211.53125 441.121094 C 1220.140625 450.808594 1278.199219 502.621094 1286.761719 506.039062 C 1296.320312 497.730469 1304.921875 484.019531 1312.730469 473.730469 C 1339.769531 438.121094 1370.46875 406.730469 1392.101562 379.359375 C 1412.578125 388.488281 1465.339844 457.03125 1485.398438 482.53125 C 1494.21875 493.730469 1503.859375 509.28125 1513.988281 518.910156 C 1536.28125 513.300781 1650.238281 444.660156 1695.140625 432.191406 L 1687.941406 496.988281 C 1637.980469 501.359375 1619.980469 531 1610.429688 578.570312 L 1454.921875 572.988281 L 1449.28125 552.390625 C 1448.179688 547.230469 1446.53125 540.78125 1444.820312 535.769531 C 1441.289062 525.421875 1434.960938 514.148438 1429.78125 507.140625 C 1417.640625 490.699219 1398.800781 475.109375 1371.039062 476.289062 C 1310.910156 478.851562 1299.460938 547.589844 1291.789062 577.25 L 1222.808594 579.851562 L 1203.601562 444.820312 C 1201.660156 442 1201.390625 444.269531 1200.519531 438.601562 C 1198.839844 427.640625 1200.851562 435.941406 1202.71875 433.269531 C 1218.378906 440.539062 1205.078125 432.429688 1211.53125 441.121094 Z M 900.1875 1169.660156 L 917.402344 1173.03125 C 917.097656 1179.109375 918.523438 1173.789062 915.828125 1181.601562 L 912.433594 1185.628906 C 891.449219 1339.691406 996.535156 1378.570312 983.402344 1464.621094 C 977.316406 1504.5 939.882812 1499.121094 903.460938 1496.589844 C 892.285156 1572.050781 891.425781 1591.261719 953.011719 1639.941406 C 947.96875 1670.820312 935.410156 1692.730469 933.078125 1733.28125 C 927.898438 1823.421875 971.46875 1917.519531 1055.921875 1951.914062 C 1055.050781 2011.101562 1036.21875 2039.410156 1089.761719 2070.039062 C 1063.691406 2102.5625 1043.980469 2084.84375 1006.859375 2081.5625 C 998.574219 2126.167969 996.269531 2157.835938 1016.921875 2196.175781 C 1034.46875 2228.769531 1055.039062 2238.554688 1093.289062 2256.261719 C 1093.910156 2274.488281 1072.179688 2315.378906 1092.730469 2363.109375 C 1104.628906 2390.738281 1124.238281 2415.695312 1152.789062 2424.472656 C 1162.359375 2485.246094 1168.589844 2509.640625 1200.921875 2550.621094 C 1218.308594 2572.664062 1264.699219 2614.542969 1313.46875 2609.71875 C 1316.960938 2570.03125 1322.578125 2551.335938 1339.28125 2520.488281 C 1349.378906 2501.835938 1374.628906 2466.546875 1389.480469 2457.183594 C 1399.359375 2454.933594 1455.730469 2474.269531 1521.300781 2425.460938 C 1530.980469 2418.253906 1540.929688 2406.003906 1550.449219 2403.863281 L 1553.839844 2466.585938 C 1689.820312 2444.972656 1858.5 2324.128906 1877.628906 2179.769531 C 1904.058594 2186.785156 1923.109375 2207.632812 1943.550781 2215.863281 C 1963.46875 2202.28125 1980.109375 2161.351562 1987.089844 2129.367188 C 2028.039062 2128.324219 2048.480469 2130.382812 2076.558594 2109.207031 C 2091.53125 2097.921875 2114.308594 2068.828125 2117.609375 2041.484375 C 2047.300781 2002.167969 2008 1986.375 2039.058594 1872.699219 C 2064.449219 1779.808594 2081.871094 1776.871094 2091.351562 1663.128906 C 2127.980469 1641.71875 2144.578125 1638.820312 2164.320312 1602.269531 C 2180.261719 1572.761719 2189.699219 1534.601562 2188.46875 1493.910156 C 2158.429688 1483.800781 2136.101562 1482.710938 2118.28125 1459.050781 C 2092.921875 1425.390625 2095.230469 1328.808594 2089.828125 1278.871094 C 2086.679688 1249.769531 2075.398438 1215.710938 2073.980469 1191.648438 C 2115.960938 1178.230469 2156.941406 1133.351562 2175.648438 1097.050781 C 2194.570312 1060.359375 2211.910156 978.199219 2192.570312 933.699219 C 2181.808594 936.011719 2162.449219 946.988281 2148.910156 951.890625 C 2133.441406 957.480469 2117.550781 962 2098.921875 962.820312 C 2115.378906 917.070312 2134.78125 905.058594 2123.828125 821.699219 C 2074.398438 830.289062 2052.910156 844.679688 1993.320312 833.808594 C 1949.179688 825.761719 1920.941406 803.25 1900.671875 777.019531 C 1873.628906 742.011719 1791.238281 657.46875 1739.519531 641.878906 C 1742.089844 615.800781 1748.398438 595.949219 1740.28125 570.820312 C 1732.191406 545.789062 1720.378906 547.539062 1717.640625 518.660156 C 1713.921875 479.371094 1729.410156 420.539062 1725.289062 379.429688 C 1700.878906 381.011719 1546.289062 468.148438 1523.328125 469.949219 C 1501.21875 447.140625 1483.761719 422.75 1462.898438 399.230469 C 1448.171875 382.609375 1416.859375 343.121094 1398.820312 332.050781 C 1375.878906 341.851562 1300.039062 433.640625 1280.539062 450.488281 C 1259.910156 441.050781 1185.539062 369.148438 1159.898438 363.289062 L 1183.449219 525.589844 C 1168.949219 539.519531 1163.371094 535.808594 1153.53125 560.378906 C 1144.328125 583.320312 1150.730469 599.648438 1145.519531 617.308594 C 1070.289062 618.21875 1018.800781 644.03125 986.644531 686.121094 C 970.96875 706.648438 957.839844 729.878906 948.40625 760.101562 C 934.335938 805.199219 943.679688 822.308594 941.953125 864.871094 C 902.589844 882.570312 838.210938 857.101562 804.5 846.460938 C 800.804688 904 829.09375 933.378906 842.21875 965.988281 C 811.0625 964.339844 794.339844 960.261719 767.917969 953.050781 C 755.246094 1040.828125 827.527344 1166.308594 900.1875 1169.660156 "/>
<path fill-rule="evenodd" fill="rgb(93.943787%, 83.984375%, 75%)" fill-opacity="1" d="M 1320.070312 1475.691406 L 1320.351562 1462.839844 C 1324.390625 1445.78125 1329.390625 1434.179688 1349.058594 1433.71875 C 1366.5 1433.320312 1379.730469 1443.828125 1386.289062 1455.53125 C 1396.261719 1466.140625 1391.441406 1465.851562 1401.011719 1471.109375 C 1406.519531 1464.859375 1405.910156 1464.078125 1411.269531 1461.21875 C 1421.390625 1467.558594 1423.511719 1468.039062 1424.851562 1481.191406 C 1410.988281 1487.441406 1418.570312 1480.039062 1405 1483.289062 L 1406.191406 1499.308594 C 1403.871094 1512.300781 1402.550781 1523.191406 1397.238281 1532.511719 C 1392.640625 1540.578125 1384.660156 1549.050781 1375.941406 1551.730469 C 1348.171875 1560.25 1333.929688 1538.089844 1327.421875 1519.25 C 1321.390625 1509.390625 1324.828125 1515.691406 1323.359375 1503.109375 C 1322.511719 1495.910156 1322.21875 1489.640625 1321.171875 1483.910156 C 1310.410156 1480.46875 1314.578125 1484.878906 1305.269531 1478.078125 L 1307.839844 1465.558594 C 1318.738281 1471.609375 1310.140625 1468.289062 1320.070312 1475.691406 Z M 1298.828125 1363.539062 C 1312.78125 1366.929688 1328.910156 1376.589844 1329.710938 1390.121094 C 1309.261719 1393.761719 1299.539062 1382.03125 1298.828125 1363.539062 Z M 1296.949219 1340.519531 C 1308.511719 1309.890625 1315.050781 1327.679688 1313.28125 1261.109375 C 1317.421875 1265.011719 1317.558594 1263.148438 1320.410156 1270.289062 C 1320.578125 1270.71875 1322.75 1282.199219 1322.910156 1283.378906 C 1326.089844 1306.429688 1321.980469 1333.351562 1296.949219 1340.519531 Z M 1185.261719 1307.460938 C 1176.898438 1300.640625 1173.421875 1304.761719 1165.511719 1297.308594 C 1160.28125 1292.378906 1159.589844 1287.269531 1154.210938 1281.980469 C 1164.671875 1263.921875 1157.808594 1234.648438 1153.558594 1225.96875 L 1154.488281 1267.960938 C 1153.539062 1267.25 1152.839844 1265.019531 1152.550781 1265.558594 C 1152.269531 1266.078125 1151.351562 1263.78125 1150.96875 1263.210938 C 1138.761719 1244.839844 1143.949219 1255.808594 1128.640625 1247.050781 C 1119.601562 1241.871094 1116.128906 1231.519531 1117.21875 1217.789062 C 1122.53125 1228.269531 1126.480469 1231.660156 1141.261719 1233.890625 C 1137.75 1199.089844 1139.839844 1216.371094 1120.511719 1202.320312 C 1110.488281 1195.03125 1106.921875 1181.410156 1107.410156 1164.359375 C 1115.730469 1175.449219 1119.839844 1188.539062 1136.519531 1188.101562 L 1137.839844 1160.609375 C 1114.550781 1146.191406 1104.511719 1139.421875 1108.898438 1100.699219 L 1114.898438 1111.441406 C 1117.621094 1116.699219 1117.699219 1117.921875 1121.851562 1123.128906 C 1127.550781 1130.28125 1133.078125 1135.238281 1143.910156 1138.609375 C 1171.910156 1075.828125 1242.890625 1103.578125 1262.839844 1187.53125 C 1270.980469 1221.78125 1274.761719 1262.980469 1261.058594 1293.738281 C 1246.429688 1326.589844 1203.269531 1326.769531 1175.800781 1309.179688 Z M 1139.460938 1061.648438 C 1141.949219 1051.019531 1141.46875 1051.691406 1149.769531 1045.429688 C 1167.609375 1031.960938 1187.179688 1033.25 1195.359375 1055.25 C 1158.621094 1048.988281 1169.691406 1050.769531 1139.460938 1061.648438 Z M 1514.121094 1034.359375 C 1523.761719 1004.019531 1563.199219 1008.898438 1573.828125 1037.199219 C 1540.628906 1028.371094 1551.988281 1025.398438 1514.121094 1034.359375 Z M 1619.648438 1255.871094 C 1611.589844 1270.171875 1618.121094 1273.890625 1603.578125 1287.410156 C 1598.828125 1291.820312 1587.148438 1302.910156 1581.308594 1301.890625 C 1579.648438 1302.691406 1543.300781 1337 1505.558594 1322.421875 C 1494.589844 1318.179688 1500.351562 1320.628906 1495.421875 1315.78125 L 1517.671875 1315.691406 C 1513.269531 1304.878906 1516.070312 1312.21875 1511.628906 1308.808594 L 1501.429688 1311.210938 C 1463.171875 1320.519531 1439.921875 1297.460938 1444.070312 1270.371094 C 1422.550781 1263.289062 1439.679688 1200.121094 1445.019531 1184.839844 C 1461.128906 1138.730469 1501.671875 1096.199219 1554.441406 1096.160156 C 1569.179688 1096.140625 1583.269531 1098.949219 1594.789062 1104.640625 C 1611.488281 1112.890625 1610.949219 1119.589844 1622.941406 1128.039062 C 1641.96875 1121.78125 1655.96875 1103.75 1660.101562 1082.761719 C 1628.699219 1043.960938 1582.558594 1002.628906 1567.75 934.78125 C 1562.160156 936.859375 1462.769531 1019.589844 1370.25 1060.359375 C 1312.359375 1085.871094 1311.5 1090.640625 1255.878906 1057.480469 C 1235.960938 1045.609375 1225.488281 1038.839844 1208.421875 1024.140625 C 1194.398438 1012.070312 1180.390625 992.429688 1168.480469 983.949219 C 1143.269531 1020.28125 1134.628906 1041.441406 1101.660156 1075.109375 C 1091.890625 1085.078125 1081.699219 1090.21875 1072.488281 1101.441406 C 1077.859375 1126.609375 1096.339844 1163.058594 1106.769531 1218.691406 C 1132.089844 1353.761719 1120.78125 1442.941406 1247.140625 1545.71875 C 1274.871094 1568.28125 1304.609375 1586.878906 1341.53125 1603.859375 C 1394.96875 1628.441406 1409.609375 1626.128906 1461.390625 1602.910156 C 1497.460938 1586.738281 1576.578125 1538.710938 1605.679688 1513.710938 C 1617.828125 1503.269531 1623.429688 1471.679688 1622.109375 1454.5 L 1550.628906 1450.800781 C 1557.828125 1435.480469 1570.238281 1431.339844 1581.070312 1420.609375 C 1615.78125 1386.191406 1639.789062 1362.410156 1665.078125 1318.03125 C 1694.300781 1266.730469 1714.230469 1186.320312 1711.640625 1115.710938 C 1690.171875 1107.898438 1682.261719 1094.558594 1663.640625 1086.050781 C 1663.960938 1102.078125 1662.851562 1116.628906 1656.359375 1128.558594 C 1647.839844 1144.21875 1641.371094 1143.878906 1633.210938 1154.359375 L 1636.738281 1171.191406 C 1660.941406 1175.878906 1673.75 1160.210938 1684.828125 1151.390625 C 1678.109375 1186.539062 1661.269531 1184.371094 1637.238281 1199.421875 L 1634.300781 1226.738281 C 1653.398438 1226.179688 1655.179688 1223.910156 1670.28125 1218.621094 C 1651.570312 1258.011719 1634.25 1222.308594 1623.101562 1264.121094 C 1618.109375 1259.050781 1621.988281 1265.589844 1619.648438 1255.871094 "/>
<path fill-rule="evenodd" fill="rgb(90.039062%, 64.0625%, 15.989685%)" fill-opacity="1" d="M 1211.53125 441.121094 L 1203.601562 444.820312 L 1222.808594 579.851562 L 1291.789062 577.25 C 1299.460938 547.589844 1310.910156 478.851562 1371.039062 476.289062 C 1398.800781 475.109375 1417.640625 490.699219 1429.78125 507.140625 C 1434.960938 514.148438 1441.289062 525.421875 1444.820312 535.769531 C 1446.53125 540.78125 1448.179688 547.230469 1449.28125 552.390625 L 1454.921875 572.988281 L 1610.429688 578.570312 C 1619.980469 531 1637.980469 501.359375 1687.941406 496.988281 L 1695.140625 432.191406 C 1650.238281 444.660156 1536.28125 513.300781 1513.988281 518.910156 C 1503.859375 509.28125 1494.21875 493.730469 1485.398438 482.53125 C 1465.339844 457.03125 1412.578125 388.488281 1392.101562 379.359375 C 1370.46875 406.730469 1339.769531 438.121094 1312.730469 473.730469 C 1304.921875 484.019531 1296.320312 497.730469 1286.761719 506.039062 C 1278.199219 502.621094 1220.140625 450.808594 1211.53125 441.121094 "/>
<path fill-rule="evenodd" fill="rgb(98.046875%, 98.046875%, 99.021912%)" fill-opacity="1" d="M 1444.070312 1270.371094 C 1439.921875 1297.460938 1463.171875 1320.519531 1501.429688 1311.210938 L 1511.628906 1308.808594 C 1495.710938 1286.101562 1486.261719 1264.308594 1491.199219 1228.160156 C 1505.988281 1119.949219 1614.058594 1155.921875 1595.070312 1260.511719 C 1592.148438 1276.601562 1583.628906 1289.550781 1581.308594 1301.890625 C 1587.148438 1302.910156 1598.828125 1291.820312 1603.578125 1287.410156 C 1618.121094 1273.890625 1611.589844 1270.171875 1619.648438 1255.871094 C 1628.539062 1184.328125 1620.371094 1108.230469 1531.011719 1127.648438 C 1479.570312 1138.828125 1438.691406 1205.148438 1444.070312 1270.371094 "/>
<path fill-rule="evenodd" fill="rgb(42.993164%, 73.046875%, 93.943787%)" fill-opacity="1" d="M 1753.859375 1443.839844 C 1742.441406 1454.789062 1724.921875 1485.578125 1687.378906 1520.761719 C 1679.191406 1528.429688 1675.148438 1530.710938 1679.988281 1544.519531 C 1701.328125 1605.449219 1818.878906 1603.578125 1822.160156 1515.289062 C 1824.148438 1461.898438 1769.109375 1429.21875 1753.859375 1443.839844 "/>
<path fill-rule="evenodd" fill="rgb(11.009216%, 10.009766%, 9.008789%)" fill-opacity="1" d="M 1201.960938 1229.570312 L 1207.78125 1201.738281 C 1212.351562 1186.988281 1222.890625 1174.671875 1238.710938 1186.71875 C 1262.851562 1205.109375 1270.171875 1306.589844 1233.851562 1307.078125 C 1206.730469 1300.761719 1200.21875 1259.910156 1201.960938 1229.570312 Z M 1153.558594 1225.96875 C 1149.269531 1085.570312 1227.75 1130.089844 1239.890625 1174.910156 C 1207.300781 1157.980469 1192.601562 1194.929688 1190.648438 1225.96875 C 1187.390625 1277.550781 1208.300781 1293.609375 1215.300781 1310.839844 L 1185.261719 1307.460938 L 1175.800781 1309.179688 C 1203.269531 1326.769531 1246.429688 1326.589844 1261.058594 1293.738281 C 1274.761719 1262.980469 1270.980469 1221.78125 1262.839844 1187.53125 C 1242.890625 1103.578125 1171.910156 1075.828125 1143.910156 1138.609375 C 1133.078125 1135.238281 1127.550781 1130.28125 1121.851562 1123.128906 C 1117.699219 1117.921875 1117.621094 1116.699219 1114.898438 1111.441406 L 1108.898438 1100.699219 C 1104.511719 1139.421875 1114.550781 1146.191406 1137.839844 1160.609375 L 1136.519531 1188.101562 C 1119.839844 1188.539062 1115.730469 1175.449219 1107.410156 1164.359375 C 1106.921875 1181.410156 1110.488281 1195.03125 1120.511719 1202.320312 C 1139.839844 1216.371094 1137.75 1199.089844 1141.261719 1233.890625 C 1126.480469 1231.660156 1122.53125 1228.269531 1117.21875 1217.789062 C 1116.128906 1231.519531 1119.601562 1241.871094 1128.640625 1247.050781 C 1143.949219 1255.808594 1138.761719 1244.839844 1150.96875 1263.210938 C 1151.351562 1263.78125 1152.269531 1266.078125 1152.550781 1265.558594 C 1152.839844 1265.019531 1153.539062 1267.25 1154.488281 1267.960938 L 1153.558594 1225.96875 "/>
<path fill-rule="evenodd" fill="rgb(42.993164%, 73.046875%, 93.943787%)" fill-opacity="1" d="M 1155.769531 1834.988281 C 1082.910156 1854.703125 1055.859375 2007.203125 1113.199219 1989.445312 C 1167.820312 1972.53125 1221.730469 1817.140625 1155.769531 1834.988281 "/>
<path fill-rule="evenodd" fill="rgb(80.076599%, 14.988708%, 55.076599%)" fill-opacity="1" d="M 1433.078125 1714.96875 C 1438.140625 1702.121094 1435.800781 1718.429688 1434.621094 1704.96875 C 1428.75 1686.75 1399.289062 1678.871094 1380.148438 1680.03125 C 1349.449219 1681.898438 1344.078125 1699.589844 1327.230469 1708.550781 C 1308.070312 1694.480469 1289.429688 1661.078125 1246.519531 1683.519531 C 1246.03125 1698.148438 1277.03125 1732.910156 1292.53125 1758.320312 C 1404.390625 1761.070312 1367.429688 1762.019531 1407.828125 1732.941406 C 1414.050781 1728.460938 1428.808594 1721.320312 1433.078125 1714.96875 "/>
<path fill-rule="evenodd" fill="rgb(98.046875%, 98.046875%, 99.021912%)" fill-opacity="1" d="M 1153.558594 1225.96875 C 1157.808594 1234.648438 1164.671875 1263.921875 1154.210938 1281.980469 C 1159.589844 1287.269531 1160.28125 1292.378906 1165.511719 1297.308594 C 1173.421875 1304.761719 1176.898438 1300.640625 1185.261719 1307.460938 L 1215.300781 1310.839844 C 1208.300781 1293.609375 1187.390625 1277.550781 1190.648438 1225.96875 C 1192.601562 1194.929688 1207.300781 1157.980469 1239.890625 1174.910156 C 1227.75 1130.089844 1149.269531 1085.570312 1153.558594 1225.96875 "/>
<path fill-rule="evenodd" fill="rgb(92.96875%, 83.006287%, 75%)" fill-opacity="1" d="M 1827.679688 1286.351562 L 1853.578125 1281 C 1846.269531 1293.101562 1831.769531 1295.570312 1823.710938 1305.261719 L 1775.628906 1415.121094 C 1799.378906 1416.308594 1879.75 1356.019531 1877.390625 1275.71875 C 1876.5 1245.480469 1869.839844 1231.128906 1837.75 1231.628906 L 1827.679688 1286.351562 "/>
<path fill-rule="evenodd" fill="rgb(89.0625%, 65.039062%, 17.993164%)" fill-opacity="1" d="M 1352.871094 522.390625 C 1411.300781 492.28125 1439.878906 617.25 1382.339844 646.261719 C 1324.820312 675.261719 1289.070312 555.261719 1352.871094 522.390625 Z M 1357.429688 502.269531 C 1268.898438 533.460938 1316.988281 702.179688 1380.609375 666.449219 C 1418.988281 644.890625 1434.851562 619.160156 1431.25 572.140625 C 1428.28125 533.378906 1399.910156 487.308594 1357.429688 502.269531 "/>
<path fill-rule="evenodd" fill="rgb(42.993164%, 73.046875%, 93.943787%)" fill-opacity="1" d="M 1266.921875 1593.25 C 1255.980469 1580.859375 1214.320312 1556.769531 1174.910156 1505.949219 C 1168.699219 1497.941406 1168.128906 1496.179688 1158.730469 1492.890625 C 1116.25 1596.011719 1235.371094 1632.128906 1266.921875 1593.25 "/>
<path fill-rule="evenodd" fill="rgb(50.976562%, 77.929688%, 91.992188%)" fill-opacity="1" d="M 1530.929688 1181.5 L 1533.898438 1199.070312 C 1534.070312 1199.730469 1534.320312 1200.671875 1534.441406 1201.039062 L 1536.441406 1206.980469 C 1538.539062 1212.390625 1537.410156 1209.328125 1539.148438 1212.71875 C 1562.488281 1218.910156 1562.980469 1274.328125 1538.890625 1282.140625 C 1526.089844 1274.828125 1525.851562 1259.101562 1526.429688 1243.011719 C 1519.019531 1242.871094 1516.460938 1241.199219 1510.871094 1238.339844 L 1506.929688 1224.640625 C 1486.679688 1280.53125 1543.039062 1351.089844 1574.621094 1286.589844 C 1599.519531 1235.730469 1574.140625 1158.871094 1535.03125 1177.589844 C 1527.558594 1181.171875 1532.480469 1179.21875 1530.929688 1181.5 "/>
<path fill-rule="evenodd" fill="rgb(13.989258%, 10.009766%, 7.006836%)" fill-opacity="1" d="M 1356.160156 541.421875 C 1394.558594 513.679688 1409.121094 606.609375 1378.859375 627.160156 C 1343.25 651.328125 1326.261719 581.300781 1346.289062 550.898438 C 1350.839844 543.980469 1351.308594 544.921875 1356.160156 541.421875 Z M 1352.871094 522.390625 C 1289.070312 555.261719 1324.820312 675.261719 1382.339844 646.261719 C 1439.878906 617.25 1411.300781 492.28125 1352.871094 522.390625 "/>
<path fill-rule="evenodd" fill="rgb(10.009766%, 12.010193%, 11.009216%)" fill-opacity="1" d="M 1506.929688 1224.640625 L 1515.390625 1197.628906 C 1520.789062 1186.871094 1519.441406 1186.820312 1530.929688 1181.5 C 1532.480469 1179.21875 1527.558594 1181.171875 1535.03125 1177.589844 C 1574.140625 1158.871094 1599.519531 1235.730469 1574.621094 1286.589844 C 1543.039062 1351.089844 1486.679688 1280.53125 1506.929688 1224.640625 Z M 1511.628906 1308.808594 C 1516.070312 1312.21875 1513.269531 1304.878906 1517.671875 1315.691406 L 1495.421875 1315.78125 C 1500.351562 1320.628906 1494.589844 1318.179688 1505.558594 1322.421875 C 1543.300781 1337 1579.648438 1302.691406 1581.308594 1301.890625 C 1583.628906 1289.550781 1592.148438 1276.601562 1595.070312 1260.511719 C 1614.058594 1155.921875 1505.988281 1119.949219 1491.199219 1228.160156 C 1486.261719 1264.308594 1495.710938 1286.101562 1511.628906 1308.808594 "/>
<path fill-rule="evenodd" fill="rgb(85.9375%, 50.976562%, 75.976562%)" fill-opacity="1" d="M 1377.03125 1811.5 C 1407.660156 1804.851562 1500.539062 1759.5 1535.929688 1739.699219 C 1549.128906 1732.320312 1551.28125 1732.339844 1553.371094 1725.71875 C 1507.839844 1720.441406 1478.800781 1726.351562 1445.109375 1745.578125 C 1420.421875 1759.660156 1389.101562 1786.941406 1377.03125 1811.5 "/>
<path fill-rule="evenodd" fill="rgb(92.96875%, 83.006287%, 75%)" fill-opacity="1" d="M 1417.160156 1652.390625 C 1428.269531 1682.421875 1459.480469 1655.761719 1473.078125 1652.179688 C 1512.480469 1641.820312 1532.558594 1658.800781 1547.839844 1661.660156 L 1551.21875 1583.890625 C 1540.46875 1587.308594 1488.460938 1620.21875 1453.339844 1635.308594 C 1446.019531 1638.449219 1442.019531 1639.808594 1435.109375 1641.941406 C 1423.300781 1645.589844 1421.980469 1643.289062 1417.160156 1652.390625 "/>
<path fill-rule="evenodd" fill="rgb(89.0625%, 65.039062%, 17.993164%)" fill-opacity="1" d="M 1226.328125 596.359375 L 1231.140625 634.628906 C 1301.230469 659.921875 1327.261719 696.179688 1342.789062 700.96875 L 1351.148438 692.761719 C 1343.71875 680.929688 1329.058594 684.890625 1310.320312 654.441406 C 1298.828125 635.761719 1298.390625 607.980469 1289.878906 593.410156 L 1226.328125 596.359375 "/>
<path fill-rule="evenodd" fill="rgb(76.951599%, 12.010193%, 19.993591%)" fill-opacity="1" d="M 1356.160156 541.421875 C 1351.308594 544.921875 1350.839844 543.980469 1346.289062 550.898438 C 1326.261719 581.300781 1343.25 651.328125 1378.859375 627.160156 C 1409.121094 606.609375 1394.558594 513.679688 1356.160156 541.421875 "/>
<path fill-rule="evenodd" fill="rgb(85.9375%, 50.976562%, 75.976562%)" fill-opacity="1" d="M 1271.230469 1861.820312 C 1276.800781 1860.179688 1319.140625 1838.09375 1322.921875 1834.851562 C 1326.578125 1831.71875 1351.191406 1790.75 1353.25 1785.601562 C 1310.28125 1784.96875 1285.761719 1777.011719 1270.210938 1807.410156 C 1265.320312 1816.980469 1271.050781 1847.265625 1271.230469 1861.820312 "/>
<path fill-rule="evenodd" fill="rgb(91.014099%, 82.03125%, 17.993164%)" fill-opacity="1" d="M 1177.699219 1808.03125 C 1198.53125 1819.300781 1206.710938 1820.179688 1210.550781 1849.117188 C 1214.21875 1876.816406 1206.980469 1890.394531 1202.019531 1914.039062 C 1209.058594 1910.316406 1230.820312 1894.015625 1235.039062 1886.882812 C 1241.550781 1875.902344 1243.171875 1850.015625 1242.890625 1835.945312 C 1241.75 1778.21875 1189.128906 1797.019531 1177.699219 1808.03125 "/>
<path fill-rule="evenodd" fill="rgb(50.976562%, 76.951599%, 84.959412%)" fill-opacity="1" d="M 1207.78125 1201.738281 L 1220.320312 1202.320312 C 1223.25 1205.960938 1225.359375 1209.261719 1227.808594 1214.550781 C 1253.640625 1214.910156 1249.230469 1269.53125 1236.960938 1281.78125 C 1222.949219 1276.699219 1220.800781 1260.789062 1221.53125 1243.371094 L 1211.640625 1243.871094 L 1201.960938 1229.570312 C 1200.21875 1259.910156 1206.730469 1300.761719 1233.851562 1307.078125 C 1270.171875 1306.589844 1262.851562 1205.109375 1238.710938 1186.71875 C 1222.890625 1174.671875 1212.351562 1186.988281 1207.78125 1201.738281 "/>
<path fill-rule="evenodd" fill="rgb(78.90625%, 36.009216%, 66.992188%)" fill-opacity="1" d="M 1327.421875 1519.25 C 1333.679688 1507.511719 1325.269531 1517.578125 1341.78125 1531.839844 C 1348.328125 1537.5 1359.101562 1540.699219 1370.710938 1538.050781 C 1395.898438 1532.300781 1388.128906 1508.589844 1406.191406 1499.308594 L 1405 1483.289062 C 1374.371094 1490.828125 1351.359375 1495.210938 1321.171875 1483.910156 C 1322.21875 1489.640625 1322.511719 1495.910156 1323.359375 1503.109375 C 1324.828125 1515.691406 1321.390625 1509.390625 1327.421875 1519.25 "/>
<path fill-rule="evenodd" fill="rgb(43.992615%, 73.046875%, 91.014099%)" fill-opacity="1" d="M 1673.839844 614.808594 L 1719.410156 630.289062 C 1737.808594 540.03125 1670.710938 532.988281 1673.839844 614.808594 "/>
<path fill-rule="evenodd" fill="rgb(89.0625%, 65.039062%, 17.993164%)" fill-opacity="1" d="M 1446.519531 624.710938 C 1462.421875 623.511719 1495.050781 609.589844 1519.710938 605.878906 C 1557.011719 600.269531 1591.820312 604.171875 1605.941406 601.058594 C 1606.550781 600.929688 1607.621094 600.648438 1608.390625 600.289062 C 1603.589844 591.691406 1613.140625 595.851562 1595.238281 593.390625 L 1454.851562 590.230469 L 1446.519531 624.710938 "/>
<path fill-rule="evenodd" fill="rgb(89.0625%, 65.039062%, 17.993164%)" fill-opacity="1" d="M 1691.800781 536.148438 C 1692.800781 534.78125 1694.421875 531.921875 1695.160156 530.140625 C 1698.609375 521.871094 1694.75 538.078125 1695.769531 525.609375 C 1663.148438 496.730469 1623.449219 564.941406 1633.050781 606.519531 L 1655.578125 609.640625 C 1656.449219 576.730469 1664.488281 539.761719 1691.800781 536.148438 "/>
<path fill-rule="evenodd" fill="rgb(78.90625%, 36.009216%, 66.992188%)" fill-opacity="1" d="M 1320.351562 1462.839844 L 1320.070312 1475.691406 C 1341.550781 1481.53125 1383.171875 1484.058594 1401.011719 1471.109375 C 1391.441406 1465.851562 1396.261719 1466.140625 1386.289062 1455.53125 C 1382.898438 1458.371094 1389.441406 1460.199219 1378.820312 1454.648438 C 1335.628906 1432.058594 1339.921875 1451.339844 1320.351562 1462.839844 "/>
<path fill-rule="evenodd" fill="rgb(72.068787%, 20.996094%, 51.951599%)" fill-opacity="1" d="M 1434.621094 1704.96875 C 1435.800781 1718.429688 1438.140625 1702.121094 1433.078125 1714.96875 C 1510.480469 1689.449219 1454.078125 1702.101562 1538.03125 1691.441406 C 1515.710938 1668.921875 1480.039062 1671.089844 1458.429688 1686.921875 C 1444.648438 1697.019531 1450.179688 1702.238281 1434.621094 1704.96875 "/>
<path fill-rule="evenodd" fill="rgb(9.008789%, 9.008789%, 9.008789%)" fill-opacity="1" d="M 1526.429688 1243.011719 C 1525.851562 1259.101562 1526.089844 1274.828125 1538.890625 1282.140625 C 1562.980469 1274.328125 1562.488281 1218.910156 1539.148438 1212.71875 C 1539.289062 1227.828125 1537.140625 1235.929688 1526.429688 1243.011719 "/>
<path fill-rule="evenodd" fill="rgb(18.992615%, 4.998779%, 9.008789%)" fill-opacity="1" d="M 1401.011719 1471.109375 C 1383.171875 1484.058594 1341.550781 1481.53125 1320.070312 1475.691406 C 1310.140625 1468.289062 1318.738281 1471.609375 1307.839844 1465.558594 L 1305.269531 1478.078125 C 1314.578125 1484.878906 1310.410156 1480.46875 1321.171875 1483.910156 C 1351.359375 1495.210938 1374.371094 1490.828125 1405 1483.289062 C 1418.570312 1480.039062 1410.988281 1487.441406 1424.851562 1481.191406 C 1423.511719 1468.039062 1421.390625 1467.558594 1411.269531 1461.21875 C 1405.910156 1464.078125 1406.519531 1464.859375 1401.011719 1471.109375 "/>
<path fill-rule="evenodd" fill="rgb(80.076599%, 14.988708%, 55.076599%)" fill-opacity="1" d="M 1558.058594 1692.859375 C 1565.019531 1697.578125 1584.449219 1704.179688 1594.398438 1702.320312 C 1601.46875 1701 1619.191406 1687.808594 1622.878906 1680.378906 C 1603.859375 1669.898438 1569.109375 1669.238281 1558.058594 1692.859375 "/>
<path fill-rule="evenodd" fill="rgb(9.008789%, 9.008789%, 11.009216%)" fill-opacity="1" d="M 1221.53125 1243.371094 C 1220.800781 1260.789062 1222.949219 1276.699219 1236.960938 1281.78125 C 1249.230469 1269.53125 1253.640625 1214.910156 1227.808594 1214.550781 L 1227.589844 1239.078125 C 1221.660156 1244.03125 1227.53125 1239.21875 1221.53125 1243.371094 "/>
<path fill-rule="evenodd" fill="rgb(18.992615%, 4.998779%, 9.008789%)" fill-opacity="1" d="M 1327.421875 1519.25 C 1333.929688 1538.089844 1348.171875 1560.25 1375.941406 1551.730469 C 1384.660156 1549.050781 1392.640625 1540.578125 1397.238281 1532.511719 C 1402.550781 1523.191406 1403.871094 1512.300781 1406.191406 1499.308594 C 1388.128906 1508.589844 1395.898438 1532.300781 1370.710938 1538.050781 C 1359.101562 1540.699219 1348.328125 1537.5 1341.78125 1531.839844 C 1325.269531 1517.578125 1333.679688 1507.511719 1327.421875 1519.25 "/>
<path fill-rule="evenodd" fill="rgb(43.992615%, 73.046875%, 91.014099%)" fill-opacity="1" d="M 1171.171875 614.601562 C 1177.960938 618.539062 1186.171875 620.789062 1196.71875 622.261719 L 1196.558594 607.101562 C 1195.351562 593.789062 1193.871094 572.691406 1187.160156 563.390625 C 1167.960938 574.730469 1173.5 589.03125 1171.171875 614.601562 "/>
<path fill-rule="evenodd" fill="rgb(98.046875%, 98.046875%, 98.046875%)" fill-opacity="1" d="M 1506.929688 1224.640625 L 1510.871094 1238.339844 C 1516.460938 1241.199219 1519.019531 1242.871094 1526.429688 1243.011719 C 1537.140625 1235.929688 1539.289062 1227.828125 1539.148438 1212.71875 C 1537.410156 1209.328125 1538.539062 1212.390625 1536.441406 1206.980469 L 1534.441406 1201.039062 C 1534.320312 1200.671875 1534.070312 1199.730469 1533.898438 1199.070312 L 1515.390625 1197.628906 L 1506.929688 1224.640625 "/>
<path fill-rule="evenodd" fill="rgb(91.014099%, 82.03125%, 17.993164%)" fill-opacity="1" d="M 1109.339844 2042.90625 C 1115.800781 2036.714844 1115.519531 2035.484375 1120.238281 2027.621094 C 1123.109375 2022.832031 1126.140625 2017.835938 1127.640625 2011.503906 C 1097.671875 2022.628906 1094.839844 2017.25 1074.839844 2004.03125 C 1075.878906 2026.542969 1086.550781 2040.9375 1109.339844 2042.90625 "/>
<path fill-rule="evenodd" fill="rgb(97.068787%, 97.068787%, 97.068787%)" fill-opacity="1" d="M 1201.960938 1229.570312 L 1211.640625 1243.871094 L 1221.53125 1243.371094 C 1227.53125 1239.21875 1221.660156 1244.03125 1227.589844 1239.078125 L 1227.808594 1214.550781 C 1225.359375 1209.261719 1223.25 1205.960938 1220.320312 1202.320312 L 1207.78125 1201.738281 L 1201.960938 1229.570312 "/>
<path fill-rule="evenodd" fill="rgb(15.989685%, 10.009766%, 3.999329%)" fill-opacity="1" d="M 1296.949219 1340.519531 C 1321.980469 1333.351562 1326.089844 1306.429688 1322.910156 1283.378906 C 1322.75 1282.199219 1320.578125 1270.71875 1320.410156 1270.289062 C 1317.558594 1263.148438 1317.421875 1265.011719 1313.28125 1261.109375 C 1315.050781 1327.679688 1308.511719 1309.890625 1296.949219 1340.519531 "/>
<path fill-rule="evenodd" fill="rgb(13.989258%, 10.009766%, 7.006836%)" fill-opacity="1" d="M 1514.121094 1034.359375 C 1551.988281 1025.398438 1540.628906 1028.371094 1573.828125 1037.199219 C 1563.199219 1008.898438 1523.761719 1004.019531 1514.121094 1034.359375 "/>
<path fill-rule="evenodd" fill="rgb(15.989685%, 11.009216%, 11.009216%)" fill-opacity="1" d="M 1320.351562 1462.839844 C 1339.921875 1451.339844 1335.628906 1432.058594 1378.820312 1454.648438 C 1389.441406 1460.199219 1382.898438 1458.371094 1386.289062 1455.53125 C 1379.730469 1443.828125 1366.5 1433.320312 1349.058594 1433.71875 C 1329.390625 1434.179688 1324.390625 1445.78125 1320.351562 1462.839844 "/>
<path fill-rule="evenodd" fill="rgb(13.989258%, 10.009766%, 7.006836%)" fill-opacity="1" d="M 1139.460938 1061.648438 C 1169.691406 1050.769531 1158.621094 1048.988281 1195.359375 1055.25 C 1187.179688 1033.25 1167.609375 1031.960938 1149.769531 1045.429688 C 1141.46875 1051.691406 1141.949219 1051.019531 1139.460938 1061.648438 "/>
<path fill-rule="evenodd" fill="rgb(13.989258%, 10.009766%, 7.006836%)" fill-opacity="1" d="M 1329.710938 1390.121094 C 1328.910156 1376.589844 1312.78125 1366.929688 1298.828125 1363.539062 C 1299.539062 1382.03125 1309.261719 1393.761719 1329.710938 1390.121094 "/>
<path fill-rule="evenodd" fill="rgb(91.014099%, 88.084412%, 30.004883%)" fill-opacity="1" d="M 1180.789062 2340.890625 C 1190.941406 2335.09375 1190.261719 2330.769531 1202.621094 2326.847656 L 1197.128906 2355.855469 C 1205.390625 2351.71875 1200.101562 2357.609375 1205.089844 2348.8125 C 1211.558594 2337.410156 1208.898438 2328.851562 1202.71875 2321.160156 C 1186.160156 2320.242188 1183.800781 2325.5625 1180.789062 2340.890625 "/>
<path fill-rule="evenodd" fill="rgb(53.90625%, 75.976562%, 83.984375%)" fill-opacity="1" d="M 1515.390625 1197.628906 L 1533.898438 1199.070312 L 1530.929688 1181.5 C 1519.441406 1186.820312 1520.789062 1186.871094 1515.390625 1197.628906 "/>
<path fill-rule="evenodd" fill="rgb(21.99707%, 33.006287%, 39.988708%)" fill-opacity="1" d="M 1171.171875 614.601562 C 1172.828125 626.75 1188.769531 625.949219 1200.359375 626.480469 C 1200.800781 620.191406 1201.96875 621.859375 1200.519531 615.699219 C 1199.199219 610.109375 1197.871094 609.289062 1196.558594 607.101562 L 1196.71875 622.261719 C 1186.171875 620.789062 1177.960938 618.539062 1171.171875 614.601562 "/>
<path fill-rule="evenodd" fill="rgb(57.03125%, 52.929688%, 19.993591%)" fill-opacity="1" d="M 1203.601562 444.820312 L 1211.53125 441.121094 C 1205.078125 432.429688 1218.378906 440.539062 1202.71875 433.269531 C 1200.851562 435.941406 1198.839844 427.640625 1200.519531 438.601562 C 1201.390625 444.269531 1201.660156 442 1203.601562 444.820312 "/>
<path fill-rule="evenodd" fill="rgb(57.03125%, 52.929688%, 19.993591%)" fill-opacity="1" d="M 804.898438 1004.371094 L 804.464844 995.328125 L 814.40625 995.691406 C 805.738281 989.808594 812.277344 992.070312 800.6875 991.898438 C 801.566406 1003.941406 799.253906 997.378906 804.898438 1004.371094 "/>
<path fill-rule="evenodd" fill="rgb(39.988708%, 35.009766%, 21.99707%)" fill-opacity="1" d="M 1691.800781 536.148438 C 1707.019531 535.410156 1697.449219 535.601562 1701.75 531.808594 C 1698.289062 519.449219 1702.289062 530.488281 1695.769531 525.609375 C 1694.75 538.078125 1698.609375 521.871094 1695.160156 530.140625 C 1694.421875 531.921875 1692.800781 534.78125 1691.800781 536.148438 "/>
<path fill-rule="evenodd" fill="rgb(42.993164%, 40.989685%, 39.988708%)" fill-opacity="1" d="M 912.433594 1185.628906 L 915.828125 1181.601562 C 918.523438 1173.789062 917.097656 1179.109375 917.402344 1173.03125 L 900.1875 1169.660156 L 914.242188 1176.128906 L 912.433594 1185.628906 "/>
<path fill-rule="evenodd" fill="rgb(56.054688%, 52.929688%, 12.988281%)" fill-opacity="1" d="M 1734.988281 1140.371094 C 1735.480469 1139.648438 1736.070312 1137.609375 1736.429688 1138.199219 C 1736.789062 1138.800781 1737.671875 1136.609375 1738.171875 1136.28125 C 1742.890625 1133.128906 1737.640625 1135.308594 1745.960938 1132.449219 C 1741.738281 1129.738281 1753.28125 1127.371094 1735.828125 1130 L 1734.988281 1140.371094 "/>
<path fill-rule="evenodd" fill="rgb(50%, 45.996094%, 10.009766%)" fill-opacity="1" d="M 1602.679688 1580.800781 C 1590.621094 1582.078125 1597.648438 1582.75 1595.070312 1577.070312 C 1593.410156 1579.628906 1587.199219 1576.019531 1594.730469 1586.058594 C 1611.160156 1582.210938 1595.71875 1586.660156 1602.679688 1580.800781 "/>
<path fill-rule="evenodd" fill="rgb(50%, 45.996094%, 10.009766%)" fill-opacity="1" d="M 1613.601562 860.019531 C 1622.378906 856.148438 1616.890625 857.21875 1619.078125 861.550781 C 1622.738281 858.339844 1622.511719 866.058594 1623.640625 852.039062 C 1614.53125 855.800781 1622.851562 850.851562 1618.789062 854.308594 C 1614.398438 858.050781 1616.890625 855.691406 1613.601562 860.019531 "/>
</svg>
