<?xml version="1.0" encoding="UTF-8"?>
<svg xmlns="http://www.w3.org/2000/svg" xmlns:xlink="http://www.w3.org/1999/xlink" width="2836" height="2835" viewBox="0 0 2836 2835">
<path fill-rule="evenodd" fill="rgb(100%, 100%, 100%)" fill-opacity="1" d="M 1 0.351562 L 2835.640625 0.351562 L 2835.640625 2835 L 1 2835 L 1 0.351562 "/>
<path fill-rule="evenodd" fill="rgb(92.96875%, 76.951599%, 59.959412%)" fill-opacity="1" d="M 1865.398438 1584.800781 L 1841.019531 1524.871094 C 1887.988281 1539.761719 1912.070312 1623.101562 1915.730469 1682.578125 C 1919.039062 1736.230469 1901.871094 1737.53125 1877.160156 1760.699219 C 1865.058594 1772.039062 1859.640625 1774.710938 1846.230469 1788.390625 C 1836.488281 1798.339844 1827.789062 1804.929688 1817.828125 1815.5 C 1748.96875 1888.582031 1663.601562 1996.398438 1638.921875 2096.609375 C 1652.089844 2117.414062 1663.410156 2113.742188 1673.691406 2147.503906 C 1594.101562 2124.746094 1593.199219 2070.472656 1394.699219 2072.027344 C 1233 2073.292969 1218.339844 2121.125 1123.570312 2155.542969 C 1129.390625 2138.050781 1145.800781 2116.3125 1156.609375 2107.613281 C 1150.71875 2087.707031 1127.371094 2050.289062 1116.859375 2028.996094 C 1081.699219 1957.753906 1077.378906 1944.558594 1033.890625 1877.085938 C 1018.679688 1853.484375 975.710938 1801.660156 956.71875 1781.390625 C 948.957031 1773.101562 936.816406 1764.121094 926.605469 1752.949219 C 864.703125 1685.25 960.796875 1547.890625 1012.738281 1532.859375 C 1004.5 1550.910156 981.4375 1574.101562 976.402344 1591.261719 C 1004.960938 1638.46875 1096.78125 1710.191406 1161.949219 1739.269531 C 1226.820312 1768.210938 1298.640625 1769.550781 1358.480469 1727.851562 C 1373.910156 1717.101562 1390.628906 1700.839844 1408.75 1695.320312 C 1455.921875 1760.800781 1573.410156 1785.761719 1664.878906 1737.621094 C 1715.019531 1711.238281 1820.589844 1633.148438 1865.398438 1584.800781 Z M 1463.808594 1500.871094 C 1470.171875 1470.121094 1492.828125 1433.128906 1530.328125 1439.648438 C 1571.371094 1446.800781 1569.78125 1492.25 1531.808594 1507.070312 C 1532.730469 1494.75 1536.351562 1476.398438 1531.210938 1468.230469 C 1516.011719 1450.230469 1492.351562 1486.53125 1463.808594 1500.871094 Z M 1272.101562 1501.171875 C 1267.449219 1496.949219 1270.28125 1500.578125 1266.730469 1494.738281 L 1264.371094 1490.019531 C 1237.398438 1422.980469 1336.71875 1423.859375 1351.558594 1503.308594 C 1332.328125 1488.46875 1322.210938 1465.96875 1285.261719 1465.578125 Z M 1208.859375 1407.398438 C 1139.488281 1409.910156 1141.261719 1429.769531 1122.058594 1420.78125 C 1068.371094 1395.640625 995.710938 1323.410156 890.035156 1344.191406 C 784.421875 1364.949219 723.054688 1483.089844 740.453125 1613.449219 C 766.824219 1811.011719 894.808594 1837.460938 916.929688 1860.402344 C 926.152344 1869.972656 967.941406 1984.375 980.273438 2008.980469 C 1012.78125 2073.863281 1027.339844 2084.648438 1067.378906 2129.210938 C 1049.050781 2170.65625 1020.898438 2206.453125 1030.648438 2265.09375 C 1038.910156 2314.75 1069.140625 2340.417969 1118.988281 2349.53125 C 1236.339844 2370.984375 1362.691406 2290.828125 1401.410156 2288.800781 C 1417.789062 2287.945312 1508.039062 2325.460938 1533.238281 2333.128906 C 1578.109375 2346.777344 1635.449219 2359.988281 1684.71875 2347.75 C 1833.761719 2310.726562 1736.019531 2165.265625 1724.53125 2125.769531 C 1742.941406 2107.097656 1759.339844 2091.375 1776.570312 2070.871094 L 1802.308594 2041.191406 C 1836.730469 2000.109375 1858.089844 1954.1875 1882.25 1905.988281 C 1919.988281 1830.691406 1896.011719 1873.652344 1965.320312 1829.390625 C 2109.761719 1737.160156 2125.699219 1369.398438 1913.851562 1342.660156 C 1833.878906 1332.570312 1774.230469 1374.441406 1718.910156 1413.339844 C 1678.53125 1441.730469 1659.429688 1395.898438 1592.589844 1407.511719 L 1593.371094 1444.621094 C 1569.039062 1420.949219 1526.871094 1330.890625 1404.46875 1332.480469 C 1312.421875 1333.671875 1250.429688 1387.121094 1221.320312 1447.628906 C 1214.679688 1436.050781 1217.558594 1428.109375 1211.300781 1412.140625 C 1211.070312 1411.558594 1210.289062 1411.058594 1210.109375 1409.761719 C 1209.941406 1408.460938 1209.328125 1408.160156 1208.859375 1407.398438 "/>
<path fill-rule="evenodd" fill="rgb(0%, 0%, 0%)" fill-opacity="1" d="M 1208.859375 1407.398438 C 1209.328125 1408.160156 1209.941406 1408.460938 1210.109375 1409.761719 C 1210.289062 1411.058594 1211.070312 1411.558594 1211.300781 1412.140625 C 1217.558594 1428.109375 1214.679688 1436.050781 1221.320312 1447.628906 C 1250.429688 1387.121094 1312.421875 1333.671875 1404.46875 1332.480469 C 1526.871094 1330.890625 1569.039062 1420.949219 1593.371094 1444.621094 L 1592.589844 1407.511719 C 1659.429688 1395.898438 1678.53125 1441.730469 1718.910156 1413.339844 C 1774.230469 1374.441406 1833.878906 1332.570312 1913.851562 1342.660156 C 2125.699219 1369.398438 2109.761719 1737.160156 1965.320312 1829.390625 C 1896.011719 1873.652344 1919.988281 1830.691406 1882.25 1905.988281 C 1858.089844 1954.1875 1836.730469 2000.109375 1802.308594 2041.191406 L 1776.570312 2070.871094 C 1759.339844 2091.375 1742.941406 2107.097656 1724.53125 2125.769531 C 1736.019531 2165.265625 1833.761719 2310.726562 1684.71875 2347.75 C 1635.449219 2359.988281 1578.109375 2346.777344 1533.238281 2333.128906 C 1508.039062 2325.460938 1417.789062 2287.945312 1401.410156 2288.800781 C 1362.691406 2290.828125 1236.339844 2370.984375 1118.988281 2349.53125 C 1069.140625 2340.417969 1038.910156 2314.75 1030.648438 2265.09375 C 1020.898438 2206.453125 1049.050781 2170.65625 1067.378906 2129.210938 C 1027.339844 2084.648438 1012.78125 2073.863281 980.273438 2008.980469 C 967.941406 1984.375 926.152344 1869.972656 916.929688 1860.402344 C 894.808594 1837.460938 766.824219 1811.011719 740.453125 1613.449219 C 723.054688 1483.089844 784.421875 1364.949219 890.035156 1344.191406 C 995.710938 1323.410156 1068.371094 1395.640625 1122.058594 1420.78125 C 1141.261719 1429.769531 1139.488281 1409.910156 1208.859375 1407.398438 Z M 987.15625 1199.03125 C 1001.488281 1186.058594 1013.671875 1168.941406 1045.140625 1167.789062 C 1045.980469 1190.449219 1044.429688 1211.691406 1047.480469 1234.351562 C 1050.558594 1257.21875 1058.449219 1267.390625 1062.421875 1285.25 L 1039.480469 1300.71875 C 1047.070312 1306.820312 1057.578125 1307.378906 1067.351562 1308.730469 C 1097.980469 1312.960938 1123.28125 1315.160156 1153.238281 1324.128906 C 1174.679688 1330.550781 1238.109375 1349.230469 1244.890625 1369.558594 C 1232.941406 1392.621094 1183.171875 1385.730469 1156.628906 1388.570312 C 1101.621094 1394.449219 1117.339844 1386.871094 1081.511719 1363.28125 C 994.457031 1305.980469 955.035156 1317.78125 931.910156 1297.828125 C 949.25 1266.550781 951.378906 1301.179688 958.363281 1242.960938 C 960.65625 1223.851562 960.511719 1188.371094 970.859375 1175.359375 C 981.863281 1183.46875 979.84375 1188.050781 987.15625 1199.03125 Z M 1237.339844 1287.238281 C 1237.191406 1287.339844 1226.679688 1292.128906 1226.011719 1292.339844 C 1197.398438 1301.460938 1169.621094 1287.78125 1187.261719 1243.679688 C 1214.070312 1240.21875 1208.878906 1251.160156 1206.761719 1273.199219 C 1225.699219 1270.800781 1235.109375 1265.378906 1245.53125 1275.011719 C 1243.328125 1288.390625 1248.800781 1279.21875 1237.339844 1287.238281 Z M 1602.871094 1244.128906 C 1636.449219 1238.371094 1618.558594 1287.101562 1606.671875 1294.730469 C 1582.28125 1310.378906 1560.410156 1285 1557.011719 1265.648438 C 1586.109375 1264.738281 1580.378906 1272.738281 1600.890625 1276.089844 C 1601.320312 1269.648438 1600.878906 1264.078125 1601.050781 1258.53125 C 1601.199219 1253.808594 1601.230469 1253.851562 1601.699219 1249.511719 Z M 1201.769531 1321.199219 C 1133.691406 1287.570312 1086.488281 1307.339844 1075.808594 1257.839844 C 1070.550781 1233.441406 1071.410156 1192.96875 1072.019531 1167.230469 C 1124.078125 1169.398438 1137.191406 1206.25 1177.390625 1219.519531 C 1176.859375 1236.371094 1168.570312 1255.039062 1171.578125 1270.160156 C 1178.238281 1303.621094 1215.480469 1317.039062 1239.28125 1302.199219 C 1254.519531 1292.691406 1241.800781 1287.328125 1270.648438 1279.238281 C 1284.800781 1303.921875 1273.460938 1324.808594 1267.21875 1350.019531 C 1244.289062 1345.371094 1221.480469 1330.941406 1201.769531 1321.199219 Z M 1625.300781 1221.378906 C 1662.640625 1210.21875 1681.871094 1172 1734.789062 1160.328125 C 1746.5 1189.710938 1752.949219 1205.789062 1744.628906 1243.5 C 1733.121094 1295.621094 1725.589844 1288.320312 1698.128906 1294.628906 C 1673.890625 1300.191406 1643.03125 1306.851562 1620.691406 1315.171875 C 1597.140625 1323.929688 1578.378906 1339.53125 1550.230469 1341.371094 C 1538.730469 1315.710938 1533.300781 1320.171875 1533.648438 1279.539062 C 1561.878906 1288.078125 1550.050781 1295.980469 1567.601562 1304.25 C 1578.128906 1309.210938 1601.570312 1309.53125 1612.230469 1303.761719 C 1647.828125 1284.488281 1628.679688 1241.949219 1625.300781 1221.378906 Z M 1805.5 1184.878906 C 1807.351562 1182.261719 1806.488281 1184.25 1809.371094 1178.148438 C 1814.691406 1166.878906 1814.859375 1155.78125 1821.800781 1145.121094 C 1835.949219 1159.421875 1849.101562 1198.578125 1853.121094 1224.039062 C 1855.121094 1236.699219 1854.621094 1265.988281 1857.960938 1274.640625 C 1864.148438 1290.691406 1878.011719 1286.941406 1889.539062 1298.488281 C 1857.769531 1318.199219 1812 1310.820312 1735.988281 1365.339844 C 1705.058594 1387.519531 1705.628906 1394.011719 1658.179688 1387.210938 C 1623.679688 1382.261719 1588.308594 1389.601562 1561.328125 1377.199219 C 1577.339844 1325.351562 1720.46875 1304.980469 1787.359375 1305.570312 C 1781.328125 1298.511719 1778.191406 1297.191406 1771.160156 1292.878906 C 1765.808594 1289.601562 1761.488281 1286.628906 1757.980469 1283.761719 C 1775.980469 1237.351562 1772.019531 1216.359375 1769.351562 1164.128906 C 1780.128906 1168.210938 1793.96875 1178.421875 1805.5 1184.878906 Z M 1858.929688 1008.921875 C 1892.480469 1034.261719 1963.011719 1187.160156 1873.808594 1202.648438 L 1852.570312 1142.789062 C 1866.289062 1145.730469 1865.171875 1152.589844 1883.230469 1153.25 C 1888.390625 1127.519531 1885.339844 1095.890625 1877.390625 1072.648438 C 1872.058594 1057.070312 1869.511719 1055.371094 1861.28125 1043.011719 C 1854.421875 1032.691406 1854.058594 1022.589844 1858.929688 1008.921875 Z M 938.257812 1193.558594 C 869.316406 1181.171875 892.410156 1079.539062 916.691406 1035.160156 C 926.988281 1016.339844 933.988281 1005.488281 961.351562 1002.75 C 955.453125 1013.589844 949.441406 1017.859375 942.136719 1031 C 924.019531 1063.601562 921.140625 1105.980469 921.570312 1143.199219 L 955.949219 1130.570312 Z M 1516.488281 1128.839844 C 1546.648438 1110.980469 1557.070312 1117.960938 1589.839844 1065.851562 C 1607.71875 1037.398438 1621.898438 1005.808594 1640.789062 983.109375 C 1686.300781 928.421875 1786.671875 922.21875 1819.339844 988.308594 C 1798.628906 990.789062 1800.570312 984 1779.621094 991.730469 C 1787.019531 999.449219 1802.96875 1005.398438 1812.160156 1014.101562 C 1821.03125 1022.488281 1829.929688 1031.269531 1836.730469 1041.738281 C 1851.210938 1064.050781 1859.910156 1090.199219 1864.460938 1119.800781 C 1833.488281 1114.011719 1808.019531 1093.261719 1777.71875 1090.621094 C 1785.238281 1111.359375 1792.429688 1127.21875 1796.289062 1151.761719 C 1716.839844 1140.058594 1697.03125 1146.191406 1643.339844 1187.859375 C 1612.71875 1211.628906 1565.269531 1254.769531 1510.050781 1254.101562 C 1509.660156 1210.539062 1523.140625 1182.019531 1516.488281 1128.839844 Z M 975.183594 977.941406 C 988.726562 926.109375 1075.761719 896.339844 1155.800781 979.160156 C 1218.378906 1043.910156 1208.171875 1097.53125 1288.378906 1127.011719 C 1289.671875 1147.011719 1284.648438 1169.269531 1286.75 1193.519531 C 1288.488281 1213.640625 1295.308594 1234.761719 1296.25 1254.621094 C 1220.808594 1250.300781 1147.53125 1165.648438 1080.871094 1145.351562 C 1038.308594 1132.390625 1025.089844 1147.710938 997.851562 1160.589844 C 992.371094 1125.648438 996.125 1121.640625 1005.339844 1092.46875 L 939.523438 1107.820312 C 949.210938 1048.109375 968.03125 1013.160156 1016.898438 995.359375 C 1002.039062 983.191406 999.144531 988.898438 975.183594 977.941406 Z M 1148.78125 939.199219 C 1149.328125 938.53125 1150.121094 937.679688 1150.53125 937.261719 L 1173.5 920.109375 C 1268.578125 867.160156 1441.25 854.5 1544.71875 886.929688 C 1568.800781 894.46875 1640.570312 922.769531 1655 935.941406 C 1653.328125 939.539062 1540.550781 1090.5 1535.738281 1093.511719 C 1509.089844 1110.21875 1496.378906 1078.339844 1479.429688 1069.488281 C 1493.160156 1153.941406 1503.820312 1228.96875 1456.609375 1300.121094 L 1346.609375 1297.03125 C 1330.308594 1273.101562 1314.441406 1226.871094 1311.511719 1191.859375 C 1305.949219 1125.339844 1324.390625 1095.308594 1325.230469 1071.171875 C 1306.820312 1084.601562 1291.570312 1108.949219 1266.21875 1090.570312 C 1253.910156 1081.648438 1202.351562 1007.121094 1188.449219 988.921875 C 1180.808594 978.910156 1176.359375 972.949219 1168.300781 963.460938 C 1164.320312 958.769531 1162.039062 955.519531 1158.128906 950.800781 Z M 875.507812 1071.929688 C 830.664062 1048.78125 763.414062 934.75 743.914062 869.359375 C 729.875 822.269531 725.730469 766.078125 739.488281 717.800781 C 749.152344 683.898438 780.148438 632.429688 807.84375 619.078125 C 829.96875 654.910156 817.414062 727.5 862.425781 796.671875 C 879.566406 823.011719 896.144531 837.570312 918.539062 857.761719 C 931.066406 869.058594 971.570312 898.878906 979.832031 909.820312 C 972.042969 922.960938 959.777344 933.160156 949.457031 947.160156 C 902.050781 1011.421875 911.292969 1009.519531 875.507812 1071.929688 Z M 1807.03125 903.339844 C 1818.398438 892.109375 1858.25 866.890625 1872.339844 856.078125 C 1989.058594 766.539062 1963.03125 716.039062 1984.808594 642.460938 C 2016.550781 648.089844 2043.070312 697.378906 2050.660156 736.390625 C 2066.761719 819.140625 2041.710938 920.691406 2000.78125 990.96875 C 1985.859375 1016.578125 1953.121094 1062.289062 1926.128906 1072.871094 C 1917.648438 1060.980469 1910.859375 1039.351562 1902.46875 1024.710938 C 1885.019531 994.261719 1865.71875 966.269531 1843.089844 940.621094 C 1829.800781 925.550781 1821.03125 924.039062 1807.03125 903.339844 Z M 1240.691406 716.539062 C 1255.839844 684.011719 1246.128906 621.671875 1295.238281 582.261719 C 1327.320312 556.511719 1372.621094 532.011719 1428.421875 526.929688 C 1484.738281 521.800781 1544.179688 537.371094 1600.578125 540.859375 C 1711.570312 547.738281 1713.671875 514.359375 1752.070312 506.828125 C 1759.058594 614.820312 1698.210938 666.929688 1688.628906 697.460938 C 1716.761719 696.121094 1740.941406 690.53125 1765.460938 680.648438 C 1791.519531 670.140625 1804.488281 654.800781 1820.300781 647.089844 C 1819.980469 730.230469 1787.558594 740.46875 1770.539062 785.371094 C 1806.050781 785.320312 1858.328125 773.058594 1885.820312 795.460938 C 1876.609375 808.75 1843.539062 834.449219 1827.019531 846.660156 C 1759.109375 896.859375 1734.191406 868.351562 1697.390625 880.191406 C 1682.800781 884.878906 1671.078125 892.75 1652.289062 891.5 C 1630.269531 890.03125 1598.050781 869.269531 1573.121094 861.890625 C 1401.25 810.96875 1336 855.671875 1192.78125 869.988281 C 1163.46875 828.96875 1129.429688 774.710938 1135.5 704.828125 C 1140.890625 642.878906 1179.910156 583.089844 1223.320312 566.429688 C 1220.558594 607.71875 1218.769531 685.589844 1240.691406 716.539062 Z M 1127.441406 2396.554688 L 1175.28125 2396.554688 C 1194.539062 2388.175781 1260.769531 2391.441406 1378.398438 2334.566406 C 1409.679688 2319.445312 1425 2336.429688 1476.921875 2356.703125 C 1570.449219 2393.234375 1723.78125 2425.136719 1785.441406 2340.671875 C 1848.101562 2254.820312 1782.191406 2167.636719 1779.410156 2132.472656 C 1808.121094 2100.871094 1811.121094 2102.285156 1844.101562 2063.5 C 1862.039062 2042.402344 1886.429688 2006.996094 1899.808594 1982.265625 C 1938.109375 1911.503906 1899.03125 1926.316406 1971.808594 1875.015625 C 2025.769531 1836.988281 2064.359375 1787.96875 2092.820312 1722.101562 C 2131.378906 1632.859375 2129.058594 1509.648438 2085.691406 1425.25 C 2034.640625 1325.890625 1911.648438 1295.550781 1896.488281 1250.828125 C 1904.949219 1244.871094 1906.691406 1241.011719 1914.800781 1234.351562 C 1935.21875 1217.558594 1949.730469 1209.398438 1953.238281 1161.039062 C 1958.78125 1084.789062 1926.871094 1143.589844 2002.570312 1061.269531 C 2044.460938 1015.710938 2082.738281 932.210938 2092.378906 851.089844 C 2115.449219 656.859375 1959.949219 524.808594 1949.351562 649.089844 C 1946.078125 687.488281 1932.238281 738.089844 1913.089844 763.5 L 1846.808594 746.410156 C 1854.210938 693.871094 1887.671875 603.148438 1845.011719 561.929688 C 1823.640625 570.339844 1803.800781 606.960938 1779.328125 621.800781 C 1781.800781 551.871094 1803.328125 513.070312 1776.488281 440.371094 L 1764.289062 440.371094 C 1750.941406 464.828125 1702.890625 495.058594 1658.039062 501.328125 C 1608.378906 508.28125 1554.21875 498.628906 1506.308594 491.5 C 1374.011719 471.808594 1345.890625 499.199219 1267.261719 557.71875 C 1262.339844 561.390625 1267.269531 558.519531 1259.761719 562.269531 L 1247.980469 522.058594 C 1216.371094 523.921875 1169.910156 559.671875 1156.109375 573.460938 C 1138.089844 591.460938 1112.28125 627.941406 1101.5 662.429688 C 1064.910156 779.46875 1133.578125 836.261719 1150.75 878.078125 C 1121.011719 868.308594 1097.089844 852.339844 1058.988281 857.480469 C 1012.289062 863.78125 1011.570312 876.878906 972.546875 846.230469 C 803.214844 713.210938 898.023438 549.671875 802.023438 581.238281 C 757.386719 595.921875 722.085938 653.769531 704.769531 705.679688 C 662.632812 831.988281 721.425781 967.410156 780.773438 1044.53125 C 830.519531 1109.179688 849.230469 1093.808594 856.273438 1135.429688 C 875.527344 1249.21875 899.191406 1206.289062 913.175781 1244.601562 C 920.828125 1265.570312 882.953125 1295.578125 868.28125 1302.890625 C 844.914062 1314.519531 809.808594 1324.601562 793.242188 1338.730469 C 628.632812 1479.128906 678.289062 1763.929688 832.246094 1866.757812 C 851.441406 1879.578125 886.882812 1892.050781 895.019531 1914.820312 C 932.296875 2019.125 924.648438 2004.902344 984.003906 2103.03125 C 991.289062 2115.074219 1000.691406 2122.96875 1007.839844 2134.914062 C 1016.039062 2148.621094 995.121094 2169.148438 986.160156 2212.742188 C 978.957031 2247.769531 980.941406 2280.511719 995.277344 2310.128906 C 1034.570312 2391.304688 1107.449219 2387.945312 1127.441406 2396.554688 "/>
<path fill-rule="evenodd" fill="rgb(81.054688%, 25%, 14.988708%)" fill-opacity="1" d="M 1240.691406 716.539062 C 1218.769531 685.589844 1220.558594 607.71875 1223.320312 566.429688 C 1179.910156 583.089844 1140.890625 642.878906 1135.5 704.828125 C 1129.429688 774.710938 1163.46875 828.96875 1192.78125 869.988281 C 1336 855.671875 1401.25 810.96875 1573.121094 861.890625 C 1598.050781 869.269531 1630.269531 890.03125 1652.289062 891.5 C 1671.078125 892.75 1682.800781 884.878906 1697.390625 880.191406 C 1734.191406 868.351562 1759.109375 896.859375 1827.019531 846.660156 C 1843.539062 834.449219 1876.609375 808.75 1885.820312 795.460938 C 1858.328125 773.058594 1806.050781 785.320312 1770.539062 785.371094 C 1787.558594 740.46875 1819.980469 730.230469 1820.300781 647.089844 C 1804.488281 654.800781 1791.519531 670.140625 1765.460938 680.648438 C 1740.941406 690.53125 1716.761719 696.121094 1688.628906 697.460938 C 1698.210938 666.929688 1759.058594 614.820312 1752.070312 506.828125 C 1713.671875 514.359375 1711.570312 547.738281 1600.578125 540.859375 C 1544.179688 537.371094 1484.738281 521.800781 1428.421875 526.929688 C 1372.621094 532.011719 1327.320312 556.511719 1295.238281 582.261719 C 1246.128906 621.671875 1255.839844 684.011719 1240.691406 716.539062 "/>
<path fill-rule="evenodd" fill="rgb(0%, 0%, 0%)" fill-opacity="1" d="M 1510.019531 2049.742188 C 1509.101562 2020.144531 1529.648438 1961.375 1551.191406 1950.351562 C 1577.941406 1961.410156 1603.21875 2041.5625 1607.808594 2081.136719 Z M 1197.191406 2081.210938 C 1206.011719 2031.152344 1231.179688 1982.261719 1253.878906 1950.40625 C 1279.238281 1959.503906 1302.46875 2011.761719 1309.660156 2045.425781 Z M 1075.390625 1887.949219 C 1084.949219 1870.578125 1092.859375 1859.03125 1116.839844 1852.984375 L 1114.46875 1943.703125 C 1105.691406 1935.777344 1079.789062 1900.054688 1075.390625 1887.949219 Z M 1700.128906 1905.28125 C 1696.890625 1883.335938 1698.199219 1848.484375 1710.949219 1833.300781 C 1752.679688 1865.375 1713.96875 1885.113281 1700.128906 1905.28125 Z M 1663.519531 1774.191406 C 1660.851562 1825.191406 1642.671875 1854.085938 1623.890625 1888.664062 C 1594.5 1880.492188 1572.660156 1825.601562 1565.878906 1795.53125 Z M 1251.789062 1796.660156 C 1242.789062 1828.769531 1225.351562 1867.097656 1201.410156 1878.535156 C 1184.75 1851.007812 1159.460938 1818.699219 1160.46875 1771.328125 C 1174.089844 1774.859375 1244.628906 1792.441406 1251.789062 1796.660156 Z M 1750.96875 1797.148438 C 1778.851562 1760.488281 1769.261719 1741.140625 1785.929688 1725.960938 C 1806.269531 1730.859375 1819.480469 1742.199219 1828.910156 1754.28125 C 1822.480469 1774.171875 1761.441406 1835.734375 1746.808594 1842.25 C 1722.03125 1821.628906 1738.078125 1809.019531 1693.210938 1804.261719 C 1690.261719 1838.683594 1683.910156 1909.371094 1675.808594 1940.792969 C 1673.269531 1950.628906 1630.441406 2032.308594 1624.070312 2040.066406 C 1596.648438 1994.265625 1594.019531 1934.898438 1547.929688 1913.4375 C 1529.25 1922.492188 1515.96875 1949.933594 1507.261719 1974.328125 C 1498.140625 1999.835938 1489.429688 2022.359375 1481.078125 2044.90625 L 1339.269531 2043.652344 C 1328.351562 2021.414062 1321.378906 1999.335938 1310.390625 1978.71875 C 1299.921875 1959.082031 1282.351562 1938.519531 1275.460938 1919.09375 C 1210.089844 1929.578125 1206.039062 2002.824219 1173 2054.535156 C 1166.019531 2048.472656 1162.78125 2040.851562 1158.589844 2032.734375 C 1116.671875 1951.652344 1136.5 1949.804688 1139.628906 1894.425781 C 1140.871094 1872.394531 1136.980469 1853.84375 1132.589844 1833.808594 C 1112.808594 1831.648438 1099.699219 1835.542969 1087.128906 1844.539062 C 1076.699219 1851.996094 1068.789062 1859.074219 1056.488281 1867.71875 C 1047.960938 1861.289062 1043.851562 1849.628906 1037.589844 1840.769531 C 1016.648438 1811.148438 987.71875 1787.148438 981.410156 1761.109375 C 996.066406 1750.230469 1000.710938 1739.691406 1023.019531 1731.570312 C 1029.738281 1739.140625 1032.140625 1754.089844 1035.128906 1765 C 1038.148438 1776.03125 1041.730469 1789.929688 1046.21875 1798.558594 C 1098.058594 1787 1086.050781 1757.359375 1124.011719 1748.140625 C 1148.121094 1798.578125 1159.160156 1886.980469 1202.339844 1911.503906 C 1249.648438 1896.136719 1253.738281 1824.140625 1280.421875 1799.789062 C 1296.96875 1784.679688 1323.890625 1782.941406 1346.890625 1771.671875 C 1367.398438 1761.628906 1386.191406 1745.308594 1404.480469 1738.621094 C 1423.738281 1747.648438 1441.578125 1762.691406 1465.960938 1774.261719 C 1547.789062 1813.121094 1511.03125 1763.300781 1571.5 1864.402344 C 1585.941406 1888.554688 1599.820312 1903.585938 1612.199219 1921.496094 C 1668.800781 1909.210938 1671.289062 1808.660156 1695.070312 1755.011719 C 1716.609375 1768.78125 1721.089844 1792.699219 1750.96875 1797.148438 Z M 1049.769531 1703.558594 C 1069.890625 1712.421875 1086.511719 1724.539062 1097.371094 1738.050781 C 1089.808594 1757.679688 1079.199219 1766.988281 1052.410156 1772.300781 Z M 1719.070312 1741.238281 C 1726.730469 1728.46875 1746.308594 1714 1763.511719 1709.011719 C 1762.261719 1731.550781 1759.109375 1756.550781 1746.808594 1771.929688 C 1731.980469 1765.191406 1725.460938 1757.539062 1719.070312 1741.238281 Z M 1865.398438 1584.800781 C 1820.589844 1633.148438 1715.019531 1711.238281 1664.878906 1737.621094 C 1573.410156 1785.761719 1455.921875 1760.800781 1408.75 1695.320312 C 1390.628906 1700.839844 1373.910156 1717.101562 1358.480469 1727.851562 C 1298.640625 1769.550781 1226.820312 1768.210938 1161.949219 1739.269531 C 1096.78125 1710.191406 1004.960938 1638.46875 976.402344 1591.261719 C 981.4375 1574.101562 1004.5 1550.910156 1012.738281 1532.859375 C 960.796875 1547.890625 864.703125 1685.25 926.605469 1752.949219 C 936.816406 1764.121094 948.957031 1773.101562 956.71875 1781.390625 C 975.710938 1801.660156 1018.679688 1853.484375 1033.890625 1877.085938 C 1077.378906 1944.558594 1081.699219 1957.753906 1116.859375 2028.996094 C 1127.371094 2050.289062 1150.71875 2087.707031 1156.609375 2107.613281 C 1145.800781 2116.3125 1129.390625 2138.050781 1123.570312 2155.542969 C 1218.339844 2121.125 1233 2073.292969 1394.699219 2072.027344 C 1593.199219 2070.472656 1594.101562 2124.746094 1673.691406 2147.503906 C 1663.410156 2113.742188 1652.089844 2117.414062 1638.921875 2096.609375 C 1663.601562 1996.398438 1748.96875 1888.582031 1817.828125 1815.5 C 1827.789062 1804.929688 1836.488281 1798.339844 1846.230469 1788.390625 C 1859.640625 1774.710938 1865.058594 1772.039062 1877.160156 1760.699219 C 1901.871094 1737.53125 1919.039062 1736.230469 1915.730469 1682.578125 C 1912.070312 1623.101562 1887.988281 1539.761719 1841.019531 1524.871094 L 1865.398438 1584.800781 "/>
<path fill-rule="evenodd" fill="rgb(35.009766%, 61.914062%, 31.005859%)" fill-opacity="1" d="M 1148.78125 939.199219 L 1158.128906 950.800781 C 1162.039062 955.519531 1164.320312 958.769531 1168.300781 963.460938 C 1176.359375 972.949219 1180.808594 978.910156 1188.449219 988.921875 C 1202.351562 1007.121094 1253.910156 1081.648438 1266.21875 1090.570312 C 1291.570312 1108.949219 1306.820312 1084.601562 1325.230469 1071.171875 C 1324.390625 1095.308594 1305.949219 1125.339844 1311.511719 1191.859375 C 1314.441406 1226.871094 1330.308594 1273.101562 1346.609375 1297.03125 L 1456.609375 1300.121094 C 1503.820312 1228.96875 1493.160156 1153.941406 1479.429688 1069.488281 C 1496.378906 1078.339844 1509.089844 1110.21875 1535.738281 1093.511719 C 1540.550781 1090.5 1653.328125 939.539062 1655 935.941406 C 1640.570312 922.769531 1568.800781 894.46875 1544.71875 886.929688 C 1441.25 854.5 1268.578125 867.160156 1173.5 920.109375 L 1150.53125 937.261719 C 1150.121094 937.679688 1149.328125 938.53125 1148.78125 939.199219 "/>
<path fill-rule="evenodd" fill="rgb(77.929688%, 11.009216%, 15.989685%)" fill-opacity="1" d="M 1750.96875 1797.148438 C 1721.089844 1792.699219 1716.609375 1768.78125 1695.070312 1755.011719 C 1671.289062 1808.660156 1668.800781 1909.210938 1612.199219 1921.496094 C 1599.820312 1903.585938 1585.941406 1888.554688 1571.5 1864.402344 C 1511.03125 1763.300781 1547.789062 1813.121094 1465.960938 1774.261719 C 1441.578125 1762.691406 1423.738281 1747.648438 1404.480469 1738.621094 C 1386.191406 1745.308594 1367.398438 1761.628906 1346.890625 1771.671875 C 1323.890625 1782.941406 1296.96875 1784.679688 1280.421875 1799.789062 C 1253.738281 1824.140625 1249.648438 1896.136719 1202.339844 1911.503906 C 1159.160156 1886.980469 1148.121094 1798.578125 1124.011719 1748.140625 C 1086.050781 1757.359375 1098.058594 1787 1046.21875 1798.558594 C 1041.730469 1789.929688 1038.148438 1776.03125 1035.128906 1765 C 1032.140625 1754.089844 1029.738281 1739.140625 1023.019531 1731.570312 C 1000.710938 1739.691406 996.066406 1750.230469 981.410156 1761.109375 C 987.71875 1787.148438 1016.648438 1811.148438 1037.589844 1840.769531 C 1043.851562 1849.628906 1047.960938 1861.289062 1056.488281 1867.71875 C 1068.789062 1859.074219 1076.699219 1851.996094 1087.128906 1844.539062 C 1099.699219 1835.542969 1112.808594 1831.648438 1132.589844 1833.808594 C 1136.980469 1853.84375 1140.871094 1872.394531 1139.628906 1894.425781 C 1136.5 1949.804688 1116.671875 1951.652344 1158.589844 2032.734375 C 1162.78125 2040.851562 1166.019531 2048.472656 1173 2054.535156 C 1206.039062 2002.824219 1210.089844 1929.578125 1275.460938 1919.09375 C 1282.351562 1938.519531 1299.921875 1959.082031 1310.390625 1978.71875 C 1321.378906 1999.335938 1328.351562 2021.414062 1339.269531 2043.652344 L 1481.078125 2044.90625 C 1489.429688 2022.359375 1498.140625 1999.835938 1507.261719 1974.328125 C 1515.96875 1949.933594 1529.25 1922.492188 1547.929688 1913.4375 C 1594.019531 1934.898438 1596.648438 1994.265625 1624.070312 2040.066406 C 1630.441406 2032.308594 1673.269531 1950.628906 1675.808594 1940.792969 C 1683.910156 1909.371094 1690.261719 1838.683594 1693.210938 1804.261719 C 1738.078125 1809.019531 1722.03125 1821.628906 1746.808594 1842.25 C 1761.441406 1835.734375 1822.480469 1774.171875 1828.910156 1754.28125 C 1819.480469 1742.199219 1806.269531 1730.859375 1785.929688 1725.960938 C 1769.261719 1741.140625 1778.851562 1760.488281 1750.96875 1797.148438 "/>
<path fill-rule="evenodd" fill="rgb(81.054688%, 25%, 14.988708%)" fill-opacity="1" d="M 975.183594 977.941406 C 999.144531 988.898438 1002.039062 983.191406 1016.898438 995.359375 C 968.03125 1013.160156 949.210938 1048.109375 939.523438 1107.820312 L 1005.339844 1092.46875 C 996.125 1121.640625 992.371094 1125.648438 997.851562 1160.589844 C 1025.089844 1147.710938 1038.308594 1132.390625 1080.871094 1145.351562 C 1147.53125 1165.648438 1220.808594 1250.300781 1296.25 1254.621094 C 1295.308594 1234.761719 1288.488281 1213.640625 1286.75 1193.519531 C 1284.648438 1169.269531 1289.671875 1147.011719 1288.378906 1127.011719 C 1208.171875 1097.53125 1218.378906 1043.910156 1155.800781 979.160156 C 1075.761719 896.339844 988.726562 926.109375 975.183594 977.941406 "/>
<path fill-rule="evenodd" fill="rgb(81.054688%, 25%, 14.988708%)" fill-opacity="1" d="M 1516.488281 1128.839844 C 1523.140625 1182.019531 1509.660156 1210.539062 1510.050781 1254.101562 C 1565.269531 1254.769531 1612.71875 1211.628906 1643.339844 1187.859375 C 1697.03125 1146.191406 1716.839844 1140.058594 1796.289062 1151.761719 C 1792.429688 1127.21875 1785.238281 1111.359375 1777.71875 1090.621094 C 1808.019531 1093.261719 1833.488281 1114.011719 1864.460938 1119.800781 C 1859.910156 1090.199219 1851.210938 1064.050781 1836.730469 1041.738281 C 1829.929688 1031.269531 1821.03125 1022.488281 1812.160156 1014.101562 C 1802.96875 1005.398438 1787.019531 999.449219 1779.621094 991.730469 C 1800.570312 984 1798.628906 990.789062 1819.339844 988.308594 C 1786.671875 922.21875 1686.300781 928.421875 1640.789062 983.109375 C 1621.898438 1005.808594 1607.71875 1037.398438 1589.839844 1065.851562 C 1557.070312 1117.960938 1546.648438 1110.980469 1516.488281 1128.839844 "/>
<path fill-rule="evenodd" fill="rgb(92.96875%, 76.951599%, 59.959412%)" fill-opacity="1" d="M 875.507812 1071.929688 C 911.292969 1009.519531 902.050781 1011.421875 949.457031 947.160156 C 959.777344 933.160156 972.042969 922.960938 979.832031 909.820312 C 971.570312 898.878906 931.066406 869.058594 918.539062 857.761719 C 896.144531 837.570312 879.566406 823.011719 862.425781 796.671875 C 817.414062 727.5 829.96875 654.910156 807.84375 619.078125 C 780.148438 632.429688 749.152344 683.898438 739.488281 717.800781 C 725.730469 766.078125 729.875 822.269531 743.914062 869.359375 C 763.414062 934.75 830.664062 1048.78125 875.507812 1071.929688 "/>
<path fill-rule="evenodd" fill="rgb(92.96875%, 76.951599%, 59.959412%)" fill-opacity="1" d="M 1807.03125 903.339844 C 1821.03125 924.039062 1829.800781 925.550781 1843.089844 940.621094 C 1865.71875 966.269531 1885.019531 994.261719 1902.46875 1024.710938 C 1910.859375 1039.351562 1917.648438 1060.980469 1926.128906 1072.871094 C 1953.121094 1062.289062 1985.859375 1016.578125 2000.78125 990.96875 C 2041.710938 920.691406 2066.761719 819.140625 2050.660156 736.390625 C 2043.070312 697.378906 2016.550781 648.089844 1984.808594 642.460938 C 1963.03125 716.039062 1989.058594 766.539062 1872.339844 856.078125 C 1858.25 866.890625 1818.398438 892.109375 1807.03125 903.339844 "/>
<path fill-rule="evenodd" fill="rgb(35.009766%, 61.914062%, 31.005859%)" fill-opacity="1" d="M 1805.5 1184.878906 C 1793.96875 1178.421875 1780.128906 1168.210938 1769.351562 1164.128906 C 1772.019531 1216.359375 1775.980469 1237.351562 1757.980469 1283.761719 C 1761.488281 1286.628906 1765.808594 1289.601562 1771.160156 1292.878906 C 1778.191406 1297.191406 1781.328125 1298.511719 1787.359375 1305.570312 C 1720.46875 1304.980469 1577.339844 1325.351562 1561.328125 1377.199219 C 1588.308594 1389.601562 1623.679688 1382.261719 1658.179688 1387.210938 C 1705.628906 1394.011719 1705.058594 1387.519531 1735.988281 1365.339844 C 1812 1310.820312 1857.769531 1318.199219 1889.539062 1298.488281 C 1878.011719 1286.941406 1864.148438 1290.691406 1857.960938 1274.640625 C 1854.621094 1265.988281 1855.121094 1236.699219 1853.121094 1224.039062 C 1849.101562 1198.578125 1835.949219 1159.421875 1821.800781 1145.121094 C 1814.859375 1155.78125 1814.691406 1166.878906 1809.371094 1178.148438 C 1806.488281 1184.25 1807.351562 1182.261719 1805.5 1184.878906 "/>
<path fill-rule="evenodd" fill="rgb(35.009766%, 61.914062%, 31.005859%)" fill-opacity="1" d="M 987.15625 1199.03125 C 979.84375 1188.050781 981.863281 1183.46875 970.859375 1175.359375 C 960.511719 1188.371094 960.65625 1223.851562 958.363281 1242.960938 C 951.378906 1301.179688 949.25 1266.550781 931.910156 1297.828125 C 955.035156 1317.78125 994.457031 1305.980469 1081.511719 1363.28125 C 1117.339844 1386.871094 1101.621094 1394.449219 1156.628906 1388.570312 C 1183.171875 1385.730469 1232.941406 1392.621094 1244.890625 1369.558594 C 1238.109375 1349.230469 1174.679688 1330.550781 1153.238281 1324.128906 C 1123.28125 1315.160156 1097.980469 1312.960938 1067.351562 1308.730469 C 1057.578125 1307.378906 1047.070312 1306.820312 1039.480469 1300.71875 L 1062.421875 1285.25 C 1058.449219 1267.390625 1050.558594 1257.21875 1047.480469 1234.351562 C 1044.429688 1211.691406 1045.980469 1190.449219 1045.140625 1167.789062 C 1013.671875 1168.941406 1001.488281 1186.058594 987.15625 1199.03125 "/>
<path fill-rule="evenodd" fill="rgb(99.021912%, 99.021912%, 99.021912%)" fill-opacity="1" d="M 1625.300781 1221.378906 C 1628.679688 1241.949219 1647.828125 1284.488281 1612.230469 1303.761719 C 1601.570312 1309.53125 1578.128906 1309.210938 1567.601562 1304.25 C 1550.050781 1295.980469 1561.878906 1288.078125 1533.648438 1279.539062 C 1533.300781 1320.171875 1538.730469 1315.710938 1550.230469 1341.371094 C 1578.378906 1339.53125 1597.140625 1323.929688 1620.691406 1315.171875 C 1643.03125 1306.851562 1673.890625 1300.191406 1698.128906 1294.628906 C 1725.589844 1288.320312 1733.121094 1295.621094 1744.628906 1243.5 C 1752.949219 1205.789062 1746.5 1189.710938 1734.789062 1160.328125 C 1681.871094 1172 1662.640625 1210.21875 1625.300781 1221.378906 "/>
<path fill-rule="evenodd" fill="rgb(99.021912%, 99.021912%, 99.021912%)" fill-opacity="1" d="M 1267.21875 1350.019531 C 1273.460938 1324.808594 1284.800781 1303.921875 1270.648438 1279.238281 C 1241.800781 1287.328125 1254.519531 1292.691406 1239.28125 1302.199219 C 1215.480469 1317.039062 1178.238281 1303.621094 1171.578125 1270.160156 C 1168.570312 1255.039062 1176.859375 1236.371094 1177.390625 1219.519531 C 1137.191406 1206.25 1124.078125 1169.398438 1072.019531 1167.230469 C 1071.410156 1192.96875 1070.550781 1233.441406 1075.808594 1257.839844 C 1086.488281 1307.339844 1133.691406 1287.570312 1201.769531 1321.199219 C 1221.480469 1330.941406 1244.289062 1345.371094 1267.21875 1350.019531 "/>
<path fill-rule="evenodd" fill="rgb(99.021912%, 99.021912%, 99.021912%)" fill-opacity="1" d="M 1197.191406 2081.210938 L 1309.660156 2045.425781 C 1302.46875 2011.761719 1279.238281 1959.503906 1253.878906 1950.40625 C 1231.179688 1982.261719 1206.011719 2031.152344 1197.191406 2081.210938 "/>
<path fill-rule="evenodd" fill="rgb(99.021912%, 99.021912%, 99.021912%)" fill-opacity="1" d="M 1510.019531 2049.742188 L 1607.808594 2081.136719 C 1603.21875 2041.5625 1577.941406 1961.410156 1551.191406 1950.351562 C 1529.648438 1961.375 1509.101562 2020.144531 1510.019531 2049.742188 "/>
<path fill-rule="evenodd" fill="rgb(99.021912%, 99.021912%, 99.021912%)" fill-opacity="1" d="M 1565.878906 1795.53125 C 1572.660156 1825.601562 1594.5 1880.492188 1623.890625 1888.664062 C 1642.671875 1854.085938 1660.851562 1825.191406 1663.519531 1774.191406 L 1565.878906 1795.53125 "/>
<path fill-rule="evenodd" fill="rgb(66.992188%, 39.988708%, 28.001404%)" fill-opacity="1" d="M 938.257812 1193.558594 L 955.949219 1130.570312 L 921.570312 1143.199219 C 921.140625 1105.980469 924.019531 1063.601562 942.136719 1031 C 949.441406 1017.859375 955.453125 1013.589844 961.351562 1002.75 C 933.988281 1005.488281 926.988281 1016.339844 916.691406 1035.160156 C 892.410156 1079.539062 869.316406 1181.171875 938.257812 1193.558594 "/>
<path fill-rule="evenodd" fill="rgb(99.021912%, 99.021912%, 99.021912%)" fill-opacity="1" d="M 1201.410156 1878.535156 C 1225.351562 1867.097656 1242.789062 1828.769531 1251.789062 1796.660156 C 1244.628906 1792.441406 1174.089844 1774.859375 1160.46875 1771.328125 C 1159.460938 1818.699219 1184.75 1851.007812 1201.410156 1878.535156 "/>
<path fill-rule="evenodd" fill="rgb(66.992188%, 39.988708%, 28.001404%)" fill-opacity="1" d="M 1883.230469 1153.25 C 1865.171875 1152.589844 1866.289062 1145.730469 1852.570312 1142.789062 L 1873.808594 1202.648438 C 1963.011719 1187.160156 1892.480469 1034.261719 1858.929688 1008.921875 C 1854.058594 1022.589844 1854.421875 1032.691406 1861.28125 1043.011719 C 1869.511719 1055.371094 1872.058594 1057.070312 1877.390625 1072.648438 C 1885.339844 1095.890625 1888.390625 1127.519531 1883.230469 1153.25 "/>
<path fill-rule="evenodd" fill="rgb(1.000977%, 1.000977%, 1.000977%)" fill-opacity="1" d="M 1463.808594 1500.871094 C 1492.351562 1486.53125 1516.011719 1450.230469 1531.210938 1468.230469 C 1536.351562 1476.398438 1532.730469 1494.75 1531.808594 1507.070312 C 1569.78125 1492.25 1571.371094 1446.800781 1530.328125 1439.648438 C 1492.828125 1433.128906 1470.171875 1470.121094 1463.808594 1500.871094 "/>
<path fill-rule="evenodd" fill="rgb(1.000977%, 1.000977%, 1.000977%)" fill-opacity="1" d="M 1272.101562 1501.171875 L 1285.261719 1465.578125 C 1322.210938 1465.96875 1332.328125 1488.46875 1351.558594 1503.308594 C 1336.71875 1423.859375 1237.398438 1422.980469 1264.371094 1490.019531 L 1266.730469 1494.738281 C 1270.28125 1500.578125 1267.449219 1496.949219 1272.101562 1501.171875 "/>
<path fill-rule="evenodd" fill="rgb(99.021912%, 99.021912%, 99.021912%)" fill-opacity="1" d="M 1075.390625 1887.949219 C 1079.789062 1900.054688 1105.691406 1935.777344 1114.46875 1943.703125 L 1116.839844 1852.984375 C 1092.859375 1859.03125 1084.949219 1870.578125 1075.390625 1887.949219 "/>
<path fill-rule="evenodd" fill="rgb(99.021912%, 99.021912%, 98.046875%)" fill-opacity="1" d="M 1052.410156 1772.300781 C 1079.199219 1766.988281 1089.808594 1757.679688 1097.371094 1738.050781 C 1086.511719 1724.539062 1069.890625 1712.421875 1049.769531 1703.558594 L 1052.410156 1772.300781 "/>
<path fill-rule="evenodd" fill="rgb(77.929688%, 11.009216%, 15.989685%)" fill-opacity="1" d="M 1245.53125 1275.011719 C 1235.109375 1265.378906 1225.699219 1270.800781 1206.761719 1273.199219 C 1208.878906 1251.160156 1214.070312 1240.21875 1187.261719 1243.679688 C 1169.621094 1287.78125 1197.398438 1301.460938 1226.011719 1292.339844 C 1226.679688 1292.128906 1237.191406 1287.339844 1237.339844 1287.238281 C 1248.800781 1279.21875 1243.328125 1288.390625 1245.53125 1275.011719 "/>
<path fill-rule="evenodd" fill="rgb(77.929688%, 11.009216%, 15.989685%)" fill-opacity="1" d="M 1602.871094 1244.128906 L 1601.699219 1249.511719 C 1601.230469 1253.851562 1601.199219 1253.808594 1601.050781 1258.53125 C 1600.878906 1264.078125 1601.320312 1269.648438 1600.890625 1276.089844 C 1580.378906 1272.738281 1586.109375 1264.738281 1557.011719 1265.648438 C 1560.410156 1285 1582.28125 1310.378906 1606.671875 1294.730469 C 1618.558594 1287.101562 1636.449219 1238.371094 1602.871094 1244.128906 "/>
<path fill-rule="evenodd" fill="rgb(99.021912%, 99.021912%, 99.021912%)" fill-opacity="1" d="M 1719.070312 1741.238281 C 1725.460938 1757.539062 1731.980469 1765.191406 1746.808594 1771.929688 C 1759.109375 1756.550781 1762.261719 1731.550781 1763.511719 1709.011719 C 1746.308594 1714 1726.730469 1728.46875 1719.070312 1741.238281 "/>
<path fill-rule="evenodd" fill="rgb(98.046875%, 98.046875%, 98.046875%)" fill-opacity="1" d="M 1700.128906 1905.28125 C 1713.96875 1885.113281 1752.679688 1865.375 1710.949219 1833.300781 C 1698.199219 1848.484375 1696.890625 1883.335938 1700.128906 1905.28125 "/>
</svg>
