<?xml version="1.0" encoding="UTF-8"?>
<svg xmlns="http://www.w3.org/2000/svg" xmlns:xlink="http://www.w3.org/1999/xlink" width="2836" height="2835" viewBox="0 0 2836 2835">

<path fill-rule="evenodd" fill="rgb(1.997375%, 1.997375%, 1.997375%)" fill-opacity="1" d="M 1662.648438 2146.121094 C 1722.730469 2141.953125 1813.320312 2180.480469 1818.121094 2264 C 1823.730469 2361.578125 1727.980469 2372.976562 1653.609375 2365.4375 C 1590.601562 2359.050781 1487.050781 2331.035156 1497.210938 2250.082031 C 1502.199219 2210.285156 1588.371094 2250.964844 1662.648438 2146.121094 Z M 992.070312 2212.050781 C 987.207031 2171.359375 1008.160156 2134.894531 1029.78125 2116.234375 C 1052.941406 2096.246094 1090.410156 2085.113281 1132.351562 2081.847656 C 1178.429688 2078.261719 1157.359375 2089.648438 1202.289062 2142.230469 C 1221.601562 2164.828125 1245.601562 2183.4375 1280.128906 2199.46875 C 1298.441406 2207.96875 1316.019531 2209.683594 1310.628906 2235.863281 C 1306.789062 2254.519531 1291.960938 2268.050781 1279.878906 2276.183594 C 1211.550781 2322.195312 1004.648438 2317.34375 992.070312 2212.050781 Z M 1556.851562 2017.757812 C 1553.101562 2000.886719 1563.28125 1767.539062 1570.578125 1761.050781 C 1575.519531 1757.898438 1567.851562 1757.921875 1575.210938 1760.539062 C 1580.988281 1762.589844 1574.878906 1757.851562 1582.058594 1765.421875 C 1627.429688 1813.191406 1669.460938 1909.335938 1686.320312 1977.921875 C 1688.449219 1986.582031 1696.050781 2006.246094 1691.820312 2014.746094 C 1662.089844 2023.90625 1586.648438 2028.894531 1556.851562 2017.757812 Z M 1664.609375 2084.039062 C 1652.46875 2132.859375 1615.648438 2172.839844 1573.480469 2190.925781 C 1465.640625 2237.1875 1211.539062 2222.1875 1174.929688 2030.878906 C 1185.261719 2032.542969 1321.121094 2076.09375 1340.960938 2062.335938 C 1353.828125 2042.933594 1364.28125 1941.105469 1375.519531 1910.265625 C 1384.890625 1909.050781 1475.171875 1917.757812 1482.601562 1920.796875 C 1493.808594 1925.378906 1491.289062 1924.574219 1491.078125 1940.679688 L 1483.089844 2055.964844 C 1482.390625 2073.558594 1473.410156 2082.410156 1545.898438 2086.8125 C 1580.988281 2088.941406 1630.039062 2086.488281 1664.609375 2084.039062 Z M 1682.25 1880.0625 C 1703.261719 1902.425781 1733.03125 1959.320312 1753.179688 1973.332031 C 1779.050781 1991.320312 1852.941406 2002.425781 1862 2032.335938 C 1839.921875 2045.480469 1835.191406 2041.917969 1804.851562 2041.621094 C 1822.558594 2059.148438 1851.210938 2068.878906 1846.558594 2092.246094 C 1827.238281 2099.507812 1803.738281 2090.089844 1784.859375 2087.226562 C 1797.199219 2108.136719 1831.359375 2116.300781 1826.949219 2142.136719 C 1805.730469 2144.5 1782.679688 2123.96875 1764.578125 2114.902344 C 1770.910156 2128.886719 1780.53125 2139.742188 1779.210938 2156.621094 C 1745.019531 2153.613281 1724.648438 2109.921875 1705.480469 2089.753906 C 1700.71875 2113.574219 1704.480469 2124.019531 1679.921875 2121.71875 C 1684.949219 2076.300781 1693.988281 2072.875 1732.808594 2062.089844 Z M 1492.621094 1894.691406 C 1475.46875 1898.519531 1402.148438 1886.191406 1378.96875 1883.457031 L 1402.46875 1762.890625 C 1415.230469 1759.960938 1485.269531 1766.28125 1497.621094 1770.871094 C 1500.890625 1793.238281 1496.300781 1870.035156 1492.621094 1894.691406 Z M 1701.640625 2045.785156 C 1664.308594 2059.574219 1545.039062 2075.03125 1509.121094 2054.402344 C 1506.558594 2026.449219 1518.460938 1869.835938 1521.191406 1819.628906 C 1523.160156 1783.511719 1513.230469 1763.730469 1552.121094 1764.679688 C 1554.710938 1829.78125 1546.648438 1926.480469 1542.171875 1993.238281 C 1540.070312 2024.421875 1525.199219 2037.195312 1608.410156 2037.734375 C 1683.121094 2038.21875 1697.578125 2013.804688 1701.640625 2045.785156 Z M 1323.71875 2038.144531 C 1286.949219 2044.726562 1208.019531 2017.984375 1173.539062 2000.910156 C 1155.050781 1991.757812 1131.308594 1984.898438 1142.210938 1972.351562 C 1154.558594 1958.140625 1233.890625 2014.734375 1299.359375 2004.09375 L 1351.828125 1745.179688 L 1378.71875 1752.46875 Z M 1285.371094 1989.757812 C 1251.71875 1993.277344 1174.71875 1969.226562 1153.679688 1951.511719 C 1163.070312 1915.578125 1221.671875 1837.472656 1252.441406 1803.949219 C 1256.519531 1799.519531 1258.621094 1796.351562 1263.871094 1791.078125 C 1269.261719 1785.660156 1272.371094 1783.011719 1278.078125 1777.519531 L 1318.101562 1744.410156 C 1327.859375 1736.070312 1321.949219 1735.910156 1335.988281 1737.589844 C 1338.421875 1751.21875 1295.261719 1975.78125 1285.371094 1989.757812 Z M 977.621094 1570.71875 C 1013.058594 1567.960938 1044.949219 1602.28125 1062.671875 1621.898438 C 1070.628906 1630.710938 1075.078125 1639.890625 1083.039062 1649.480469 C 1082.28125 1635.320312 1077.660156 1590.601562 1081.78125 1577.339844 C 1084.878906 1567.328125 1083.011719 1572.53125 1087.359375 1567.308594 C 1099.949219 1572.128906 1091.148438 1559.160156 1105.589844 1596.511719 C 1110.179688 1608.398438 1114.21875 1617.429688 1118.238281 1629 C 1131.441406 1666.980469 1127.449219 1661.398438 1165.800781 1674.839844 C 1193.628906 1684.589844 1284.191406 1715.128906 1301.890625 1727.039062 L 1237.5 1785.511719 C 1202.199219 1820.449219 1201.878906 1832.140625 1181.160156 1854.792969 C 1174.148438 1851.640625 1180.148438 1855.222656 1174.511719 1850.644531 C 1171.011719 1847.804688 1169.960938 1846.386719 1167.460938 1843.652344 L 1132.511719 1802.121094 C 1113.929688 1780.28125 1105.441406 1767.820312 1092.488281 1739.421875 C 1055.800781 1734.910156 974.835938 1749.210938 948.617188 1725.710938 C 951.089844 1706.308594 977.816406 1702.679688 994.589844 1698.898438 C 973.730469 1682.171875 941.519531 1691.511719 937.382812 1661.160156 C 956.425781 1653.03125 966.433594 1654.53125 981.601562 1651.351562 C 995.503906 1648.441406 995.601562 1646.800781 998.648438 1644.691406 C 986.171875 1640.101562 978.445312 1635.261719 966.15625 1628.328125 C 950.34375 1619.410156 940.910156 1621.339844 938.792969 1604.390625 C 960.046875 1596.078125 984.171875 1612.308594 1007.960938 1615.851562 C 991.308594 1582.800781 973.363281 1594.578125 977.621094 1570.71875 Z M 1375.128906 1306.789062 C 1455.089844 1294.78125 1590.851562 1317.511719 1667.339844 1357.671875 C 1693.328125 1371.320312 1701.828125 1394.898438 1708.171875 1431.519531 C 1726.671875 1538.261719 1697.828125 1703.660156 1559.820312 1736.300781 C 1447.320312 1762.910156 1289.238281 1727.761719 1243.449219 1604.160156 C 1220.789062 1543.011719 1222.429688 1466.210938 1238.308594 1400.871094 C 1256.96875 1324.128906 1293.75 1319.019531 1375.128906 1306.789062 Z M 1033.078125 879.96875 C 1075.128906 881.261719 1143.730469 921.511719 1165.71875 942.140625 C 1196.929688 971.410156 1225.679688 1015.441406 1239.921875 1065.871094 C 1276.410156 1195.011719 1205.109375 1328.371094 1074.410156 1375.398438 C 1036.769531 1388.941406 1031.640625 1393.480469 1013.871094 1358.109375 C 988.828125 1308.261719 976.867188 1270.941406 968.304688 1205.519531 C 955.199219 1105.460938 979.140625 952.101562 1033.078125 879.96875 Z M 1967.890625 968.5 C 2014.140625 961.089844 2012.640625 963.390625 2022.699219 1005.800781 C 2028.808594 1031.550781 2033.941406 1059.910156 2035.839844 1089.941406 C 2042.960938 1202.058594 2021.308594 1318.03125 1970.640625 1414.019531 C 1951.441406 1450.410156 1946.410156 1470.070312 1922.488281 1464.429688 C 1907.769531 1460.949219 1869.609375 1440.398438 1857.289062 1431.820312 C 1675.988281 1305.449219 1720.140625 1008.171875 1967.890625 968.5 Z M 1044.230469 866.320312 C 1069.628906 809.050781 1180.078125 723.699219 1266.039062 706.300781 C 1262.570312 803.078125 1284.449219 855.800781 1330.75 912.699219 C 1472.769531 1087.210938 1783.578125 1005.53125 1805.269531 761.519531 C 1869.390625 770.941406 1970.511719 875.488281 1999.699219 944.078125 C 1997.039062 946.019531 1909.78125 966.371094 1892.039062 974.019531 C 1794.738281 1015.980469 1732.539062 1106.820312 1732.539062 1221.988281 C 1732.539062 1423.050781 1911.578125 1471.199219 1923.890625 1482.53125 C 1871.839844 1538.371094 1806.460938 1582.941406 1722.851562 1597.601562 C 1734.820312 1511.960938 1748.109375 1472.378906 1723.628906 1385.800781 C 1739.429688 1395.699219 1749.578125 1412.640625 1764.808594 1420.769531 C 1746.519531 1373.570312 1706.800781 1340.179688 1655.109375 1321.21875 C 1558.078125 1285.609375 1388.011719 1264.050781 1291.71875 1290.660156 C 1238.160156 1305.449219 1189.789062 1336.160156 1170.328125 1374.558594 C 1192.261719 1364.460938 1214.609375 1345 1237.128906 1336.050781 C 1233.128906 1350.800781 1224.558594 1362.738281 1219.199219 1378.21875 C 1202.570312 1426.230469 1202.800781 1486.230469 1202.140625 1536.089844 C 1154.691406 1523.128906 1058.359375 1435.5 1043.929688 1402.628906 C 1075.398438 1380.480469 1263.390625 1348.300781 1261.351562 1135.140625 C 1260.660156 1063.128906 1237.75 992.691406 1198.558594 954.421875 C 1154.421875 911.328125 1111.359375 880.289062 1044.230469 866.320312 Z M 1417.441406 682.460938 C 1499.921875 672.640625 1687.550781 708.371094 1767.019531 740.488281 C 1781.648438 746.398438 1791.71875 749.058594 1790.539062 765.03125 C 1787.691406 803.78125 1770.558594 846.980469 1749.730469 877.148438 C 1606.460938 1084.691406 1294.300781 993.550781 1279.761719 748.988281 C 1275.898438 684.078125 1276.660156 699.199219 1417.441406 682.460938 Z M 1453.648438 655.738281 L 1419.328125 655.738281 C 1388.699219 666.75 1285.550781 648.429688 1149.671875 728.351562 C 1133.78125 737.691406 1097.210938 763.261719 1085.019531 775.039062 C 1046.628906 812.160156 1010.480469 858.03125 988.722656 908.011719 C 911.675781 1084.960938 923.28125 1310.078125 1040.269531 1442.738281 C 1082.308594 1490.410156 1054.511719 1461.128906 1097.808594 1500.039062 C 1181.230469 1575.011719 1192.101562 1534.929688 1219.671875 1607.289062 C 1242.140625 1666.261719 1244.078125 1652.570312 1258.140625 1681.480469 C 1234.21875 1673.769531 1212.078125 1665 1188.300781 1656.019531 C 1149.761719 1641.460938 1152.640625 1650.601562 1139.78125 1610.890625 C 1108.171875 1513.328125 1063.460938 1530.871094 1057.328125 1577.710938 C 1026 1569.289062 954.515625 1515.640625 950.921875 1582.261719 C 915.714844 1588.320312 904.078125 1611.148438 927.46875 1635.378906 L 915.769531 1648.320312 C 911.46875 1656.199219 911.488281 1657.351562 912.429688 1666.429688 C 913.925781 1680.839844 922.417969 1685.988281 926.964844 1695.121094 C 936.1875 1713.660156 906.625 1737.039062 941.101562 1753.789062 C 988.804688 1776.960938 1058.238281 1745.058594 1087.101562 1781.601562 C 1100.230469 1798.230469 1111.25 1812.410156 1125.238281 1830.191406 C 1131.988281 1838.765625 1161.558594 1871.1875 1162.121094 1878.988281 C 1163.261719 1894.835938 1108.421875 1966.867188 1106.96875 1994.195312 C 1113.871094 1997.246094 1138.269531 2009.296875 1142.839844 2014.222656 C 1150.390625 2022.355469 1150.339844 2042.152344 1152.300781 2054.8125 C 1112.648438 2062.507812 1093.089844 2057.402344 1053.410156 2073.824219 C 961.929688 2111.6875 932.789062 2232.460938 1012.980469 2289.941406 C 1088.53125 2344.085938 1321.140625 2359.691406 1337.320312 2224.304688 C 1390.21875 2232.917969 1416.078125 2237.542969 1473.640625 2236.582031 C 1473.421875 2277.675781 1467.078125 2284.917969 1489.78125 2316.863281 C 1564.429688 2421.925781 1893 2436.847656 1837.851562 2232.652344 C 1826.101562 2189.144531 1807.808594 2192.605469 1807.238281 2167.03125 C 1839.890625 2162.988281 1864.039062 2165.164062 1848.660156 2121.730469 C 1859.320312 2112.496094 1869.828125 2114.027344 1873.128906 2097.109375 C 1876.429688 2080.164062 1868.191406 2068.8125 1864.851562 2055.183594 C 1914.609375 2026.472656 1857.679688 1988.339844 1828.089844 1975.164062 C 1810.320312 1967.246094 1787.238281 1962.542969 1771.660156 1955.09375 C 1755.300781 1947.265625 1704.378906 1859.785156 1674.328125 1826.390625 C 1658.191406 1808.460938 1609.328125 1765.921875 1601.269531 1748.828125 C 1637.390625 1735.898438 1660.089844 1714.761719 1678.058594 1690.988281 C 1726.671875 1626.671875 1692.148438 1631.601562 1741.921875 1619.460938 C 1812.5 1602.230469 1879.601562 1564.410156 1920 1526.578125 C 2003.828125 1448.058594 2063.960938 1293.191406 2061.941406 1128.191406 C 2058.128906 816.390625 1831.789062 700.960938 1573.269531 666.890625 C 1551.710938 664.050781 1463.878906 659.261719 1453.648438 655.738281 "/>
<path fill-rule="evenodd" fill="rgb(100%, 100%, 100%)" fill-opacity="1" d="M 1044.230469 866.320312 C 1111.359375 880.289062 1154.421875 911.328125 1198.558594 954.421875 C 1237.75 992.691406 1260.660156 1063.128906 1261.351562 1135.140625 C 1263.390625 1348.300781 1075.398438 1380.480469 1043.929688 1402.628906 C 1058.359375 1435.5 1154.691406 1523.128906 1202.140625 1536.089844 C 1202.800781 1486.230469 1202.570312 1426.230469 1219.199219 1378.21875 C 1224.558594 1362.738281 1233.128906 1350.800781 1237.128906 1336.050781 C 1214.609375 1345 1192.261719 1364.460938 1170.328125 1374.558594 C 1189.789062 1336.160156 1238.160156 1305.449219 1291.71875 1290.660156 C 1388.011719 1264.050781 1558.078125 1285.609375 1655.109375 1321.21875 C 1706.800781 1340.179688 1746.519531 1373.570312 1764.808594 1420.769531 C 1749.578125 1412.640625 1739.429688 1395.699219 1723.628906 1385.800781 C 1748.109375 1472.378906 1734.820312 1511.960938 1722.851562 1597.601562 C 1806.460938 1582.941406 1871.839844 1538.371094 1923.890625 1482.53125 C 1911.578125 1471.199219 1732.539062 1423.050781 1732.539062 1221.988281 C 1732.539062 1106.820312 1794.738281 1015.980469 1892.039062 974.019531 C 1909.78125 966.371094 1997.039062 946.019531 1999.699219 944.078125 C 1970.511719 875.488281 1869.390625 770.941406 1805.269531 761.519531 C 1783.578125 1005.53125 1472.769531 1087.210938 1330.75 912.699219 C 1284.449219 855.800781 1262.570312 803.078125 1266.039062 706.300781 C 1180.078125 723.699219 1069.628906 809.050781 1044.230469 866.320312 "/>
<path fill-rule="evenodd" fill="rgb(91.992188%, 86.914062%, 69.921875%)" fill-opacity="1" d="M 1387.738281 1552.648438 C 1416.351562 1555.789062 1442.640625 1562.789062 1473.480469 1564.960938 C 1522.289062 1568.390625 1535.539062 1571.019531 1553.410156 1549.980469 L 1566.210938 1583.28125 L 1562.050781 1586.191406 C 1549 1597.039062 1555.929688 1595.71875 1547.71875 1616.441406 C 1517.449219 1692.839844 1378.5 1710.921875 1369.398438 1567.78125 L 1356.359375 1564.011719 C 1363.199219 1555.578125 1374.589844 1538.308594 1382.71875 1531.691406 Z M 1554.78125 1393.121094 C 1595.191406 1362.269531 1594.171875 1486.308594 1561.050781 1511.871094 C 1532.351562 1534.019531 1507.238281 1429.421875 1554.78125 1393.121094 Z M 1383.398438 1501.511719 C 1342.328125 1473.601562 1365.328125 1366.679688 1398.269531 1373.628906 C 1423.101562 1378.871094 1422.910156 1422.160156 1418.699219 1446.019531 C 1414.308594 1470.808594 1407.140625 1496.738281 1383.398438 1501.511719 Z M 1375.128906 1306.789062 C 1293.75 1319.019531 1256.96875 1324.128906 1238.308594 1400.871094 C 1222.429688 1466.210938 1220.789062 1543.011719 1243.449219 1604.160156 C 1289.238281 1727.761719 1447.320312 1762.910156 1559.820312 1736.300781 C 1697.828125 1703.660156 1726.671875 1538.261719 1708.171875 1431.519531 C 1701.828125 1394.898438 1693.328125 1371.320312 1667.339844 1357.671875 C 1590.851562 1317.511719 1455.089844 1294.78125 1375.128906 1306.789062 "/>
<path fill-rule="evenodd" fill="rgb(78.90625%, 11.009216%, 15.989685%)" fill-opacity="1" d="M 1417.441406 682.460938 C 1276.660156 699.199219 1275.898438 684.078125 1279.761719 748.988281 C 1294.300781 993.550781 1606.460938 1084.691406 1749.730469 877.148438 C 1770.558594 846.980469 1787.691406 803.78125 1790.539062 765.03125 C 1791.71875 749.058594 1781.648438 746.398438 1767.019531 740.488281 C 1687.550781 708.371094 1499.921875 672.640625 1417.441406 682.460938 "/>
<path fill-rule="evenodd" fill="rgb(78.90625%, 11.009216%, 15.989685%)" fill-opacity="1" d="M 1967.890625 968.5 C 1720.140625 1008.171875 1675.988281 1305.449219 1857.289062 1431.820312 C 1869.609375 1440.398438 1907.769531 1460.949219 1922.488281 1464.429688 C 1946.410156 1470.070312 1951.441406 1450.410156 1970.640625 1414.019531 C 2021.308594 1318.03125 2042.960938 1202.058594 2035.839844 1089.941406 C 2033.941406 1059.910156 2028.808594 1031.550781 2022.699219 1005.800781 C 2012.640625 963.390625 2014.140625 961.089844 1967.890625 968.5 "/>
<path fill-rule="evenodd" fill="rgb(78.90625%, 11.009216%, 15.989685%)" fill-opacity="1" d="M 1033.078125 879.96875 C 979.140625 952.101562 955.199219 1105.460938 968.304688 1205.519531 C 976.867188 1270.941406 988.828125 1308.261719 1013.871094 1358.109375 C 1031.640625 1393.480469 1036.769531 1388.941406 1074.410156 1375.398438 C 1205.109375 1328.371094 1276.410156 1195.011719 1239.921875 1065.871094 C 1225.679688 1015.441406 1196.929688 971.410156 1165.71875 942.140625 C 1143.730469 921.511719 1075.128906 881.261719 1033.078125 879.96875 "/>
<path fill-rule="evenodd" fill="rgb(100%, 100%, 100%)" fill-opacity="1" d="M 1664.609375 2084.039062 C 1630.039062 2086.488281 1580.988281 2088.941406 1545.898438 2086.8125 C 1473.410156 2082.410156 1482.390625 2073.558594 1483.089844 2055.964844 L 1491.078125 1940.679688 C 1491.289062 1924.574219 1493.808594 1925.378906 1482.601562 1920.796875 C 1475.171875 1917.757812 1384.890625 1909.050781 1375.519531 1910.265625 C 1364.28125 1941.105469 1353.828125 2042.933594 1340.960938 2062.335938 C 1321.121094 2076.09375 1185.261719 2032.542969 1174.929688 2030.878906 C 1211.539062 2222.1875 1465.640625 2237.1875 1573.480469 2190.925781 C 1615.648438 2172.839844 1652.46875 2132.859375 1664.609375 2084.039062 "/>
<path fill-rule="evenodd" fill="rgb(41.992188%, 30.004883%, 17.993164%)" fill-opacity="1" d="M 1662.648438 2146.121094 C 1588.371094 2250.964844 1502.199219 2210.285156 1497.210938 2250.082031 C 1487.050781 2331.035156 1590.601562 2359.050781 1653.609375 2365.4375 C 1727.980469 2372.976562 1823.730469 2361.578125 1818.121094 2264 C 1813.320312 2180.480469 1722.730469 2141.953125 1662.648438 2146.121094 "/>
<path fill-rule="evenodd" fill="rgb(41.992188%, 30.004883%, 17.993164%)" fill-opacity="1" d="M 992.070312 2212.050781 C 1004.648438 2317.34375 1211.550781 2322.195312 1279.878906 2276.183594 C 1291.960938 2268.050781 1306.789062 2254.519531 1310.628906 2235.863281 C 1316.019531 2209.683594 1298.441406 2207.96875 1280.128906 2199.46875 C 1245.601562 2183.4375 1221.601562 2164.828125 1202.289062 2142.230469 C 1157.359375 2089.648438 1178.429688 2078.261719 1132.351562 2081.847656 C 1090.410156 2085.113281 1052.941406 2096.246094 1029.78125 2116.234375 C 1008.160156 2134.894531 987.207031 2171.359375 992.070312 2212.050781 "/>
<path fill-rule="evenodd" fill="rgb(91.014099%, 86.914062%, 71.09375%)" fill-opacity="1" d="M 1062.671875 1621.898438 C 1044.949219 1602.28125 1013.058594 1567.960938 977.621094 1570.71875 C 973.363281 1594.578125 991.308594 1582.800781 1007.960938 1615.851562 C 984.171875 1612.308594 960.046875 1596.078125 938.792969 1604.390625 C 940.910156 1621.339844 950.34375 1619.410156 966.15625 1628.328125 C 978.445312 1635.261719 986.171875 1640.101562 998.648438 1644.691406 C 995.601562 1646.800781 995.503906 1648.441406 981.601562 1651.351562 C 966.433594 1654.53125 956.425781 1653.03125 937.382812 1661.160156 C 941.519531 1691.511719 973.730469 1682.171875 994.589844 1698.898438 C 977.816406 1702.679688 951.089844 1706.308594 948.617188 1725.710938 C 974.835938 1749.210938 1055.800781 1734.910156 1092.488281 1739.421875 C 1105.441406 1767.820312 1113.929688 1780.28125 1132.511719 1802.121094 L 1167.460938 1843.652344 C 1169.960938 1846.386719 1171.011719 1847.804688 1174.511719 1850.644531 C 1180.148438 1855.222656 1174.148438 1851.640625 1181.160156 1854.792969 C 1201.878906 1832.140625 1202.199219 1820.449219 1237.5 1785.511719 L 1301.890625 1727.039062 C 1284.191406 1715.128906 1193.628906 1684.589844 1165.800781 1674.839844 C 1127.449219 1661.398438 1131.441406 1666.980469 1118.238281 1629 C 1114.21875 1617.429688 1110.179688 1608.398438 1105.589844 1596.511719 C 1091.148438 1559.160156 1099.949219 1572.128906 1087.359375 1567.308594 C 1083.011719 1572.53125 1084.878906 1567.328125 1081.78125 1577.339844 C 1077.660156 1590.601562 1082.28125 1635.320312 1083.039062 1649.480469 C 1075.078125 1639.890625 1070.628906 1630.710938 1062.671875 1621.898438 "/>
<path fill-rule="evenodd" fill="rgb(20.996094%, 23.997498%, 57.03125%)" fill-opacity="1" d="M 1556.851562 2017.757812 C 1586.648438 2028.894531 1662.089844 2023.90625 1691.820312 2014.746094 C 1696.050781 2006.246094 1688.449219 1986.582031 1686.320312 1977.921875 C 1669.460938 1909.335938 1627.429688 1813.191406 1582.058594 1765.421875 C 1574.878906 1757.851562 1580.988281 1762.589844 1575.210938 1760.539062 C 1567.851562 1757.921875 1575.519531 1757.898438 1570.578125 1761.050781 C 1563.28125 1767.539062 1553.101562 2000.886719 1556.851562 2017.757812 "/>
<path fill-rule="evenodd" fill="rgb(20.996094%, 23.997498%, 57.03125%)" fill-opacity="1" d="M 1285.371094 1989.757812 C 1295.261719 1975.78125 1338.421875 1751.21875 1335.988281 1737.589844 C 1321.949219 1735.910156 1327.859375 1736.070312 1318.101562 1744.410156 L 1278.078125 1777.519531 C 1272.371094 1783.011719 1269.261719 1785.660156 1263.871094 1791.078125 C 1258.621094 1796.351562 1256.519531 1799.519531 1252.441406 1803.949219 C 1221.671875 1837.472656 1163.070312 1915.578125 1153.679688 1951.511719 C 1174.71875 1969.226562 1251.71875 1993.277344 1285.371094 1989.757812 "/>
<path fill-rule="evenodd" fill="rgb(91.014099%, 86.914062%, 71.09375%)" fill-opacity="1" d="M 1682.25 1880.0625 L 1732.808594 2062.089844 C 1693.988281 2072.875 1684.949219 2076.300781 1679.921875 2121.71875 C 1704.480469 2124.019531 1700.71875 2113.574219 1705.480469 2089.753906 C 1724.648438 2109.921875 1745.019531 2153.613281 1779.210938 2156.621094 C 1780.53125 2139.742188 1770.910156 2128.886719 1764.578125 2114.902344 C 1782.679688 2123.96875 1805.730469 2144.5 1826.949219 2142.136719 C 1831.359375 2116.300781 1797.199219 2108.136719 1784.859375 2087.226562 C 1803.738281 2090.089844 1827.238281 2099.507812 1846.558594 2092.246094 C 1851.210938 2068.878906 1822.558594 2059.148438 1804.851562 2041.621094 C 1835.191406 2041.917969 1839.921875 2045.480469 1862 2032.335938 C 1852.941406 2002.425781 1779.050781 1991.320312 1753.179688 1973.332031 C 1733.03125 1959.320312 1703.261719 1902.425781 1682.25 1880.0625 "/>
<path fill-rule="evenodd" fill="rgb(1.000977%, 1.000977%, 1.997375%)" fill-opacity="1" d="M 1404.671875 1628.441406 C 1432.660156 1598.730469 1501.171875 1609.300781 1513.46875 1638.859375 C 1490.441406 1670.558594 1428.828125 1659.789062 1411.101562 1641.691406 C 1402.148438 1632.550781 1405.441406 1629.789062 1404.671875 1628.441406 Z M 1356.359375 1564.011719 L 1369.398438 1567.78125 C 1378.5 1710.921875 1517.449219 1692.839844 1547.71875 1616.441406 C 1555.929688 1595.71875 1549 1597.039062 1562.050781 1586.191406 L 1566.210938 1583.28125 L 1553.410156 1549.980469 C 1535.539062 1571.019531 1522.289062 1568.390625 1473.480469 1564.960938 C 1442.640625 1562.789062 1416.351562 1555.789062 1387.738281 1552.648438 L 1382.71875 1531.691406 C 1374.589844 1538.308594 1363.199219 1555.578125 1356.359375 1564.011719 "/>
<path fill-rule="evenodd" fill="rgb(91.992188%, 86.914062%, 69.921875%)" fill-opacity="1" d="M 1492.621094 1894.691406 C 1496.300781 1870.035156 1500.890625 1793.238281 1497.621094 1770.871094 C 1485.269531 1766.28125 1415.230469 1759.960938 1402.46875 1762.890625 L 1378.96875 1883.457031 C 1402.148438 1886.191406 1475.46875 1898.519531 1492.621094 1894.691406 "/>
<path fill-rule="evenodd" fill="rgb(91.992188%, 77.929688%, 25%)" fill-opacity="1" d="M 1701.640625 2045.785156 C 1697.578125 2013.804688 1683.121094 2038.21875 1608.410156 2037.734375 C 1525.199219 2037.195312 1540.070312 2024.421875 1542.171875 1993.238281 C 1546.648438 1926.480469 1554.710938 1829.78125 1552.121094 1764.679688 C 1513.230469 1763.730469 1523.160156 1783.511719 1521.191406 1819.628906 C 1518.460938 1869.835938 1506.558594 2026.449219 1509.121094 2054.402344 C 1545.039062 2075.03125 1664.308594 2059.574219 1701.640625 2045.785156 "/>
<path fill-rule="evenodd" fill="rgb(91.992188%, 77.929688%, 25%)" fill-opacity="1" d="M 1378.71875 1752.46875 L 1351.828125 1745.179688 L 1299.359375 2004.09375 C 1233.890625 2014.734375 1154.558594 1958.140625 1142.210938 1972.351562 C 1131.308594 1984.898438 1155.050781 1991.757812 1173.539062 2000.910156 C 1208.019531 2017.984375 1286.949219 2044.726562 1323.71875 2038.144531 L 1378.71875 1752.46875 "/>
<path fill-rule="evenodd" fill="rgb(1.997375%, 1.997375%, 1.997375%)" fill-opacity="1" d="M 1384.351562 1428.039062 C 1380.988281 1412 1376.898438 1392.671875 1396.851562 1388.929688 C 1402.878906 1407.160156 1407.898438 1423.839844 1384.351562 1428.039062 Z M 1383.398438 1501.511719 C 1407.140625 1496.738281 1414.308594 1470.808594 1418.699219 1446.019531 C 1422.910156 1422.160156 1423.101562 1378.871094 1398.269531 1373.628906 C 1365.328125 1366.679688 1342.328125 1473.601562 1383.398438 1501.511719 "/>
<path fill-rule="evenodd" fill="rgb(1.997375%, 1.997375%, 1.997375%)" fill-opacity="1" d="M 1553.769531 1443.421875 C 1549.199219 1434.179688 1548.410156 1431.800781 1549.230469 1419.960938 C 1550.621094 1399.699219 1556.960938 1403.558594 1559.808594 1402.160156 C 1570.941406 1414.980469 1571.671875 1438.230469 1553.769531 1443.421875 Z M 1554.78125 1393.121094 C 1507.238281 1429.421875 1532.351562 1534.019531 1561.050781 1511.871094 C 1594.171875 1486.308594 1595.191406 1362.269531 1554.78125 1393.121094 "/>
<path fill-rule="evenodd" fill="rgb(77.929688%, 11.009216%, 15.989685%)" fill-opacity="1" d="M 1404.671875 1628.441406 C 1405.441406 1629.789062 1402.148438 1632.550781 1411.101562 1641.691406 C 1428.828125 1659.789062 1490.441406 1670.558594 1513.46875 1638.859375 C 1501.171875 1609.300781 1432.660156 1598.730469 1404.671875 1628.441406 "/>
<path fill-rule="evenodd" fill="rgb(98.046875%, 98.046875%, 98.046875%)" fill-opacity="1" d="M 1384.351562 1428.039062 C 1407.898438 1423.839844 1402.878906 1407.160156 1396.851562 1388.929688 C 1376.898438 1392.671875 1380.988281 1412 1384.351562 1428.039062 "/>
<path fill-rule="evenodd" fill="rgb(98.046875%, 98.046875%, 98.046875%)" fill-opacity="1" d="M 1553.769531 1443.421875 C 1571.671875 1438.230469 1570.941406 1414.980469 1559.808594 1402.160156 C 1556.960938 1403.558594 1550.621094 1399.699219 1549.230469 1419.960938 C 1548.410156 1431.800781 1549.199219 1434.179688 1553.769531 1443.421875 "/>
</svg>
