<?xml version="1.0" encoding="UTF-8"?>
<svg xmlns="http://www.w3.org/2000/svg" xmlns:xlink="http://www.w3.org/1999/xlink" width="2836" height="2835" viewBox="0 0 2836 2835">

<path fill-rule="evenodd" fill="rgb(1.000977%, 1.000977%, 1.000977%)" fill-opacity="1" d="M 957.023438 2258.976562 C 939.722656 2261.78125 928.894531 2277.960938 917.824219 2288.230469 C 832.832031 2367.109375 724.859375 2304.261719 738.410156 2204.523438 C 744.714844 2158.109375 772.914062 2135.769531 777.640625 2107.886719 C 729.84375 2106.777344 639.855469 2135.125 573.449219 2085.398438 C 554.808594 2071.4375 531.019531 2039.269531 530.046875 2006.390625 C 528.851562 1965.914062 553.027344 1943.007812 572.011719 1925.945312 C 632.289062 1871.773438 731.414062 1868.289062 817.023438 1888.214844 C 839.859375 1893.53125 837.050781 1899.460938 848.429688 1919.226562 C 864.441406 1947.054688 879.863281 1967.527344 897.867188 1991.769531 C 951.398438 2063.839844 1017.339844 2116.148438 1098.179688 2154.242188 C 1117.328125 2163.261719 1114.910156 2168.160156 1121.238281 2190.636719 C 1125.800781 2206.8125 1129.609375 2224.683594 1132.351562 2241.660156 C 1164.359375 2440.496094 1029.910156 2429.421875 984.59375 2353.449219 C 966.570312 2323.234375 965.914062 2292.878906 957.023438 2258.976562 Z M 2003.011719 1123.730469 C 2099.828125 1110.160156 2178.550781 1145.078125 2207.050781 1213.46875 C 2223.078125 1251.949219 2219.898438 1298.960938 2207.308594 1338.738281 C 2201.539062 1356.949219 2193.339844 1374.429688 2185.101562 1389.140625 C 2149.660156 1452.460938 2153.730469 1423.261719 2192.191406 1478.960938 C 2225.25 1526.828125 2236.898438 1600.339844 2211.78125 1653.179688 C 2179.351562 1721.410156 2094.828125 1742.398438 1999.320312 1724.390625 C 1860.210938 1698.171875 1704.53125 1579.898438 1711.679688 1422.691406 C 1713.511719 1382.25 1727.511719 1338.308594 1742.199219 1305.671875 C 1761.828125 1262.039062 1778.710938 1247.410156 1805.179688 1220.25 C 1829.921875 1194.859375 1859.441406 1174.230469 1891.851562 1158.511719 C 1924.109375 1142.859375 1963.039062 1129.328125 2003.011719 1123.730469 Z M 816.695312 1399.679688 C 797.007812 1389.949219 732.277344 1385.828125 702.1875 1379.820312 C 666.777344 1372.75 627.835938 1361.980469 600.359375 1346.238281 C 534.015625 1308.238281 561.230469 1233.621094 646.144531 1198.851562 C 782.195312 1143.128906 970.417969 1173.410156 1096.941406 1225.578125 C 1214.320312 1273.980469 1344.851562 1345.921875 1385 1475.171875 C 1458.929688 1713.160156 1188.351562 1801.871094 1190.988281 1674.410156 C 1204.230469 1667.269531 1212.238281 1666.289062 1216.269531 1653.578125 C 1207.46875 1649.808594 1095.429688 1663.210938 1067.859375 1661.890625 C 1023.628906 1659.78125 964.753906 1643.960938 977.394531 1596.839844 C 986.378906 1581.25 990.648438 1594.828125 998.917969 1577.75 C 992.574219 1570.371094 994.617188 1571.910156 980.628906 1569.839844 C 929.742188 1562.328125 892.203125 1561.550781 839.953125 1538.519531 C 741.105469 1494.949219 779.164062 1422.011719 783.425781 1418.460938 C 797.453125 1411.640625 811.496094 1415.578125 816.695312 1399.679688 Z M 1719.921875 1604.539062 C 1744.46875 1626.078125 1763.371094 1672.339844 1854.390625 1721.160156 C 1918.679688 1755.640625 1963.210938 1769.53125 2045.929688 1780.25 C 2041.121094 1858.570312 1965.738281 1944.929688 1910.738281 1991.984375 C 1852.960938 2041.421875 1768.71875 2085.21875 1681.171875 2115.136719 C 1497.25 2177.988281 1258.890625 2188.390625 1091.480469 2097.695312 C 1042.140625 2065.65625 1030.640625 2067.445312 977.429688 2011.128906 C 945.171875 1976.988281 916.332031 1941.296875 888.925781 1895.253906 C 845.914062 1822.988281 793.007812 1680.410156 805.398438 1571.640625 C 861.421875 1580.980469 862.261719 1589.320312 942.34375 1594.640625 C 943.320312 1635.210938 932.214844 1671.511719 1010.628906 1690.96875 C 1069.339844 1705.539062 1111.050781 1694.261719 1164.558594 1685.640625 C 1168.589844 1742.730469 1197.300781 1776.238281 1259.210938 1774.519531 C 1393.578125 1770.789062 1489.78125 1590.320312 1409.480469 1424.238281 C 1348.78125 1298.710938 1163.960938 1199.011719 1030.261719 1159.960938 C 1009.609375 1153.929688 974.734375 1149.679688 959.347656 1139.210938 C 982.757812 1096.171875 1090.960938 1015.359375 1141.578125 985.359375 C 1187.808594 957.960938 1323.128906 893.230469 1391.039062 899.371094 C 1403.101562 931.398438 1401.550781 959.878906 1432.449219 1035.359375 C 1472.820312 1133.921875 1549.949219 1264.570312 1655.441406 1300.289062 C 1664.46875 1303.339844 1683.828125 1306.871094 1690.171875 1310.671875 C 1678.660156 1366.410156 1661.601562 1401.949219 1669.621094 1471.578125 C 1677.691406 1541.789062 1703.648438 1566.691406 1719.921875 1604.539062 Z M 1708.628906 1272.28125 C 1516.199219 1243.089844 1375.390625 871.648438 1446.339844 736.179688 C 1464.738281 701.039062 1503.179688 674.660156 1558.558594 691.449219 C 1645.351562 717.769531 1707.46875 832.359375 1724.621094 848.558594 C 1730.628906 854.25 1721.980469 849.019531 1730.660156 852.601562 C 1740.320312 828.410156 1717.398438 801.5 1720.820312 770.070312 C 1724.03125 740.601562 1736.398438 719.058594 1756.519531 706.851562 C 1833.539062 660.121094 1930.488281 828.800781 1951.378906 895.328125 C 1964.5 937.101562 1979.679688 1023.28125 1971.671875 1069.960938 C 1950.921875 1078.660156 1929.601562 1077.800781 1881.949219 1099.199219 C 1818.609375 1127.660156 1729.039062 1208.910156 1708.628906 1272.28125 Z M 1278.320312 530.03125 C 1289.109375 523.148438 1299.480469 524.511719 1314.808594 524.679688 L 1317.679688 565.398438 C 1353.058594 778.441406 1399.378906 723.230469 1384.078125 849.378906 L 1313.949219 862.578125 C 1296.378906 826.339844 1273.828125 796.621094 1257.96875 751.148438 C 1234.769531 684.589844 1238.230469 639.980469 1230.011719 615.488281 C 1214.871094 626.910156 1219.789062 671.230469 1221.511719 689.710938 C 1223.71875 713.320312 1228.941406 739.039062 1235.488281 760.320312 C 1258.75 835.859375 1288.058594 846.171875 1301.25 865.53125 C 1300.03125 866.210938 1217.199219 895.671875 1183.410156 911.890625 C 1111.199219 946.550781 993.96875 1028.058594 946.492188 1087.039062 L 909.625 1131.851562 L 832.261719 1127.261719 C 816.355469 1093.199219 823.132812 990.960938 840.386719 961.011719 C 876.417969 968.019531 886.332031 980.449219 925.945312 964.46875 C 925.8125 939.160156 894.277344 913.460938 884.285156 894.058594 C 874.425781 874.921875 895.308594 829.671875 902.578125 812.550781 C 918.199219 775.761719 961.578125 691.929688 992.515625 684.570312 C 1009.738281 699.269531 1050.621094 766.320312 1101.640625 767.53125 C 1104.921875 717.230469 1073.101562 647.46875 1078.011719 605.039062 C 1101.570312 583.808594 1134.539062 570.308594 1169.210938 557.769531 C 1191.859375 549.570312 1254 526.378906 1278.320312 530.03125 Z M 880.730469 942.339844 C 850.726562 938.628906 842.933594 920.660156 820.605469 918.648438 C 803.4375 939.160156 793.203125 981.949219 789.378906 1012.421875 C 779.949219 1087.550781 795.226562 1101.941406 793.371094 1127.96875 C 738.402344 1130.921875 670.605469 1140.640625 625.09375 1161.230469 C 571.929688 1185.28125 541.257812 1199.820312 526.128906 1260.351562 C 517.214844 1296.011719 514.769531 1312.101562 533.808594 1340.28125 C 576.351562 1403.261719 678.242188 1414.070312 751.230469 1418.878906 C 738.128906 1453.851562 729.09375 1486.761719 749.40625 1523.648438 C 764.164062 1550.449219 766.671875 1531.480469 764.589844 1574.421875 C 759.421875 1681.019531 784.585938 1753.390625 811.402344 1846.3125 C 735.667969 1834.191406 688.34375 1824.46875 613.453125 1851.910156 C 560.535156 1871.300781 510.292969 1908.476562 489.671875 1952.515625 C 458.390625 2019.316406 493.980469 2083.074219 531.34375 2110.992188 C 578.71875 2146.390625 636.527344 2158.359375 708.433594 2157.257812 C 696.640625 2195.148438 685.457031 2223.109375 696.941406 2268.644531 C 714.074219 2336.542969 776.859375 2377.851562 849.398438 2364.777344 C 897.4375 2356.117188 907.019531 2340.128906 937.054688 2320.847656 C 939.089844 2369.269531 970.949219 2407.53125 997.828125 2425.996094 C 1031.378906 2449.042969 1082.871094 2462.226562 1122.710938 2437.105469 C 1208.371094 2383.101562 1169.609375 2246.058594 1157.628906 2180.425781 C 1175.941406 2181.695312 1209.199219 2193.191406 1229.949219 2197.355469 C 1545.988281 2260.785156 2032 2118.308594 2095.550781 1781.03125 C 2122.871094 1769.960938 2156.96875 1774.070312 2202.570312 1739.730469 C 2225.988281 1722.101562 2250.878906 1693.878906 2262.03125 1654.011719 C 2277.578125 1598.398438 2263.371094 1524.390625 2234.558594 1472.738281 C 2224.308594 1454.351562 2211.820312 1445.191406 2205.328125 1428.121094 C 2225.511719 1408.941406 2252.109375 1347.511719 2260.21875 1312.550781 C 2271.828125 1262.488281 2265.941406 1209.019531 2244.039062 1169.828125 C 2202.050781 1094.71875 2124.46875 1067.230469 2011.589844 1066 C 2007.230469 931.179688 1984.601562 840.859375 1919.328125 749.429688 C 1896.179688 717.011719 1854.929688 671.550781 1806.609375 657.789062 C 1743.980469 639.949219 1693.710938 679.988281 1688.351562 735.089844 C 1674.441406 726.378906 1667.320312 717.460938 1657.820312 707.519531 C 1612.53125 660.140625 1518.511719 621.039062 1454.648438 658.691406 C 1426.96875 675.011719 1422 692.671875 1410.300781 710.011719 C 1405.46875 717.171875 1407.539062 714.171875 1404.230469 716.960938 C 1356.621094 650.988281 1365.328125 534.890625 1355.339844 478.878906 C 1281.691406 474.929688 1177.71875 500.628906 1120.199219 528.699219 C 1099.171875 538.960938 1042.980469 566.019531 1041.890625 591.660156 C 1040.449219 625.519531 1061.480469 675.960938 1061.269531 709.449219 C 1037.5 693.960938 1012.828125 657.191406 996.605469 630.789062 C 971.160156 634.300781 940.859375 672.648438 927.023438 691.671875 C 880.453125 755.691406 866.054688 781.550781 844.023438 859.140625 C 828.734375 912.980469 858.773438 904.648438 880.730469 942.339844 "/>
<path fill-rule="evenodd" fill="rgb(77.929688%, 11.009216%, 14.988708%)" fill-opacity="1" d="M 1091.480469 2097.695312 C 1099.300781 2070.035156 1191.039062 1965.21875 1213.328125 1940.785156 C 1322.878906 1820.679688 1471.269531 1719.171875 1621.238281 1646.5 C 1643.078125 1635.921875 1700.308594 1608.058594 1719.921875 1604.539062 C 1703.648438 1566.691406 1677.691406 1541.789062 1669.621094 1471.578125 C 1661.601562 1401.949219 1678.660156 1366.410156 1690.171875 1310.671875 C 1683.828125 1306.871094 1664.46875 1303.339844 1655.441406 1300.289062 C 1549.949219 1264.570312 1472.820312 1133.921875 1432.449219 1035.359375 C 1401.550781 959.878906 1403.101562 931.398438 1391.039062 899.371094 C 1323.128906 893.230469 1187.808594 957.960938 1141.578125 985.359375 C 1090.960938 1015.359375 982.757812 1096.171875 959.347656 1139.210938 C 974.734375 1149.679688 1009.609375 1153.929688 1030.261719 1159.960938 C 1163.960938 1199.011719 1348.78125 1298.710938 1409.480469 1424.238281 C 1489.78125 1590.320312 1393.578125 1770.789062 1259.210938 1774.519531 C 1197.300781 1776.238281 1168.589844 1742.730469 1164.558594 1685.640625 C 1111.050781 1694.261719 1069.339844 1705.539062 1010.628906 1690.96875 C 932.214844 1671.511719 943.320312 1635.210938 942.34375 1594.640625 C 862.261719 1589.320312 861.421875 1580.980469 805.398438 1571.640625 C 793.007812 1680.410156 845.914062 1822.988281 888.925781 1895.253906 C 916.332031 1941.296875 945.171875 1976.988281 977.429688 2011.128906 C 1030.640625 2067.445312 1042.140625 2065.65625 1091.480469 2097.695312 "/>
<path fill-rule="evenodd" fill="rgb(100%, 100%, 100%)" fill-opacity="1" d="M 1091.480469 2097.695312 C 1258.890625 2188.390625 1497.25 2177.988281 1681.171875 2115.136719 C 1768.71875 2085.21875 1852.960938 2041.421875 1910.738281 1991.984375 C 1965.738281 1944.929688 2041.121094 1858.570312 2045.929688 1780.25 C 1963.210938 1769.53125 1918.679688 1755.640625 1854.390625 1721.160156 C 1763.371094 1672.339844 1744.46875 1626.078125 1719.921875 1604.539062 C 1700.308594 1608.058594 1643.078125 1635.921875 1621.238281 1646.5 C 1471.269531 1719.171875 1322.878906 1820.679688 1213.328125 1940.785156 C 1191.039062 1965.21875 1099.300781 2070.035156 1091.480469 2097.695312 "/>
<path fill-rule="evenodd" fill="rgb(100%, 100%, 100%)" fill-opacity="1" d="M 1025.078125 1330.441406 C 1012.699219 1323.328125 984.359375 1315.101562 979.539062 1300.910156 C 997.023438 1278.828125 1258.941406 1355.410156 1303.410156 1494.070312 C 1317.269531 1537.289062 1315.550781 1622.46875 1276.910156 1622.429688 C 1264.460938 1598.398438 1266.53125 1566.988281 1233.230469 1511.179688 C 1191.148438 1440.648438 1142.421875 1403.421875 1074.390625 1360.558594 C 1056.238281 1349.121094 1042.328125 1340.359375 1025.078125 1330.441406 Z M 816.695312 1399.679688 C 811.496094 1415.578125 797.453125 1411.640625 783.425781 1418.460938 C 779.164062 1422.011719 741.105469 1494.949219 839.953125 1538.519531 C 892.203125 1561.550781 929.742188 1562.328125 980.628906 1569.839844 C 994.617188 1571.910156 992.574219 1570.371094 998.917969 1577.75 C 990.648438 1594.828125 986.378906 1581.25 977.394531 1596.839844 C 964.753906 1643.960938 1023.628906 1659.78125 1067.859375 1661.890625 C 1095.429688 1663.210938 1207.46875 1649.808594 1216.269531 1653.578125 C 1212.238281 1666.289062 1204.230469 1667.269531 1190.988281 1674.410156 C 1188.351562 1801.871094 1458.929688 1713.160156 1385 1475.171875 C 1344.851562 1345.921875 1214.320312 1273.980469 1096.941406 1225.578125 C 970.417969 1173.410156 782.195312 1143.128906 646.144531 1198.851562 C 561.230469 1233.621094 534.015625 1308.238281 600.359375 1346.238281 C 627.835938 1361.980469 666.777344 1372.75 702.1875 1379.820312 C 732.277344 1385.828125 797.007812 1389.949219 816.695312 1399.679688 "/>
<path fill-rule="evenodd" fill="rgb(90.039062%, 69.921875%, 66.014099%)" fill-opacity="1" d="M 2113.488281 1472.230469 C 2096.21875 1536.871094 2045.339844 1549.898438 1984.519531 1544.539062 C 1910.441406 1538.019531 1880.839844 1483.488281 1904.308594 1431.460938 C 1949.828125 1330.589844 2153.101562 1324 2113.488281 1472.230469 Z M 2003.011719 1123.730469 C 1963.039062 1129.328125 1924.109375 1142.859375 1891.851562 1158.511719 C 1859.441406 1174.230469 1829.921875 1194.859375 1805.179688 1220.25 C 1778.710938 1247.410156 1761.828125 1262.039062 1742.199219 1305.671875 C 1727.511719 1338.308594 1713.511719 1382.25 1711.679688 1422.691406 C 1704.53125 1579.898438 1860.210938 1698.171875 1999.320312 1724.390625 C 2094.828125 1742.398438 2179.351562 1721.410156 2211.78125 1653.179688 C 2236.898438 1600.339844 2225.25 1526.828125 2192.191406 1478.960938 C 2153.730469 1423.261719 2149.660156 1452.460938 2185.101562 1389.140625 C 2193.339844 1374.429688 2201.539062 1356.949219 2207.308594 1338.738281 C 2219.898438 1298.960938 2223.078125 1251.949219 2207.050781 1213.46875 C 2178.550781 1145.078125 2099.828125 1110.160156 2003.011719 1123.730469 "/>
<path fill-rule="evenodd" fill="rgb(100%, 100%, 100%)" fill-opacity="1" d="M 1588.628906 867.699219 C 1644.148438 835.898438 1694.808594 994.570312 1645.03125 1017.378906 C 1589.699219 1042.730469 1536.96875 897.289062 1588.628906 867.699219 Z M 1823.449219 828.648438 C 1874.011719 798.960938 1925.078125 949.339844 1875.761719 971.171875 C 1824.488281 993.859375 1773.328125 858.078125 1823.449219 828.648438 Z M 1708.628906 1272.28125 C 1729.039062 1208.910156 1818.609375 1127.660156 1881.949219 1099.199219 C 1929.601562 1077.800781 1950.921875 1078.660156 1971.671875 1069.960938 C 1979.679688 1023.28125 1964.5 937.101562 1951.378906 895.328125 C 1930.488281 828.800781 1833.539062 660.121094 1756.519531 706.851562 C 1736.398438 719.058594 1724.03125 740.601562 1720.820312 770.070312 C 1717.398438 801.5 1740.320312 828.410156 1730.660156 852.601562 C 1721.980469 849.019531 1730.628906 854.25 1724.621094 848.558594 C 1707.46875 832.359375 1645.351562 717.769531 1558.558594 691.449219 C 1503.179688 674.660156 1464.738281 701.039062 1446.339844 736.179688 C 1375.390625 871.648438 1516.199219 1243.089844 1708.628906 1272.28125 "/>
<path fill-rule="evenodd" fill="rgb(94.921875%, 84.959412%, 25%)" fill-opacity="1" d="M 957.023438 2258.976562 C 965.914062 2292.878906 966.570312 2323.234375 984.59375 2353.449219 C 1029.910156 2429.421875 1164.359375 2440.496094 1132.351562 2241.660156 C 1129.609375 2224.683594 1125.800781 2206.8125 1121.238281 2190.636719 C 1114.910156 2168.160156 1117.328125 2163.261719 1098.179688 2154.242188 C 1017.339844 2116.148438 951.398438 2063.839844 897.867188 1991.769531 C 879.863281 1967.527344 864.441406 1947.054688 848.429688 1919.226562 C 837.050781 1899.460938 839.859375 1893.53125 817.023438 1888.214844 C 731.414062 1868.289062 632.289062 1871.773438 572.011719 1925.945312 C 553.027344 1943.007812 528.851562 1965.914062 530.046875 2006.390625 C 531.019531 2039.269531 554.808594 2071.4375 573.449219 2085.398438 C 639.855469 2135.125 729.84375 2106.777344 777.640625 2107.886719 C 772.914062 2135.769531 744.714844 2158.109375 738.410156 2204.523438 C 724.859375 2304.261719 832.832031 2367.109375 917.824219 2288.230469 C 928.894531 2277.960938 939.722656 2261.78125 957.023438 2258.976562 "/>
<path fill-rule="evenodd" fill="rgb(96.09375%, 85.9375%, 26.000977%)" fill-opacity="1" d="M 1317.679688 565.398438 C 1308.050781 553.660156 1314.929688 545.28125 1305.558594 532.519531 L 1278.320312 530.03125 C 1254 526.378906 1191.859375 549.570312 1169.210938 557.769531 C 1134.539062 570.308594 1101.570312 583.808594 1078.011719 605.039062 C 1073.101562 647.46875 1104.921875 717.230469 1101.640625 767.53125 C 1050.621094 766.320312 1009.738281 699.269531 992.515625 684.570312 C 961.578125 691.929688 918.199219 775.761719 902.578125 812.550781 C 895.308594 829.671875 874.425781 874.921875 884.285156 894.058594 C 894.277344 913.460938 925.8125 939.160156 925.945312 964.46875 C 886.332031 980.449219 876.417969 968.019531 840.386719 961.011719 C 823.132812 990.960938 816.355469 1093.199219 832.261719 1127.261719 L 909.625 1131.851562 L 946.492188 1087.039062 C 993.96875 1028.058594 1111.199219 946.550781 1183.410156 911.890625 C 1217.199219 895.671875 1300.03125 866.210938 1301.25 865.53125 C 1288.058594 846.171875 1258.75 835.859375 1235.488281 760.320312 C 1228.941406 739.039062 1223.71875 713.320312 1221.511719 689.710938 C 1219.789062 671.230469 1214.871094 626.910156 1230.011719 615.488281 C 1238.230469 639.980469 1234.769531 684.589844 1257.96875 751.148438 C 1273.828125 796.621094 1296.378906 826.339844 1313.949219 862.578125 L 1384.078125 849.378906 C 1399.378906 723.230469 1353.058594 778.441406 1317.679688 565.398438 "/>
<path fill-rule="evenodd" fill="rgb(66.992188%, 76.951599%, 91.014099%)" fill-opacity="1" d="M 979.539062 1300.910156 C 984.359375 1315.101562 1012.699219 1323.328125 1025.078125 1330.441406 C 1042.328125 1340.359375 1056.238281 1349.121094 1074.390625 1360.558594 C 1142.421875 1403.421875 1191.148438 1440.648438 1233.230469 1511.179688 C 1266.53125 1566.988281 1264.460938 1598.398438 1276.910156 1622.429688 C 1315.550781 1622.46875 1317.269531 1537.289062 1303.410156 1494.070312 C 1258.941406 1355.410156 997.023438 1278.828125 979.539062 1300.910156 "/>
<path fill-rule="evenodd" fill="rgb(1.000977%, 0%, 0%)" fill-opacity="1" d="M 2080.429688 1476.558594 C 2051.191406 1541.5 1899.320312 1514.441406 1948.410156 1442.660156 C 1962.601562 1421.910156 1996.769531 1398.648438 2034.039062 1398.289062 C 2080.289062 1397.839844 2097.171875 1439.390625 2080.429688 1476.558594 Z M 2113.488281 1472.230469 C 2153.101562 1324 1949.828125 1330.589844 1904.308594 1431.460938 C 1880.839844 1483.488281 1910.441406 1538.019531 1984.519531 1544.539062 C 2045.339844 1549.898438 2096.21875 1536.871094 2113.488281 1472.230469 "/>
<path fill-rule="evenodd" fill="rgb(77.929688%, 11.009216%, 14.988708%)" fill-opacity="1" d="M 2080.429688 1476.558594 C 2097.171875 1439.390625 2080.289062 1397.839844 2034.039062 1398.289062 C 1996.769531 1398.648438 1962.601562 1421.910156 1948.410156 1442.660156 C 1899.320312 1514.441406 2051.191406 1541.5 2080.429688 1476.558594 "/>
<path fill-rule="evenodd" fill="rgb(1.000977%, 1.000977%, 1.000977%)" fill-opacity="1" d="M 1619.058594 943.871094 C 1592.128906 941.441406 1589.441406 904.21875 1605.53125 900.960938 C 1623.359375 897.359375 1635.460938 926.921875 1619.058594 943.871094 Z M 1588.628906 867.699219 C 1536.96875 897.289062 1589.699219 1042.730469 1645.03125 1017.378906 C 1694.808594 994.570312 1644.148438 835.898438 1588.628906 867.699219 "/>
<path fill-rule="evenodd" fill="rgb(1.000977%, 1.000977%, 1.000977%)" fill-opacity="1" d="M 1856.140625 898.851562 C 1828.871094 905.101562 1824.730469 872.398438 1833.960938 863.230469 C 1848.449219 848.808594 1864.441406 873.238281 1856.140625 898.851562 Z M 1823.449219 828.648438 C 1773.328125 858.078125 1824.488281 993.859375 1875.761719 971.171875 C 1925.078125 949.339844 1874.011719 798.960938 1823.449219 828.648438 "/>
<path fill-rule="evenodd" fill="rgb(98.046875%, 98.046875%, 98.046875%)" fill-opacity="1" d="M 1619.058594 943.871094 C 1635.460938 926.921875 1623.359375 897.359375 1605.53125 900.960938 C 1589.441406 904.21875 1592.128906 941.441406 1619.058594 943.871094 "/>
<path fill-rule="evenodd" fill="rgb(98.046875%, 98.046875%, 98.046875%)" fill-opacity="1" d="M 1856.140625 898.851562 C 1864.441406 873.238281 1848.449219 848.808594 1833.960938 863.230469 C 1824.730469 872.398438 1828.871094 905.101562 1856.140625 898.851562 "/>
<path fill-rule="evenodd" fill="rgb(89.0625%, 83.006287%, 27.001953%)" fill-opacity="1" d="M 1317.679688 565.398438 L 1314.808594 524.679688 C 1299.480469 524.511719 1289.109375 523.148438 1278.320312 530.03125 L 1305.558594 532.519531 C 1314.929688 545.28125 1308.050781 553.660156 1317.679688 565.398438 "/>
</svg>
