<?xml version="1.0" encoding="UTF-8"?>
<svg xmlns="http://www.w3.org/2000/svg" xmlns:xlink="http://www.w3.org/1999/xlink" width="2836" height="2835" viewBox="0 0 2836 2835">
<path fill-rule="evenodd" fill="rgb(100%, 100%, 100%)" fill-opacity="1" d="M 1 0.351562 L 2835.640625 0.351562 L 2835.640625 2835 L 1 2835 L 1 0.351562 "/>
<path fill-rule="evenodd" fill="rgb(55.076599%, 74.021912%, 31.005859%)" fill-opacity="1" d="M 1065.308594 893.171875 C 1068.921875 872.660156 1122.738281 836.96875 1150.71875 829.949219 C 1195.738281 818.648438 1252.320312 843.320312 1218.5 884.871094 C 1207.75 881.070312 1200.738281 849.578125 1140.5 864.839844 C 1120.578125 869.890625 1077.621094 895.871094 1065.308594 893.171875 Z M 938.414062 849.140625 C 940.703125 828.339844 971.027344 795.988281 996.640625 810.140625 C 1014.289062 819.878906 1008.878906 872.550781 990.636719 879.078125 C 984.679688 860.578125 990.414062 854.929688 978.378906 839.949219 C 954.488281 836.480469 958.449219 848.730469 938.414062 849.140625 Z M 1471.28125 1453.550781 C 1478.269531 1447.601562 1477.011719 1447.300781 1482.21875 1437.910156 C 1561.308594 1295.511719 1774.101562 1210.808594 1917.691406 1307.03125 C 1941.140625 1322.738281 1959.46875 1339.511719 1974.691406 1361.230469 C 1987.039062 1378.851562 2009.550781 1414.960938 2008.730469 1442.910156 C 2019.269531 1419.378906 2017.761719 1360.21875 2014.988281 1332.050781 C 2008.28125 1263.949219 1986.78125 1213.429688 1946.558594 1164.039062 C 1920.589844 1132.140625 1887.191406 1124.589844 1886.851562 1109.371094 C 1899.5 1106.269531 1902.980469 1108.820312 1914.769531 1111.308594 C 1917.800781 1080.980469 1919.488281 1054.46875 1915.910156 1023.839844 C 1909.210938 966.53125 1892.691406 978.828125 1904.960938 953.710938 C 1943.601562 874.648438 1964.199219 728.96875 1899.871094 668.699219 C 1865.75 636.738281 1793.191406 650.808594 1762.03125 677.378906 L 1766.089844 679.691406 C 1774.960938 683.988281 1764.011719 679.070312 1770.238281 681.601562 C 1784.089844 687.21875 1795.898438 688.070312 1811.699219 702.699219 C 1855.199219 743.011719 1864.050781 811.351562 1865.21875 871.351562 C 1866.390625 931.609375 1860.910156 944.800781 1833.710938 987.941406 C 1811.128906 1023.761719 1803.820312 1026.898438 1783.601562 1049.011719 L 1766.460938 1068.191406 C 1776.398438 1075.300781 1784.390625 1079.800781 1787.53125 1090.851562 C 1773.179688 1091.199219 1747.738281 1082.710938 1730.460938 1080.261719 C 1639.789062 1067.398438 1626.25 1077.238281 1551.75 1093.160156 C 1534.488281 1061.621094 1522.390625 981.988281 1458.710938 898.839844 C 1432.390625 864.460938 1440.039062 876.628906 1414.539062 848.789062 C 1383.101562 814.449219 1343.941406 790.179688 1300.308594 771.871094 C 1065.800781 673.429688 764.917969 821.789062 730.269531 1091.140625 C 709.289062 1254.269531 768.933594 1427.898438 890.035156 1524.53125 C 921.429688 1549.578125 954.511719 1568.21875 991.203125 1585.96875 C 1076.011719 1627 1212.371094 1650.238281 1314.429688 1630.058594 C 1366.921875 1619.691406 1418.601562 1593.308594 1442.480469 1566.589844 C 1454.601562 1553.019531 1452.621094 1552.140625 1447.859375 1531.769531 C 1441.511719 1504.578125 1434.210938 1423.011719 1463.320312 1415.679688 C 1470.351562 1427.648438 1468.789062 1438.121094 1471.28125 1453.550781 "/>
<path fill-rule="evenodd" fill="rgb(1.997375%, 1.000977%, 1.997375%)" fill-opacity="1" d="M 1205.109375 2171.050781 C 1192.429688 2096.917969 1228.921875 2070.539062 1288.890625 2054.523438 C 1531.5 1989.734375 1604.960938 2264.761719 1550.488281 2359.011719 C 1481.660156 2365.621094 1356.109375 2356.078125 1294.921875 2332.597656 C 1329.441406 2286.109375 1443.128906 2280.320312 1462.019531 2271.136719 C 1446.519531 2232.234375 1283.769531 2261.324219 1247.371094 2315.316406 C 1206.238281 2308.339844 1188.828125 2291.917969 1202.121094 2247.605469 C 1210.589844 2219.390625 1236.160156 2202.042969 1260.640625 2189.039062 C 1356.449219 2138.148438 1436.640625 2169.976562 1453.058594 2163.589844 C 1443.511719 2129.148438 1362.820312 2122.855469 1324.179688 2128.039062 C 1300.808594 2131.171875 1278.308594 2135.9375 1258.03125 2143.828125 C 1233.921875 2153.207031 1212.140625 2169.4375 1205.109375 2171.050781 Z M 1159.269531 2276.054688 C 1146.28125 2272.542969 1114.011719 2251.441406 1101.988281 2243.167969 C 1107.589844 2235.121094 1149.890625 2215.339844 1127.921875 2160.347656 C 1111.121094 2167.390625 1123.230469 2169.066406 1107.800781 2190.261719 C 1100.859375 2199.789062 1090.960938 2207.707031 1078.449219 2212.460938 C 1061.839844 2218.773438 1057.410156 2213.703125 1031.050781 2190.765625 C 1025.648438 2186.0625 1023.320312 2182.875 1017.820312 2178.378906 C 1001.871094 2165.355469 987.4375 2154.164062 1013.269531 2112.957031 C 1036.148438 2076.460938 1092.128906 2027.992188 1139.710938 2047.886719 C 1149.761719 2052.089844 1159.949219 2060.796875 1166.519531 2069.722656 C 1186.960938 2097.496094 1144.558594 2104.429688 1167.101562 2191.707031 C 1177 2230.011719 1161.96875 2203.242188 1159.269531 2276.054688 Z M 926.84375 2078.429688 C 947.4375 2076.640625 970.382812 2075 983.511719 2089.421875 C 979.015625 2101.5625 971.253906 2110.816406 967.570312 2126.910156 C 958.9375 2121.609375 963.566406 2124.371094 956.8125 2116.550781 C 952.9375 2112.0625 949.75 2109.480469 945.875 2104.816406 C 938.386719 2095.804688 933.441406 2088.855469 926.84375 2078.429688 Z M 1821.28125 2010.460938 C 1871.609375 2001.160156 1915.96875 2003.835938 1961.710938 2024.597656 C 1993.21875 2038.894531 2034.300781 2072.335938 2045.601562 2103.6875 C 2037.628906 2118.90625 2026.320312 2128.4375 2013.78125 2140.671875 C 1989.691406 2164.175781 1928.378906 2225.964844 1899.769531 2235.105469 C 1857.371094 2191.425781 1844.480469 2136.300781 1835.738281 2075.757812 C 1832.398438 2052.667969 1824.121094 2030.671875 1821.28125 2010.460938 Z M 1678.800781 1996.886719 C 1708.761719 1987.875 1737.269531 1973.996094 1766.988281 1999.675781 C 1789.101562 2018.78125 1795.488281 2047.953125 1801.609375 2085.09375 C 1825 2227.105469 1859.191406 2223.601562 1869.390625 2258.230469 C 1850.539062 2264.871094 1833.941406 2279.65625 1813.808594 2285.894531 C 1770.101562 2226.882812 1750.960938 2194.242188 1736.371094 2115.742188 C 1733.019531 2097.707031 1730.308594 2054.0625 1725.320312 2041.914062 C 1719.550781 2043.835938 1723.871094 2041.699219 1718.859375 2045.496094 L 1715.859375 2048.113281 C 1715.421875 2048.5 1714.730469 2049.191406 1714.328125 2049.554688 C 1713.921875 2049.925781 1713.109375 2050.730469 1712.78125 2051.039062 C 1712.449219 2051.355469 1711.800781 2052.105469 1711.21875 2052.546875 C 1701.96875 2033.882812 1689.699219 2019.558594 1678.800781 1996.886719 Z M 861.734375 1977.792969 C 900.8125 1957.121094 933.085938 1938.746094 989.324219 1944.90625 C 1033.988281 1949.796875 1080.640625 1973.605469 1094.058594 2003.84375 C 1079.429688 2012.742188 1063.359375 2016.554688 1049.269531 2026.261719 C 1035.851562 2035.5 1021.179688 2049.539062 1009.761719 2055.402344 C 972.671875 2028.820312 944.808594 2033.992188 896.878906 2042.488281 Z M 1689.480469 1830.421875 C 1736.441406 1807.5 1754.25 1813.800781 1829.320312 1765.011719 C 1842.039062 1756.75 1860.910156 1741.28125 1871.25 1736.210938 C 1877.539062 1747.28125 1895.429688 1853.703125 1830.851562 1866.71875 C 1786.359375 1875.683594 1711.710938 1855.007812 1689.480469 1830.421875 Z M 792.957031 1484.761719 C 799.988281 1487.179688 794.675781 1484.511719 799.738281 1489.449219 C 805.960938 1495.519531 810.433594 1507.949219 841.210938 1536.25 C 858.519531 1552.160156 876.371094 1566.390625 897.378906 1579.988281 C 918.210938 1593.46875 937.21875 1606.691406 960.570312 1616.539062 C 1079.128906 1666.578125 1003.898438 1631.820312 1057.921875 1716.101562 C 1070.039062 1735.011719 1088.128906 1751.78125 1105.941406 1765.039062 C 1123.640625 1778.21875 1142.78125 1789.519531 1166.878906 1801 C 1181.269531 1807.859375 1232.539062 1822.75 1238.171875 1826.980469 C 1231.179688 1841.207031 1222.171875 1850.914062 1212.839844 1867.421875 C 1191.710938 1904.78125 1185.871094 1919.09375 1169.308594 1957.894531 C 1164.421875 1969.378906 1156 1996.378906 1149.53125 2006.234375 C 1132.570312 2002.34375 1140.820312 1983.734375 1099.378906 1942.753906 C 1049.898438 1893.8125 944.394531 1887.800781 880.632812 1920.289062 C 872.199219 1924.585938 851.21875 1937.730469 844.304688 1940.085938 C 822.710938 1923.132812 782.726562 1764.199219 779.539062 1732.238281 C 774.113281 1677.851562 774.984375 1532.480469 792.957031 1484.761719 Z M 1971.769531 1632.441406 C 1974.851562 1625.941406 2007.890625 1576.890625 2025.601562 1542.140625 C 2053.25 1487.910156 2055.191406 1448.960938 2062.371094 1433.851562 C 2087.800781 1450.691406 2121.171875 1529.671875 2108.761719 1576.738281 C 2098.738281 1614.730469 2020.539062 1636.601562 1971.769531 1632.441406 Z M 2091.921875 1237.839844 C 2102.898438 1247.730469 2131.921875 1303.371094 2141.921875 1322.390625 C 2156.96875 1351.019531 2172.53125 1388.480469 2182.050781 1419.300781 C 2233.300781 1585.25 2227.179688 1730.210938 2171.109375 1893.011719 C 2147.96875 1960.203125 2109.671875 2020.273438 2074.398438 2072.054688 C 2060.371094 2063.042969 2049.191406 2014.753906 1970.621094 1984.25 C 1909.550781 1960.539062 1863.5 1967.285156 1801.558594 1981.089844 C 1742.179688 1916.621094 1676.371094 1960.574219 1660.148438 1964.398438 C 1646.199219 1944.859375 1613.578125 1872.035156 1608.179688 1846.824219 C 1654.351562 1842.273438 1626.691406 1839.105469 1670.019531 1868.441406 C 1727.640625 1907.453125 1826.039062 1931.949219 1880.320312 1895.9375 C 1925.289062 1866.101562 1923.300781 1778.589844 1910.878906 1718.609375 C 1906.609375 1698.011719 1909.71875 1699.851562 1921.421875 1688.769531 C 1931.488281 1679.230469 1932.390625 1673.351562 1950.890625 1673.820312 C 2013.96875 1675.429688 2084.148438 1663.78125 2127.988281 1624.371094 C 2176.011719 1581.21875 2143.671875 1477.980469 2104.691406 1422.441406 C 2053.121094 1348.96875 2073.890625 1416.171875 2060.429688 1330.371094 C 2052.699219 1281.070312 2044.789062 1307.320312 2073.839844 1265.078125 C 2080.070312 1256.011719 2086.988281 1243.328125 2091.921875 1237.839844 Z M 2040.660156 1243.140625 C 2034.5 1238.589844 2039.359375 1243.980469 2034.121094 1236.238281 C 2018.480469 1213.171875 2033.609375 1212.828125 1977.851562 1152.71875 C 1966.980469 1141 1960.710938 1137.648438 1949.601562 1128.089844 L 1954.011719 1028.738281 C 2079.929688 1027.089844 2115.160156 1071.550781 2075.949219 1175.929688 C 2064.558594 1206.238281 2051.179688 1221.328125 2040.660156 1243.140625 Z M 1743.53125 956.941406 C 1735.28125 975.519531 1709.679688 968.089844 1719.160156 944.710938 C 1726.960938 925.46875 1752.609375 936.488281 1743.53125 956.941406 Z M 1583.128906 1044.808594 C 1566.128906 1019.871094 1576.148438 957.980469 1583.671875 929 C 1600.109375 865.589844 1638.828125 803.730469 1678.058594 755.210938 C 1683.398438 748.601562 1688.398438 743.488281 1694.089844 737.039062 C 1720.671875 706.941406 1793.769531 718.570312 1822.960938 814.058594 C 1830.238281 837.871094 1841.699219 907.859375 1834.691406 932.171875 C 1830.078125 948.148438 1792.261719 1002.390625 1782.691406 1013.890625 C 1765.738281 1034.269531 1749.519531 1058.679688 1729.511719 1053.238281 C 1722.5 1051.328125 1712.410156 1048.941406 1706.050781 1045.800781 C 1774.429688 1023.769531 1795.148438 902.558594 1753.410156 895.199219 C 1714.820312 888.390625 1678.128906 955.941406 1677.210938 996.878906 C 1676.53125 1027.28125 1684.328125 1029.109375 1692.511719 1043.75 C 1646.171875 1038.949219 1628.148438 1038.5 1583.128906 1044.808594 Z M 1526.078125 869.929688 C 1507.53125 857.160156 1518.640625 833.890625 1534.261719 836.96875 C 1551.011719 840.28125 1544.871094 867.679688 1526.078125 869.929688 Z M 1409.089844 782.929688 C 1411.839844 762.589844 1470.960938 688.789062 1481.328125 678.261719 C 1524.609375 634.28125 1621.589844 675.71875 1618 768.71875 C 1617.179688 789.898438 1564.011719 840.121094 1542.910156 956.550781 C 1537.011719 950.179688 1534.578125 943.039062 1531.261719 934.121094 C 1546.941406 906.878906 1579.199219 859.011719 1564.371094 816.050781 C 1556.808594 794.179688 1531.308594 798.609375 1516.089844 812.851562 C 1490.269531 836.988281 1495.449219 843.828125 1483.289062 857.648438 Z M 2008.730469 1442.910156 C 1989.421875 1555.308594 1898.441406 1659.628906 1812.191406 1722.269531 C 1741.179688 1773.828125 1644.199219 1809.859375 1551.089844 1820.128906 C 1518.511719 1823.730469 1467.578125 1821.578125 1440.140625 1829.25 C 1444.71875 1838.949219 1445.890625 1837.84375 1455.808594 1840.019531 C 1480.429688 1851.636719 1534.328125 1852.152344 1563.28125 1850.320312 C 1607.808594 1947.527344 1622.890625 2001.050781 1691.339844 2095.402344 C 1712.800781 2124.980469 1695.769531 2123.382812 1718.671875 2193.613281 C 1732.398438 2235.710938 1755.121094 2275.710938 1780.019531 2299.914062 L 1776.859375 2302.855469 C 1774.230469 2304.765625 1776.648438 2303.625 1771.578125 2306.367188 C 1737.128906 2324.996094 1630.988281 2351.070312 1598.308594 2353.714844 C 1604.050781 2311.09375 1612.480469 2292.644531 1607.28125 2243.773438 C 1601.761719 2191.828125 1583.679688 2148.109375 1556.101562 2107.84375 C 1541.851562 2087.027344 1515.109375 2060.117188 1494.140625 2044.355469 C 1481.558594 2034.902344 1467.300781 2030.046875 1455.050781 2021.109375 C 1382.769531 2000.109375 1331.320312 1994.335938 1253.820312 2022.558594 C 1233.410156 2029.988281 1217.429688 2041.003906 1200.878906 2050.472656 L 1196.730469 2045.257812 C 1182.480469 2026.503906 1182.050781 2035.8125 1201.910156 1987.785156 C 1222.621094 1937.691406 1237.359375 1911.492188 1262.609375 1865.871094 C 1274.460938 1844.480469 1288.589844 1827.851562 1299.890625 1809.820312 C 1294.558594 1805.808594 1240.960938 1791.859375 1229.320312 1787.179688 C 1167.050781 1762.191406 1098.328125 1727.078125 1076.339844 1659.019531 C 1160.78125 1666.101562 1191.761719 1685.238281 1303.148438 1669.53125 C 1371.578125 1659.878906 1416.261719 1641.769531 1461.949219 1597.558594 C 1463.128906 1596.429688 1465.429688 1594.25 1466.800781 1593.230469 C 1472.171875 1589.21875 1464.660156 1593.359375 1473.21875 1589.269531 C 1480.5 1606 1524.679688 1652.960938 1557.480469 1630.148438 C 1558.171875 1610.960938 1533.898438 1613.589844 1502.390625 1554.050781 C 1486.589844 1524.199219 1475.820312 1491.050781 1471.28125 1453.550781 C 1468.789062 1438.121094 1470.351562 1427.648438 1463.320312 1415.679688 C 1434.210938 1423.011719 1441.511719 1504.578125 1447.859375 1531.769531 C 1452.621094 1552.140625 1454.601562 1553.019531 1442.480469 1566.589844 C 1418.601562 1593.308594 1366.921875 1619.691406 1314.429688 1630.058594 C 1212.371094 1650.238281 1076.011719 1627 991.203125 1585.96875 C 954.511719 1568.21875 921.429688 1549.578125 890.035156 1524.53125 C 768.933594 1427.898438 709.289062 1254.269531 730.269531 1091.140625 C 764.917969 821.789062 1065.800781 673.429688 1300.308594 771.871094 C 1343.941406 790.179688 1383.101562 814.449219 1414.539062 848.789062 C 1440.039062 876.628906 1432.390625 864.460938 1458.710938 898.839844 C 1522.390625 981.988281 1534.488281 1061.621094 1551.75 1093.160156 C 1626.25 1077.238281 1639.789062 1067.398438 1730.460938 1080.261719 C 1747.738281 1082.710938 1773.179688 1091.199219 1787.53125 1090.851562 C 1784.390625 1079.800781 1776.398438 1075.300781 1766.460938 1068.191406 L 1783.601562 1049.011719 C 1803.820312 1026.898438 1811.128906 1023.761719 1833.710938 987.941406 C 1860.910156 944.800781 1866.390625 931.609375 1865.21875 871.351562 C 1864.050781 811.351562 1855.199219 743.011719 1811.699219 702.699219 C 1795.898438 688.070312 1784.089844 687.21875 1770.238281 681.601562 C 1764.011719 679.070312 1774.960938 683.988281 1766.089844 679.691406 L 1762.03125 677.378906 C 1793.191406 650.808594 1865.75 636.738281 1899.871094 668.699219 C 1964.199219 728.96875 1943.601562 874.648438 1904.960938 953.710938 C 1892.691406 978.828125 1909.210938 966.53125 1915.910156 1023.839844 C 1919.488281 1054.46875 1917.800781 1080.980469 1914.769531 1111.308594 C 1902.980469 1108.820312 1899.5 1106.269531 1886.851562 1109.371094 C 1887.191406 1124.589844 1920.589844 1132.140625 1946.558594 1164.039062 C 1986.78125 1213.429688 2008.28125 1263.949219 2014.988281 1332.050781 C 2017.761719 1360.21875 2019.269531 1419.378906 2008.730469 1442.910156 Z M 1554.578125 623.570312 C 1599.929688 603.710938 1650.761719 597.78125 1678.078125 633.808594 C 1696.550781 658.171875 1702.890625 671.539062 1689.269531 686.449219 C 1676.800781 700.089844 1665.019531 715.441406 1651.589844 729.171875 C 1638.550781 704.78125 1644.519531 682.128906 1621.328125 656.238281 C 1592.839844 624.410156 1573.480469 632.980469 1554.578125 623.570312 Z M 1922.589844 2277.695312 C 1933.308594 2261.695312 1954.128906 2255.777344 1959.929688 2246.316406 L 1971.089844 2236.597656 C 1981.25 2233.675781 1987.648438 2225.855469 1997.179688 2218.214844 C 2024.488281 2196.347656 2084.070312 2131.210938 2108.039062 2098.003906 L 2163.21875 2013.410156 C 2168.851562 2002.140625 2174.898438 1993.148438 2178.960938 1983.511719 C 2184.199219 1971.101562 2189.679688 1963.460938 2193.941406 1952.851562 L 2208.28125 1918.695312 C 2248.25 1810.628906 2262.78125 1715.789062 2259.289062 1598.679688 C 2258.511719 1572.308594 2252.679688 1543.109375 2248.960938 1517.730469 C 2243.878906 1483.058594 2233.671875 1435.96875 2222.140625 1404.78125 C 2218.078125 1393.808594 2214.730469 1381.511719 2210.71875 1370.550781 C 2194.921875 1327.289062 2169.808594 1287.75 2159.070312 1260.441406 C 2154.890625 1249.820312 2160.519531 1259.648438 2151.921875 1249.820312 C 2145.210938 1242.148438 2139.820312 1230.589844 2134.25 1221.671875 C 2123.988281 1205.25 2119.699219 1202.648438 2113.71875 1193.699219 C 2118 1175.320312 2128.929688 1158.921875 2130.648438 1136.46875 C 2135.429688 1074.328125 2130.828125 1101.28125 2130.828125 1069.089844 C 2123.890625 1064.058594 2125.558594 1063.238281 2120.78125 1053.921875 C 2120.710938 1046.429688 2119.339844 1045.691406 2114.371094 1039.089844 C 2112.960938 1037.230469 2110.941406 1034.769531 2109.160156 1032.808594 C 2096.449219 1018.789062 2119.660156 1043.171875 2106.371094 1029.890625 C 2086.421875 1009.941406 2065.78125 999.078125 2038.808594 991.910156 C 2022.640625 987.621094 2012.320312 985.460938 1992.589844 985.460938 L 1948.269531 987.421875 L 1946.058594 982.609375 C 1939.851562 947.78125 1955.160156 951.699219 1963.230469 915.679688 C 1984.628906 820.210938 1979.03125 876.488281 1979.660156 760.089844 C 1980.03125 691.628906 1939.050781 600.609375 1865.671875 600.230469 C 1829.488281 600.039062 1821.03125 594.921875 1789.449219 609.851562 C 1771.25 618.460938 1761.371094 621.199219 1745.390625 634.25 C 1736.960938 641.128906 1741.179688 642.101562 1728.609375 643.148438 C 1727.921875 612.140625 1689.019531 575.308594 1648.609375 566.261719 C 1553.460938 544.960938 1451.089844 631.03125 1403.601562 706.089844 L 1372.039062 754.398438 L 1332.960938 733.578125 C 1273.828125 710.558594 1254.71875 702.050781 1186.21875 694.898438 C 1151.050781 691.21875 1105.640625 692.070312 1072.941406 697.769531 C 1011.910156 708.410156 984.765625 715.351562 926.902344 742.859375 L 919.25 746.621094 C 918.707031 746.929688 918.007812 747.371094 917.476562 747.699219 L 912.351562 751.128906 C 866.003906 780.800781 879.964844 766.421875 825.179688 812.289062 C 806.6875 827.78125 780.28125 856.410156 766.726562 876.511719 C 761.195312 884.710938 758.070312 887.039062 752.96875 894.128906 C 748.589844 900.199219 745.28125 906.5 741.042969 913.578125 C 728.011719 935.351562 725.269531 939.488281 716.519531 961.929688 C 697.199219 1011.46875 706.886719 980.5 690.558594 1037.109375 C 677.40625 1082.71875 677.132812 1154.941406 681.96875 1204.851562 C 685.652344 1242.828125 694.070312 1292.890625 706.976562 1328.160156 C 725.273438 1378.179688 730.359375 1385.410156 753.734375 1429.890625 C 754.042969 1430.480469 754.472656 1431.191406 754.765625 1431.78125 C 760.453125 1443.390625 758.832031 1443.058594 755.414062 1455.589844 C 752.71875 1465.46875 751.921875 1471.628906 751.089844 1478.589844 C 749.078125 1495.378906 744.136719 1511.96875 741.179688 1529.878906 C 728.429688 1607.089844 736.394531 1615.558594 733.289062 1670.148438 C 731.21875 1706.488281 750.882812 1816.421875 762.699219 1851.535156 C 772.089844 1879.433594 780.328125 1911.898438 794.855469 1942.039062 L 829.648438 2012.796875 C 840.371094 2028.632812 842.886719 2038.742188 858.972656 2060.492188 C 869.363281 2074.535156 880.925781 2095.011719 890.386719 2106.101562 C 956.925781 2184.089844 988.714844 2217.640625 1073.679688 2276.53125 C 1111.359375 2302.648438 1117.671875 2302.691406 1152.5 2323.21875 C 1159.390625 2327.273438 1163.839844 2329.003906 1171.96875 2332.277344 C 1179.5 2335.304688 1186.121094 2339.820312 1192.820312 2342.8125 L 1237.929688 2360.457031 C 1269.96875 2372.21875 1299.078125 2379.726562 1333.71875 2387.328125 C 1348.710938 2390.617188 1368.648438 2396.34375 1382.648438 2396.746094 C 1439.960938 2398.386719 1462.78125 2414.066406 1554.078125 2402.683594 C 1571.691406 2400.488281 1588.148438 2398.367188 1608.769531 2397.472656 C 1653.109375 2395.542969 1755.269531 2360.355469 1799.578125 2342.960938 L 1922.589844 2277.695312 "/>
<path fill-rule="evenodd" fill="rgb(100%, 100%, 100%)" fill-opacity="1" d="M 1471.28125 1453.550781 C 1475.820312 1491.050781 1486.589844 1524.199219 1502.390625 1554.050781 C 1533.898438 1613.589844 1558.171875 1610.960938 1557.480469 1630.148438 C 1524.679688 1652.960938 1480.5 1606 1473.21875 1589.269531 C 1464.660156 1593.359375 1472.171875 1589.21875 1466.800781 1593.230469 C 1465.429688 1594.25 1463.128906 1596.429688 1461.949219 1597.558594 C 1416.261719 1641.769531 1371.578125 1659.878906 1303.148438 1669.53125 C 1191.761719 1685.238281 1160.78125 1666.101562 1076.339844 1659.019531 C 1098.328125 1727.078125 1167.050781 1762.191406 1229.320312 1787.179688 C 1240.960938 1791.859375 1294.558594 1805.808594 1299.890625 1809.820312 C 1288.589844 1827.851562 1274.460938 1844.480469 1262.609375 1865.871094 C 1237.359375 1911.492188 1222.621094 1937.691406 1201.910156 1987.785156 C 1182.050781 2035.8125 1182.480469 2026.503906 1196.730469 2045.257812 L 1200.878906 2050.472656 C 1217.429688 2041.003906 1233.410156 2029.988281 1253.820312 2022.558594 C 1331.320312 1994.335938 1382.769531 2000.109375 1455.050781 2021.109375 C 1454.488281 1991.984375 1450.238281 1963.457031 1450.289062 1932.53125 C 1450.339844 1899.824219 1453.769531 1871.613281 1455.808594 1840.019531 C 1445.890625 1837.84375 1444.71875 1838.949219 1440.140625 1829.25 C 1467.578125 1821.578125 1518.511719 1823.730469 1551.089844 1820.128906 C 1644.199219 1809.859375 1741.179688 1773.828125 1812.191406 1722.269531 C 1898.441406 1659.628906 1989.421875 1555.308594 2008.730469 1442.910156 C 2009.550781 1414.960938 1987.039062 1378.851562 1974.691406 1361.230469 C 1959.46875 1339.511719 1941.140625 1322.738281 1917.691406 1307.03125 C 1774.101562 1210.808594 1561.308594 1295.511719 1482.21875 1437.910156 C 1477.011719 1447.300781 1478.269531 1447.601562 1471.28125 1453.550781 "/>
<path fill-rule="evenodd" fill="rgb(76.951599%, 98.046875%, 36.009216%)" fill-opacity="1" d="M 1921.421875 1688.769531 C 1909.71875 1699.851562 1906.609375 1698.011719 1910.878906 1718.609375 C 1923.300781 1778.589844 1925.289062 1866.101562 1880.320312 1895.9375 C 1826.039062 1931.949219 1727.640625 1907.453125 1670.019531 1868.441406 C 1626.691406 1839.105469 1654.351562 1842.273438 1608.179688 1846.824219 C 1613.578125 1872.035156 1646.199219 1944.859375 1660.148438 1964.398438 C 1676.371094 1960.574219 1742.179688 1916.621094 1801.558594 1981.089844 C 1863.5 1967.285156 1909.550781 1960.539062 1970.621094 1984.25 C 2049.191406 2014.753906 2060.371094 2063.042969 2074.398438 2072.054688 C 2109.671875 2020.273438 2147.96875 1960.203125 2171.109375 1893.011719 C 2227.179688 1730.210938 2233.300781 1585.25 2182.050781 1419.300781 C 2172.53125 1388.480469 2156.96875 1351.019531 2141.921875 1322.390625 C 2131.921875 1303.371094 2102.898438 1247.730469 2091.921875 1237.839844 C 2086.988281 1243.328125 2080.070312 1256.011719 2073.839844 1265.078125 C 2044.789062 1307.320312 2052.699219 1281.070312 2060.429688 1330.371094 C 2073.890625 1416.171875 2053.121094 1348.96875 2104.691406 1422.441406 C 2143.671875 1477.980469 2176.011719 1581.21875 2127.988281 1624.371094 C 2084.148438 1663.78125 2013.96875 1675.429688 1950.890625 1673.820312 C 1932.390625 1673.351562 1931.488281 1679.230469 1921.421875 1688.769531 "/>
<path fill-rule="evenodd" fill="rgb(76.951599%, 98.046875%, 36.009216%)" fill-opacity="1" d="M 792.957031 1484.761719 C 774.984375 1532.480469 774.113281 1677.851562 779.539062 1732.238281 C 782.726562 1764.199219 822.710938 1923.132812 844.304688 1940.085938 C 851.21875 1937.730469 872.199219 1924.585938 880.632812 1920.289062 C 944.394531 1887.800781 1049.898438 1893.8125 1099.378906 1942.753906 C 1140.820312 1983.734375 1132.570312 2002.34375 1149.53125 2006.234375 C 1156 1996.378906 1164.421875 1969.378906 1169.308594 1957.894531 C 1185.871094 1919.09375 1191.710938 1904.78125 1212.839844 1867.421875 C 1222.171875 1850.914062 1231.179688 1841.207031 1238.171875 1826.980469 C 1232.539062 1822.75 1181.269531 1807.859375 1166.878906 1801 C 1142.78125 1789.519531 1123.640625 1778.21875 1105.941406 1765.039062 C 1088.128906 1751.78125 1070.039062 1735.011719 1057.921875 1716.101562 C 1003.898438 1631.820312 1079.128906 1666.578125 960.570312 1616.539062 C 937.21875 1606.691406 918.210938 1593.46875 897.378906 1579.988281 C 876.371094 1566.390625 858.519531 1552.160156 841.210938 1536.25 C 810.433594 1507.949219 805.960938 1495.519531 799.738281 1489.449219 C 794.675781 1484.511719 799.988281 1487.179688 792.957031 1484.761719 "/>
<path fill-rule="evenodd" fill="rgb(55.076599%, 74.021912%, 31.005859%)" fill-opacity="1" d="M 1205.109375 2171.050781 C 1212.140625 2169.4375 1233.921875 2153.207031 1258.03125 2143.828125 C 1278.308594 2135.9375 1300.808594 2131.171875 1324.179688 2128.039062 C 1362.820312 2122.855469 1443.511719 2129.148438 1453.058594 2163.589844 C 1436.640625 2169.976562 1356.449219 2138.148438 1260.640625 2189.039062 C 1236.160156 2202.042969 1210.589844 2219.390625 1202.121094 2247.605469 C 1188.828125 2291.917969 1206.238281 2308.339844 1247.371094 2315.316406 C 1283.769531 2261.324219 1446.519531 2232.234375 1462.019531 2271.136719 C 1443.128906 2280.320312 1329.441406 2286.109375 1294.921875 2332.597656 C 1356.109375 2356.078125 1481.660156 2365.621094 1550.488281 2359.011719 C 1604.960938 2264.761719 1531.5 1989.734375 1288.890625 2054.523438 C 1228.921875 2070.539062 1192.429688 2096.917969 1205.109375 2171.050781 "/>
<path fill-rule="evenodd" fill="rgb(55.076599%, 74.021912%, 31.005859%)" fill-opacity="1" d="M 1455.050781 2021.109375 C 1467.300781 2030.046875 1481.558594 2034.902344 1494.140625 2044.355469 C 1515.109375 2060.117188 1541.851562 2087.027344 1556.101562 2107.84375 C 1583.679688 2148.109375 1601.761719 2191.828125 1607.28125 2243.773438 C 1612.480469 2292.644531 1604.050781 2311.09375 1598.308594 2353.714844 C 1630.988281 2351.070312 1737.128906 2324.996094 1771.578125 2306.367188 C 1776.648438 2303.625 1774.230469 2304.765625 1776.859375 2302.855469 L 1780.019531 2299.914062 C 1755.121094 2275.710938 1732.398438 2235.710938 1718.671875 2193.613281 C 1695.769531 2123.382812 1712.800781 2124.980469 1691.339844 2095.402344 C 1622.890625 2001.050781 1607.808594 1947.527344 1563.28125 1850.320312 C 1534.328125 1852.152344 1480.429688 1851.636719 1455.808594 1840.019531 C 1453.769531 1871.613281 1450.339844 1899.824219 1450.289062 1932.53125 C 1450.238281 1963.457031 1454.488281 1991.984375 1455.050781 2021.109375 "/>
<path fill-rule="evenodd" fill="rgb(100%, 100%, 100%)" fill-opacity="1" d="M 1583.128906 1044.808594 C 1628.148438 1038.5 1646.171875 1038.949219 1692.511719 1043.75 C 1684.328125 1029.109375 1676.53125 1027.28125 1677.210938 996.878906 C 1678.128906 955.941406 1714.820312 888.390625 1753.410156 895.199219 C 1795.148438 902.558594 1774.429688 1023.769531 1706.050781 1045.800781 C 1712.410156 1048.941406 1722.5 1051.328125 1729.511719 1053.238281 C 1749.519531 1058.679688 1765.738281 1034.269531 1782.691406 1013.890625 C 1792.261719 1002.390625 1830.078125 948.148438 1834.691406 932.171875 C 1841.699219 907.859375 1830.238281 837.871094 1822.960938 814.058594 C 1793.769531 718.570312 1720.671875 706.941406 1694.089844 737.039062 C 1688.398438 743.488281 1683.398438 748.601562 1678.058594 755.210938 C 1638.828125 803.730469 1600.109375 865.589844 1583.671875 929 C 1576.148438 957.980469 1566.128906 1019.871094 1583.128906 1044.808594 "/>
<path fill-rule="evenodd" fill="rgb(78.90625%, 11.009216%, 15.989685%)" fill-opacity="1" d="M 2013.78125 2140.671875 C 2026.320312 2128.4375 2037.628906 2118.90625 2045.601562 2103.6875 C 2034.300781 2072.335938 1993.21875 2038.894531 1961.710938 2024.597656 C 1915.96875 2003.835938 1871.609375 2001.160156 1821.28125 2010.460938 C 1824.121094 2030.671875 1832.398438 2052.667969 1835.738281 2075.757812 C 1844.480469 2136.300781 1857.371094 2191.425781 1899.769531 2235.105469 C 1928.378906 2225.964844 1989.691406 2164.175781 2013.78125 2140.671875 "/>
<path fill-rule="evenodd" fill="rgb(99.021912%, 99.021912%, 99.021912%)" fill-opacity="1" d="M 1409.089844 782.929688 L 1483.289062 857.648438 C 1495.449219 843.828125 1490.269531 836.988281 1516.089844 812.851562 C 1531.308594 798.609375 1556.808594 794.179688 1564.371094 816.050781 C 1579.199219 859.011719 1546.941406 906.878906 1531.261719 934.121094 C 1534.578125 943.039062 1537.011719 950.179688 1542.910156 956.550781 C 1564.011719 840.121094 1617.179688 789.898438 1618 768.71875 C 1621.589844 675.71875 1524.609375 634.28125 1481.328125 678.261719 C 1470.960938 688.789062 1411.839844 762.589844 1409.089844 782.929688 "/>
<path fill-rule="evenodd" fill="rgb(55.076599%, 74.021912%, 31.005859%)" fill-opacity="1" d="M 1159.269531 2276.054688 C 1161.96875 2203.242188 1177 2230.011719 1167.101562 2191.707031 C 1144.558594 2104.429688 1186.960938 2097.496094 1166.519531 2069.722656 C 1159.949219 2060.796875 1149.761719 2052.089844 1139.710938 2047.886719 C 1092.128906 2027.992188 1036.148438 2076.460938 1013.269531 2112.957031 C 987.4375 2154.164062 1001.871094 2165.355469 1017.820312 2178.378906 C 1023.320312 2182.875 1025.648438 2186.0625 1031.050781 2190.765625 C 1057.410156 2213.703125 1061.839844 2218.773438 1078.449219 2212.460938 C 1090.960938 2207.707031 1100.859375 2199.789062 1107.800781 2190.261719 C 1123.230469 2169.066406 1111.121094 2167.390625 1127.921875 2160.347656 C 1149.890625 2215.339844 1107.589844 2235.121094 1101.988281 2243.167969 C 1114.011719 2251.441406 1146.28125 2272.542969 1159.269531 2276.054688 "/>
<path fill-rule="evenodd" fill="rgb(99.021912%, 99.021912%, 99.021912%)" fill-opacity="1" d="M 1725.320312 2041.914062 C 1730.308594 2054.0625 1733.019531 2097.707031 1736.371094 2115.742188 C 1750.960938 2194.242188 1770.101562 2226.882812 1813.808594 2285.894531 C 1833.941406 2279.65625 1850.539062 2264.871094 1869.390625 2258.230469 C 1859.191406 2223.601562 1825 2227.105469 1801.609375 2085.09375 C 1795.488281 2047.953125 1789.101562 2018.78125 1766.988281 1999.675781 C 1737.269531 1973.996094 1708.761719 1987.875 1678.800781 1996.886719 C 1689.699219 2019.558594 1701.96875 2033.882812 1711.21875 2052.546875 C 1711.800781 2052.105469 1712.449219 2051.355469 1712.78125 2051.039062 C 1713.109375 2050.730469 1713.921875 2049.925781 1714.328125 2049.554688 C 1714.730469 2049.191406 1715.421875 2048.5 1715.859375 2048.113281 L 1718.859375 2045.496094 C 1723.871094 2041.699219 1719.550781 2043.835938 1725.320312 2041.914062 "/>
<path fill-rule="evenodd" fill="rgb(78.90625%, 38.989258%, 16.992188%)" fill-opacity="1" d="M 2040.660156 1243.140625 C 2051.179688 1221.328125 2064.558594 1206.238281 2075.949219 1175.929688 C 2115.160156 1071.550781 2079.929688 1027.089844 1954.011719 1028.738281 L 1949.601562 1128.089844 C 1960.710938 1137.648438 1966.980469 1141 1977.851562 1152.71875 C 2033.609375 1212.828125 2018.480469 1213.171875 2034.121094 1236.238281 C 2039.359375 1243.980469 2034.5 1238.589844 2040.660156 1243.140625 "/>
<path fill-rule="evenodd" fill="rgb(55.076599%, 74.021912%, 31.005859%)" fill-opacity="1" d="M 896.878906 2042.488281 C 944.808594 2033.992188 972.671875 2028.820312 1009.761719 2055.402344 C 1021.179688 2049.539062 1035.851562 2035.5 1049.269531 2026.261719 C 1063.359375 2016.554688 1079.429688 2012.742188 1094.058594 2003.84375 C 1080.640625 1973.605469 1033.988281 1949.796875 989.324219 1944.90625 C 933.085938 1938.746094 900.8125 1957.121094 861.734375 1977.792969 L 896.878906 2042.488281 "/>
<path fill-rule="evenodd" fill="rgb(78.90625%, 38.989258%, 16.992188%)" fill-opacity="1" d="M 1971.769531 1632.441406 C 2020.539062 1636.601562 2098.738281 1614.730469 2108.761719 1576.738281 C 2121.171875 1529.671875 2087.800781 1450.691406 2062.371094 1433.851562 C 2055.191406 1448.960938 2053.25 1487.910156 2025.601562 1542.140625 C 2007.890625 1576.890625 1974.851562 1625.941406 1971.769531 1632.441406 "/>
<path fill-rule="evenodd" fill="rgb(78.90625%, 38.989258%, 16.992188%)" fill-opacity="1" d="M 1689.480469 1830.421875 C 1711.710938 1855.007812 1786.359375 1875.683594 1830.851562 1866.71875 C 1895.429688 1853.703125 1877.539062 1747.28125 1871.25 1736.210938 C 1860.910156 1741.28125 1842.039062 1756.75 1829.320312 1765.011719 C 1754.25 1813.800781 1736.441406 1807.5 1689.480469 1830.421875 "/>
<path fill-rule="evenodd" fill="rgb(55.076599%, 74.021912%, 31.005859%)" fill-opacity="1" d="M 1554.578125 623.570312 C 1573.480469 632.980469 1592.839844 624.410156 1621.328125 656.238281 C 1644.519531 682.128906 1638.550781 704.78125 1651.589844 729.171875 C 1665.019531 715.441406 1676.800781 700.089844 1689.269531 686.449219 C 1702.890625 671.539062 1696.550781 658.171875 1678.078125 633.808594 C 1650.761719 597.78125 1599.929688 603.710938 1554.578125 623.570312 "/>
<path fill-rule="evenodd" fill="rgb(1.997375%, 1.000977%, 1.997375%)" fill-opacity="1" d="M 1065.308594 893.171875 C 1077.621094 895.871094 1120.578125 869.890625 1140.5 864.839844 C 1200.738281 849.578125 1207.75 881.070312 1218.5 884.871094 C 1252.320312 843.320312 1195.738281 818.648438 1150.71875 829.949219 C 1122.738281 836.96875 1068.921875 872.660156 1065.308594 893.171875 "/>
<path fill-rule="evenodd" fill="rgb(1.997375%, 1.000977%, 1.997375%)" fill-opacity="1" d="M 938.414062 849.140625 C 958.449219 848.730469 954.488281 836.480469 978.378906 839.949219 C 990.414062 854.929688 984.679688 860.578125 990.636719 879.078125 C 1008.878906 872.550781 1014.289062 819.878906 996.640625 810.140625 C 971.027344 795.988281 940.703125 828.339844 938.414062 849.140625 "/>
<path fill-rule="evenodd" fill="rgb(55.076599%, 74.021912%, 31.005859%)" fill-opacity="1" d="M 926.84375 2078.429688 C 933.441406 2088.855469 938.386719 2095.804688 945.875 2104.816406 C 949.75 2109.480469 952.9375 2112.0625 956.8125 2116.550781 C 963.566406 2124.371094 958.9375 2121.609375 967.570312 2126.910156 C 971.253906 2110.816406 979.015625 2101.5625 983.511719 2089.421875 C 970.382812 2075 947.4375 2076.640625 926.84375 2078.429688 "/>
<path fill-rule="evenodd" fill="rgb(98.046875%, 98.046875%, 98.046875%)" fill-opacity="1" d="M 1743.53125 956.941406 C 1752.609375 936.488281 1726.960938 925.46875 1719.160156 944.710938 C 1709.679688 968.089844 1735.28125 975.519531 1743.53125 956.941406 "/>
<path fill-rule="evenodd" fill="rgb(98.046875%, 98.046875%, 98.046875%)" fill-opacity="1" d="M 1526.078125 869.929688 C 1544.871094 867.679688 1551.011719 840.28125 1534.261719 836.96875 C 1518.640625 833.890625 1507.53125 857.160156 1526.078125 869.929688 "/>
<path fill-rule="evenodd" fill="rgb(91.992188%, 91.992188%, 91.992188%)" fill-opacity="1" d="M 1992.589844 985.460938 C 1985.839844 981.050781 1979.109375 982.390625 1968.160156 982.539062 C 1963 982.601562 1959.371094 982.929688 1954.429688 983.300781 C 1945.949219 983.941406 1955.710938 987.28125 1946.058594 982.609375 L 1948.269531 987.421875 L 1992.589844 985.460938 "/>
<path fill-rule="evenodd" fill="rgb(65.039062%, 64.0625%, 64.0625%)" fill-opacity="1" d="M 2130.828125 1069.089844 L 2127.710938 1056.859375 C 2126.480469 1055.519531 2122.691406 1054.71875 2120.78125 1053.921875 C 2125.558594 1063.238281 2123.890625 1064.058594 2130.828125 1069.089844 "/>
<path fill-rule="evenodd" fill="rgb(77.929688%, 76.951599%, 76.951599%)" fill-opacity="1" d="M 1959.929688 2246.316406 C 1969.609375 2242.082031 1966.289062 2247.476562 1971.089844 2236.597656 L 1959.929688 2246.316406 "/>
<path fill-rule="evenodd" fill="rgb(91.992188%, 91.992188%, 91.992188%)" fill-opacity="1" d="M 1705.789062 588.949219 C 1705.789062 596.039062 1710.351562 589.679688 1707.558594 588.949219 C 1707.558594 588.949219 1707.339844 588.871094 1707.328125 588.871094 C 1705.578125 588.761719 1705.789062 582.550781 1705.789062 588.949219 "/>
<path fill-rule="evenodd" fill="rgb(91.992188%, 91.992188%, 91.992188%)" fill-opacity="1" d="M 1922.589844 2277.695312 L 1922.589844 2280.546875 L 1925.921875 2278.171875 Z M 1922.589844 2277.695312 "/>
<path fill-rule="evenodd" fill="rgb(93.943787%, 93.943787%, 92.96875%)" fill-opacity="1" d="M 2096.601562 2137.917969 C 2096.878906 2138.199219 2097.449219 2136.664062 2097.449219 2137.066406 C 2097.398438 2137.121094 2096.320312 2137.632812 2096.601562 2137.917969 "/>
<path fill-rule="evenodd" fill="rgb(93.943787%, 93.943787%, 92.96875%)" fill-opacity="1" d="M 2116.570312 1036.808594 L 2117.421875 1035.960938 C 2117.359375 1036.011719 2116.289062 1036.53125 2116.570312 1036.808594 "/>
</svg>
