<?xml version="1.0" encoding="UTF-8"?>
<svg xmlns="http://www.w3.org/2000/svg" xmlns:xlink="http://www.w3.org/1999/xlink" width="2836" height="2835" viewBox="0 0 2836 2835">
<path fill-rule="evenodd" fill="rgb(100%, 100%, 100%)" fill-opacity="1" d="M 1 0.351562 L 2835.640625 0.351562 L 2835.640625 2835 L 1 2835 L 1 0.351562 "/>
<path fill-rule="evenodd" fill="rgb(2.999878%, 1.997375%, 1.997375%)" fill-opacity="1" d="M 1812.429688 2232.664062 C 1817.261719 2192.710938 1807.238281 2158.085938 1761.011719 2164.132812 C 1769.859375 2173.640625 1800.808594 2176.894531 1796.699219 2216.167969 C 1793.761719 2244.3125 1778.238281 2257.992188 1749.558594 2251.65625 C 1752.441406 2229.4375 1761.75 2213.074219 1746.671875 2191.753906 C 1734.738281 2174.898438 1716.949219 2169.871094 1690.691406 2174.621094 L 1703.570312 2179.816406 C 1777.148438 2203.144531 1717.519531 2293.96875 1672.800781 2257.375 C 1654.441406 2242.359375 1667.761719 2218.703125 1674.191406 2201.449219 C 1659.75 2205.164062 1662.148438 2206.644531 1653.351562 2215.648438 C 1630.910156 2216.074219 1611.800781 2210.09375 1593.359375 2201.996094 C 1571.121094 2192.230469 1563.121094 2181.558594 1548.75 2171.898438 C 1529.980469 2180.039062 1513.53125 2191.789062 1486.359375 2185.085938 C 1467.328125 2180.386719 1450.988281 2159.253906 1460.691406 2136.644531 C 1469.28125 2116.625 1493.398438 2122.496094 1516.980469 2115.46875 C 1538.890625 2108.9375 1532.75 2078.832031 1554.261719 2073.027344 C 1561.21875 2084.699219 1542.988281 2115.800781 1601 2089.972656 L 1608.199219 2103.304688 C 1624.761719 2102.664062 1626.230469 2098.683594 1636.828125 2091.671875 C 1653.539062 2104.773438 1680.878906 2125.027344 1688.640625 2084.46875 C 1755.710938 2106.566406 1719.710938 2075.890625 1754.289062 2087.382812 C 1777.191406 2094.992188 1794.839844 2104.804688 1808.71875 2118.652344 C 1832.21875 2142.097656 1849.109375 2118.761719 1867.960938 2144.753906 C 1880.46875 2161.992188 1885.921875 2200.6875 1857.789062 2204.421875 C 1851.25 2171.042969 1845.121094 2147.214844 1804.859375 2150.8125 C 1820.070312 2165.421875 1834.730469 2159.269531 1839.960938 2186.632812 C 1844.621094 2210.972656 1836.21875 2232.386719 1812.429688 2232.664062 Z M 1020.289062 2116.496094 C 1002.359375 2106.167969 1010.738281 2072.941406 1022.238281 2058.671875 C 1041.890625 2034.28125 1058.628906 2043.953125 1086.910156 2045.269531 C 1087.921875 2045.316406 1127.898438 2029.855469 1149.761719 2026.71875 C 1194.949219 2020.234375 1150.121094 2039.960938 1222.761719 2031.277344 L 1224.820312 2046.023438 C 1247.960938 2049.28125 1249.898438 2043.496094 1265.25 2035.875 C 1275.21875 2042.460938 1281.890625 2052.761719 1297.679688 2050.484375 C 1312.898438 2048.289062 1312.871094 2033.628906 1320.300781 2023.664062 C 1326.609375 2026.757812 1337.378906 2034.097656 1345.460938 2034.996094 C 1353.148438 2035.855469 1355.589844 2035.984375 1360.371094 2030.890625 L 1367.089844 2017.054688 C 1404.230469 2020.703125 1442.128906 2111.082031 1393.511719 2135.308594 C 1375.300781 2144.382812 1357.160156 2139.421875 1343.121094 2148.242188 C 1323.128906 2160.8125 1262.238281 2194.089844 1261.570312 2144.730469 C 1261.121094 2111.769531 1299.160156 2102.660156 1324.398438 2096.914062 L 1336.53125 2092.433594 C 1318.011719 2081.007812 1290.289062 2088.859375 1272.898438 2097.421875 C 1249.398438 2108.988281 1247.671875 2120.632812 1241.859375 2148.964844 C 1185.859375 2157.554688 1191.398438 2142.496094 1173.171875 2143.523438 C 1173.851562 2148.546875 1196.449219 2168.765625 1177.308594 2186.222656 C 1157.429688 2204.363281 1104.910156 2184.460938 1113.519531 2136.542969 C 1118.238281 2110.214844 1139.570312 2116.570312 1149.601562 2109.066406 C 1106.828125 2094.300781 1091.640625 2126.171875 1098.71875 2166.878906 C 1060.328125 2162.441406 1060.941406 2109.804688 1085.539062 2094.316406 C 1096.269531 2087.554688 1109.238281 2091.296875 1118.550781 2086.929688 C 1105.371094 2075.015625 1078.070312 2079.433594 1067.480469 2090.128906 C 1055.578125 2102.140625 1053.738281 2121.5 1054.699219 2142.128906 C 1031.398438 2136.78125 1031.628906 2107.949219 1040.890625 2088.253906 C 1050.148438 2068.566406 1064.191406 2064.621094 1091.601562 2064.917969 C 1079.269531 2051.585938 1053.910156 2054.285156 1040.019531 2065.335938 C 1024.691406 2077.519531 1026.238281 2092.984375 1020.289062 2116.496094 Z M 1223.96875 1769.019531 C 1227.691406 1772.210938 1225.28125 1769.511719 1228.738281 1773.691406 C 1230.578125 1775.890625 1230.199219 1775.449219 1232.328125 1778.671875 C 1240.199219 1790.578125 1243.578125 1796.808594 1254.25 1808.910156 C 1264.128906 1820.109375 1278.171875 1836.171875 1289.109375 1845.636719 C 1370.46875 1916.007812 1487.289062 1902.722656 1531.859375 1830.640625 C 1543.601562 1811.648438 1542.699219 1798.429688 1550.820312 1779.859375 C 1572.550781 1803.890625 1605.648438 1845.101562 1628.761719 1863.804688 C 1642.691406 1875.078125 1706.578125 1858.269531 1728.101562 1853.066406 C 1745.410156 1848.878906 1748.039062 1846.980469 1758.570312 1857.824219 C 1778.53125 1878.378906 1816.929688 1927.734375 1797.941406 1972.695312 C 1783.640625 2006.550781 1738.25 2033.746094 1713.371094 2050.058594 C 1718.050781 2060.28125 1724.148438 2062.382812 1723.878906 2074.773438 C 1702.558594 2080.066406 1693.949219 2070.457031 1678.121094 2064.5 C 1675.308594 2070.488281 1675.390625 2107.722656 1650.429688 2084.402344 C 1647.78125 2081.929688 1646.351562 2079.5625 1644.070312 2077.011719 C 1643.53125 2076.410156 1641.960938 2074.652344 1641.410156 2074.101562 C 1638.378906 2071.074219 1639.628906 2072.085938 1636.828125 2070.109375 C 1628.621094 2077.277344 1628.101562 2082.632812 1614.808594 2084.261719 C 1606.28125 2076.441406 1611.738281 2079.492188 1606.558594 2068.828125 C 1594.488281 2074.316406 1588.671875 2087.425781 1568.660156 2083.460938 C 1567.5 2070.472656 1571.648438 2070.527344 1574.328125 2058.3125 C 1557.078125 2058.492188 1544.089844 2060.617188 1528.679688 2057.199219 C 1530.671875 2040.722656 1542.53125 2042.828125 1554.261719 2038.113281 C 1564.199219 2020.851562 1562.488281 1999.28125 1576.28125 1983.589844 C 1584.390625 1983.785156 1589.96875 1985.109375 1598.199219 1985.917969 C 1624.621094 1988.507812 1619.578125 1983.015625 1622.171875 1980.828125 C 1571.5 1968.929688 1503.429688 1942.191406 1460.050781 1916.796875 C 1440.519531 1905.355469 1443.960938 1906.242188 1418.640625 1912.921875 C 1378.699219 1923.453125 1288.800781 1933.246094 1276.609375 1941.050781 C 1293.550781 1951.097656 1323.558594 1945.8125 1345.070312 1946.464844 C 1352.390625 1954.734375 1353.148438 1971.859375 1362.421875 1978.804688 C 1373.628906 1987.203125 1386.621094 1986.425781 1388.21875 2000.925781 C 1372 2007.78125 1361.488281 2002.488281 1345.871094 1999.730469 C 1349.230469 2006.746094 1350.789062 2010.300781 1349.449219 2019.847656 C 1332.710938 2024.320312 1323.5 2011.742188 1312.039062 2005.617188 C 1307.691406 2012.214844 1301.371094 2061.242188 1268.011719 2015.796875 C 1254.769531 2019.394531 1258.511719 2029.128906 1237.730469 2030.488281 L 1232.21875 2014.492188 C 1218.191406 2016.941406 1204.550781 2020.949219 1189.230469 2017.28125 C 1191.210938 2004.539062 1198.699219 2004.851562 1211.449219 1997.582031 L 1221.601562 1989.953125 C 1191.679688 1980.089844 1111.121094 1929.109375 1112.941406 1880.457031 C 1114.699219 1833.238281 1196.488281 1778.289062 1223.96875 1769.019531 Z M 1682.96875 1655.578125 C 1692.988281 1659.328125 1693.300781 1658.421875 1701.269531 1665.230469 C 1708.988281 1666.648438 1732.671875 1675.980469 1739.410156 1678.851562 C 1752.351562 1684.351562 1755.960938 1697.351562 1761.21875 1710.828125 L 1770.941406 1732.039062 C 1777.441406 1752.53125 1800.46875 1796.878906 1801.050781 1816.398438 C 1766.21875 1827.820312 1731.878906 1831.769531 1697.371094 1842.332031 L 1675.378906 1845.175781 C 1667.210938 1848.75 1652.011719 1850.601562 1642.339844 1849.871094 C 1630.03125 1838.941406 1624.601562 1832.808594 1614.730469 1822.75 C 1606.480469 1814.351562 1591.78125 1796.800781 1586.871094 1794.53125 C 1577.078125 1785.570312 1576.160156 1784.308594 1569.328125 1772.460938 C 1556.109375 1754.699219 1540.03125 1735.769531 1525.539062 1716.511719 C 1492.320312 1672.398438 1473.070312 1642.410156 1442.648438 1595.898438 C 1435.480469 1584.949219 1429.328125 1575.449219 1422.441406 1563.648438 C 1416.679688 1553.769531 1408.371094 1541.570312 1403.429688 1530.941406 C 1404.710938 1529.941406 1440.070312 1514.628906 1444.160156 1513.460938 L 1497.929688 1554.078125 C 1517.269531 1567.351562 1536.71875 1578.71875 1557.609375 1590.871094 C 1579.898438 1603.839844 1661.058594 1650.910156 1682.96875 1655.578125 Z M 1455.148438 1506.921875 C 1466.761719 1467.03125 1459.75 1481.621094 1502.671875 1465.511719 C 1598.558594 1429.539062 1646.859375 1365.640625 1656.429688 1360.21875 C 1685.761719 1437.910156 1686.820312 1533.03125 1630.828125 1582.691406 C 1605.730469 1604.949219 1609.78125 1604.941406 1541.570312 1562.890625 Z M 1175.351562 1481.960938 C 1192.320312 1478.429688 1198.078125 1473.828125 1204.890625 1462.320312 C 1213.550781 1447.679688 1211.550781 1441.339844 1215.558594 1431.808594 L 1218.871094 1426.410156 C 1235.421875 1450.121094 1241.238281 1474.75 1217.789062 1499.890625 C 1207.46875 1510.949219 1178.378906 1536.621094 1153.199219 1532.570312 C 1155.03125 1525.578125 1161.75 1524.46875 1168.429688 1511.101562 C 1173.011719 1501.921875 1174.039062 1493.320312 1175.351562 1481.960938 Z M 1356.808594 1462.128906 C 1369.789062 1448.738281 1395.960938 1441.351562 1417.25 1438.699219 C 1457.949219 1433.640625 1452.160156 1454.171875 1446.488281 1486.460938 C 1443.480469 1503.621094 1441.460938 1504.089844 1425.171875 1509.378906 C 1416.089844 1512.328125 1401.601562 1517.21875 1390.148438 1513.449219 C 1378.71875 1509.691406 1357.429688 1477.898438 1356.808594 1462.128906 Z M 1427.761719 1425.578125 C 1399.03125 1424.480469 1389.449219 1432.679688 1367.210938 1435.761719 L 1354.238281 1403.28125 C 1407.070312 1411.851562 1422.199219 1412.171875 1477.089844 1409.699219 C 1453.609375 1433.828125 1444.21875 1426.199219 1427.761719 1425.578125 Z M 1345.671875 1453.78125 C 1325.828125 1447.160156 1274.550781 1387.539062 1271.539062 1366.898438 C 1289.410156 1377.5 1304.488281 1384.109375 1326.011719 1393.21875 C 1338.839844 1398.648438 1350.238281 1429.171875 1355.429688 1443.21875 Z M 980.808594 1537.289062 C 906.503906 1554.988281 843.613281 1508.640625 839.1875 1440.101562 C 834.277344 1364.03125 888.628906 1316.300781 943.863281 1297.578125 C 977.59375 1286.140625 1017.46875 1281.378906 1056.050781 1286.109375 C 1100.730469 1291.578125 1079.550781 1279.488281 1105.988281 1278.769531 C 1163.730469 1277.210938 1241.039062 1453.269531 1177.171875 1465.910156 C 1175.351562 1463.191406 1176.558594 1466.160156 1174 1459.75 L 1165.210938 1430.011719 C 1155.511719 1405.160156 1128.210938 1360.691406 1103.949219 1358.691406 C 1121.441406 1379.011719 1137.550781 1398.980469 1149.230469 1432.238281 C 1159.570312 1461.71875 1169.328125 1512.390625 1130.378906 1518.691406 L 1125.070312 1497.769531 C 1118.480469 1461.949219 1093.480469 1413.910156 1061.328125 1403.730469 C 1065.160156 1412.359375 1069.128906 1415.269531 1075.210938 1423.71875 C 1109.699219 1471.628906 1138.390625 1563.558594 1072.421875 1564.640625 C 1075.78125 1516.359375 1045.820312 1465.058594 1017.730469 1451.730469 C 1021.058594 1463.371094 1036.238281 1483.238281 1043.25 1499.820312 C 1091.820312 1614.699219 986.734375 1601.75 970.808594 1552.070312 C 985.378906 1554.230469 981.804688 1561.269531 997.691406 1563.910156 C 993.464844 1554.578125 986.09375 1545.628906 980.808594 1537.289062 Z M 1163.660156 1291.46875 C 1169.179688 1284.480469 1175.730469 1278.941406 1185.429688 1274.941406 C 1203.398438 1283.75 1206.949219 1298.578125 1218.710938 1316 C 1233.179688 1337.449219 1239.148438 1334.261719 1251.460938 1360.429688 C 1288.199219 1438.488281 1321.71875 1449.648438 1336.648438 1465.171875 C 1346.210938 1475.101562 1340.199219 1485.128906 1365.621094 1513.21875 C 1373.890625 1522.359375 1378.941406 1523.539062 1386.191406 1531.101562 C 1388.089844 1533.078125 1441.730469 1627.421875 1442.679688 1630.210938 C 1406.261719 1624.828125 1378.328125 1600.398438 1364.5 1596.570312 C 1378.539062 1643.328125 1451.03125 1644.140625 1462.710938 1658.238281 L 1516.039062 1734.351562 C 1520.859375 1740.710938 1527.488281 1747.46875 1530.75 1752.628906 C 1539.058594 1765.78125 1529.5 1789.011719 1523.480469 1802.929688 C 1510.910156 1832.039062 1488.578125 1855.386719 1456.660156 1865.398438 C 1372.578125 1891.777344 1311.519531 1847.160156 1277.371094 1804.980469 C 1257.558594 1780.511719 1241.71875 1759.640625 1226.03125 1727 C 1214.289062 1702.570312 1197.058594 1656.539062 1197.140625 1625.128906 C 1232.199219 1627.070312 1276.460938 1625.148438 1289.25 1597.238281 C 1266.570312 1599.488281 1236.328125 1620.058594 1180.851562 1601.570312 C 1163.128906 1595.660156 1153.421875 1585.378906 1144.101562 1574.941406 C 1135.160156 1564.941406 1119.191406 1547.441406 1130.378906 1534.421875 C 1145.289062 1539.050781 1144.78125 1554.738281 1171.578125 1547.46875 C 1220.050781 1534.328125 1287.390625 1461.070312 1226.261719 1410.308594 C 1201.320312 1389.601562 1215.25 1378.648438 1187.5 1327.890625 C 1178.808594 1311.988281 1170.871094 1303.351562 1163.660156 1291.46875 Z M 1464.78125 1437.351562 C 1472.171875 1431.070312 1484.179688 1424.558594 1491.699219 1418.828125 C 1543.050781 1379.78125 1540.859375 1395.578125 1582.53125 1369.449219 C 1618.328125 1347.011719 1653.730469 1314.589844 1679.738281 1281.230469 C 1668.199219 1324.53125 1621.351562 1369.960938 1594.800781 1392.578125 C 1572.441406 1411.621094 1500.828125 1456.050781 1468.011719 1462.800781 Z M 1235.019531 1217.890625 C 1233.691406 1176.300781 1239.300781 1126.679688 1249.851562 1088.859375 C 1308.589844 1077.359375 1385.03125 1108.949219 1431.578125 1127.871094 C 1473.238281 1144.800781 1548.988281 1185.269531 1596.710938 1182.640625 C 1575.898438 1224.039062 1491.339844 1246.738281 1429.75 1251.5 C 1362.800781 1256.671875 1287.429688 1242.011719 1235.019531 1217.890625 Z M 1091.851562 1132.210938 C 1114.429688 1111.488281 1163.488281 1072.820312 1195.640625 1102.371094 C 1206.078125 1111.980469 1212.761719 1112.769531 1225.46875 1120.820312 L 1221.140625 1160.019531 C 1172.511719 1163.378906 1142.828125 1189.519531 1155.03125 1231.109375 C 1159.28125 1245.601562 1167.140625 1250.191406 1171.101562 1261.460938 L 1148.75 1276.839844 C 1139.5 1271.289062 1131.460938 1264.878906 1117.910156 1262.441406 C 1098.078125 1258.859375 1093.679688 1265.320312 1081.308594 1270.03125 C 1074.269531 1272.710938 1050.648438 1270.390625 1043.429688 1265.300781 C 1035.828125 1259.941406 1012.449219 1221.179688 968.574219 1205.519531 C 952.679688 1199.851562 918.785156 1193.25 902.152344 1203.671875 C 895.683594 1207.730469 899.175781 1205.199219 895.519531 1209.730469 C 949.675781 1206.550781 1002.25 1235.269531 1018.300781 1267.429688 C 973.667969 1268.96875 930.398438 1281.660156 898.195312 1301.53125 C 783.84375 1372.050781 788.921875 1553.300781 954.3125 1556.640625 C 957.460938 1560.429688 957.875 1562.238281 961.488281 1566.878906 C 957.722656 1573.660156 961.984375 1570.660156 950.433594 1570.601562 L 952.488281 1592.648438 C 929.40625 1592.359375 914.226562 1572.648438 903.351562 1559.308594 L 896.425781 1573.929688 C 879.347656 1573.148438 875.71875 1563.238281 866.148438 1553.488281 C 859.035156 1564.710938 865.460938 1564.769531 852.386719 1571.738281 C 837.609375 1567.199219 833.109375 1547.828125 829.011719 1529.578125 C 817.726562 1479.289062 797.523438 1505.070312 752.292969 1413.589844 C 737.058594 1382.78125 729.171875 1343.019531 734.304688 1302.628906 C 742.222656 1240.328125 771.75 1231.078125 780.203125 1219.339844 C 767.871094 1219.769531 766.820312 1221.710938 756.574219 1224.789062 C 757.195312 1190.199219 781.476562 1171.589844 816.558594 1172.761719 C 853.613281 1174 843.714844 1164.03125 896.078125 1142.558594 C 975.429688 1110.03125 1029.800781 1130.171875 1091.851562 1132.210938 Z M 1683.660156 1060.269531 C 1691.390625 1045.339844 1716.199219 1018.53125 1730.539062 1010.898438 C 1758.878906 995.828125 1784.660156 1006.378906 1791.699219 1035.011719 C 1803.558594 1083.160156 1766.609375 1154.738281 1726.878906 1152.070312 C 1720.140625 1098.539062 1708.011719 1100.449219 1721.039062 1081.359375 C 1727.019531 1072.589844 1726.488281 1070.191406 1738.859375 1071.53125 C 1750.480469 1092.648438 1732.769531 1098.660156 1726.191406 1108.179688 C 1752.351562 1103.101562 1762.589844 1079.070312 1747.339844 1062.660156 C 1746.921875 1062.199219 1746.21875 1061.589844 1745.820312 1061.179688 L 1741 1056.570312 C 1747.488281 1051.230469 1761.171875 1043.378906 1765.640625 1036.328125 C 1739.371094 1036.078125 1712.199219 1063.5 1706.601562 1080.28125 C 1699.621094 1076.328125 1688.511719 1066.558594 1683.660156 1060.269531 Z M 1362.5 966.730469 C 1381.550781 904.960938 1418.46875 966.78125 1422.140625 971.480469 C 1458.351562 962.710938 1511.949219 942.289062 1503.761719 1003.730469 C 1531.300781 1004.070312 1557.949219 1011.300781 1577.289062 1023.449219 C 1590.410156 1031.699219 1615.859375 1056.421875 1622.300781 1068.351562 C 1668.328125 1066.609375 1688.03125 1077.988281 1700.449219 1115.03125 C 1712.851562 1152.039062 1706.398438 1187.039062 1691.5 1219.488281 C 1593.378906 1433.050781 1326.25 1435.289062 1225.179688 1298.078125 C 1250.128906 1300.011719 1275.21875 1314.871094 1305.5 1304.339844 C 1298.558594 1298.691406 1257.808594 1290.28125 1245.988281 1285.898438 C 1140.539062 1246.890625 1161.671875 1167.410156 1220.238281 1176.140625 C 1220.070312 1205.421875 1216.160156 1189.101562 1211.929688 1204.839844 C 1199.921875 1249.621094 1363.550781 1269.441406 1402.871094 1269.378906 C 1467.988281 1269.289062 1564.949219 1248.230469 1604.519531 1198.480469 C 1628.601562 1226.238281 1633.121094 1152.140625 1573.738281 1150.859375 C 1578.03125 1160.101562 1582.949219 1161.140625 1587.148438 1169.488281 C 1539.941406 1165.53125 1450.441406 1116.578125 1403.480469 1098.199219 C 1364.011719 1082.75 1289.289062 1061.441406 1244.671875 1070.328125 C 1209.910156 1077.25 1231.578125 1093.640625 1230.960938 1103.320312 C 1214.351562 1104.578125 1191.089844 1075.160156 1193.878906 1052.328125 C 1197.929688 1019.238281 1223.441406 1025.21875 1252.949219 1020.910156 C 1249.210938 1017.480469 1246.078125 1013.929688 1243.191406 1010.140625 C 1258.96875 999.28125 1267.238281 987.011719 1290.851562 975.730469 C 1313.03125 965.128906 1335.238281 964.21875 1362.5 966.730469 Z M 1547.46875 972 C 1563.390625 974.710938 1563.210938 983.300781 1546.390625 986.28125 Z M 1566.148438 1001.480469 C 1572.878906 989.148438 1579.730469 971.320312 1560.929688 965.300781 C 1535.601562 957.191406 1534.429688 983.160156 1533.429688 987.671875 C 1533.308594 988.230469 1532.941406 990.300781 1532.851562 989.921875 C 1532.761719 989.558594 1532.578125 991.449219 1532.238281 992.011719 L 1517.28125 991.378906 C 1520.050781 959.53125 1509.671875 967.53125 1501.5 950.171875 C 1508 933.710938 1514.789062 928.46875 1534.859375 929.148438 C 1554.101562 929.808594 1563.859375 927.238281 1576.390625 939.019531 C 1596.46875 957.910156 1598.621094 1012.511719 1566.148438 1001.480469 Z M 1435.308594 948.21875 C 1435.339844 940.960938 1437.621094 933.460938 1443.609375 939.679688 C 1451.539062 947.910156 1440.710938 947.761719 1435.308594 948.21875 Z M 1339.890625 949.339844 C 1336.050781 932.910156 1339.210938 910.128906 1357.601562 913.019531 C 1359.011719 933.269531 1362.21875 931.390625 1355.140625 949.660156 Z M 1617.589844 922.46875 C 1615.511719 939.359375 1616.328125 958.238281 1606.558594 971.179688 C 1603.398438 965.628906 1601.550781 953.820312 1598.488281 947.109375 C 1593.929688 937.140625 1590.589844 936.019531 1585.039062 927.511719 Z M 1438.339844 906.390625 C 1444.25 909.699219 1480.089844 918.050781 1459.859375 949.289062 C 1455.078125 938.140625 1455.480469 928.171875 1439.128906 930.78125 C 1432.378906 931.859375 1430.101562 934.421875 1427.660156 939.078125 C 1425.359375 943.449219 1426.570312 942.519531 1424.921875 947.011719 C 1422.78125 952.808594 1425.261719 948.921875 1422.390625 952.808594 C 1415.769531 939.328125 1406.941406 937.121094 1397.101562 928.148438 C 1397.691406 914.269531 1402.511719 905.460938 1411.558594 900.679688 C 1424.601562 893.808594 1427.390625 900.25 1438.339844 906.390625 Z M 1493.109375 938.351562 C 1485.441406 953.269531 1495.460938 947.101562 1479.941406 948.941406 C 1476.171875 943.789062 1478.410156 949.371094 1476.519531 941.800781 L 1475.089844 920.691406 L 1500.96875 926.460938 C 1496.308594 932.46875 1497.140625 930.511719 1493.109375 938.351562 Z M 2140.53125 969.109375 C 2156.621094 972.820312 2147.800781 976.21875 2160.699219 989.699219 C 2166.800781 974.039062 2169.988281 952.910156 2187.320312 949.191406 C 2200.320312 955.898438 2195.308594 961.410156 2203.828125 971.589844 C 2213.078125 954.050781 2196.621094 940.488281 2193.371094 930.210938 C 2188.070312 913.449219 2185.070312 895.578125 2203.828125 893.878906 C 2212.460938 901.289062 2213.628906 913.488281 2214.730469 925.539062 C 2216.679688 947.078125 2214.519531 943.121094 2224.960938 956.5 C 2262.789062 1004.960938 2297.691406 1062.058594 2311.898438 1126.058594 C 2334.96875 1230 2314.320312 1331.078125 2257.550781 1392 C 2218.53125 1433.871094 2178.261719 1433.738281 2132.25 1420.5 C 2120.601562 1417.148438 2123.171875 1421.828125 2106.660156 1433.828125 C 2016.449219 1499.449219 1881.839844 1509.039062 1778.101562 1447.441406 C 1768.148438 1441.53125 1761.738281 1435.140625 1751.550781 1431.109375 L 1744.128906 1445.609375 C 1757.808594 1459.460938 1775.878906 1465.671875 1794.21875 1478.640625 C 1794.398438 1534.878906 1702.53125 1634.859375 1685.898438 1636.628906 C 1676.230469 1637.648438 1637.488281 1615.121094 1626.109375 1610.21875 C 1643.578125 1591.089844 1653.539062 1588.898438 1669.921875 1561.261719 C 1680.410156 1543.550781 1689.699219 1519.03125 1693.679688 1494.488281 C 1706.921875 1412.78125 1678.160156 1377.390625 1669.769531 1341.019531 C 1717.800781 1279.171875 1701.171875 1251.640625 1715.308594 1213.070312 C 1720.421875 1199.101562 1723.140625 1183.941406 1725.71875 1167.878906 C 1779.421875 1168.269531 1789.449219 1119.101562 1801.980469 1103.921875 C 1818.929688 1107.808594 1832.070312 1118.238281 1840.328125 1129.078125 C 1836.308594 1138.980469 1834.019531 1137.378906 1831.261719 1152.191406 C 1843.660156 1145.210938 1849.460938 1137.738281 1862.808594 1131.859375 C 1899.921875 1115.519531 1954.710938 1114.441406 1986.148438 1134.589844 C 1988.179688 1156.078125 1984.769531 1175.671875 1988.511719 1198.980469 C 1995.058594 1239.691406 2021.890625 1311.238281 2058.460938 1322.78125 C 2054.28125 1308.621094 2040.78125 1290.710938 2033.210938 1274.878906 C 1994.941406 1194.890625 2007.640625 1166.628906 2009.308594 1093.300781 C 1992.441406 1081.859375 1978.738281 1082.878906 1978.171875 1062.320312 C 1998.300781 1050.75 2019.910156 1059.351562 2044.390625 1060.949219 C 2040.109375 1050.820312 2032.800781 1049.820312 2038.691406 1038.339844 C 2056.898438 1029.511719 2081.058594 1038.761719 2099.238281 1041.878906 C 2099.128906 1022.21875 2095.730469 1016.511719 2105.21875 1003.210938 C 2122.941406 1003.738281 2118.308594 1012.21875 2127.589844 1017.050781 C 2129.851562 1000.328125 2127.339844 978.679688 2140.53125 969.109375 Z M 1375.351562 929.351562 C 1365.621094 913.628906 1380.589844 869.789062 1390.21875 852.25 C 1398.761719 836.710938 1426.230469 806.28125 1445.660156 833.058594 C 1456.449219 847.929688 1446.640625 848.691406 1466.96875 858.511719 C 1525.929688 886.980469 1541.550781 875.070312 1574.859375 860.621094 C 1623.351562 839.589844 1690.820312 831.261719 1683.621094 914.351562 C 1679.28125 964.398438 1639.261719 1008.519531 1606.558594 1024.761719 C 1600.070312 1021.539062 1595.640625 1017.429688 1589.929688 1013.980469 C 1618.738281 975.089844 1624.691406 983.421875 1631.960938 917.140625 C 1642.539062 909.011719 1644.679688 912.039062 1651.25 900.050781 C 1628.789062 903.640625 1609.820312 911.320312 1584.488281 914.011719 C 1559.648438 916.640625 1534.171875 915.148438 1510.101562 911.769531 C 1439.71875 901.878906 1437.160156 887.308594 1402.820312 863.761719 C 1403.460938 877.578125 1404.460938 876.121094 1409.75 886.871094 L 1402.980469 892.328125 C 1384.03125 906.351562 1391.609375 906.210938 1384.929688 920.960938 C 1379.929688 932.011719 1390.171875 925.320312 1375.351562 929.351562 Z M 1716.648438 811.5 C 1724.339844 798.851562 1713.261719 792.320312 1730.699219 788.050781 C 1742.308594 785.210938 1757.421875 785.691406 1767.101562 789.320312 C 1771.148438 798.511719 1760.859375 803.820312 1753.398438 829.949219 C 1748.671875 846.511719 1748.089844 865.96875 1749.011719 884.148438 C 1750.898438 921.769531 1762.148438 949.339844 1762.03125 987.601562 C 1703.671875 989.289062 1683.929688 1037.21875 1667.148438 1053.691406 L 1628.578125 1051.148438 C 1623.328125 1041.21875 1622.601562 1047.269531 1619.101562 1034.179688 C 1688.300781 1001.988281 1732.71875 888.550781 1680.910156 845.621094 C 1652.03125 821.691406 1593.699219 833.820312 1563.859375 849.761719 C 1536.238281 864.5 1544.171875 867.921875 1505.78125 858.199219 C 1470.820312 849.339844 1467.019531 847.441406 1462.839844 827.839844 C 1504.96875 807.800781 1519.160156 788.378906 1594.070312 798.058594 C 1607.359375 799.78125 1625.601562 805.570312 1636.058594 806.03125 C 1624.039062 791.691406 1612.488281 792.410156 1598.640625 782.269531 C 1610.730469 706.390625 1581.511719 723.421875 1548.828125 735.648438 C 1550.261719 679.539062 1650.730469 653.898438 1694.78125 749.019531 C 1700.640625 761.679688 1712.078125 804.761719 1716.648438 811.5 Z M 1835.109375 745.121094 C 1834.160156 704.628906 1894.769531 667.710938 1928.738281 655.820312 C 1978.558594 638.390625 1989.25 664.808594 2010.808594 697.25 C 2017.679688 707.570312 2026.171875 708.660156 2036.488281 715.671875 C 2087 749.941406 2156.660156 846.179688 2179.21875 930.910156 C 2167.871094 942.671875 2164.390625 941.101562 2157.949219 958.71875 C 2149.910156 953.890625 2140.308594 945.019531 2129.390625 955.460938 C 2121.949219 962.578125 2119.371094 974.769531 2118.230469 986.921875 C 2090.601562 980.101562 2086.28125 995.140625 2085.949219 1023.070312 C 2008.441406 1010.210938 2028.191406 1030.398438 2016.671875 1043.539062 C 1986.429688 1038.820312 1966.550781 1035.199219 1941.320312 1003.511719 C 1923.238281 980.800781 1910.640625 961.640625 1905.171875 924.058594 L 1869.359375 940.429688 C 1867.289062 941.460938 1865.988281 942.148438 1864.101562 943.449219 C 1859.988281 946.261719 1862.160156 944.550781 1859.761719 947.421875 C 1870.25 953.429688 1879.441406 950.351562 1890.359375 947.628906 L 1897.851562 979.980469 C 1874.53125 993.710938 1859.039062 987.050781 1843.339844 969.480469 C 1793.328125 913.539062 1847.539062 854.578125 1916.011719 841.601562 C 1893.871094 820.871094 1842.621094 859.820312 1836.128906 863.570312 C 1832.371094 865.730469 1834.941406 864.390625 1831.589844 865.25 C 1823.871094 867.21875 1811.191406 831.738281 1864.941406 795.671875 C 1877.089844 787.511719 1887.21875 782.058594 1900.628906 776.320312 C 1911.78125 771.550781 1927.570312 768.121094 1935.859375 761.601562 C 1905.851562 756.050781 1867.378906 773.03125 1845.191406 789.730469 C 1835.449219 797.058594 1833.179688 803.550781 1824 806.828125 C 1805.058594 758.800781 1934.078125 712.761719 1937.28125 710.710938 C 1931.550781 707.210938 1927.089844 705.671875 1906.351562 710.578125 C 1868.980469 719.429688 1853.699219 738.421875 1835.109375 745.121094 Z M 714.765625 1314.78125 L 714.765625 1354.789062 C 719.828125 1365.878906 720.632812 1381.621094 724.808594 1394.289062 C 728.902344 1406.691406 733.921875 1419.480469 739.085938 1429.671875 C 749.097656 1449.441406 768.371094 1477.871094 780.730469 1489.800781 C 787.316406 1496.160156 787.046875 1495.710938 793.082031 1502.089844 C 818.089844 1528.550781 806.328125 1499.46875 820.167969 1549.371094 C 827.007812 1574.039062 852.109375 1611.761719 868.589844 1574.761719 C 901.648438 1597.269531 887.273438 1592 910.855469 1582.550781 C 917.347656 1592.988281 939.203125 1613.441406 961.328125 1606.910156 C 968.328125 1594.480469 964.027344 1594.75 964.027344 1581.988281 C 983.117188 1587.488281 1008.800781 1619.019531 1048.238281 1600.238281 C 1061.050781 1594.140625 1059.769531 1591.789062 1068.03125 1581.46875 C 1095.308594 1586.671875 1098.371094 1578.300781 1114.410156 1569.390625 C 1131.980469 1603.570312 1141.609375 1604.109375 1176.148438 1622.339844 C 1182.558594 1697.960938 1204.898438 1716.078125 1213.578125 1751.230469 C 1183.628906 1762.671875 1135.300781 1799.441406 1116.078125 1824.96875 C 1107.339844 1836.59375 1100.230469 1844.617188 1095.320312 1862.015625 C 1074.761719 1935.039062 1166.878906 1974.652344 1186.109375 1993.347656 C 1167.121094 2012.269531 1170.730469 2006.449219 1139.640625 2010.96875 C 1119.578125 2013.886719 1108.039062 2018.910156 1092.558594 2027.316406 C 1071.03125 2039.007812 1076.800781 2019.121094 1040.789062 2027.742188 C 1023.828125 2031.804688 1011.378906 2042.5625 1004.308594 2054.460938 C 996.96875 2066.808594 991.746094 2087.101562 994.59375 2104.4375 C 999.199219 2132.441406 1015.148438 2134.449219 1023.03125 2139.121094 C 1035.789062 2146.691406 1029.960938 2154.144531 1049.390625 2159.1875 C 1079.890625 2167.105469 1055.121094 2187.820312 1108.191406 2183.554688 C 1124.300781 2214.90625 1203.269531 2225.3125 1199.628906 2166.910156 L 1245.980469 2165.710938 C 1283.128906 2214 1315.929688 2175.449219 1352.609375 2160.664062 C 1365.5 2155.46875 1384.238281 2157.890625 1397.640625 2153.285156 C 1458.839844 2132.269531 1431.21875 2038.902344 1397.96875 2014.796875 C 1405.648438 1998.460938 1403.71875 1988.253906 1389.871094 1978.792969 C 1372.28125 1966.777344 1371.601562 1970.214844 1366.890625 1943.804688 C 1380.730469 1937.601562 1402.808594 1936.171875 1418.648438 1932.136719 C 1449.589844 1924.265625 1441.660156 1926.828125 1464.730469 1939.777344 C 1495.078125 1956.8125 1520.300781 1966.476562 1555.828125 1977.972656 C 1546.480469 1998.996094 1547.660156 2007.914062 1541.511719 2027.222656 C 1535.28125 2035.390625 1493.460938 2042.234375 1527.761719 2073.167969 C 1511.601562 2104.578125 1507.730469 2095.492188 1472.730469 2104.535156 C 1428.191406 2116.042969 1424.640625 2188.011719 1477.429688 2202.277344 C 1510.960938 2211.339844 1523.300781 2199.773438 1549.03125 2194.210938 C 1568.148438 2217.566406 1607.488281 2232.273438 1648.640625 2232.9375 C 1648.578125 2254.355469 1651.710938 2265.160156 1667.539062 2276.40625 L 1678.269531 2282.816406 C 1678.828125 2283.140625 1679.789062 2283.691406 1680.25 2283.953125 C 1680.730469 2284.222656 1681.621094 2284.683594 1682.28125 2285.105469 L 1710.730469 2285.105469 C 1723.691406 2276.613281 1729.910156 2277.800781 1737.46875 2264.445312 C 1766.339844 2270.546875 1775.941406 2282.648438 1807.480469 2246.300781 C 1833.53125 2253.03125 1848.121094 2240.71875 1853.679688 2218.972656 C 1909.941406 2220.523438 1903.25 2139.332031 1862.089844 2120.402344 C 1847.078125 2113.496094 1838.769531 2117.269531 1827.871094 2113.554688 C 1817.570312 2110.035156 1792.859375 2077.347656 1741.460938 2070.527344 L 1736.660156 2054.292969 C 1768.710938 2038.222656 1811.28125 2005.890625 1820.589844 1967.859375 C 1833.800781 1913.921875 1794.410156 1874.53125 1774.191406 1844.714844 L 1824.941406 1828.601562 C 1821.058594 1802.121094 1771.101562 1678.070312 1760.460938 1668.761719 C 1750.738281 1660.261719 1720.511719 1656.46875 1709.179688 1646.539062 L 1742.878906 1614.910156 C 1773.730469 1583.199219 1806.238281 1534.730469 1812.078125 1486.699219 C 1840.761719 1493.898438 1859.089844 1503.039062 1892.648438 1506.839844 C 1968.839844 1515.460938 2046.070312 1496.109375 2110.058594 1456.371094 C 2150.519531 1431.25 2125.210938 1446.410156 2167.941406 1448.929688 C 2183.859375 1449.871094 2197.980469 1447.960938 2212.769531 1443.511719 C 2273.539062 1425.191406 2310.449219 1368.039062 2327.988281 1308.339844 C 2331.738281 1295.589844 2333.179688 1277.191406 2338.699219 1266.148438 L 2338.699219 1161.171875 C 2335.371094 1153.980469 2330.890625 1125.28125 2328.171875 1114.828125 C 2298.691406 1001.351562 2235.691406 956.671875 2231.011719 931.269531 C 2222.390625 884.5 2221.011719 865.171875 2182.089844 887.421875 C 2167.878906 834.949219 2120.921875 773.03125 2094.140625 743.289062 C 2069.171875 715.558594 2033.761719 697 2029.859375 691.980469 C 2000.648438 654.449219 2026.960938 664.78125 1974.058594 633.640625 L 1943.191406 633.640625 C 1916.71875 648.890625 1899.660156 647.03125 1861.519531 676.730469 C 1840.589844 693.03125 1814.039062 722.210938 1819.171875 754.050781 C 1822.75 776.308594 1799.96875 778.558594 1810.011719 815.789062 C 1815.449219 835.960938 1808.75 831.171875 1808.851562 851.109375 C 1808.929688 866.699219 1816.691406 876.878906 1817.101562 884.648438 C 1817.890625 899.640625 1801.039062 914.511719 1812.050781 948.25 C 1818.761719 968.789062 1833.710938 985.371094 1848.328125 994.648438 C 1881.871094 1015.921875 1895.550781 999.21875 1907.828125 992.839844 C 1917.269531 1019.421875 1939.910156 1029.660156 1964.671875 1046.511719 C 1964.308594 1047.101562 1963.71875 1047.839844 1963.46875 1048.210938 L 1960.109375 1053.421875 C 1954.429688 1064.328125 1957.308594 1071.601562 1965.628906 1080.960938 C 1984.910156 1102.628906 1990.378906 1092.609375 1990.378906 1109.808594 C 1985.351562 1112.539062 1990.21875 1111.808594 1982.421875 1111.058594 C 1982.359375 1111.058594 1974.640625 1108.691406 1974.191406 1108.539062 C 1913.148438 1087.828125 1884.199219 1110 1853.078125 1118.449219 C 1845.398438 1108.890625 1841.28125 1104.511719 1830.859375 1097.421875 C 1821.648438 1091.148438 1811.699219 1088.140625 1805.988281 1082.289062 C 1814.078125 1042.691406 1807.28125 1015.671875 1779.359375 991.460938 C 1777.109375 930.878906 1765.140625 915.921875 1763.660156 884.160156 C 1761.339844 834.378906 1780.148438 815.199219 1791.289062 786.640625 C 1759.101562 764.871094 1758.238281 773.351562 1719.398438 776.261719 C 1707.101562 748.128906 1706.589844 733.449219 1689.011719 710.800781 C 1625.71875 629.261719 1515.359375 679.621094 1533.148438 756.589844 C 1545.960938 750.699219 1565.238281 735.761719 1582.828125 742.601562 C 1590.421875 756.789062 1585.890625 767.988281 1577.800781 781.011719 C 1511.949219 782.398438 1498.261719 786.230469 1454.261719 817.011719 C 1429.878906 797.589844 1402.960938 807.71875 1387.949219 827.839844 C 1369.199219 852.980469 1371.238281 864.878906 1359.320312 893.96875 C 1356.980469 897.050781 1348.871094 896.910156 1342.230469 900.558594 C 1327.300781 908.78125 1325.351562 934.238281 1326.128906 950.460938 C 1285.851562 954.300781 1253.28125 977.71875 1233.121094 997.828125 C 1221.691406 1009.230469 1228.570312 1005.941406 1210.390625 1011.039062 C 1171.109375 1022.058594 1177.238281 1054.75 1175.808594 1075.308594 C 1148.378906 1076.410156 1125.738281 1085.328125 1106.53125 1096.929688 C 1067.691406 1120.378906 1099.28125 1116.128906 1039.941406 1108.898438 C 901.789062 1092.089844 855.449219 1156.910156 822.28125 1156.730469 C 725.453125 1156.210938 746.800781 1227.601562 735.769531 1249.148438 C 730.210938 1260.019531 726.484375 1266.761719 722.425781 1279.859375 C 719.269531 1290.039062 717.714844 1306.648438 714.765625 1314.78125 "/>
<path fill-rule="evenodd" fill="rgb(40.989685%, 23.997498%, 15.989685%)" fill-opacity="1" d="M 2203.828125 971.589844 C 2195.308594 961.410156 2200.320312 955.898438 2187.320312 949.191406 C 2169.988281 952.910156 2166.800781 974.039062 2160.699219 989.699219 C 2147.800781 976.21875 2156.621094 972.820312 2140.53125 969.109375 C 2127.339844 978.679688 2129.851562 1000.328125 2127.589844 1017.050781 C 2118.308594 1012.21875 2122.941406 1003.738281 2105.21875 1003.210938 C 2095.730469 1016.511719 2099.128906 1022.21875 2099.238281 1041.878906 C 2081.058594 1038.761719 2056.898438 1029.511719 2038.691406 1038.339844 C 2032.800781 1049.820312 2040.109375 1050.820312 2044.390625 1060.949219 C 2019.910156 1059.351562 1998.300781 1050.75 1978.171875 1062.320312 C 1978.738281 1082.878906 1992.441406 1081.859375 2009.308594 1093.300781 C 2007.640625 1166.628906 1994.941406 1194.890625 2033.210938 1274.878906 C 2040.78125 1290.710938 2054.28125 1308.621094 2058.460938 1322.78125 C 2021.890625 1311.238281 1995.058594 1239.691406 1988.511719 1198.980469 C 1984.769531 1175.671875 1988.179688 1156.078125 1986.148438 1134.589844 C 1954.710938 1114.441406 1899.921875 1115.519531 1862.808594 1131.859375 C 1849.460938 1137.738281 1843.660156 1145.210938 1831.261719 1152.191406 C 1834.019531 1137.378906 1836.308594 1138.980469 1840.328125 1129.078125 C 1832.070312 1118.238281 1818.929688 1107.808594 1801.980469 1103.921875 C 1789.449219 1119.101562 1779.421875 1168.269531 1725.71875 1167.878906 C 1723.140625 1183.941406 1720.421875 1199.101562 1715.308594 1213.070312 C 1701.171875 1251.640625 1717.800781 1279.171875 1669.769531 1341.019531 C 1678.160156 1377.390625 1706.921875 1412.78125 1693.679688 1494.488281 C 1689.699219 1519.03125 1680.410156 1543.550781 1669.921875 1561.261719 C 1653.539062 1588.898438 1643.578125 1591.089844 1626.109375 1610.21875 C 1637.488281 1615.121094 1676.230469 1637.648438 1685.898438 1636.628906 C 1702.53125 1634.859375 1794.398438 1534.878906 1794.21875 1478.640625 C 1775.878906 1465.671875 1757.808594 1459.460938 1744.128906 1445.609375 L 1751.550781 1431.109375 C 1761.738281 1435.140625 1768.148438 1441.53125 1778.101562 1447.441406 C 1881.839844 1509.039062 2016.449219 1499.449219 2106.660156 1433.828125 C 2123.171875 1421.828125 2120.601562 1417.148438 2132.25 1420.5 C 2178.261719 1433.738281 2218.53125 1433.871094 2257.550781 1392 C 2314.320312 1331.078125 2334.96875 1230 2311.898438 1126.058594 C 2297.691406 1062.058594 2262.789062 1004.960938 2224.960938 956.5 C 2214.519531 943.121094 2216.679688 947.078125 2214.730469 925.539062 C 2213.628906 913.488281 2212.460938 901.289062 2203.828125 893.878906 C 2185.070312 895.578125 2188.070312 913.449219 2193.371094 930.210938 C 2196.621094 940.488281 2213.078125 954.050781 2203.828125 971.589844 "/>
<path fill-rule="evenodd" fill="rgb(91.014099%, 73.046875%, 52.929688%)" fill-opacity="1" d="M 1432.839844 999.449219 C 1436.539062 988.679688 1442.070312 984.101562 1454.191406 979.488281 C 1466.28125 974.890625 1474.898438 973.738281 1486.421875 980.570312 L 1484.21875 993.058594 C 1473.019531 992.960938 1472.949219 988.628906 1456.140625 992.601562 C 1447.28125 994.691406 1441.871094 997.839844 1432.839844 999.449219 Z M 1388.871094 977.910156 C 1382.558594 969.851562 1382.671875 975.21875 1374.769531 966.691406 C 1379.210938 958.398438 1376.488281 960.558594 1386.359375 956.910156 C 1399.050781 963.128906 1402.191406 973.71875 1400.53125 991.171875 C 1390.550781 985.53125 1394.960938 985.691406 1388.871094 977.910156 Z M 1362.5 966.730469 C 1335.238281 964.21875 1313.03125 965.128906 1290.851562 975.730469 C 1267.238281 987.011719 1258.96875 999.28125 1243.191406 1010.140625 C 1246.078125 1013.929688 1249.210938 1017.480469 1252.949219 1020.910156 C 1223.441406 1025.21875 1197.929688 1019.238281 1193.878906 1052.328125 C 1191.089844 1075.160156 1214.351562 1104.578125 1230.960938 1103.320312 C 1231.578125 1093.640625 1209.910156 1077.25 1244.671875 1070.328125 C 1289.289062 1061.441406 1364.011719 1082.75 1403.480469 1098.199219 C 1450.441406 1116.578125 1539.941406 1165.53125 1587.148438 1169.488281 C 1582.949219 1161.140625 1578.03125 1160.101562 1573.738281 1150.859375 C 1633.121094 1152.140625 1628.601562 1226.238281 1604.519531 1198.480469 C 1564.949219 1248.230469 1467.988281 1269.289062 1402.871094 1269.378906 C 1363.550781 1269.441406 1199.921875 1249.621094 1211.929688 1204.839844 C 1216.160156 1189.101562 1220.070312 1205.421875 1220.238281 1176.140625 C 1161.671875 1167.410156 1140.539062 1246.890625 1245.988281 1285.898438 C 1257.808594 1290.28125 1298.558594 1298.691406 1305.5 1304.339844 C 1275.21875 1314.871094 1250.128906 1300.011719 1225.179688 1298.078125 C 1326.25 1435.289062 1593.378906 1433.050781 1691.5 1219.488281 C 1706.398438 1187.039062 1712.851562 1152.039062 1700.449219 1115.03125 C 1688.03125 1077.988281 1668.328125 1066.609375 1622.300781 1068.351562 C 1615.859375 1056.421875 1590.410156 1031.699219 1577.289062 1023.449219 C 1557.949219 1011.300781 1531.300781 1004.070312 1503.761719 1003.730469 C 1511.949219 942.289062 1458.351562 962.710938 1422.140625 971.480469 C 1418.46875 966.78125 1381.550781 904.960938 1362.5 966.730469 "/>
<path fill-rule="evenodd" fill="rgb(40.989685%, 23.997498%, 15.989685%)" fill-opacity="1" d="M 1418.640625 1912.921875 C 1443.960938 1906.242188 1440.519531 1905.355469 1460.050781 1916.796875 C 1503.429688 1942.191406 1571.5 1968.929688 1622.171875 1980.828125 C 1619.578125 1983.015625 1624.621094 1988.507812 1598.199219 1985.917969 C 1589.96875 1985.109375 1584.390625 1983.785156 1576.28125 1983.589844 C 1562.488281 1999.28125 1564.199219 2020.851562 1554.261719 2038.113281 C 1542.53125 2042.828125 1530.671875 2040.722656 1528.679688 2057.199219 C 1544.089844 2060.617188 1557.078125 2058.492188 1574.328125 2058.3125 C 1571.648438 2070.527344 1567.5 2070.472656 1568.660156 2083.460938 C 1588.671875 2087.425781 1594.488281 2074.316406 1606.558594 2068.828125 C 1611.738281 2079.492188 1606.28125 2076.441406 1614.808594 2084.261719 C 1628.101562 2082.632812 1628.621094 2077.277344 1636.828125 2070.109375 C 1639.628906 2072.085938 1638.378906 2071.074219 1641.410156 2074.101562 C 1641.960938 2074.652344 1643.53125 2076.410156 1644.070312 2077.011719 C 1646.351562 2079.5625 1647.78125 2081.929688 1650.429688 2084.402344 C 1675.390625 2107.722656 1675.308594 2070.488281 1678.121094 2064.5 C 1693.949219 2070.457031 1702.558594 2080.066406 1723.878906 2074.773438 C 1724.148438 2062.382812 1718.050781 2060.28125 1713.371094 2050.058594 C 1738.25 2033.746094 1783.640625 2006.550781 1797.941406 1972.695312 C 1816.929688 1927.734375 1778.53125 1878.378906 1758.570312 1857.824219 C 1748.039062 1846.980469 1745.410156 1848.878906 1728.101562 1853.066406 C 1706.578125 1858.269531 1642.691406 1875.078125 1628.761719 1863.804688 C 1605.648438 1845.101562 1572.550781 1803.890625 1550.820312 1779.859375 C 1542.699219 1798.429688 1543.601562 1811.648438 1531.859375 1830.640625 C 1487.289062 1902.722656 1370.46875 1916.007812 1289.109375 1845.636719 C 1278.171875 1836.171875 1264.128906 1820.109375 1254.25 1808.910156 C 1243.578125 1796.808594 1240.199219 1790.578125 1232.328125 1778.671875 C 1230.199219 1775.449219 1230.578125 1775.890625 1228.738281 1773.691406 C 1225.28125 1769.511719 1227.691406 1772.210938 1223.96875 1769.019531 C 1196.488281 1778.289062 1114.699219 1833.238281 1112.941406 1880.457031 C 1111.121094 1929.109375 1191.679688 1980.089844 1221.601562 1989.953125 L 1211.449219 1997.582031 C 1198.699219 2004.851562 1191.210938 2004.539062 1189.230469 2017.28125 C 1204.550781 2020.949219 1218.191406 2016.941406 1232.21875 2014.492188 L 1237.730469 2030.488281 C 1258.511719 2029.128906 1254.769531 2019.394531 1268.011719 2015.796875 C 1301.371094 2061.242188 1307.691406 2012.214844 1312.039062 2005.617188 C 1323.5 2011.742188 1332.710938 2024.320312 1349.449219 2019.847656 C 1350.789062 2010.300781 1349.230469 2006.746094 1345.871094 1999.730469 C 1361.488281 2002.488281 1372 2007.78125 1388.21875 2000.925781 C 1386.621094 1986.425781 1373.628906 1987.203125 1362.421875 1978.804688 C 1353.148438 1971.859375 1352.390625 1954.734375 1345.070312 1946.464844 C 1323.558594 1945.8125 1293.550781 1951.097656 1276.609375 1941.050781 C 1288.800781 1933.246094 1378.699219 1923.453125 1418.640625 1912.921875 "/>
<path fill-rule="evenodd" fill="rgb(91.014099%, 73.046875%, 52.929688%)" fill-opacity="1" d="M 1345.628906 1764.359375 C 1340.78125 1754.210938 1337.71875 1748.28125 1339.46875 1735.078125 C 1354.480469 1739.390625 1374.398438 1760.871094 1364.941406 1779.339844 C 1363.878906 1779.820312 1368.550781 1784.128906 1357.171875 1780.570312 C 1350.378906 1778.449219 1348.171875 1769.660156 1345.628906 1764.359375 Z M 1336.648438 1465.171875 C 1321.71875 1449.648438 1288.199219 1438.488281 1251.460938 1360.429688 C 1239.148438 1334.261719 1233.179688 1337.449219 1218.710938 1316 C 1206.949219 1298.578125 1203.398438 1283.75 1185.429688 1274.941406 C 1175.730469 1278.941406 1169.179688 1284.480469 1163.660156 1291.46875 C 1170.871094 1303.351562 1178.808594 1311.988281 1187.5 1327.890625 C 1215.25 1378.648438 1201.320312 1389.601562 1226.261719 1410.308594 C 1287.390625 1461.070312 1220.050781 1534.328125 1171.578125 1547.46875 C 1144.78125 1554.738281 1145.289062 1539.050781 1130.378906 1534.421875 C 1119.191406 1547.441406 1135.160156 1564.941406 1144.101562 1574.941406 C 1153.421875 1585.378906 1163.128906 1595.660156 1180.851562 1601.570312 C 1236.328125 1620.058594 1266.570312 1599.488281 1289.25 1597.238281 C 1276.460938 1625.148438 1232.199219 1627.070312 1197.140625 1625.128906 C 1197.058594 1656.539062 1214.289062 1702.570312 1226.03125 1727 C 1241.71875 1759.640625 1257.558594 1780.511719 1277.371094 1804.980469 C 1311.519531 1847.160156 1372.578125 1891.777344 1456.660156 1865.398438 C 1488.578125 1855.386719 1510.910156 1832.039062 1523.480469 1802.929688 C 1529.5 1789.011719 1539.058594 1765.78125 1530.75 1752.628906 C 1527.488281 1747.46875 1520.859375 1740.710938 1516.039062 1734.351562 L 1462.710938 1658.238281 C 1451.03125 1644.140625 1378.539062 1643.328125 1364.5 1596.570312 C 1378.328125 1600.398438 1406.261719 1624.828125 1442.679688 1630.210938 C 1441.730469 1627.421875 1388.089844 1533.078125 1386.191406 1531.101562 C 1378.941406 1523.539062 1373.890625 1522.359375 1365.621094 1513.21875 C 1340.199219 1485.128906 1346.210938 1475.101562 1336.648438 1465.171875 "/>
<path fill-rule="evenodd" fill="rgb(91.014099%, 73.046875%, 52.929688%)" fill-opacity="1" d="M 1835.109375 745.121094 C 1853.699219 738.421875 1868.980469 719.429688 1906.351562 710.578125 C 1927.089844 705.671875 1931.550781 707.210938 1937.28125 710.710938 C 1934.078125 712.761719 1805.058594 758.800781 1824 806.828125 C 1833.179688 803.550781 1835.449219 797.058594 1845.191406 789.730469 C 1867.378906 773.03125 1905.851562 756.050781 1935.859375 761.601562 C 1927.570312 768.121094 1911.78125 771.550781 1900.628906 776.320312 C 1887.21875 782.058594 1877.089844 787.511719 1864.941406 795.671875 C 1811.191406 831.738281 1823.871094 867.21875 1831.589844 865.25 C 1834.941406 864.390625 1832.371094 865.730469 1836.128906 863.570312 C 1842.621094 859.820312 1893.871094 820.871094 1916.011719 841.601562 C 1847.539062 854.578125 1793.328125 913.539062 1843.339844 969.480469 C 1859.039062 987.050781 1874.53125 993.710938 1897.851562 979.980469 L 1890.359375 947.628906 C 1879.441406 950.351562 1870.25 953.429688 1859.761719 947.421875 C 1862.160156 944.550781 1859.988281 946.261719 1864.101562 943.449219 C 1865.988281 942.148438 1867.289062 941.460938 1869.359375 940.429688 L 1905.171875 924.058594 C 1910.640625 961.640625 1923.238281 980.800781 1941.320312 1003.511719 C 1966.550781 1035.199219 1986.429688 1038.820312 2016.671875 1043.539062 C 2028.191406 1030.398438 2008.441406 1010.210938 2085.949219 1023.070312 C 2086.28125 995.140625 2090.601562 980.101562 2118.230469 986.921875 C 2119.371094 974.769531 2121.949219 962.578125 2129.390625 955.460938 C 2140.308594 945.019531 2149.910156 953.890625 2157.949219 958.71875 C 2164.390625 941.101562 2167.871094 942.671875 2179.21875 930.910156 C 2156.660156 846.179688 2087 749.941406 2036.488281 715.671875 C 2026.171875 708.660156 2017.679688 707.570312 2010.808594 697.25 C 1989.25 664.808594 1978.558594 638.390625 1928.738281 655.820312 C 1894.769531 667.710938 1834.160156 704.628906 1835.109375 745.121094 "/>
<path fill-rule="evenodd" fill="rgb(40.989685%, 23.997498%, 15.989685%)" fill-opacity="1" d="M 1091.851562 1132.210938 C 1029.800781 1130.171875 975.429688 1110.03125 896.078125 1142.558594 C 843.714844 1164.03125 853.613281 1174 816.558594 1172.761719 C 781.476562 1171.589844 757.195312 1190.199219 756.574219 1224.789062 C 766.820312 1221.710938 767.871094 1219.769531 780.203125 1219.339844 C 771.75 1231.078125 742.222656 1240.328125 734.304688 1302.628906 C 729.171875 1343.019531 737.058594 1382.78125 752.292969 1413.589844 C 797.523438 1505.070312 817.726562 1479.289062 829.011719 1529.578125 C 833.109375 1547.828125 837.609375 1567.199219 852.386719 1571.738281 C 865.460938 1564.769531 859.035156 1564.710938 866.148438 1553.488281 C 875.71875 1563.238281 879.347656 1573.148438 896.425781 1573.929688 L 903.351562 1559.308594 C 914.226562 1572.648438 929.40625 1592.359375 952.488281 1592.648438 L 950.433594 1570.601562 C 961.984375 1570.660156 957.722656 1573.660156 961.488281 1566.878906 C 957.875 1562.238281 957.460938 1560.429688 954.3125 1556.640625 C 788.921875 1553.300781 783.84375 1372.050781 898.195312 1301.53125 C 930.398438 1281.660156 973.667969 1268.96875 1018.300781 1267.429688 C 1002.25 1235.269531 949.675781 1206.550781 895.519531 1209.730469 C 899.175781 1205.199219 895.683594 1207.730469 902.152344 1203.671875 C 918.785156 1193.25 952.679688 1199.851562 968.574219 1205.519531 C 1012.449219 1221.179688 1035.828125 1259.941406 1043.429688 1265.300781 C 1050.648438 1270.390625 1074.269531 1272.710938 1081.308594 1270.03125 C 1093.679688 1265.320312 1098.078125 1258.859375 1117.910156 1262.441406 C 1131.460938 1264.878906 1139.5 1271.289062 1148.75 1276.839844 L 1171.101562 1261.460938 C 1167.140625 1250.191406 1159.28125 1245.601562 1155.03125 1231.109375 C 1142.828125 1189.519531 1172.511719 1163.378906 1221.140625 1160.019531 L 1225.46875 1120.820312 C 1212.761719 1112.769531 1206.078125 1111.980469 1195.640625 1102.371094 C 1163.488281 1072.820312 1114.429688 1111.488281 1091.851562 1132.210938 "/>
<path fill-rule="evenodd" fill="rgb(91.014099%, 73.046875%, 52.929688%)" fill-opacity="1" d="M 980.808594 1537.289062 C 986.09375 1545.628906 993.464844 1554.578125 997.691406 1563.910156 C 981.804688 1561.269531 985.378906 1554.230469 970.808594 1552.070312 C 986.734375 1601.75 1091.820312 1614.699219 1043.25 1499.820312 C 1036.238281 1483.238281 1021.058594 1463.371094 1017.730469 1451.730469 C 1045.820312 1465.058594 1075.78125 1516.359375 1072.421875 1564.640625 C 1138.390625 1563.558594 1109.699219 1471.628906 1075.210938 1423.71875 C 1069.128906 1415.269531 1065.160156 1412.359375 1061.328125 1403.730469 C 1093.480469 1413.910156 1118.480469 1461.949219 1125.070312 1497.769531 L 1130.378906 1518.691406 C 1169.328125 1512.390625 1159.570312 1461.71875 1149.230469 1432.238281 C 1137.550781 1398.980469 1121.441406 1379.011719 1103.949219 1358.691406 C 1128.210938 1360.691406 1155.511719 1405.160156 1165.210938 1430.011719 L 1174 1459.75 C 1176.558594 1466.160156 1175.351562 1463.191406 1177.171875 1465.910156 C 1241.039062 1453.269531 1163.730469 1277.210938 1105.988281 1278.769531 C 1079.550781 1279.488281 1100.730469 1291.578125 1056.050781 1286.109375 C 1017.46875 1281.378906 977.59375 1286.140625 943.863281 1297.578125 C 888.628906 1316.300781 834.277344 1364.03125 839.1875 1440.101562 C 843.613281 1508.640625 906.503906 1554.988281 980.808594 1537.289062 "/>
<path fill-rule="evenodd" fill="rgb(91.014099%, 73.046875%, 52.929688%)" fill-opacity="1" d="M 1812.429688 2232.664062 C 1836.21875 2232.386719 1844.621094 2210.972656 1839.960938 2186.632812 C 1834.730469 2159.269531 1820.070312 2165.421875 1804.859375 2150.8125 C 1845.121094 2147.214844 1851.25 2171.042969 1857.789062 2204.421875 C 1885.921875 2200.6875 1880.46875 2161.992188 1867.960938 2144.753906 C 1849.109375 2118.761719 1832.21875 2142.097656 1808.71875 2118.652344 C 1794.839844 2104.804688 1777.191406 2094.992188 1754.289062 2087.382812 C 1719.710938 2075.890625 1755.710938 2106.566406 1688.640625 2084.46875 C 1680.878906 2125.027344 1653.539062 2104.773438 1636.828125 2091.671875 C 1626.230469 2098.683594 1624.761719 2102.664062 1608.199219 2103.304688 L 1601 2089.972656 C 1542.988281 2115.800781 1561.21875 2084.699219 1554.261719 2073.027344 C 1532.75 2078.832031 1538.890625 2108.9375 1516.980469 2115.46875 C 1493.398438 2122.496094 1469.28125 2116.625 1460.691406 2136.644531 C 1450.988281 2159.253906 1467.328125 2180.386719 1486.359375 2185.085938 C 1513.53125 2191.789062 1529.980469 2180.039062 1548.75 2171.898438 C 1563.121094 2181.558594 1571.121094 2192.230469 1593.359375 2201.996094 C 1611.800781 2210.09375 1630.910156 2216.074219 1653.351562 2215.648438 C 1662.148438 2206.644531 1659.75 2205.164062 1674.191406 2201.449219 C 1667.761719 2218.703125 1654.441406 2242.359375 1672.800781 2257.375 C 1717.519531 2293.96875 1777.148438 2203.144531 1703.570312 2179.816406 L 1690.691406 2174.621094 C 1716.949219 2169.871094 1734.738281 2174.898438 1746.671875 2191.753906 C 1761.75 2213.074219 1752.441406 2229.4375 1749.558594 2251.65625 C 1778.238281 2257.992188 1793.761719 2244.3125 1796.699219 2216.167969 C 1800.808594 2176.894531 1769.859375 2173.640625 1761.011719 2164.132812 C 1807.238281 2158.085938 1817.261719 2192.710938 1812.429688 2232.664062 "/>
<path fill-rule="evenodd" fill="rgb(91.014099%, 73.046875%, 52.929688%)" fill-opacity="1" d="M 1020.289062 2116.496094 C 1026.238281 2092.984375 1024.691406 2077.519531 1040.019531 2065.335938 C 1053.910156 2054.285156 1079.269531 2051.585938 1091.601562 2064.917969 C 1064.191406 2064.621094 1050.148438 2068.566406 1040.890625 2088.253906 C 1031.628906 2107.949219 1031.398438 2136.78125 1054.699219 2142.128906 C 1053.738281 2121.5 1055.578125 2102.140625 1067.480469 2090.128906 C 1078.070312 2079.433594 1105.371094 2075.015625 1118.550781 2086.929688 C 1109.238281 2091.296875 1096.269531 2087.554688 1085.539062 2094.316406 C 1060.941406 2109.804688 1060.328125 2162.441406 1098.71875 2166.878906 C 1091.640625 2126.171875 1106.828125 2094.300781 1149.601562 2109.066406 C 1139.570312 2116.570312 1118.238281 2110.214844 1113.519531 2136.542969 C 1104.910156 2184.460938 1157.429688 2204.363281 1177.308594 2186.222656 C 1196.449219 2168.765625 1173.851562 2148.546875 1173.171875 2143.523438 C 1191.398438 2142.496094 1185.859375 2157.554688 1241.859375 2148.964844 C 1247.671875 2120.632812 1249.398438 2108.988281 1272.898438 2097.421875 C 1290.289062 2088.859375 1318.011719 2081.007812 1336.53125 2092.433594 L 1324.398438 2096.914062 C 1299.160156 2102.660156 1261.121094 2111.769531 1261.570312 2144.730469 C 1262.238281 2194.089844 1323.128906 2160.8125 1343.121094 2148.242188 C 1357.160156 2139.421875 1375.300781 2144.382812 1393.511719 2135.308594 C 1442.128906 2111.082031 1404.230469 2020.703125 1367.089844 2017.054688 L 1360.371094 2030.890625 C 1355.589844 2035.984375 1353.148438 2035.855469 1345.460938 2034.996094 C 1337.378906 2034.097656 1326.609375 2026.757812 1320.300781 2023.664062 C 1312.871094 2033.628906 1312.898438 2048.289062 1297.679688 2050.484375 C 1281.890625 2052.761719 1275.21875 2042.460938 1265.25 2035.875 C 1249.898438 2043.496094 1247.960938 2049.28125 1224.820312 2046.023438 L 1222.761719 2031.277344 C 1150.121094 2039.960938 1194.949219 2020.234375 1149.761719 2026.71875 C 1127.898438 2029.855469 1087.921875 2045.316406 1086.910156 2045.269531 C 1058.628906 2043.953125 1041.890625 2034.28125 1022.238281 2058.671875 C 1010.738281 2072.941406 1002.359375 2106.167969 1020.289062 2116.496094 "/>
<path fill-rule="evenodd" fill="rgb(39.988708%, 23.997498%, 14.988708%)" fill-opacity="1" d="M 1548.828125 735.648438 C 1581.511719 723.421875 1610.730469 706.390625 1598.640625 782.269531 C 1612.488281 792.410156 1624.039062 791.691406 1636.058594 806.03125 C 1625.601562 805.570312 1607.359375 799.78125 1594.070312 798.058594 C 1519.160156 788.378906 1504.96875 807.800781 1462.839844 827.839844 C 1467.019531 847.441406 1470.820312 849.339844 1505.78125 858.199219 C 1544.171875 867.921875 1536.238281 864.5 1563.859375 849.761719 C 1593.699219 833.820312 1652.03125 821.691406 1680.910156 845.621094 C 1732.71875 888.550781 1688.300781 1001.988281 1619.101562 1034.179688 C 1622.601562 1047.269531 1623.328125 1041.21875 1628.578125 1051.148438 L 1667.148438 1053.691406 C 1683.929688 1037.21875 1703.671875 989.289062 1762.03125 987.601562 C 1762.148438 949.339844 1750.898438 921.769531 1749.011719 884.148438 C 1748.089844 865.96875 1748.671875 846.511719 1753.398438 829.949219 C 1760.859375 803.820312 1771.148438 798.511719 1767.101562 789.320312 C 1757.421875 785.691406 1742.308594 785.210938 1730.699219 788.050781 C 1713.261719 792.320312 1724.339844 798.851562 1716.648438 811.5 C 1712.078125 804.761719 1700.640625 761.679688 1694.78125 749.019531 C 1650.730469 653.898438 1550.261719 679.539062 1548.828125 735.648438 "/>
<path fill-rule="evenodd" fill="rgb(99.021912%, 99.021912%, 100%)" fill-opacity="1" d="M 1281.769531 1167.910156 C 1276.019531 1174.910156 1277.410156 1182.960938 1270.761719 1186.609375 C 1265.011719 1177.429688 1266.921875 1174.441406 1266.601562 1163.671875 C 1255.378906 1157.648438 1252.949219 1159.460938 1248.769531 1150.820312 C 1252.390625 1150.449219 1257.230469 1150.578125 1259.75 1150.308594 L 1264.699219 1149.53125 C 1265.308594 1149.441406 1266.589844 1149.851562 1267.019531 1148.96875 C 1267.449219 1148.101562 1268.578125 1148.660156 1269.300781 1148.351562 C 1270.179688 1145.121094 1270.851562 1139.578125 1272.390625 1136.300781 C 1278.28125 1123.730469 1272.460938 1132.289062 1279.011719 1128.800781 C 1283.761719 1138.300781 1281.378906 1142.898438 1281.941406 1154.601562 L 1336.960938 1166.191406 C 1339.820312 1138.171875 1341.328125 1141 1349.328125 1137.121094 L 1350.339844 1169.839844 L 1418.46875 1180.359375 C 1421.78125 1154.019531 1424.511719 1160.859375 1429.648438 1158.28125 L 1430.738281 1183.800781 L 1493.710938 1191.03125 L 1496.898438 1184.820312 C 1500.960938 1177.941406 1500.078125 1178.351562 1504.710938 1176.058594 C 1506.421875 1180.269531 1506.03125 1181.089844 1507.050781 1184.289062 L 1509.351562 1190.628906 C 1509.480469 1190.230469 1509.828125 1192.058594 1510.21875 1192.710938 C 1524.050781 1193.398438 1548.589844 1190.769531 1558.859375 1197.761719 C 1547.171875 1204.699219 1526.078125 1204.050781 1510.21875 1204.109375 C 1503.148438 1205.570312 1501.691406 1216.160156 1500.601562 1213.839844 C 1500.378906 1213.371094 1499.761719 1215.050781 1499.210938 1215.539062 L 1494.929688 1207.960938 C 1488.988281 1201.109375 1485.410156 1203.171875 1468.398438 1201.71875 C 1455.480469 1200.621094 1442.828125 1198.101562 1430.160156 1198.320312 L 1424.378906 1216.46875 C 1416.5 1210.859375 1417.621094 1207.210938 1416.898438 1195.589844 L 1347.828125 1184.75 C 1344.179688 1194.390625 1347.371094 1195.058594 1340.570312 1202.199219 C 1323.929688 1175.050781 1360.160156 1188.488281 1281.769531 1167.910156 Z M 1235.019531 1217.890625 C 1287.429688 1242.011719 1362.800781 1256.671875 1429.75 1251.5 C 1491.339844 1246.738281 1575.898438 1224.039062 1596.710938 1182.640625 C 1548.988281 1185.269531 1473.238281 1144.800781 1431.578125 1127.871094 C 1385.03125 1108.949219 1308.589844 1077.359375 1249.851562 1088.859375 C 1239.300781 1126.679688 1233.691406 1176.300781 1235.019531 1217.890625 "/>
<path fill-rule="evenodd" fill="rgb(91.014099%, 73.046875%, 52.929688%)" fill-opacity="1" d="M 1455.148438 1506.921875 L 1541.570312 1562.890625 C 1609.78125 1604.941406 1605.730469 1604.949219 1630.828125 1582.691406 C 1686.820312 1533.03125 1685.761719 1437.910156 1656.429688 1360.21875 C 1646.859375 1365.640625 1598.558594 1429.539062 1502.671875 1465.511719 C 1459.75 1481.621094 1466.761719 1467.03125 1455.148438 1506.921875 "/>
<path fill-rule="evenodd" fill="rgb(78.90625%, 11.009216%, 15.989685%)" fill-opacity="1" d="M 1569.328125 1772.460938 C 1572.199219 1757.140625 1577.398438 1747.558594 1588.769531 1736.28125 C 1589.238281 1735.808594 1589.789062 1735.238281 1590.289062 1734.789062 C 1601.148438 1724.941406 1609.648438 1723.621094 1628.589844 1723.621094 C 1628.449219 1723.679688 1619.480469 1733.019531 1619.539062 1710.121094 C 1619.578125 1695.269531 1630.058594 1694.769531 1650.511719 1669.058594 C 1650.929688 1668.539062 1651.378906 1667.859375 1651.839844 1667.359375 C 1659.050781 1659.449219 1671.628906 1654.558594 1682.96875 1655.578125 C 1661.058594 1650.910156 1579.898438 1603.839844 1557.609375 1590.871094 C 1536.71875 1578.71875 1517.269531 1567.351562 1497.929688 1554.078125 L 1444.160156 1513.460938 C 1440.070312 1514.628906 1404.710938 1529.941406 1403.429688 1530.941406 C 1408.371094 1541.570312 1416.679688 1553.769531 1422.441406 1563.648438 C 1429.328125 1575.449219 1435.480469 1584.949219 1442.648438 1595.898438 C 1473.070312 1642.410156 1492.320312 1672.398438 1525.539062 1716.511719 C 1540.03125 1735.769531 1556.109375 1754.699219 1569.328125 1772.460938 "/>
<path fill-rule="evenodd" fill="rgb(91.014099%, 73.046875%, 52.929688%)" fill-opacity="1" d="M 1375.351562 929.351562 C 1390.171875 925.320312 1379.929688 932.011719 1384.929688 920.960938 C 1391.609375 906.210938 1384.03125 906.351562 1402.980469 892.328125 L 1409.75 886.871094 C 1404.460938 876.121094 1403.460938 877.578125 1402.820312 863.761719 C 1437.160156 887.308594 1439.71875 901.878906 1510.101562 911.769531 C 1534.171875 915.148438 1559.648438 916.640625 1584.488281 914.011719 C 1609.820312 911.320312 1628.789062 903.640625 1651.25 900.050781 C 1644.679688 912.039062 1642.539062 909.011719 1631.960938 917.140625 C 1624.691406 983.421875 1618.738281 975.089844 1589.929688 1013.980469 C 1595.640625 1017.429688 1600.070312 1021.539062 1606.558594 1024.761719 C 1639.261719 1008.519531 1679.28125 964.398438 1683.621094 914.351562 C 1690.820312 831.261719 1623.351562 839.589844 1574.859375 860.621094 C 1541.550781 875.070312 1525.929688 886.980469 1466.96875 858.511719 C 1446.640625 848.691406 1456.449219 847.929688 1445.660156 833.058594 C 1426.230469 806.28125 1398.761719 836.710938 1390.21875 852.25 C 1380.589844 869.789062 1365.621094 913.628906 1375.351562 929.351562 "/>
<path fill-rule="evenodd" fill="rgb(80.076599%, 39.988708%, 12.988281%)" fill-opacity="1" d="M 1682.808594 1830.96875 C 1674.140625 1827.988281 1591.21875 1778.800781 1585.921875 1775.351562 C 1588.03125 1749.148438 1618.191406 1719.371094 1666.558594 1751.949219 C 1676.851562 1758.878906 1693.320312 1773.269531 1697.28125 1785.960938 C 1703.351562 1805.460938 1694 1823.828125 1682.808594 1830.96875 Z M 1722.160156 1787.058594 C 1713.601562 1781.628906 1660.800781 1733.660156 1652.398438 1727.320312 C 1644.5 1721.351562 1638.539062 1715.570312 1632.460938 1707.378906 C 1636.449219 1703.929688 1643 1697.941406 1647.839844 1693.011719 C 1656.210938 1700.140625 1666.089844 1708.710938 1675.179688 1712.871094 C 1672.019531 1699.011719 1663.921875 1690.800781 1663.398438 1676.480469 L 1685.808594 1667.421875 C 1693.660156 1691.171875 1694.070312 1714.511719 1708.859375 1718.128906 L 1759.160156 1724.230469 L 1753.429688 1750.261719 C 1739.261719 1752.011719 1726.71875 1745.019531 1712.078125 1743.789062 C 1720.640625 1763.121094 1718.398438 1752.761719 1736.28125 1771.589844 C 1733.640625 1777.109375 1727.570312 1784.230469 1722.160156 1787.058594 Z M 1569.328125 1772.460938 C 1576.160156 1784.308594 1577.078125 1785.570312 1586.871094 1794.53125 C 1602.941406 1801.75 1616.78125 1812.429688 1631.488281 1820.589844 C 1645.070312 1828.121094 1661.660156 1838.839844 1675.378906 1845.175781 L 1697.371094 1842.332031 C 1706.75 1830.640625 1713.890625 1820.019531 1713.890625 1797.910156 C 1716.328125 1804.308594 1728.960938 1807.859375 1739.390625 1795.519531 C 1749.800781 1783.210938 1753.671875 1777.578125 1750.410156 1766.761719 C 1771.640625 1763.910156 1766.808594 1748.078125 1770.941406 1732.039062 L 1761.21875 1710.828125 L 1711.128906 1704.351562 C 1708.03125 1697.390625 1702.949219 1673.449219 1701.269531 1665.230469 C 1693.300781 1658.421875 1692.988281 1659.328125 1682.96875 1655.578125 C 1671.628906 1654.558594 1659.050781 1659.449219 1651.839844 1667.359375 C 1651.378906 1667.859375 1650.929688 1668.539062 1650.511719 1669.058594 C 1630.058594 1694.769531 1619.578125 1695.269531 1619.539062 1710.121094 C 1619.480469 1733.019531 1628.449219 1723.679688 1628.589844 1723.621094 C 1609.648438 1723.621094 1601.148438 1724.941406 1590.289062 1734.789062 C 1589.789062 1735.238281 1589.238281 1735.808594 1588.769531 1736.28125 C 1577.398438 1747.558594 1572.199219 1757.140625 1569.328125 1772.460938 "/>
<path fill-rule="evenodd" fill="rgb(91.014099%, 73.046875%, 52.929688%)" fill-opacity="1" d="M 1683.660156 1060.269531 C 1688.511719 1066.558594 1699.621094 1076.328125 1706.601562 1080.28125 C 1712.199219 1063.5 1739.371094 1036.078125 1765.640625 1036.328125 C 1761.171875 1043.378906 1747.488281 1051.230469 1741 1056.570312 L 1745.820312 1061.179688 C 1746.21875 1061.589844 1746.921875 1062.199219 1747.339844 1062.660156 C 1762.589844 1079.070312 1752.351562 1103.101562 1726.191406 1108.179688 C 1732.769531 1098.660156 1750.480469 1092.648438 1738.859375 1071.53125 C 1726.488281 1070.191406 1727.019531 1072.589844 1721.039062 1081.359375 C 1708.011719 1100.449219 1720.140625 1098.539062 1726.878906 1152.070312 C 1766.609375 1154.738281 1803.558594 1083.160156 1791.699219 1035.011719 C 1784.660156 1006.378906 1758.878906 995.828125 1730.539062 1010.898438 C 1716.199219 1018.53125 1691.390625 1045.339844 1683.660156 1060.269531 "/>
<path fill-rule="evenodd" fill="rgb(77.929688%, 11.009216%, 15.989685%)" fill-opacity="1" d="M 1464.78125 1437.351562 L 1468.011719 1462.800781 C 1500.828125 1456.050781 1572.441406 1411.621094 1594.800781 1392.578125 C 1621.351562 1369.960938 1668.199219 1324.53125 1679.738281 1281.230469 C 1653.730469 1314.589844 1618.328125 1347.011719 1582.53125 1369.449219 C 1540.859375 1395.578125 1543.050781 1379.78125 1491.699219 1418.828125 C 1484.179688 1424.558594 1472.171875 1431.070312 1464.78125 1437.351562 "/>
<path fill-rule="evenodd" fill="rgb(2.999878%, 1.997375%, 1.997375%)" fill-opacity="1" d="M 1269.300781 1148.351562 C 1268.578125 1148.660156 1267.449219 1148.101562 1267.019531 1148.96875 C 1266.589844 1149.851562 1265.308594 1149.441406 1264.699219 1149.53125 L 1259.75 1150.308594 C 1257.230469 1150.578125 1252.390625 1150.449219 1248.769531 1150.820312 C 1252.949219 1159.460938 1255.378906 1157.648438 1266.601562 1163.671875 C 1266.921875 1174.441406 1265.011719 1177.429688 1270.761719 1186.609375 C 1277.410156 1182.960938 1276.019531 1174.910156 1281.769531 1167.910156 C 1360.160156 1188.488281 1323.929688 1175.050781 1340.570312 1202.199219 C 1347.371094 1195.058594 1344.179688 1194.390625 1347.828125 1184.75 L 1416.898438 1195.589844 C 1417.621094 1207.210938 1416.5 1210.859375 1424.378906 1216.46875 L 1430.160156 1198.320312 C 1442.828125 1198.101562 1455.480469 1200.621094 1468.398438 1201.71875 C 1485.410156 1203.171875 1488.988281 1201.109375 1494.929688 1207.960938 L 1499.210938 1215.539062 C 1499.761719 1215.050781 1500.378906 1213.371094 1500.601562 1213.839844 C 1501.691406 1216.160156 1503.148438 1205.570312 1510.21875 1204.109375 C 1526.078125 1204.050781 1547.171875 1204.699219 1558.859375 1197.761719 C 1548.589844 1190.769531 1524.050781 1193.398438 1510.21875 1192.710938 C 1509.828125 1192.058594 1509.480469 1190.230469 1509.351562 1190.628906 L 1507.050781 1184.289062 C 1506.03125 1181.089844 1506.421875 1180.269531 1504.710938 1176.058594 C 1500.078125 1178.351562 1500.960938 1177.941406 1496.898438 1184.820312 L 1493.710938 1191.03125 L 1430.738281 1183.800781 L 1429.648438 1158.28125 C 1424.511719 1160.859375 1421.78125 1154.019531 1418.46875 1180.359375 L 1350.339844 1169.839844 L 1349.328125 1137.121094 C 1341.328125 1141 1339.820312 1138.171875 1336.960938 1166.191406 L 1281.941406 1154.601562 C 1281.378906 1142.898438 1283.761719 1138.300781 1279.011719 1128.800781 C 1272.460938 1132.289062 1278.28125 1123.730469 1272.390625 1136.300781 C 1270.851562 1139.578125 1270.179688 1145.121094 1269.300781 1148.351562 "/>
<path fill-rule="evenodd" fill="rgb(96.09375%, 91.014099%, 37.010193%)" fill-opacity="1" d="M 1663.398438 1676.480469 C 1663.921875 1690.800781 1672.019531 1699.011719 1675.179688 1712.871094 C 1666.089844 1708.710938 1656.210938 1700.140625 1647.839844 1693.011719 C 1643 1697.941406 1636.449219 1703.929688 1632.460938 1707.378906 C 1638.539062 1715.570312 1644.5 1721.351562 1652.398438 1727.320312 C 1660.800781 1733.660156 1713.601562 1781.628906 1722.160156 1787.058594 C 1727.570312 1784.230469 1733.640625 1777.109375 1736.28125 1771.589844 C 1718.398438 1752.761719 1720.640625 1763.121094 1712.078125 1743.789062 C 1726.71875 1745.019531 1739.261719 1752.011719 1753.429688 1750.261719 L 1759.160156 1724.230469 L 1708.859375 1718.128906 C 1694.070312 1714.511719 1693.660156 1691.171875 1685.808594 1667.421875 L 1663.398438 1676.480469 "/>
<path fill-rule="evenodd" fill="rgb(77.929688%, 11.009216%, 15.989685%)" fill-opacity="1" d="M 1356.808594 1462.128906 C 1357.429688 1477.898438 1378.71875 1509.691406 1390.148438 1513.449219 C 1401.601562 1517.21875 1416.089844 1512.328125 1425.171875 1509.378906 C 1441.460938 1504.089844 1443.480469 1503.621094 1446.488281 1486.460938 C 1452.160156 1454.171875 1457.949219 1433.640625 1417.25 1438.699219 C 1395.960938 1441.351562 1369.789062 1448.738281 1356.808594 1462.128906 "/>
<path fill-rule="evenodd" fill="rgb(96.09375%, 91.014099%, 37.010193%)" fill-opacity="1" d="M 1667.109375 1800.558594 C 1656.089844 1799.679688 1650.691406 1793.730469 1641.480469 1787.769531 C 1632.988281 1782.28125 1626.378906 1780.761719 1619.648438 1773.148438 C 1627.988281 1743.53125 1686.160156 1771.019531 1667.109375 1800.558594 Z M 1682.808594 1830.96875 C 1694 1823.828125 1703.351562 1805.460938 1697.28125 1785.960938 C 1693.320312 1773.269531 1676.851562 1758.878906 1666.558594 1751.949219 C 1618.191406 1719.371094 1588.03125 1749.148438 1585.921875 1775.351562 C 1591.21875 1778.800781 1674.140625 1827.988281 1682.808594 1830.96875 "/>
<path fill-rule="evenodd" fill="rgb(78.90625%, 11.009216%, 15.989685%)" fill-opacity="1" d="M 1697.371094 1842.332031 C 1731.878906 1831.769531 1766.21875 1827.820312 1801.050781 1816.398438 C 1800.46875 1796.878906 1777.441406 1752.53125 1770.941406 1732.039062 C 1766.808594 1748.078125 1771.640625 1763.910156 1750.410156 1766.761719 C 1753.671875 1777.578125 1749.800781 1783.210938 1739.390625 1795.519531 C 1728.960938 1807.859375 1716.328125 1804.308594 1713.890625 1797.910156 C 1713.890625 1820.019531 1706.75 1830.640625 1697.371094 1842.332031 "/>
<path fill-rule="evenodd" fill="rgb(99.021912%, 99.021912%, 99.021912%)" fill-opacity="1" d="M 1501.5 950.171875 C 1509.671875 967.53125 1520.050781 959.53125 1517.28125 991.378906 L 1532.238281 992.011719 C 1532.578125 991.449219 1532.761719 989.558594 1532.851562 989.921875 C 1532.941406 990.300781 1533.308594 988.230469 1533.429688 987.671875 C 1534.429688 983.160156 1535.601562 957.191406 1560.929688 965.300781 C 1579.730469 971.320312 1572.878906 989.148438 1566.148438 1001.480469 C 1598.621094 1012.511719 1596.46875 957.910156 1576.390625 939.019531 C 1563.859375 927.238281 1554.101562 929.808594 1534.859375 929.148438 C 1514.789062 928.46875 1508 933.710938 1501.5 950.171875 "/>
<path fill-rule="evenodd" fill="rgb(91.014099%, 73.046875%, 52.929688%)" fill-opacity="1" d="M 1175.351562 1481.960938 C 1174.039062 1493.320312 1173.011719 1501.921875 1168.429688 1511.101562 C 1161.75 1524.46875 1155.03125 1525.578125 1153.199219 1532.570312 C 1178.378906 1536.621094 1207.46875 1510.949219 1217.789062 1499.890625 C 1241.238281 1474.75 1235.421875 1450.121094 1218.871094 1426.410156 L 1215.558594 1431.808594 C 1211.550781 1441.339844 1213.550781 1447.679688 1204.890625 1462.320312 C 1198.078125 1473.828125 1192.320312 1478.429688 1175.351562 1481.960938 "/>
<path fill-rule="evenodd" fill="rgb(76.951599%, 10.009766%, 16.992188%)" fill-opacity="1" d="M 1345.671875 1453.78125 L 1355.429688 1443.21875 C 1350.238281 1429.171875 1338.839844 1398.648438 1326.011719 1393.21875 C 1304.488281 1384.109375 1289.410156 1377.5 1271.539062 1366.898438 C 1274.550781 1387.539062 1325.828125 1447.160156 1345.671875 1453.78125 "/>
<path fill-rule="evenodd" fill="rgb(98.046875%, 98.046875%, 98.046875%)" fill-opacity="1" d="M 1397.101562 928.148438 C 1406.941406 937.121094 1415.769531 939.328125 1422.390625 952.808594 C 1425.261719 948.921875 1422.78125 952.808594 1424.921875 947.011719 C 1426.570312 942.519531 1425.359375 943.449219 1427.660156 939.078125 C 1430.101562 934.421875 1432.378906 931.859375 1439.128906 930.78125 C 1455.480469 928.171875 1455.078125 938.140625 1459.859375 949.289062 C 1480.089844 918.050781 1444.25 909.699219 1438.339844 906.390625 C 1427.390625 900.25 1424.601562 893.808594 1411.558594 900.679688 C 1402.511719 905.460938 1397.691406 914.269531 1397.101562 928.148438 "/>
<path fill-rule="evenodd" fill="rgb(91.014099%, 73.046875%, 52.929688%)" fill-opacity="1" d="M 1367.210938 1435.761719 C 1389.449219 1432.679688 1399.03125 1424.480469 1427.761719 1425.578125 C 1444.21875 1426.199219 1453.609375 1433.828125 1477.089844 1409.699219 C 1422.199219 1412.171875 1407.070312 1411.851562 1354.238281 1403.28125 L 1367.210938 1435.761719 "/>
<path fill-rule="evenodd" fill="rgb(77.929688%, 11.009216%, 15.989685%)" fill-opacity="1" d="M 1761.21875 1710.828125 C 1755.960938 1697.351562 1752.351562 1684.351562 1739.410156 1678.851562 C 1732.671875 1675.980469 1708.988281 1666.648438 1701.269531 1665.230469 C 1702.949219 1673.449219 1708.03125 1697.390625 1711.128906 1704.351562 L 1761.21875 1710.828125 "/>
<path fill-rule="evenodd" fill="rgb(77.929688%, 11.009216%, 15.989685%)" fill-opacity="1" d="M 1675.378906 1845.175781 C 1661.660156 1838.839844 1645.070312 1828.121094 1631.488281 1820.589844 C 1616.78125 1812.429688 1602.941406 1801.75 1586.871094 1794.53125 C 1591.78125 1796.800781 1606.480469 1814.351562 1614.730469 1822.75 C 1624.601562 1832.808594 1630.03125 1838.941406 1642.339844 1849.871094 C 1652.011719 1850.601562 1667.210938 1848.75 1675.378906 1845.175781 "/>
<path fill-rule="evenodd" fill="rgb(2.999878%, 1.997375%, 1.997375%)" fill-opacity="1" d="M 1364.941406 1779.339844 C 1374.398438 1760.871094 1354.480469 1739.390625 1339.46875 1735.078125 C 1337.71875 1748.28125 1340.78125 1754.210938 1345.628906 1764.359375 C 1348.171875 1769.660156 1350.378906 1778.449219 1357.171875 1780.570312 C 1368.550781 1784.128906 1363.878906 1779.820312 1364.941406 1779.339844 "/>
<path fill-rule="evenodd" fill="rgb(25%, 16.992188%, 12.010193%)" fill-opacity="1" d="M 1585.039062 927.511719 C 1590.589844 936.019531 1593.929688 937.140625 1598.488281 947.109375 C 1601.550781 953.820312 1603.398438 965.628906 1606.558594 971.179688 C 1616.328125 958.238281 1615.511719 939.359375 1617.589844 922.46875 L 1585.039062 927.511719 "/>
<path fill-rule="evenodd" fill="rgb(4.998779%, 2.999878%, 1.997375%)" fill-opacity="1" d="M 1432.839844 999.449219 C 1441.871094 997.839844 1447.28125 994.691406 1456.140625 992.601562 C 1472.949219 988.628906 1473.019531 992.960938 1484.21875 993.058594 L 1486.421875 980.570312 C 1474.898438 973.738281 1466.28125 974.890625 1454.191406 979.488281 C 1442.070312 984.101562 1436.539062 988.679688 1432.839844 999.449219 "/>
<path fill-rule="evenodd" fill="rgb(91.014099%, 72.068787%, 52.929688%)" fill-opacity="1" d="M 1339.890625 949.339844 L 1355.140625 949.660156 C 1362.21875 931.390625 1359.011719 933.269531 1357.601562 913.019531 C 1339.210938 910.128906 1336.050781 932.910156 1339.890625 949.339844 "/>
<path fill-rule="evenodd" fill="rgb(71.09375%, 18.992615%, 5.999756%)" fill-opacity="1" d="M 1653.269531 1790.230469 C 1640.011719 1786.050781 1632.238281 1780.738281 1630.070312 1768.621094 C 1657.839844 1753.949219 1677.339844 1797.820312 1653.269531 1790.230469 Z M 1619.648438 1773.148438 C 1626.378906 1780.761719 1632.988281 1782.28125 1641.480469 1787.769531 C 1650.691406 1793.730469 1656.089844 1799.679688 1667.109375 1800.558594 C 1686.160156 1771.019531 1627.988281 1743.53125 1619.648438 1773.148438 "/>
<path fill-rule="evenodd" fill="rgb(90.039062%, 66.992188%, 16.992188%)" fill-opacity="1" d="M 1630.070312 1768.621094 C 1632.238281 1780.738281 1640.011719 1786.050781 1653.269531 1790.230469 C 1677.339844 1797.820312 1657.839844 1753.949219 1630.070312 1768.621094 "/>
<path fill-rule="evenodd" fill="rgb(25%, 16.992188%, 12.010193%)" fill-opacity="1" d="M 1479.941406 948.941406 C 1495.460938 947.101562 1485.441406 953.269531 1493.109375 938.351562 C 1497.140625 930.511719 1496.308594 932.46875 1500.96875 926.460938 L 1475.089844 920.691406 L 1476.519531 941.800781 C 1478.410156 949.371094 1476.171875 943.789062 1479.941406 948.941406 "/>
<path fill-rule="evenodd" fill="rgb(4.998779%, 2.999878%, 1.997375%)" fill-opacity="1" d="M 1374.769531 966.691406 C 1382.671875 975.21875 1382.558594 969.851562 1388.871094 977.910156 C 1394.960938 985.691406 1390.550781 985.53125 1400.53125 991.171875 C 1402.191406 973.71875 1399.050781 963.128906 1386.359375 956.910156 C 1376.488281 960.558594 1379.210938 958.398438 1374.769531 966.691406 "/>
<path fill-rule="evenodd" fill="rgb(98.046875%, 98.046875%, 98.046875%)" fill-opacity="1" d="M 1546.390625 986.28125 C 1563.210938 983.300781 1563.390625 974.710938 1547.46875 972 L 1546.390625 986.28125 "/>
<path fill-rule="evenodd" fill="rgb(96.09375%, 96.09375%, 96.09375%)" fill-opacity="1" d="M 1435.308594 948.21875 C 1440.710938 947.761719 1451.539062 947.910156 1443.609375 939.679688 C 1437.621094 933.460938 1435.339844 940.960938 1435.308594 948.21875 "/>
</svg>
