<?xml version="1.0" encoding="UTF-8"?>
<svg xmlns="http://www.w3.org/2000/svg" xmlns:xlink="http://www.w3.org/1999/xlink" width="2836" height="2835" viewBox="0 0 2836 2835">
<path fill-rule="evenodd" fill="rgb(100%, 100%, 100%)" fill-opacity="1" d="M 1 0.351562 L 2835.640625 0.351562 L 2835.640625 2835 L 1 2835 L 1 0.351562 "/>
<path fill-rule="evenodd" fill="rgb(2.999878%, 1.997375%, 1.997375%)" fill-opacity="1" d="M 1401.699219 2274.15625 C 1406.199219 2251.285156 1418.691406 2260.933594 1474.339844 2246.003906 C 1502.949219 2238.324219 1526.929688 2227.910156 1551.609375 2221.613281 C 1558.039062 2231.4375 1562.949219 2246.550781 1565.308594 2260.425781 C 1514.578125 2271.269531 1505.171875 2275.558594 1449.199219 2279.230469 C 1432.078125 2280.351562 1415.210938 2283.519531 1401.699219 2274.15625 Z M 1621.179688 2241.796875 C 1618.988281 2189.824219 1668.621094 2185.136719 1688.441406 2216.859375 C 1668.96875 2225.285156 1644.199219 2239.804688 1621.179688 2241.796875 Z M 1281.460938 2323.671875 C 1308.25 2196.8125 1266.53125 2205.898438 1287.121094 2189.324219 C 1291.261719 2185.992188 1305.460938 2185.164062 1312.230469 2186.382812 C 1332.140625 2189.96875 1341.988281 2200.285156 1350.121094 2215.492188 C 1393.109375 2295.902344 1358.019531 2396.328125 1281.460938 2323.671875 Z M 1190.601562 2173.394531 C 1261.238281 2162.082031 1281.410156 2296.773438 1233.75 2324.269531 C 1207.96875 2339.136719 1186.980469 2331.839844 1170.511719 2319.742188 C 1174.519531 2299.894531 1191.449219 2292.355469 1196.570312 2255.738281 C 1201.578125 2219.957031 1193.480469 2202.226562 1190.601562 2173.394531 Z M 1099.769531 2137.546875 C 1146.640625 2147.765625 1171.300781 2186.933594 1164.71875 2246.367188 C 1157.578125 2310.835938 1097.898438 2316.390625 1072.300781 2265.1875 C 1077.710938 2248.6875 1092.378906 2237.785156 1100.671875 2213.914062 C 1111.539062 2182.609375 1104.148438 2167.371094 1099.769531 2137.546875 Z M 953.636719 2098.148438 C 992.152344 2079.453125 1022.660156 2069.273438 1050.398438 2105.648438 C 1070.289062 2131.742188 1081.621094 2180.257812 1061.339844 2214.957031 C 1034.859375 2260.273438 951.183594 2247.78125 969.492188 2148.949219 C 976.339844 2111.972656 971.789062 2133.453125 956.398438 2104.859375 Z M 1056.03125 2067.089844 L 1079.238281 2044.671875 C 1093.550781 2056.609375 1124.628906 2091.371094 1128.390625 2110.601562 C 1077.429688 2103.710938 1087.679688 2109.652344 1071.621094 2089.441406 Z M 1235.621094 2025.605469 C 1289.230469 2032.683594 1352.019531 2042.882812 1410.929688 2028.695312 C 1431.648438 2023.707031 1442.980469 2014.050781 1458.109375 2010.179688 C 1478.679688 2031.15625 1466.53125 2029.671875 1473.449219 2056.464844 C 1476.421875 2067.945312 1532.210938 2157.300781 1536.980469 2188.628906 C 1508.480469 2203.800781 1426.859375 2222.460938 1389.878906 2224.550781 C 1358.421875 2143.335938 1325.859375 2175.871094 1304.679688 2135.054688 C 1284.058594 2095.332031 1277.011719 2086.773438 1253.941406 2055.144531 C 1247.609375 2046.460938 1241.261719 2033.503906 1235.621094 2025.605469 Z M 1103.761719 2026.578125 C 1118.898438 2014.785156 1139.828125 1998.980469 1161.011719 1992.734375 C 1168.761719 1993.554688 1191.820312 2021.246094 1196.75 2026.972656 C 1222.800781 2057.214844 1267.308594 2112.40625 1278.800781 2152.617188 C 1239.46875 2186.15625 1274.410156 2135.128906 1174.511719 2141.984375 C 1150.46875 2100.824219 1165.109375 2110.699219 1123.820312 2054.710938 C 1117.851562 2046.609375 1110.710938 2035.738281 1103.761719 2026.578125 Z M 1485.109375 1931.246094 C 1526.050781 1953.980469 1639.941406 2112.785156 1660.609375 2161.621094 C 1625.128906 2181.984375 1607.058594 2162.386719 1594.878906 2220.875 C 1592.300781 2233.28125 1597.078125 2215.214844 1593.191406 2228.703125 C 1588.621094 2244.507812 1592.46875 2234.226562 1588.648438 2239.90625 C 1579.351562 2227.820312 1580.851562 2224.589844 1574.519531 2207.542969 C 1569.648438 2194.460938 1565.171875 2185.355469 1559.628906 2172.6875 C 1545.429688 2140.203125 1500.359375 2058.394531 1498.691406 2044.34375 C 1494.070312 2005.566406 1496.308594 1995.246094 1465.769531 1978.945312 C 1465.699219 1947.390625 1461.878906 1943.910156 1485.109375 1931.246094 Z M 1034.789062 1770 L 1057.25 1757.589844 C 1077.941406 1776.230469 1102.640625 1808.300781 1120.371094 1842.015625 C 1125.53125 1851.824219 1140.789062 1886.359375 1141.109375 1892.578125 C 1142.03125 1910.535156 1123.03125 1923.167969 1101.421875 1919.820312 L 1103.839844 1879.875 C 1086.238281 1887.25 1082.710938 1908.019531 1065.378906 1917.660156 C 1046.980469 1927.902344 1012.980469 1923.328125 1007.5 1903.984375 C 1001.671875 1883.382812 1024.289062 1863.546875 1031.058594 1847.171875 C 1041.960938 1820.808594 1036.140625 1799.070312 1034.789062 1770 Z M 1296.878906 1784.871094 C 1314.578125 1783.988281 1382.609375 1786.449219 1399.578125 1789.019531 C 1413.398438 1791.109375 1422.621094 1802 1425 1816.160156 C 1427.808594 1832.890625 1418.21875 1845.550781 1407.808594 1854.835938 C 1352.121094 1904.46875 1293.628906 1834.988281 1296.878906 1784.871094 Z M 1286.378906 1747.488281 C 1303.570312 1724.578125 1362.238281 1741.238281 1408.449219 1741.070312 C 1432.921875 1740.96875 1442.878906 1736.140625 1455.140625 1747.488281 C 1448.148438 1765.289062 1446.929688 1762.730469 1422.378906 1763.210938 L 1323.078125 1759.511719 C 1294.738281 1756.230469 1295.828125 1757.890625 1286.378906 1747.488281 Z M 1722.980469 2196.777344 C 1690 2123.636719 1667.390625 2098.710938 1721.378906 2028.738281 C 1785.910156 1945.117188 1856.101562 1845.246094 1920.929688 1764.699219 C 2006.839844 1657.96875 1961.179688 1711.609375 2023.011719 1690.988281 C 2030.199219 1688.589844 2036.308594 1685.441406 2041.371094 1682.710938 L 2063.589844 1670.328125 C 2059.949219 1829.460938 1961.839844 2007.472656 1850.058594 2107.917969 C 1827.960938 2127.78125 1755.78125 2185.492188 1722.980469 2196.777344 Z M 1651.671875 2071.355469 C 1627.121094 2045.050781 1607.230469 2011.535156 1584.71875 1985.617188 L 1508.710938 1905.039062 L 1561.921875 1806.359375 C 1588.140625 1767.769531 1658.550781 1682.128906 1694.511719 1632.851562 C 1708.378906 1613.839844 1745.898438 1553.75 1764.199219 1543.890625 C 1793.078125 1574.480469 1809.96875 1595.109375 1840.480469 1621.691406 C 1883.671875 1659.320312 1901.921875 1661.910156 1934.179688 1684.46875 C 1928.511719 1699.558594 1882.648438 1754.839844 1864 1779.691406 C 1840.46875 1811.058594 1815.269531 1842.0625 1792.351562 1874.679688 C 1769.648438 1906.972656 1744.578125 1940.535156 1722 1970.828125 C 1696.601562 2004.894531 1676.191406 2036.835938 1651.671875 2071.355469 Z M 1001.730469 1783.5 C 1017.988281 1869.796875 936.289062 1902.730469 987.804688 1943.152344 C 1013.539062 1963.347656 1037.449219 1957.882812 1068.039062 1951.574219 C 1091.101562 1946.824219 1097.351562 1954.988281 1120.359375 1950.90625 C 1137.949219 1947.785156 1143.039062 1938.769531 1155.609375 1932.191406 L 1160.46875 1954.035156 C 1120.378906 1972.421875 1081.53125 1994.652344 1050.011719 2019.0625 C 1042.078125 2025.199219 1033.621094 2033.640625 1025.550781 2039.679688 C 994.464844 2062.929688 1020.558594 2024.582031 922.433594 2073.535156 C 869.914062 2040.0625 794.753906 1897.4375 772.097656 1830.449219 C 754.914062 1779.640625 743.3125 1727.539062 739.164062 1671.140625 C 736.128906 1629.828125 736.1875 1521.070312 751.378906 1487.550781 L 783.277344 1504.851562 C 775.046875 1558.109375 746.269531 1618.570312 817.859375 1703.511719 C 836.472656 1725.589844 859.265625 1745.238281 891.3125 1760.828125 C 905.742188 1767.851562 922.398438 1772.519531 938.515625 1775.328125 C 962.609375 1779.53125 977.359375 1775.300781 993.871094 1780.078125 Z M 926.933594 1365.980469 C 944.921875 1383.980469 962.40625 1425.109375 1008.761719 1445.539062 C 1036.019531 1457.558594 1045.808594 1453.679688 1049.511719 1486.320312 C 1058.449219 1565.179688 1003.539062 1580.398438 935.863281 1481.910156 C 909.703125 1443.839844 900.394531 1415.519531 926.933594 1365.980469 Z M 1374.21875 1254.910156 C 1385.769531 1258.699219 1386.960938 1254.390625 1390.789062 1266.648438 C 1394.730469 1279.269531 1388.371094 1280.910156 1386.078125 1284.738281 C 1370.210938 1278.058594 1370.96875 1274.109375 1374.21875 1254.910156 Z M 1353.648438 1243.511719 C 1354.910156 1202.390625 1387.96875 1196.480469 1409.609375 1228.75 C 1418.761719 1242.398438 1427.550781 1255.441406 1417.589844 1269.648438 C 1403.808594 1264.25 1416.261719 1274.621094 1404.691406 1256.351562 C 1390.871094 1234.488281 1381.140625 1226.058594 1353.648438 1243.511719 Z M 2214.351562 1296.339844 C 2204.371094 1288.761719 2184.121094 1264.191406 2179.621094 1252.328125 C 2194 1235.238281 2324.769531 1133.46875 2356.289062 1177.878906 C 2366.339844 1192.03125 2360.429688 1217.480469 2351.421875 1227.171875 C 2343.199219 1236 2315.679688 1241.179688 2303.109375 1246.308594 C 2262.449219 1262.898438 2244.589844 1279.839844 2214.351562 1296.339844 Z M 1352.320312 1213.621094 C 1348.96875 1174.808594 1383.859375 1150.859375 1412.761719 1176.039062 C 1424.160156 1185.96875 1452.960938 1233.628906 1444.601562 1255.328125 C 1411 1260.261719 1442.261719 1243.730469 1404.679688 1211.089844 C 1386.851562 1195.589844 1363.371094 1197.519531 1352.320312 1213.621094 Z M 2160.328125 1229.761719 C 2152.21875 1223.519531 2116.351562 1189.148438 2108.941406 1180.308594 C 2146.289062 1123.039062 2326.621094 1034.839844 2315.460938 1121.808594 C 2311.839844 1149.980469 2307.171875 1128.058594 2244.078125 1165.128906 C 2206.851562 1187.011719 2188.519531 1208.449219 2160.328125 1229.761719 Z M 1184.230469 1117.269531 C 1208.101562 1100.730469 1276 1091.261719 1311.511719 1093.011719 L 1315.511719 1137.621094 C 1326.910156 1133.800781 1373.148438 1040.171875 1420.191406 1119.429688 C 1430.300781 1112.789062 1424.101562 1084.609375 1438.941406 1127.160156 C 1446.460938 1148.738281 1477.398438 1233.691406 1471.609375 1246.480469 C 1454.390625 1234.140625 1464.941406 1209.910156 1435.269531 1176.160156 C 1420.53125 1159.390625 1391.960938 1132.339844 1360.078125 1154.140625 C 1307.589844 1190.019531 1343.230469 1268.898438 1359.320312 1315.351562 C 1350.160156 1331.980469 1338.378906 1338.039062 1332.339844 1360.359375 L 1363.058594 1375.539062 C 1387.171875 1348.730469 1413.359375 1286.328125 1510.539062 1273.378906 C 1663.769531 1252.980469 1689.839844 1490.21875 1541.171875 1542.410156 C 1505.949219 1554.761719 1468.320312 1561.21875 1428.730469 1552 C 1379.171875 1540.460938 1365.25 1517.171875 1345.570312 1510.46875 C 1308.441406 1541.691406 1324.601562 1535.21875 1332.539062 1549.609375 C 1220.578125 1543.660156 1186.5 1492 1147.328125 1482.628906 C 1108.738281 1540.921875 1103.53125 1648.269531 1174.78125 1711.28125 C 1229 1759.21875 1246.820312 1708.53125 1261 1769.800781 C 1302 1946.914062 1415.148438 1921.621094 1454.53125 1811.339844 C 1460.171875 1795.550781 1466.5 1773.199219 1470.578125 1755.828125 C 1481.28125 1710.191406 1489.820312 1739.210938 1499.910156 1706.019531 C 1448.609375 1715.480469 1430.449219 1718.210938 1374.710938 1713.488281 C 1378.378906 1699.03125 1406.179688 1697.230469 1430.691406 1639.269531 C 1448.769531 1655.488281 1452.160156 1673.390625 1472.441406 1688.058594 C 1502.691406 1709.949219 1510.808594 1702.378906 1549.949219 1704.921875 C 1541.421875 1775.570312 1501.460938 1882.703125 1444.851562 1923.320312 C 1415.460938 1944.40625 1379.101562 1937.972656 1359.898438 1950.054688 L 1359.820312 1972.300781 C 1387.460938 1975.578125 1410.671875 1964.695312 1434.089844 1964.484375 C 1433.648438 1998.585938 1424.160156 1999.011719 1390.988281 2005.15625 C 1363.5 2010.25 1333.511719 2010.371094 1304.878906 2008.410156 C 1190.441406 2000.570312 1204.070312 1983.703125 1191.949219 1941.546875 C 1172.449219 1873.738281 1109.410156 1745.679688 1057.480469 1719.28125 C 1017.878906 1743.710938 981.617188 1761.210938 920.332031 1740.621094 C 793.574219 1698.019531 754.203125 1499.28125 872.960938 1490.761719 C 914.691406 1487.761719 914.777344 1495.550781 933.460938 1520.488281 C 1039.75 1662.359375 1120.589844 1535.511719 1075.898438 1454.609375 C 1049.96875 1407.671875 1022.851562 1443.269531 977.324219 1381.96875 C 946.011719 1339.800781 930.5 1307.410156 967.449219 1261.398438 C 1032.960938 1276.988281 1028.839844 1257.429688 1048.609375 1258.078125 C 1069.421875 1258.769531 1046.171875 1261.238281 1070 1266.25 C 1085.328125 1111.621094 1192.539062 1164.488281 1218.550781 1165.789062 C 1210.050781 1143.050781 1201.648438 1143.058594 1192.089844 1131.398438 C 1181.140625 1118.058594 1188.039062 1124.21875 1184.230469 1117.269531 Z M 1773.609375 1378.898438 C 1749.101562 1392.480469 1729.96875 1433.210938 1736.300781 1477.441406 C 1741.910156 1516.660156 1744.160156 1500.789062 1699.699219 1566.03125 L 1586.28125 1722.539062 C 1582.300781 1658.660156 1627.640625 1686.589844 1644.871094 1597.351562 C 1651.148438 1564.769531 1640.480469 1525.820312 1643.921875 1510.359375 C 1645.648438 1502.640625 1721.089844 1400.460938 1646 1294.050781 C 1616.859375 1252.75 1579.980469 1237.898438 1509.339844 1237.300781 C 1495.988281 1193.46875 1462.109375 1113.640625 1474.859375 1093.890625 C 1499.078125 1056.359375 1535.550781 1018.648438 1550.859375 971.738281 C 1619.859375 980.398438 1729.128906 1032.789062 1786.820312 1076.230469 L 1802.691406 1091.621094 C 1698.898438 1071.679688 1663.398438 1131.199219 1700.089844 1199.558594 C 1716.660156 1230.410156 1730.988281 1247.890625 1752.308594 1273.210938 C 1773.328125 1298.179688 1771.21875 1325.019531 1773.609375 1378.898438 Z M 2079.308594 1157.398438 C 2061.300781 1155.980469 2059.878906 1149.980469 2037.050781 1147.898438 C 2046.589844 1164.890625 2051.109375 1163.238281 2063.46875 1173.679688 C 2073.300781 1181.988281 2079.820312 1189.730469 2088.929688 1197.648438 L 2186.371094 1298.359375 C 2198.910156 1312.878906 2217.660156 1342.96875 2240.160156 1347.210938 L 2232.210938 1324.21875 C 2268.511719 1302.429688 2340.800781 1243.648438 2394.589844 1282.621094 C 2397.851562 1337.609375 2319.78125 1391.289062 2277.75 1414.890625 C 2245.300781 1433.109375 2253.699219 1426.328125 2234.160156 1456.75 C 2191 1523.921875 2128.449219 1573.089844 2013.140625 1573.558594 C 2018.679688 1594.179688 2033.71875 1587.578125 2050.160156 1603.441406 C 2041.121094 1707 1881.820312 1638.390625 1796.359375 1521.800781 C 1773.738281 1490.941406 1760.699219 1444.71875 1791.210938 1419.519531 C 1810.421875 1439.269531 1822.539062 1464.5 1859.828125 1469.46875 C 1851.910156 1442 1832.039062 1418.878906 1821.109375 1388.730469 C 1809.011719 1355.359375 1811.289062 1308.910156 1802.769531 1286.039062 C 1790.109375 1252.019531 1692.949219 1176.800781 1733.761719 1131.941406 C 1753.339844 1110.421875 1796.199219 1118.191406 1819.699219 1133.910156 C 1842.371094 1149.078125 1863.898438 1173.898438 1879.019531 1196.101562 C 1905.371094 1234.789062 1917.261719 1198.488281 1997.179688 1289.371094 C 2007.480469 1301.089844 2000.398438 1298.050781 2016.078125 1303.5 C 2010.558594 1265.710938 1987.738281 1229.921875 1958.230469 1211.300781 L 1924.601562 1193.808594 C 1951.210938 1137.390625 2063.828125 964.390625 2133.308594 978.199219 C 2149.128906 1012.699219 2140.230469 1041.601562 2123.648438 1075.980469 C 2112.820312 1098.429688 2093.871094 1142.441406 2079.308594 1157.398438 Z M 1233.21875 869.648438 C 1213.089844 886.230469 1198.691406 897.589844 1181.789062 912.988281 C 1167.640625 925.871094 1151.429688 944.199219 1134.289062 960.570312 C 1117.609375 972.679688 1115.289062 984.519531 1097.988281 992.679688 C 1039.230469 955.941406 1012.429688 860.359375 1075.46875 802.359375 C 1142 741.171875 1242.878906 785.628906 1253.558594 852.660156 Z M 1317.761719 1061.578125 L 1229.050781 1069.78125 C 1241.28125 1030.269531 1386.808594 915.230469 1393.578125 902.890625 C 1321.761719 905.128906 1154.078125 1102.828125 1152.011719 1103.671875 C 1133.050781 1111.328125 1042.308594 1075.558594 1042.738281 1215.789062 C 1027.039062 1223.75 1009.058594 1232.46875 983.472656 1227.089844 C 991.171875 1174.261719 1114.890625 1027.480469 1149.648438 993.390625 C 1218.28125 926.070312 1293.851562 860.109375 1379.199219 817.828125 C 1512.71875 751.699219 1607.261719 779.261719 1517.578125 955.941406 C 1499.988281 990.570312 1482.238281 1017.371094 1461.039062 1048.128906 C 1453.050781 1059.71875 1447.96875 1075.390625 1428.511719 1067.238281 C 1411.410156 1060.078125 1419.039062 1023.910156 1376.480469 1020.160156 C 1340.160156 1016.960938 1331.480469 1043.230469 1317.761719 1061.578125 Z M 773.886719 1282.019531 C 778.785156 1274.660156 790.902344 1170.230469 794.238281 1151.671875 C 801.984375 1108.601562 811.019531 1071.339844 824.039062 1032.578125 C 849.839844 955.78125 879.28125 894.609375 924.902344 831.839844 C 995.546875 734.660156 1122.128906 664.71875 1227.671875 740.011719 C 1250.070312 756 1286.25 791.699219 1296.140625 821.238281 L 1269.039062 837.738281 C 1243.671875 800.128906 1232.371094 774.058594 1182.621094 762.53125 C 1048.308594 731.410156 953.214844 898.769531 1083.820312 1009.25 C 1080.660156 1021.371094 1027.011719 1087.191406 1014.191406 1105.589844 C 991.265625 1138.5 972.367188 1172.78125 952.929688 1210.710938 C 887.007812 1339.320312 899.800781 1354.210938 865.9375 1456.609375 C 815.234375 1460.429688 817.351562 1487.898438 785.921875 1465.371094 C 762.230469 1448.378906 746.253906 1430.921875 732.683594 1406.191406 C 701.492188 1349.339844 718.929688 1281.429688 760.382812 1249.25 C 768.199219 1264.988281 761.558594 1268.519531 773.886719 1282.019531 Z M 760.804688 1212.320312 C 687.359375 1246.238281 665.546875 1329.96875 695.722656 1407.210938 C 708.152344 1439.039062 722.539062 1436.511719 713.664062 1480.269531 C 689.59375 1598.941406 697.824219 1714.308594 730.363281 1822.460938 C 767.875 1947.125 831.871094 2039.320312 911.492188 2118.640625 C 940.65625 2147.695312 934.726562 2135.6875 937.285156 2187.671875 C 940.371094 2250.277344 979.039062 2272.09375 1042.449219 2275.222656 C 1059.078125 2318.085938 1082.640625 2330.5625 1138.5 2329.25 C 1194.121094 2387.261719 1195.648438 2359.1875 1260.039062 2351.230469 C 1309.5 2395.992188 1380.949219 2387.238281 1399.070312 2318.859375 C 1461.03125 2313.703125 1497.578125 2313.964844 1557.25 2301.0625 C 1687.890625 2272.820312 1815.378906 2197.9375 1901.71875 2110.128906 C 1929.191406 2082.183594 1956.929688 2048.679688 1980.859375 2013.734375 C 2034.289062 1935.675781 2067.578125 1858.148438 2089 1761.738281 C 2102.359375 1701.621094 2096.941406 1656.578125 2104.890625 1597.429688 C 2157.5 1576.75 2169.960938 1579.71875 2219.21875 1531.710938 C 2289.308594 1463.390625 2230.171875 1481 2307.398438 1435.261719 C 2361.71875 1403.078125 2429.820312 1357.011719 2432.050781 1288.300781 C 2433.410156 1246.601562 2413.96875 1247.820312 2393.921875 1229.820312 C 2407.71875 1143.148438 2385.480469 1148.71875 2354.300781 1130.789062 C 2351.46875 1071.550781 2344.519531 1044.839844 2273.378906 1050.390625 C 2221.449219 1054.441406 2194.328125 1079.21875 2158.449219 1092.160156 C 2162.921875 1058.25 2193.589844 1010.921875 2171.589844 966.390625 C 2148.71875 920.101562 2092.210938 941.191406 2060.460938 963.308594 C 1984.570312 1016.179688 1934.050781 1111.019531 1912.75 1131.230469 C 1880.089844 1114.328125 1776.289062 982.371094 1570.230469 937.121094 C 1574.300781 896.730469 1629.96875 786.070312 1531.761719 755.941406 C 1445.890625 729.601562 1372.699219 788.429688 1332.058594 798.101562 C 1304.691406 772.71875 1265.96875 683.351562 1152.21875 670.660156 C 978.875 651.328125 866.652344 815.980469 814.246094 955.179688 C 782.753906 1038.828125 767.433594 1114.648438 760.804688 1212.320312 "/>
<path fill-rule="evenodd" fill="rgb(93.943787%, 80.076599%, 68.943787%)" fill-opacity="1" d="M 849.46875 1600.980469 C 860.058594 1482.578125 1017.238281 1583.691406 1008.148438 1685.371094 C 997.519531 1678.179688 1004.769531 1685.148438 996.929688 1672.949219 C 993.296875 1667.289062 991.835938 1662.851562 989.320312 1658.058594 C 984.421875 1648.699219 979.128906 1637.828125 969.242188 1633.460938 C 941.828125 1621.320312 920.671875 1641.800781 901.730469 1643 C 906.859375 1614.949219 923.355469 1617.339844 947.945312 1607.941406 C 937.847656 1596.640625 924.125 1582.050781 902.3125 1577.839844 C 868.808594 1571.371094 870.730469 1590.589844 849.46875 1600.980469 Z M 1155.601562 1205.410156 C 1272.148438 1159 1350.261719 1421.328125 1252.820312 1452.058594 C 1135.75 1488.96875 1058.359375 1244.128906 1155.601562 1205.410156 Z M 1510.539062 1273.378906 C 1413.359375 1286.328125 1387.171875 1348.730469 1363.058594 1375.539062 L 1332.339844 1360.359375 C 1338.378906 1338.039062 1350.160156 1331.980469 1359.320312 1315.351562 C 1343.230469 1268.898438 1307.589844 1190.019531 1360.078125 1154.140625 C 1391.960938 1132.339844 1420.53125 1159.390625 1435.269531 1176.160156 C 1464.941406 1209.910156 1454.390625 1234.140625 1471.609375 1246.480469 C 1477.398438 1233.691406 1446.460938 1148.738281 1438.941406 1127.160156 C 1424.101562 1084.609375 1430.300781 1112.789062 1420.191406 1119.429688 C 1373.148438 1040.171875 1326.910156 1133.800781 1315.511719 1137.621094 L 1311.511719 1093.011719 C 1276 1091.261719 1208.101562 1100.730469 1184.230469 1117.269531 C 1188.039062 1124.21875 1181.140625 1118.058594 1192.089844 1131.398438 C 1201.648438 1143.058594 1210.050781 1143.050781 1218.550781 1165.789062 C 1192.539062 1164.488281 1085.328125 1111.621094 1070 1266.25 C 1046.171875 1261.238281 1069.421875 1258.769531 1048.609375 1258.078125 C 1028.839844 1257.429688 1032.960938 1276.988281 967.449219 1261.398438 C 930.5 1307.410156 946.011719 1339.800781 977.324219 1381.96875 C 1022.851562 1443.269531 1049.96875 1407.671875 1075.898438 1454.609375 C 1120.589844 1535.511719 1039.75 1662.359375 933.460938 1520.488281 C 914.777344 1495.550781 914.691406 1487.761719 872.960938 1490.761719 C 754.203125 1499.28125 793.574219 1698.019531 920.332031 1740.621094 C 981.617188 1761.210938 1017.878906 1743.710938 1057.480469 1719.28125 C 1109.410156 1745.679688 1172.449219 1873.738281 1191.949219 1941.546875 C 1204.070312 1983.703125 1190.441406 2000.570312 1304.878906 2008.410156 C 1333.511719 2010.371094 1363.5 2010.25 1390.988281 2005.15625 C 1424.160156 1999.011719 1433.648438 1998.585938 1434.089844 1964.484375 C 1410.671875 1964.695312 1387.460938 1975.578125 1359.820312 1972.300781 L 1359.898438 1950.054688 C 1379.101562 1937.972656 1415.460938 1944.40625 1444.851562 1923.320312 C 1501.460938 1882.703125 1541.421875 1775.570312 1549.949219 1704.921875 C 1510.808594 1702.378906 1502.691406 1709.949219 1472.441406 1688.058594 C 1452.160156 1673.390625 1448.769531 1655.488281 1430.691406 1639.269531 C 1406.179688 1697.230469 1378.378906 1699.03125 1374.710938 1713.488281 C 1430.449219 1718.210938 1448.609375 1715.480469 1499.910156 1706.019531 C 1489.820312 1739.210938 1481.28125 1710.191406 1470.578125 1755.828125 C 1466.5 1773.199219 1460.171875 1795.550781 1454.53125 1811.339844 C 1415.148438 1921.621094 1302 1946.914062 1261 1769.800781 C 1246.820312 1708.53125 1229 1759.21875 1174.78125 1711.28125 C 1103.53125 1648.269531 1108.738281 1540.921875 1147.328125 1482.628906 C 1186.5 1492 1220.578125 1543.660156 1332.539062 1549.609375 C 1324.601562 1535.21875 1308.441406 1541.691406 1345.570312 1510.46875 C 1365.25 1517.171875 1379.171875 1540.460938 1428.730469 1552 C 1468.320312 1561.21875 1505.949219 1554.761719 1541.171875 1542.410156 C 1689.839844 1490.21875 1663.769531 1252.980469 1510.539062 1273.378906 "/>
<path fill-rule="evenodd" fill="rgb(99.021912%, 99.021912%, 99.021912%)" fill-opacity="1" d="M 2079.308594 1157.398438 C 2093.871094 1142.441406 2112.820312 1098.429688 2123.648438 1075.980469 C 2140.230469 1041.601562 2149.128906 1012.699219 2133.308594 978.199219 C 2063.828125 964.390625 1951.210938 1137.390625 1924.601562 1193.808594 L 1958.230469 1211.300781 C 1987.738281 1229.921875 2010.558594 1265.710938 2016.078125 1303.5 C 2000.398438 1298.050781 2007.480469 1301.089844 1997.179688 1289.371094 C 1917.261719 1198.488281 1905.371094 1234.789062 1879.019531 1196.101562 C 1863.898438 1173.898438 1842.371094 1149.078125 1819.699219 1133.910156 C 1796.199219 1118.191406 1753.339844 1110.421875 1733.761719 1131.941406 C 1692.949219 1176.800781 1790.109375 1252.019531 1802.769531 1286.039062 C 1811.289062 1308.910156 1809.011719 1355.359375 1821.109375 1388.730469 C 1832.039062 1418.878906 1851.910156 1442 1859.828125 1469.46875 C 1822.539062 1464.5 1810.421875 1439.269531 1791.210938 1419.519531 C 1760.699219 1444.71875 1773.738281 1490.941406 1796.359375 1521.800781 C 1881.820312 1638.390625 2041.121094 1707 2050.160156 1603.441406 C 2033.71875 1587.578125 2018.679688 1594.179688 2013.140625 1573.558594 C 2128.449219 1573.089844 2191 1523.921875 2234.160156 1456.75 C 2253.699219 1426.328125 2245.300781 1433.109375 2277.75 1414.890625 C 2319.78125 1391.289062 2397.851562 1337.609375 2394.589844 1282.621094 C 2340.800781 1243.648438 2268.511719 1302.429688 2232.210938 1324.21875 L 2240.160156 1347.210938 C 2217.660156 1342.96875 2198.910156 1312.878906 2186.371094 1298.359375 L 2088.929688 1197.648438 C 2079.820312 1189.730469 2073.300781 1181.988281 2063.46875 1173.679688 C 2051.109375 1163.238281 2046.589844 1164.890625 2037.050781 1147.898438 C 2059.878906 1149.980469 2061.300781 1155.980469 2079.308594 1157.398438 "/>
<path fill-rule="evenodd" fill="rgb(37.988281%, 67.96875%, 33.006287%)" fill-opacity="1" d="M 773.886719 1282.019531 C 761.558594 1268.519531 768.199219 1264.988281 760.382812 1249.25 C 718.929688 1281.429688 701.492188 1349.339844 732.683594 1406.191406 C 746.253906 1430.921875 762.230469 1448.378906 785.921875 1465.371094 C 817.351562 1487.898438 815.234375 1460.429688 865.9375 1456.609375 C 899.800781 1354.210938 887.007812 1339.320312 952.929688 1210.710938 C 972.367188 1172.78125 991.265625 1138.5 1014.191406 1105.589844 C 1027.011719 1087.191406 1080.660156 1021.371094 1083.820312 1009.25 C 953.214844 898.769531 1048.308594 731.410156 1182.621094 762.53125 C 1232.371094 774.058594 1243.671875 800.128906 1269.039062 837.738281 L 1296.140625 821.238281 C 1286.25 791.699219 1250.070312 756 1227.671875 740.011719 C 1122.128906 664.71875 995.546875 734.660156 924.902344 831.839844 C 879.28125 894.609375 849.839844 955.78125 824.039062 1032.578125 C 811.019531 1071.339844 801.984375 1108.601562 794.238281 1151.671875 C 790.902344 1170.230469 778.785156 1274.660156 773.886719 1282.019531 "/>
<path fill-rule="evenodd" fill="rgb(37.988281%, 67.96875%, 33.006287%)" fill-opacity="1" d="M 1651.671875 2071.355469 C 1676.191406 2036.835938 1696.601562 2004.894531 1722 1970.828125 C 1744.578125 1940.535156 1769.648438 1906.972656 1792.351562 1874.679688 C 1815.269531 1842.0625 1840.46875 1811.058594 1864 1779.691406 C 1882.648438 1754.839844 1928.511719 1699.558594 1934.179688 1684.46875 C 1901.921875 1661.910156 1883.671875 1659.320312 1840.480469 1621.691406 C 1809.96875 1595.109375 1793.078125 1574.480469 1764.199219 1543.890625 C 1745.898438 1553.75 1708.378906 1613.839844 1694.511719 1632.851562 C 1658.550781 1682.128906 1588.140625 1767.769531 1561.921875 1806.359375 L 1508.710938 1905.039062 L 1584.71875 1985.617188 C 1607.230469 2011.535156 1627.121094 2045.050781 1651.671875 2071.355469 "/>
<path fill-rule="evenodd" fill="rgb(99.021912%, 99.021912%, 99.021912%)" fill-opacity="1" d="M 1773.609375 1378.898438 C 1771.21875 1325.019531 1773.328125 1298.179688 1752.308594 1273.210938 C 1730.988281 1247.890625 1716.660156 1230.410156 1700.089844 1199.558594 C 1663.398438 1131.199219 1698.898438 1071.679688 1802.691406 1091.621094 L 1786.820312 1076.230469 C 1729.128906 1032.789062 1619.859375 980.398438 1550.859375 971.738281 C 1535.550781 1018.648438 1499.078125 1056.359375 1474.859375 1093.890625 C 1462.109375 1113.640625 1495.988281 1193.46875 1509.339844 1237.300781 C 1579.980469 1237.898438 1616.859375 1252.75 1646 1294.050781 C 1721.089844 1400.460938 1645.648438 1502.640625 1643.921875 1510.359375 C 1640.480469 1525.820312 1651.148438 1564.769531 1644.871094 1597.351562 C 1627.640625 1686.589844 1582.300781 1658.660156 1586.28125 1722.539062 L 1699.699219 1566.03125 C 1744.160156 1500.789062 1741.910156 1516.660156 1736.300781 1477.441406 C 1729.96875 1433.210938 1749.101562 1392.480469 1773.609375 1378.898438 "/>
<path fill-rule="evenodd" fill="rgb(37.988281%, 66.992188%, 32.00531%)" fill-opacity="1" d="M 1317.761719 1061.578125 C 1331.480469 1043.230469 1340.160156 1016.960938 1376.480469 1020.160156 C 1419.039062 1023.910156 1411.410156 1060.078125 1428.511719 1067.238281 C 1447.96875 1075.390625 1453.050781 1059.71875 1461.039062 1048.128906 C 1482.238281 1017.371094 1499.988281 990.570312 1517.578125 955.941406 C 1607.261719 779.261719 1512.71875 751.699219 1379.199219 817.828125 C 1293.851562 860.109375 1218.28125 926.070312 1149.648438 993.390625 C 1114.890625 1027.480469 991.171875 1174.261719 983.472656 1227.089844 C 1009.058594 1232.46875 1027.039062 1223.75 1042.738281 1215.789062 C 1042.308594 1075.558594 1133.050781 1111.328125 1152.011719 1103.671875 C 1154.078125 1102.828125 1321.761719 905.128906 1393.578125 902.890625 C 1386.808594 915.230469 1241.28125 1030.269531 1229.050781 1069.78125 L 1317.761719 1061.578125 "/>
<path fill-rule="evenodd" fill="rgb(99.021912%, 99.021912%, 99.021912%)" fill-opacity="1" d="M 1722.980469 2196.777344 C 1755.78125 2185.492188 1827.960938 2127.78125 1850.058594 2107.917969 C 1961.839844 2007.472656 2059.949219 1829.460938 2063.589844 1670.328125 L 2041.371094 1682.710938 C 2036.308594 1685.441406 2030.199219 1688.589844 2023.011719 1690.988281 C 1961.179688 1711.609375 2006.839844 1657.96875 1920.929688 1764.699219 C 1856.101562 1845.246094 1785.910156 1945.117188 1721.378906 2028.738281 C 1667.390625 2098.710938 1690 2123.636719 1722.980469 2196.777344 "/>
<path fill-rule="evenodd" fill="rgb(99.021912%, 99.021912%, 99.021912%)" fill-opacity="1" d="M 993.871094 1780.078125 C 977.359375 1775.300781 962.609375 1779.53125 938.515625 1775.328125 C 922.398438 1772.519531 905.742188 1767.851562 891.3125 1760.828125 C 859.265625 1745.238281 836.472656 1725.589844 817.859375 1703.511719 C 746.269531 1618.570312 775.046875 1558.109375 783.277344 1504.851562 L 751.378906 1487.550781 C 736.1875 1521.070312 736.128906 1629.828125 739.164062 1671.140625 C 743.3125 1727.539062 754.914062 1779.640625 772.097656 1830.449219 C 794.753906 1897.4375 869.914062 2040.0625 922.433594 2073.535156 C 1020.558594 2024.582031 994.464844 2062.929688 1025.550781 2039.679688 C 1033.621094 2033.640625 1042.078125 2025.199219 1050.011719 2019.0625 C 1081.53125 1994.652344 1120.378906 1972.421875 1160.46875 1954.035156 L 1155.609375 1932.191406 C 1143.039062 1938.769531 1137.949219 1947.785156 1120.359375 1950.90625 C 1097.351562 1954.988281 1091.101562 1946.824219 1068.039062 1951.574219 C 1037.449219 1957.882812 1013.539062 1963.347656 987.804688 1943.152344 C 936.289062 1902.730469 1017.988281 1869.796875 1001.730469 1783.5 L 993.871094 1780.078125 "/>
<path fill-rule="evenodd" fill="rgb(37.988281%, 66.992188%, 32.00531%)" fill-opacity="1" d="M 1235.621094 2025.605469 C 1241.261719 2033.503906 1247.609375 2046.460938 1253.941406 2055.144531 C 1277.011719 2086.773438 1284.058594 2095.332031 1304.679688 2135.054688 C 1325.859375 2175.871094 1358.421875 2143.335938 1389.878906 2224.550781 C 1426.859375 2222.460938 1508.480469 2203.800781 1536.980469 2188.628906 C 1532.210938 2157.300781 1476.421875 2067.945312 1473.449219 2056.464844 C 1466.53125 2029.671875 1478.679688 2031.15625 1458.109375 2010.179688 C 1442.980469 2014.050781 1431.648438 2023.707031 1410.929688 2028.695312 C 1352.019531 2042.882812 1289.230469 2032.683594 1235.621094 2025.605469 "/>
<path fill-rule="evenodd" fill="rgb(3.999329%, 2.999878%, 3.999329%)" fill-opacity="1" d="M 1192.949219 1342.960938 C 1197.53125 1358.46875 1189.378906 1359.578125 1188.359375 1361.140625 C 1170.441406 1367.738281 1166.050781 1349.859375 1174.511719 1333.410156 C 1186.078125 1333.480469 1189.589844 1331.578125 1192.949219 1342.960938 Z M 1251.511719 1410.640625 C 1250.71875 1411.308594 1249.859375 1412.511719 1249.46875 1412.988281 C 1232.640625 1433.488281 1237.589844 1433.148438 1215.46875 1431.808594 C 1224.871094 1402.949219 1234.070312 1386.691406 1220.019531 1350.429688 C 1210.300781 1325.339844 1197.761719 1308.269531 1164.390625 1310.851562 L 1148.300781 1334.421875 C 1129.988281 1363.128906 1161.929688 1319.988281 1141.859375 1343.839844 C 1126.671875 1286.601562 1178.539062 1255.210938 1215.738281 1292.210938 C 1254.691406 1330.941406 1243.261719 1354.25 1251.511719 1410.640625 Z M 1251.511719 1410.640625 L 1254.910156 1403.96875 C 1258.25 1394.351562 1263.230469 1335.140625 1230.359375 1295.390625 C 1181.640625 1236.46875 1141.800781 1289.460938 1131.410156 1295.21875 C 1134.769531 1194.929688 1204.679688 1206.289062 1242.460938 1261.058594 C 1266.449219 1295.820312 1301.839844 1399.808594 1250.71875 1428.628906 Z M 1155.601562 1205.410156 C 1058.359375 1244.128906 1135.75 1488.96875 1252.820312 1452.058594 C 1350.261719 1421.328125 1272.148438 1159 1155.601562 1205.410156 "/>
<path fill-rule="evenodd" fill="rgb(22.996521%, 31.005859%, 53.90625%)" fill-opacity="1" d="M 1588.648438 2239.90625 C 1592.46875 2234.226562 1588.621094 2244.507812 1593.191406 2228.703125 C 1597.078125 2215.214844 1592.300781 2233.28125 1594.878906 2220.875 C 1607.058594 2162.386719 1625.128906 2181.984375 1660.609375 2161.621094 C 1639.941406 2112.785156 1526.050781 1953.980469 1485.109375 1931.246094 C 1461.878906 1943.910156 1465.699219 1947.390625 1465.769531 1978.945312 C 1496.308594 1995.246094 1494.070312 2005.566406 1498.691406 2044.34375 C 1500.359375 2058.394531 1545.429688 2140.203125 1559.628906 2172.6875 C 1565.171875 2185.355469 1569.648438 2194.460938 1574.519531 2207.542969 C 1580.851562 2224.589844 1579.351562 2227.820312 1588.648438 2239.90625 "/>
<path fill-rule="evenodd" fill="rgb(98.046875%, 98.046875%, 98.046875%)" fill-opacity="1" d="M 1134.289062 960.570312 C 1133.839844 924.671875 1080.570312 857.390625 1068.050781 824.691406 C 1080.230469 814.128906 1098.390625 802.320312 1116 802.351562 C 1133.171875 828.871094 1154.390625 871.550781 1163.53125 898.960938 C 1196.261719 891 1197.53125 867.621094 1233.21875 869.648438 L 1253.558594 852.660156 C 1242.878906 785.628906 1142 741.171875 1075.46875 802.359375 C 1012.429688 860.359375 1039.230469 955.941406 1097.988281 992.679688 C 1115.289062 984.519531 1117.609375 972.679688 1134.289062 960.570312 "/>
<path fill-rule="evenodd" fill="rgb(98.046875%, 98.046875%, 98.046875%)" fill-opacity="1" d="M 2160.328125 1229.761719 C 2188.519531 1208.449219 2206.851562 1187.011719 2244.078125 1165.128906 C 2307.171875 1128.058594 2311.839844 1149.980469 2315.460938 1121.808594 C 2326.621094 1034.839844 2146.289062 1123.039062 2108.941406 1180.308594 C 2116.351562 1189.148438 2152.21875 1223.519531 2160.328125 1229.761719 "/>
<path fill-rule="evenodd" fill="rgb(99.021912%, 99.021912%, 99.021912%)" fill-opacity="1" d="M 956.398438 2104.859375 C 971.789062 2133.453125 976.339844 2111.972656 969.492188 2148.949219 C 951.183594 2247.78125 1034.859375 2260.273438 1061.339844 2214.957031 C 1081.621094 2180.257812 1070.289062 2131.742188 1050.398438 2105.648438 C 1022.660156 2069.273438 992.152344 2079.453125 953.636719 2098.148438 L 956.398438 2104.859375 "/>
<path fill-rule="evenodd" fill="rgb(22.996521%, 31.005859%, 53.90625%)" fill-opacity="1" d="M 1103.761719 2026.578125 C 1110.710938 2035.738281 1117.851562 2046.609375 1123.820312 2054.710938 C 1165.109375 2110.699219 1150.46875 2100.824219 1174.511719 2141.984375 C 1274.410156 2135.128906 1239.46875 2186.15625 1278.800781 2152.617188 C 1267.308594 2112.40625 1222.800781 2057.214844 1196.75 2026.972656 C 1191.820312 2021.246094 1168.761719 1993.554688 1161.011719 1992.734375 C 1139.828125 1998.980469 1118.898438 2014.785156 1103.761719 2026.578125 "/>
<path fill-rule="evenodd" fill="rgb(46.99707%, 30.004883%, 21.99707%)" fill-opacity="1" d="M 926.933594 1365.980469 C 900.394531 1415.519531 909.703125 1443.839844 935.863281 1481.910156 C 1003.539062 1580.398438 1058.449219 1565.179688 1049.511719 1486.320312 C 1045.808594 1453.679688 1036.019531 1457.558594 1008.761719 1445.539062 C 962.40625 1425.109375 944.921875 1383.980469 926.933594 1365.980469 "/>
<path fill-rule="evenodd" fill="rgb(46.99707%, 30.004883%, 21.99707%)" fill-opacity="1" d="M 1034.789062 1770 C 1036.140625 1799.070312 1041.960938 1820.808594 1031.058594 1847.171875 C 1024.289062 1863.546875 1001.671875 1883.382812 1007.5 1903.984375 C 1012.980469 1923.328125 1046.980469 1927.902344 1065.378906 1917.660156 C 1082.710938 1908.019531 1086.238281 1887.25 1103.839844 1879.875 L 1101.421875 1919.820312 C 1123.03125 1923.167969 1142.03125 1910.535156 1141.109375 1892.578125 C 1140.789062 1886.359375 1125.53125 1851.824219 1120.371094 1842.015625 C 1102.640625 1808.300781 1077.941406 1776.230469 1057.25 1757.589844 L 1034.789062 1770 "/>
<path fill-rule="evenodd" fill="rgb(98.046875%, 98.046875%, 98.046875%)" fill-opacity="1" d="M 2214.351562 1296.339844 C 2244.589844 1279.839844 2262.449219 1262.898438 2303.109375 1246.308594 C 2315.679688 1241.179688 2343.199219 1236 2351.421875 1227.171875 C 2360.429688 1217.480469 2366.339844 1192.03125 2356.289062 1177.878906 C 2324.769531 1133.46875 2194 1235.238281 2179.621094 1252.328125 C 2184.121094 1264.191406 2204.371094 1288.761719 2214.351562 1296.339844 "/>
<path fill-rule="evenodd" fill="rgb(98.046875%, 98.046875%, 98.046875%)" fill-opacity="1" d="M 1312.230469 2186.382812 C 1305.460938 2185.164062 1291.261719 2185.992188 1287.121094 2189.324219 C 1266.53125 2205.898438 1308.25 2196.8125 1281.460938 2323.671875 C 1358.019531 2396.328125 1393.109375 2295.902344 1350.121094 2215.492188 C 1341.988281 2200.285156 1332.140625 2189.96875 1312.230469 2186.382812 "/>
<path fill-rule="evenodd" fill="rgb(98.046875%, 98.046875%, 98.046875%)" fill-opacity="1" d="M 1164.71875 2246.367188 C 1171.300781 2186.933594 1146.640625 2147.765625 1099.769531 2137.546875 C 1104.148438 2167.371094 1111.539062 2182.609375 1100.671875 2213.914062 C 1092.378906 2237.785156 1077.710938 2248.6875 1072.300781 2265.1875 C 1097.898438 2316.390625 1157.578125 2310.835938 1164.71875 2246.367188 "/>
<path fill-rule="evenodd" fill="rgb(98.046875%, 98.046875%, 98.046875%)" fill-opacity="1" d="M 1233.75 2324.269531 C 1281.410156 2296.773438 1261.238281 2162.082031 1190.601562 2173.394531 C 1193.480469 2202.226562 1201.578125 2219.957031 1196.570312 2255.738281 C 1191.449219 2292.355469 1174.519531 2299.894531 1170.511719 2319.742188 C 1186.980469 2331.839844 1207.96875 2339.136719 1233.75 2324.269531 "/>
<path fill-rule="evenodd" fill="rgb(77.929688%, 11.009216%, 16.992188%)" fill-opacity="1" d="M 1399.578125 1789.019531 C 1382.609375 1786.449219 1314.578125 1783.988281 1296.878906 1784.871094 C 1293.628906 1834.988281 1352.121094 1904.46875 1407.808594 1854.835938 C 1418.21875 1845.550781 1427.808594 1832.890625 1425 1816.160156 C 1422.621094 1802 1413.398438 1791.109375 1399.578125 1789.019531 "/>
<path fill-rule="evenodd" fill="rgb(37.988281%, 66.992188%, 32.00531%)" fill-opacity="1" d="M 1134.289062 960.570312 C 1151.429688 944.199219 1167.640625 925.871094 1181.789062 912.988281 C 1198.691406 897.589844 1213.089844 886.230469 1233.21875 869.648438 C 1197.53125 867.621094 1196.261719 891 1163.53125 898.960938 C 1154.390625 871.550781 1133.171875 828.871094 1116 802.351562 C 1098.390625 802.320312 1080.230469 814.128906 1068.050781 824.691406 C 1080.570312 857.390625 1133.839844 924.671875 1134.289062 960.570312 "/>
<path fill-rule="evenodd" fill="rgb(98.046875%, 98.046875%, 98.046875%)" fill-opacity="1" d="M 1251.511719 1410.640625 L 1250.71875 1428.628906 C 1301.839844 1399.808594 1266.449219 1295.820312 1242.460938 1261.058594 C 1204.679688 1206.289062 1134.769531 1194.929688 1131.410156 1295.21875 C 1141.800781 1289.460938 1181.640625 1236.46875 1230.359375 1295.390625 C 1263.230469 1335.140625 1258.25 1394.351562 1254.910156 1403.96875 L 1251.511719 1410.640625 "/>
<path fill-rule="evenodd" fill="rgb(3.999329%, 1.997375%, 2.999878%)" fill-opacity="1" d="M 849.46875 1600.980469 C 870.730469 1590.589844 868.808594 1571.371094 902.3125 1577.839844 C 924.125 1582.050781 937.847656 1596.640625 947.945312 1607.941406 C 923.355469 1617.339844 906.859375 1614.949219 901.730469 1643 C 920.671875 1641.800781 941.828125 1621.320312 969.242188 1633.460938 C 979.128906 1637.828125 984.421875 1648.699219 989.320312 1658.058594 C 991.835938 1662.851562 993.296875 1667.289062 996.929688 1672.949219 C 1004.769531 1685.148438 997.519531 1678.179688 1008.148438 1685.371094 C 1017.238281 1583.691406 860.058594 1482.578125 849.46875 1600.980469 "/>
<path fill-rule="evenodd" fill="rgb(42.993164%, 72.068787%, 84.959412%)" fill-opacity="1" d="M 1251.511719 1410.640625 C 1243.261719 1354.25 1254.691406 1330.941406 1215.738281 1292.210938 C 1178.539062 1255.210938 1126.671875 1286.601562 1141.859375 1343.839844 C 1161.929688 1319.988281 1129.988281 1363.128906 1148.300781 1334.421875 L 1164.390625 1310.851562 C 1197.761719 1308.269531 1210.300781 1325.339844 1220.019531 1350.429688 C 1234.070312 1386.691406 1224.871094 1402.949219 1215.46875 1431.808594 C 1237.589844 1433.148438 1232.640625 1433.488281 1249.46875 1412.988281 C 1249.859375 1412.511719 1250.71875 1411.308594 1251.511719 1410.640625 "/>
<path fill-rule="evenodd" fill="rgb(20.996094%, 30.004883%, 52.929688%)" fill-opacity="1" d="M 1401.699219 2274.15625 C 1415.210938 2283.519531 1432.078125 2280.351562 1449.199219 2279.230469 C 1505.171875 2275.558594 1514.578125 2271.269531 1565.308594 2260.425781 C 1562.949219 2246.550781 1558.039062 2231.4375 1551.609375 2221.613281 C 1526.929688 2227.910156 1502.949219 2238.324219 1474.339844 2246.003906 C 1418.691406 2260.933594 1406.199219 2251.285156 1401.699219 2274.15625 "/>
<path fill-rule="evenodd" fill="rgb(98.046875%, 98.046875%, 98.046875%)" fill-opacity="1" d="M 1422.378906 1763.210938 C 1446.929688 1762.730469 1448.148438 1765.289062 1455.140625 1747.488281 C 1442.878906 1736.140625 1432.921875 1740.96875 1408.449219 1741.070312 C 1362.238281 1741.238281 1303.570312 1724.578125 1286.378906 1747.488281 C 1295.828125 1757.890625 1294.738281 1756.230469 1323.078125 1759.511719 L 1422.378906 1763.210938 "/>
<path fill-rule="evenodd" fill="rgb(97.068787%, 98.046875%, 97.068787%)" fill-opacity="1" d="M 1352.320312 1213.621094 C 1363.371094 1197.519531 1386.851562 1195.589844 1404.679688 1211.089844 C 1442.261719 1243.730469 1411 1260.261719 1444.601562 1255.328125 C 1452.960938 1233.628906 1424.160156 1185.96875 1412.761719 1176.039062 C 1383.859375 1150.859375 1348.96875 1174.808594 1352.320312 1213.621094 "/>
<path fill-rule="evenodd" fill="rgb(37.010193%, 64.0625%, 36.009216%)" fill-opacity="1" d="M 1071.621094 2089.441406 C 1087.679688 2109.652344 1077.429688 2103.710938 1128.390625 2110.601562 C 1124.628906 2091.371094 1093.550781 2056.609375 1079.238281 2044.671875 L 1056.03125 2067.089844 L 1071.621094 2089.441406 "/>
<path fill-rule="evenodd" fill="rgb(84.959412%, 76.951599%, 23.997498%)" fill-opacity="1" d="M 1621.179688 2241.796875 C 1644.199219 2239.804688 1668.96875 2225.285156 1688.441406 2216.859375 C 1668.621094 2185.136719 1618.988281 2189.824219 1621.179688 2241.796875 "/>
<path fill-rule="evenodd" fill="rgb(46.99707%, 71.09375%, 81.054688%)" fill-opacity="1" d="M 1353.648438 1243.511719 C 1381.140625 1226.058594 1390.871094 1234.488281 1404.691406 1256.351562 C 1416.261719 1274.621094 1403.808594 1264.25 1417.589844 1269.648438 C 1427.550781 1255.441406 1418.761719 1242.398438 1409.609375 1228.75 C 1387.96875 1196.480469 1354.910156 1202.390625 1353.648438 1243.511719 "/>
<path fill-rule="evenodd" fill="rgb(94.921875%, 94.921875%, 94.921875%)" fill-opacity="1" d="M 1188.359375 1361.140625 C 1189.378906 1359.578125 1197.53125 1358.46875 1192.949219 1342.960938 C 1189.589844 1331.578125 1186.078125 1333.480469 1174.511719 1333.410156 C 1166.050781 1349.859375 1170.441406 1367.738281 1188.359375 1361.140625 "/>
<path fill-rule="evenodd" fill="rgb(94.921875%, 94.921875%, 94.921875%)" fill-opacity="1" d="M 1386.078125 1284.738281 C 1388.371094 1280.910156 1394.730469 1279.269531 1390.789062 1266.648438 C 1386.960938 1254.390625 1385.769531 1258.699219 1374.21875 1254.910156 C 1370.96875 1274.109375 1370.210938 1278.058594 1386.078125 1284.738281 "/>
</svg>
